<svg width="24" height="24" viewBox="0 0 24 24" fill="none" xmlns="http://www.w3.org/2000/svg">
<mask id="mask0_287_455" style="mask-type:alpha" maskUnits="userSpaceOnUse" x="0" y="0" width="24" height="24">
<rect width="24" height="24" fill="#D9D9D9"/>
</mask>
<g mask="url(#mask0_287_455)">
<path d="M9.225 15.45L17.7 13.2C17.9333 13.15 18.1127 13.0167 18.238 12.8C18.3627 12.5833 18.4 12.3583 18.35 12.125C18.2833 11.8917 18.146 11.7207 17.938 11.612C17.7293 11.504 17.5083 11.4833 17.275 11.55L14.775 12.225L11.025 8.7C10.9417 8.63333 10.85 8.58333 10.75 8.55C10.65 8.51667 10.55 8.51667 10.45 8.55C10.2 8.61667 10.0333 8.746 9.95 8.938C9.86667 9.12933 9.88333 9.33333 10 9.55L11.95 12.95L9.375 13.6L8.275 12.75C8.225 12.7167 8.171 12.696 8.113 12.688C8.05433 12.6793 8 12.6833 7.95 12.7C7.78333 12.7333 7.675 12.8207 7.625 12.962C7.575 13.104 7.58333 13.25 7.65 13.4L8.7 15.225C8.76667 15.325 8.846 15.396 8.938 15.438C9.02933 15.4793 9.125 15.4833 9.225 15.45ZM4 19.5C3.58333 19.5 3.22933 19.354 2.938 19.062C2.646 18.7707 2.5 18.4167 2.5 18V14.4C3.06667 14.3 3.54167 14.025 3.925 13.575C4.30833 13.125 4.5 12.6 4.5 12C4.5 11.4 4.30833 10.875 3.925 10.425C3.54167 9.975 3.06667 9.7 2.5 9.6V6C2.5 5.58333 2.646 5.22933 2.938 4.938C3.22933 4.646 3.58333 4.5 4 4.5H20C20.4167 4.5 20.7707 4.646 21.062 4.938C21.354 5.22933 21.5 5.58333 21.5 6V18C21.5 18.4167 21.354 18.7707 21.062 19.062C20.7707 19.354 20.4167 19.5 20 19.5H4ZM4 18H20V6H4V8.55C4.61667 8.91667 5.10433 9.404 5.463 10.012C5.821 10.6207 6 11.2833 6 12C6 12.7167 5.821 13.3793 5.463 13.988C5.10433 14.596 4.61667 15.0833 4 15.45V18Z" fill="#272443"/>
</g>
</svg>
