<svg width="24" height="24" viewBox="0 0 24 24" fill="none" xmlns="http://www.w3.org/2000/svg">
<mask id="mask0_287_1322" style="mask-type:alpha" maskUnits="userSpaceOnUse" x="0" y="0" width="24" height="24">
<rect width="24" height="24" fill="#D9D9D9"/>
</mask>
<g mask="url(#mask0_287_1322)">
<path d="M14.425 20.25L9 18.35L4.7 20.025C4.4 20.1417 4.125 20.1084 3.875 19.925C3.625 19.7417 3.5 19.5 3.5 19.2V6.07502C3.5 5.87502 3.55433 5.69569 3.663 5.53702C3.771 5.37902 3.91667 5.26669 4.1 5.20002L8.4 3.75002C8.6 3.68336 8.8 3.65002 9 3.65002C9.2 3.65002 9.4 3.68336 9.6 3.75002L15 5.65002L19.3 3.97502C19.6 3.85836 19.875 3.88336 20.125 4.05002C20.375 4.21669 20.5 4.45836 20.5 4.77502V17.95C20.5 18.1667 20.4417 18.35 20.325 18.5C20.2083 18.65 20.05 18.7584 19.85 18.825L15.575 20.275C15.3917 20.3417 15.2043 20.371 15.013 20.363C14.821 20.3544 14.625 20.3167 14.425 20.25ZM14.25 18.625V6.92502L9.75 5.35002V17.05L14.25 18.625ZM15.75 18.625L19 17.55V5.70002L15.75 6.92502V18.625ZM5 18.3L8.25 17.05V5.35002L5 6.45002V18.3Z" fill="#272443"/>
</g>
</svg>
