<svg width="24" height="24" viewBox="0 0 24 24" fill="none" xmlns="http://www.w3.org/2000/svg">
<mask id="mask0_287_587" style="mask-type:alpha" maskUnits="userSpaceOnUse" x="0" y="0" width="24" height="24">
<rect width="24" height="24" fill="#D9D9D9"/>
</mask>
<g mask="url(#mask0_287_587)">
<path d="M7.1999 21.625C6.96657 21.625 6.78324 21.529 6.6499 21.337C6.51657 21.1457 6.4999 20.9417 6.5999 20.725L7.4499 18.825L6.7129 18.237C6.4709 18.0457 6.24157 17.8333 6.0249 17.6C5.90824 17.65 5.78757 17.6873 5.6629 17.712C5.53757 17.7373 5.40824 17.75 5.2749 17.75C4.75824 17.75 4.31657 17.5667 3.9499 17.2C3.58324 16.8333 3.3999 16.3917 3.3999 15.875C3.3999 15.575 3.46657 15.2957 3.5999 15.037C3.73324 14.779 3.91657 14.5667 4.1499 14.4C4.01657 14.0167 3.9209 13.629 3.8629 13.237C3.80424 12.8457 3.7749 12.4333 3.7749 12C3.7749 11.5667 3.80424 11.154 3.8629 10.762C3.9209 10.3707 4.01657 9.98333 4.1499 9.6C3.91657 9.43333 3.73324 9.22067 3.5999 8.962C3.46657 8.704 3.3999 8.425 3.3999 8.125C3.3999 7.60833 3.58324 7.16667 3.9499 6.8C4.31657 6.43333 4.75824 6.25 5.2749 6.25C5.40824 6.25 5.53757 6.26233 5.6629 6.287C5.78757 6.31233 5.90824 6.35 6.0249 6.4C6.5749 5.8 7.1999 5.3 7.8999 4.9C8.5999 4.5 9.3499 4.2 10.1499 4C10.2166 3.53333 10.4292 3.14567 10.7879 2.837C11.1459 2.529 11.5582 2.375 12.0249 2.375C12.4749 2.375 12.8792 2.529 13.2379 2.837C13.5959 3.14567 13.8082 3.525 13.8749 3.975C14.6916 4.175 15.4499 4.475 16.1499 4.875C16.8499 5.275 17.4749 5.76667 18.0249 6.35C18.1416 6.3 18.2582 6.26667 18.3749 6.25C18.4916 6.23333 18.6082 6.225 18.7249 6.225C19.2416 6.225 19.6832 6.40833 20.0499 6.775C20.4166 7.14167 20.5999 7.575 20.5999 8.075C20.5999 8.375 20.5332 8.65 20.3999 8.9C20.2666 9.15 20.0916 9.36667 19.8749 9.55C20.0082 9.93333 20.1042 10.3293 20.1629 10.738C20.2209 11.146 20.2499 11.5667 20.2499 12C20.2499 12.4333 20.2209 12.854 20.1629 13.262C20.1042 13.6707 20.0082 14.0667 19.8749 14.45C20.0916 14.6167 20.2626 14.8207 20.3879 15.062C20.5126 15.304 20.5749 15.575 20.5749 15.875C20.5749 16.3917 20.3916 16.8333 20.0249 17.2C19.6582 17.5667 19.2166 17.75 18.6999 17.75C18.5832 17.75 18.4709 17.7373 18.3629 17.712C18.2542 17.6873 18.1332 17.6583 17.9999 17.625C17.7832 17.8583 17.5622 18.075 17.3369 18.275C17.1122 18.475 16.8582 18.675 16.5749 18.875L17.3749 20.725C17.4749 20.9417 17.4582 21.1457 17.3249 21.337C17.1916 21.529 17.0082 21.625 16.7749 21.625C16.6416 21.625 16.5209 21.5873 16.4129 21.512C16.3042 21.4373 16.2249 21.3417 16.1749 21.225L15.4249 19.5C15.1582 19.6167 14.9042 19.7167 14.6629 19.8C14.4209 19.8833 14.1582 19.9583 13.8749 20.025C13.8082 20.475 13.5959 20.8543 13.2379 21.163C12.8792 21.471 12.4749 21.625 12.0249 21.625C11.5582 21.625 11.1459 21.471 10.7879 21.163C10.4292 20.8543 10.2166 20.4667 10.1499 20C9.86657 19.9333 9.5999 19.8583 9.3499 19.775C9.0999 19.6917 8.84157 19.5917 8.5749 19.475L7.7999 21.25C7.7499 21.35 7.67057 21.4373 7.5619 21.512C7.4539 21.5873 7.33324 21.625 7.1999 21.625ZM7.8999 17.775L9.6499 13.825C9.4499 13.575 9.2959 13.2957 9.1879 12.987C9.07924 12.679 9.0249 12.35 9.0249 12C9.0249 11.1833 9.3209 10.479 9.9129 9.887C10.5042 9.29567 11.2082 9 12.0249 9C12.8416 9 13.5456 9.29567 14.1369 9.887C14.7289 10.479 15.0249 11.1833 15.0249 12C15.0249 12.35 14.9626 12.6833 14.8379 13C14.7126 13.3167 14.5416 13.6083 14.3249 13.875L16.0999 17.775C16.2832 17.6417 16.4626 17.504 16.6379 17.362C16.8126 17.2207 16.9749 17.0583 17.1249 16.875C17.0249 16.7417 16.9542 16.5877 16.9129 16.413C16.8709 16.2377 16.8499 16.0583 16.8499 15.875C16.8499 15.3417 17.0459 14.8917 17.4379 14.525C17.8292 14.1583 18.2832 14 18.7999 14.05C18.8999 13.7167 18.9792 13.3833 19.0379 13.05C19.0959 12.7167 19.1249 12.3667 19.1249 12C19.1249 11.6333 19.0959 11.2793 19.0379 10.938C18.9792 10.596 18.8999 10.2583 18.7999 9.925C18.2832 9.95833 17.8292 9.79167 17.4379 9.425C17.0459 9.05833 16.8499 8.60833 16.8499 8.075C16.8499 7.90833 16.8792 7.74567 16.9379 7.587C16.9959 7.429 17.0666 7.28333 17.1499 7.15C16.6666 6.63333 16.1292 6.20833 15.5379 5.875C14.9459 5.54167 14.3166 5.28333 13.6499 5.1C13.4999 5.4 13.2792 5.64167 12.9879 5.825C12.6959 6.00833 12.3749 6.1 12.0249 6.1C11.6582 6.1 11.3292 6.00833 11.0379 5.825C10.7459 5.64167 10.5249 5.4 10.3749 5.1C9.69157 5.28333 9.05424 5.54567 8.4629 5.887C7.8709 6.229 7.33324 6.65833 6.8499 7.175C6.93324 7.30833 7.0039 7.454 7.0619 7.612C7.12057 7.77067 7.1499 7.94167 7.1499 8.125C7.1499 8.65833 6.9539 9.104 6.5619 9.462C6.17057 9.82067 5.7249 9.98333 5.2249 9.95C5.1249 10.2833 5.0499 10.6167 4.9999 10.95C4.9499 11.2833 4.9249 11.6333 4.9249 12C4.9249 12.3667 4.9499 12.7167 4.9999 13.05C5.0499 13.3833 5.1249 13.7167 5.2249 14.05C5.7249 14 6.17057 14.1583 6.5619 14.525C6.9539 14.8917 7.1499 15.3417 7.1499 15.875C7.1499 16.0583 7.1249 16.229 7.0749 16.387C7.0249 16.5457 6.9499 16.6917 6.8499 16.825C6.9999 17.0083 7.16257 17.1707 7.3379 17.312C7.51257 17.454 7.6999 17.6083 7.8999 17.775ZM9.0499 18.425C9.2499 18.525 9.46257 18.6127 9.6879 18.688C9.91257 18.7627 10.1416 18.8333 10.3749 18.9C10.5249 18.6 10.7459 18.3583 11.0379 18.175C11.3292 17.9917 11.6582 17.9 12.0249 17.9C12.3749 17.9 12.6959 17.9917 12.9879 18.175C13.2792 18.3583 13.4999 18.6 13.6499 18.9C13.8832 18.8333 14.1039 18.7667 14.3119 18.7C14.5206 18.6333 14.7332 18.55 14.9499 18.45L13.2749 14.7C13.0749 14.8 12.8749 14.875 12.6749 14.925C12.4749 14.975 12.2582 15 12.0249 15C11.7749 15 11.5416 14.9707 11.3249 14.912C11.1082 14.854 10.8999 14.7667 10.6999 14.65L9.0499 18.425ZM12.0249 13.5C12.4249 13.5 12.7749 13.3583 13.0749 13.075C13.3749 12.7917 13.5249 12.4333 13.5249 12C13.5249 11.6 13.3749 11.25 13.0749 10.95C12.7749 10.65 12.4249 10.5 12.0249 10.5C11.5916 10.5 11.2332 10.65 10.9499 10.95C10.6666 11.25 10.5249 11.6 10.5249 12C10.5249 12.4333 10.6666 12.7917 10.9499 13.075C11.2332 13.3583 11.5916 13.5 12.0249 13.5Z" fill="#272443"/>
</g>
</svg>
