<svg width="24" height="24" viewBox="0 0 24 24" fill="none" xmlns="http://www.w3.org/2000/svg">
<mask id="mask0_287_581" style="mask-type:alpha" maskUnits="userSpaceOnUse" x="0" y="0" width="24" height="24">
<rect width="24" height="24" fill="#D9D9D9"/>
</mask>
<g mask="url(#mask0_287_581)">
<path d="M4.60008 20.55C4.25008 20.6833 3.93342 20.6083 3.65008 20.325C3.36675 20.0416 3.29175 19.725 3.42508 19.375L6.22508 11.6C6.42508 10.9666 6.85008 10.575 7.50008 10.425C8.15008 10.275 8.71675 10.4416 9.20008 10.925L13.0501 14.775C13.5334 15.2583 13.7001 15.8206 13.5501 16.462C13.4001 17.104 13.0084 17.5333 12.3751 17.75L4.60008 20.55ZM5.27508 18.7L11.8501 16.375C11.9668 16.325 12.0374 16.2456 12.0621 16.137C12.0874 16.029 12.0584 15.9333 11.9751 15.85L8.12508 12C8.04175 11.9166 7.94608 11.8873 7.83808 11.912C7.72942 11.9373 7.65008 12 7.60008 12.1L5.27508 18.7ZM13.5751 12.275C13.4418 12.1583 13.3751 12.021 13.3751 11.863C13.3751 11.7043 13.4418 11.5666 13.5751 11.45L18.6251 6.37498C19.1251 5.87498 19.7334 5.62498 20.4501 5.62498C21.1668 5.62498 21.7751 5.87498 22.2751 6.37498L22.3501 6.47498C22.4668 6.57498 22.5251 6.70398 22.5251 6.86198C22.5251 7.02064 22.4668 7.15831 22.3501 7.27498C22.2334 7.40831 22.0961 7.47064 21.9381 7.46198C21.7794 7.45398 21.6418 7.39164 21.5251 7.27498L21.4501 7.22498C21.1834 6.94164 20.8541 6.79998 20.4621 6.79998C20.0708 6.79998 19.7418 6.94164 19.4751 7.22498L14.3751 12.3C14.2751 12.4166 14.1461 12.475 13.9881 12.475C13.8294 12.475 13.6918 12.4083 13.5751 12.275ZM9.90008 8.62498C9.78342 8.50831 9.72508 8.37064 9.72508 8.21198C9.72508 8.05398 9.78342 7.91664 9.90008 7.79998L10.1001 7.59998C10.3834 7.31664 10.5251 6.96231 10.5251 6.53698C10.5251 6.11231 10.3834 5.74998 10.1001 5.44998L9.85008 5.22498C9.75008 5.10831 9.70008 4.97064 9.70008 4.81198C9.70008 4.65398 9.75842 4.51664 9.87508 4.39998C10.0084 4.28331 10.1501 4.22498 10.3001 4.22498C10.4501 4.22498 10.5918 4.28331 10.7251 4.39998L10.9251 4.59998C11.4584 5.13331 11.7251 5.77498 11.7251 6.52498C11.7251 7.27498 11.4584 7.91664 10.9251 8.44998L10.7251 8.64998C10.6084 8.76664 10.4751 8.82498 10.3251 8.82498C10.1751 8.82498 10.0334 8.75831 9.90008 8.62498ZM11.7251 10.45C11.6084 10.3333 11.5501 10.1956 11.5501 10.037C11.5501 9.87898 11.6084 9.74164 11.7251 9.62498L14.8001 6.54998C15.0668 6.28331 15.2001 5.95398 15.2001 5.56198C15.2001 5.17064 15.0668 4.84164 14.8001 4.57498L13.7001 3.47498C13.6001 3.37498 13.5501 3.24564 13.5501 3.08698C13.5501 2.92898 13.6084 2.79164 13.7251 2.67498C13.8584 2.54164 14.0044 2.47498 14.1631 2.47498C14.3211 2.47498 14.4584 2.54164 14.5751 2.67498L15.6501 3.72498C16.1501 4.24164 16.4001 4.85398 16.4001 5.56198C16.4001 6.27064 16.1501 6.88331 15.6501 7.39998L12.5501 10.475C12.4501 10.5916 12.3211 10.65 12.1631 10.65C12.0044 10.65 11.8584 10.5833 11.7251 10.45ZM15.4001 14.1C15.2668 13.9833 15.2001 13.846 15.2001 13.688C15.2001 13.5293 15.2668 13.3916 15.4001 13.275L16.1751 12.5C16.7084 11.95 17.3584 11.675 18.1251 11.675C18.8918 11.675 19.5418 11.95 20.0751 12.5L20.8751 13.3C20.9918 13.4 21.0501 13.5293 21.0501 13.688C21.0501 13.846 20.9834 13.9833 20.8501 14.1C20.7334 14.2333 20.5961 14.3 20.4381 14.3C20.2794 14.3 20.1418 14.2333 20.0251 14.1L19.2251 13.325C18.9251 13.025 18.5544 12.875 18.1131 12.875C17.6711 12.875 17.3001 13.025 17.0001 13.325L16.2001 14.125C16.1001 14.2416 15.9708 14.3 15.8121 14.3C15.6541 14.3 15.5168 14.2333 15.4001 14.1Z" fill="#272443"/>
</g>
</svg>
