<svg width="24" height="24" viewBox="0 0 24 24" fill="none" xmlns="http://www.w3.org/2000/svg">
<mask id="mask0_287_1310" style="mask-type:alpha" maskUnits="userSpaceOnUse" x="0" y="0" width="24" height="24">
<rect width="24" height="24" fill="#D9D9D9"/>
</mask>
<g mask="url(#mask0_287_1310)">
<path d="M4.375 21.75C3.825 21.75 3.41267 21.5666 3.138 21.2C2.86267 20.8333 2.78333 20.3666 2.9 19.7999C3.11667 18.8499 3.26667 17.9 3.35 16.95C3.43333 16 3.48333 15.0416 3.5 14.075C2.85 13.8583 2.31267 13.4543 1.888 12.863C1.46267 12.271 1.25 11.5666 1.25 10.75V10.25C1.25 9.94995 1.35 9.66228 1.55 9.38695C1.75 9.11228 1.99167 8.91662 2.275 8.79995C4.29167 8.01662 6.075 7.04995 7.625 5.89995C9.175 4.74995 10.325 3.84162 11.075 3.17495C11.2083 3.05828 11.35 2.97062 11.5 2.91195C11.65 2.85395 11.8167 2.82495 12 2.82495C12.1833 2.82495 12.35 2.85395 12.5 2.91195C12.65 2.97062 12.7917 3.05828 12.925 3.17495C13.675 3.84162 14.825 4.74995 16.375 5.89995C17.925 7.04995 19.7083 8.01662 21.725 8.79995C22.0083 8.91662 22.25 9.11228 22.45 9.38695C22.65 9.66228 22.75 9.94995 22.75 10.25V10.75C22.75 11.5666 22.5377 12.271 22.113 12.863C21.6877 13.4543 21.15 13.8583 20.5 14.075C20.5167 15.0416 20.5667 16 20.65 16.95C20.7333 17.9 20.8833 18.8499 21.1 19.7999C21.2167 20.3666 21.1377 20.8333 20.863 21.2C20.5877 21.5666 20.175 21.75 19.625 21.75H4.375ZM4.825 9.24995H19.175C17.7417 8.54995 16.421 7.77062 15.213 6.91195C14.0043 6.05395 12.9333 5.19995 12 4.34995C11.0667 5.19995 9.996 6.05395 8.788 6.91195C7.57933 7.77062 6.25833 8.54995 4.825 9.24995ZM14.5 12.75C15.0167 12.75 15.4373 12.55 15.762 12.15C16.0873 11.75 16.25 11.2833 16.25 10.75H12.75C12.75 11.2833 12.9127 11.75 13.238 12.15C13.5627 12.55 13.9833 12.75 14.5 12.75ZM9.5 12.75C10.0167 12.75 10.4373 12.55 10.762 12.15C11.0873 11.75 11.25 11.2833 11.25 10.75H7.75C7.75 11.2833 7.91267 11.75 8.238 12.15C8.56267 12.55 8.98333 12.75 9.5 12.75ZM4.5 12.75C5.01667 12.75 5.43767 12.55 5.763 12.15C6.08767 11.75 6.25 11.2833 6.25 10.75H2.75C2.75 11.2833 2.91233 11.75 3.237 12.15C3.56233 12.55 3.98333 12.75 4.5 12.75ZM4.325 20.25H7.55C7.71667 19.1833 7.84167 18.125 7.925 17.075C8.00833 16.025 8.075 14.9666 8.125 13.9C7.90833 13.8 7.70433 13.675 7.513 13.525C7.321 13.375 7.15 13.1833 7 12.95C6.75 13.3 6.45833 13.579 6.125 13.787C5.79167 13.9956 5.41667 14.1333 5 14.2C4.96667 15.2333 4.904 16.25 4.812 17.25C4.72067 18.25 4.55833 19.25 4.325 20.25ZM9.05 20.25H14.95C14.7833 19.25 14.6627 18.25 14.588 17.25C14.5127 16.25 14.45 15.2416 14.4 14.225C13.9 14.225 13.4417 14.1083 13.025 13.875C12.6083 13.6416 12.2667 13.325 12 12.925C11.7333 13.325 11.3877 13.6416 10.963 13.875C10.5377 14.1083 10.0833 14.225 9.6 14.225C9.55 15.2416 9.48767 16.25 9.413 17.25C9.33767 18.25 9.21667 19.25 9.05 20.25ZM16.45 20.25H19.675C19.4417 19.25 19.2793 18.25 19.188 17.25C19.096 16.25 19.0333 15.2333 19 14.2C18.5833 14.1333 18.2 13.9956 17.85 13.787C17.5 13.579 17.2167 13.2916 17 12.925C16.8667 13.1583 16.7 13.354 16.5 13.512C16.3 13.6706 16.0917 13.8 15.875 13.9C15.925 14.9666 15.996 16.025 16.088 17.075C16.1793 18.125 16.3 19.1833 16.45 20.25ZM19.5 12.75C20.0167 12.75 20.4377 12.55 20.763 12.15C21.0877 11.75 21.25 11.2833 21.25 10.75H17.75C17.75 11.2833 17.9127 11.75 18.238 12.15C18.5627 12.55 18.9833 12.75 19.5 12.75Z" fill="#272443"/>
</g>
</svg>
