<svg width="24" height="24" viewBox="0 0 24 24" fill="none" xmlns="http://www.w3.org/2000/svg">
<mask id="mask0_287_1418" style="mask-type:alpha" maskUnits="userSpaceOnUse" x="0" y="0" width="24" height="24">
<rect width="24" height="24" fill="#D9D9D9"/>
</mask>
<g mask="url(#mask0_287_1418)">
<path d="M4.72505 19.75C3.74172 19.75 2.92938 19.4083 2.28805 18.725C1.64605 18.0417 1.31672 17.2417 1.30005 16.325C1.30005 16.1917 1.30838 16.05 1.32505 15.9C1.34172 15.75 1.36672 15.6083 1.40005 15.475L3.50005 7.075C3.71672 6.25833 4.16272 5.58333 4.83805 5.05C5.51272 4.51667 6.27505 4.25 7.12505 4.25H16.875C17.725 4.25 18.4877 4.51667 19.163 5.05C19.8377 5.58333 20.2834 6.25833 20.5 7.075L22.6 15.475C22.6334 15.625 22.6627 15.7707 22.688 15.912C22.7127 16.054 22.725 16.2 22.725 16.35C22.725 17.2833 22.3961 18.0833 21.7381 18.75C21.0794 19.4167 20.2584 19.75 19.275 19.75C18.625 19.75 18.0207 19.5793 17.462 19.238C16.904 18.896 16.4834 18.425 16.2 17.825L15.475 16.375C15.3917 16.175 15.25 16.0207 15.05 15.912C14.85 15.804 14.625 15.75 14.375 15.75H9.62505C9.37505 15.75 9.15005 15.804 8.95005 15.912C8.75005 16.0207 8.60838 16.175 8.52505 16.375L7.80005 17.825C7.51672 18.425 7.09572 18.896 6.53705 19.238C5.97905 19.5793 5.37505 19.75 4.72505 19.75ZM4.80005 18.25C5.13338 18.25 5.44605 18.1667 5.73805 18C6.02938 17.8333 6.27505 17.5667 6.47505 17.2L7.17505 15.75C7.40838 15.2833 7.74172 14.9167 8.17505 14.65C8.60838 14.3833 9.09172 14.25 9.62505 14.25H14.375C14.8917 14.25 15.3707 14.3873 15.812 14.662C16.254 14.9373 16.6 15.3083 16.85 15.775L17.55 17.2C17.75 17.5667 17.996 17.8333 18.288 18C18.5794 18.1667 18.8917 18.25 19.225 18.25C19.725 18.25 20.1751 18.0793 20.5751 17.738C20.9751 17.396 21.1834 16.9417 21.2001 16.375V16.113C21.2001 16.021 21.1834 15.9333 21.15 15.85L19.05 7.475C18.9167 6.95833 18.65 6.54167 18.25 6.225C17.85 5.90833 17.3917 5.75 16.875 5.75H7.12505C6.60838 5.75 6.14605 5.90833 5.73805 6.225C5.32938 6.54167 5.06672 6.95833 4.95005 7.475L2.85005 15.85C2.83338 15.9333 2.81672 16.1 2.80005 16.35C2.80005 16.9167 3.00838 17.375 3.42505 17.725C3.84172 18.075 4.30005 18.25 4.80005 18.25ZM13.5 10.875C13.25 10.875 13.0417 10.7917 12.875 10.625C12.7084 10.4583 12.625 10.25 12.625 10C12.625 9.75 12.7084 9.54167 12.875 9.375C13.0417 9.20833 13.25 9.125 13.5 9.125C13.75 9.125 13.9584 9.20833 14.125 9.375C14.2917 9.54167 14.375 9.75 14.375 10C14.375 10.25 14.2917 10.4583 14.125 10.625C13.9584 10.7917 13.75 10.875 13.5 10.875ZM15.5 8.875C15.25 8.875 15.0417 8.79167 14.875 8.625C14.7084 8.45833 14.625 8.25 14.625 8C14.625 7.75 14.7084 7.54167 14.875 7.375C15.0417 7.20833 15.25 7.125 15.5 7.125C15.75 7.125 15.9584 7.20833 16.125 7.375C16.2917 7.54167 16.375 7.75 16.375 8C16.375 8.25 16.2917 8.45833 16.125 8.625C15.9584 8.79167 15.75 8.875 15.5 8.875ZM15.5 12.875C15.25 12.875 15.0417 12.7917 14.875 12.625C14.7084 12.4583 14.625 12.25 14.625 12C14.625 11.75 14.7084 11.5417 14.875 11.375C15.0417 11.2083 15.25 11.125 15.5 11.125C15.75 11.125 15.9584 11.2083 16.125 11.375C16.2917 11.5417 16.375 11.75 16.375 12C16.375 12.25 16.2917 12.4583 16.125 12.625C15.9584 12.7917 15.75 12.875 15.5 12.875ZM17.5 10.875C17.25 10.875 17.0417 10.7917 16.875 10.625C16.7084 10.4583 16.625 10.25 16.625 10C16.625 9.75 16.7084 9.54167 16.875 9.375C17.0417 9.20833 17.25 9.125 17.5 9.125C17.75 9.125 17.9584 9.20833 18.125 9.375C18.2917 9.54167 18.375 9.75 18.375 10C18.375 10.25 18.2917 10.4583 18.125 10.625C17.9584 10.7917 17.75 10.875 17.5 10.875ZM8.50005 12.35C8.35005 12.35 8.21272 12.2873 8.08805 12.162C7.96272 12.0373 7.90005 11.9 7.90005 11.75V10.6H6.75005C6.60005 10.6 6.46272 10.5373 6.33805 10.412C6.21272 10.2873 6.15005 10.15 6.15005 10C6.15005 9.85 6.21272 9.71233 6.33805 9.587C6.46272 9.46233 6.60005 9.4 6.75005 9.4H7.90005V8.25C7.90005 8.1 7.96272 7.96233 8.08805 7.837C8.21272 7.71233 8.35005 7.65 8.50005 7.65C8.65005 7.65 8.78738 7.71233 8.91205 7.837C9.03738 7.96233 9.10005 8.1 9.10005 8.25V9.4H10.25C10.4 9.4 10.5377 9.46233 10.663 9.587C10.7877 9.71233 10.85 9.85 10.85 10C10.85 10.15 10.7877 10.2873 10.663 10.412C10.5377 10.5373 10.4 10.6 10.25 10.6H9.10005V11.75C9.10005 11.9 9.03738 12.0373 8.91205 12.162C8.78738 12.2873 8.65005 12.35 8.50005 12.35Z" fill="#272443"/>
</g>
</svg>
