<svg width="19" height="20" viewBox="0 0 19 20" fill="none" xmlns="http://www.w3.org/2000/svg">
<path d="M10.9782 19.7734H7.95315C7.73649 19.7734 7.54482 19.6984 7.37815 19.5484C7.21148 19.3984 7.11149 19.2068 7.07815 18.9734L6.77815 16.7234C6.51149 16.6401 6.24082 16.5151 5.96615 16.3484C5.69082 16.1818 5.43648 16.0068 5.20315 15.8234L3.12815 16.7234C2.91149 16.8068 2.69915 16.8151 2.49115 16.7484C2.28249 16.6818 2.11149 16.5484 1.97815 16.3484L0.478152 13.7234C0.361485 13.5234 0.328152 13.3108 0.378152 13.0854C0.428152 12.8608 0.536485 12.6818 0.703152 12.5484L2.52815 11.1734C2.49482 11.0234 2.47415 10.8734 2.46615 10.7234C2.45748 10.5734 2.45315 10.4234 2.45315 10.2734C2.45315 10.1401 2.45748 9.99842 2.46615 9.84842C2.47415 9.69842 2.49482 9.54009 2.52815 9.37342L0.703152 7.99842C0.536485 7.86509 0.428152 7.68609 0.378152 7.46142C0.328152 7.23609 0.361485 7.02342 0.478152 6.82342L1.97815 4.22342C2.09482 4.02342 2.26149 3.89009 2.47815 3.82342C2.69482 3.75676 2.90315 3.76509 3.10315 3.84842L5.20315 4.72342C5.43648 4.54009 5.69082 4.36942 5.96615 4.21142C6.24082 4.05276 6.51149 3.92342 6.77815 3.82342L7.07815 1.57342C7.11149 1.34009 7.21148 1.14842 7.37815 0.998422C7.54482 0.848422 7.73649 0.773422 7.95315 0.773422H10.9782C11.2115 0.773422 11.4115 0.848422 11.5782 0.998422C11.7448 1.14842 11.8448 1.34009 11.8782 1.57342L12.1782 3.82342C12.4782 3.94009 12.7488 4.06909 12.9902 4.21042C13.2322 4.35242 13.4782 4.52342 13.7282 4.72342L15.8532 3.84842C16.0532 3.76509 16.2575 3.75676 16.4662 3.82342C16.6742 3.89009 16.8448 4.02342 16.9782 4.22342L18.4782 6.82342C18.5948 7.02342 18.6282 7.23609 18.5782 7.46142C18.5282 7.68609 18.4198 7.86509 18.2532 7.99842L16.4032 9.39842C16.4365 9.56509 16.4532 9.71509 16.4532 9.84842V10.2734C16.4532 10.4068 16.4488 10.5441 16.4402 10.6854C16.4322 10.8274 16.4115 10.9901 16.3782 11.1734L18.2032 12.5484C18.3865 12.6818 18.5032 12.8608 18.5532 13.0854C18.6032 13.3108 18.5615 13.5234 18.4282 13.7234L16.9282 16.3234C16.8115 16.5234 16.6448 16.6568 16.4282 16.7234C16.2115 16.7901 15.9948 16.7818 15.7782 16.6984L13.7282 15.8234C13.4782 16.0234 13.2242 16.1984 12.9662 16.3484C12.7075 16.4984 12.4448 16.6234 12.1782 16.7234L11.8782 18.9734C11.8448 19.2068 11.7448 19.3984 11.5782 19.5484C11.4115 19.6984 11.2115 19.7734 10.9782 19.7734ZM9.47815 13.2734C10.3115 13.2734 11.0198 12.9818 11.6032 12.3984C12.1865 11.8151 12.4782 11.1068 12.4782 10.2734C12.4782 9.44009 12.1865 8.73176 11.6032 8.14842C11.0198 7.56509 10.3115 7.27342 9.47815 7.27342C8.64482 7.27342 7.93649 7.56509 7.35315 8.14842C6.76982 8.73176 6.47815 9.44009 6.47815 10.2734C6.47815 11.1068 6.76982 11.8151 7.35315 12.3984C7.93649 12.9818 8.64482 13.2734 9.47815 13.2734ZM9.47815 11.7734C9.06148 11.7734 8.70748 11.6274 8.41615 11.3354C8.12415 11.0441 7.97815 10.6901 7.97815 10.2734C7.97815 9.85676 8.12415 9.50276 8.41615 9.21142C8.70748 8.91942 9.06148 8.77342 9.47815 8.77342C9.89482 8.77342 10.2488 8.91942 10.5402 9.21142C10.8322 9.50276 10.9782 9.85676 10.9782 10.2734C10.9782 10.6901 10.8322 11.0441 10.5402 11.3354C10.2488 11.6274 9.89482 11.7734 9.47815 11.7734ZM8.47815 18.2734H10.4532L10.8032 15.5984C11.3198 15.4651 11.7865 15.2734 12.2032 15.0234C12.6198 14.7734 13.0282 14.4568 13.4282 14.0734L15.9032 15.1234L16.9032 13.4234L14.7282 11.7984C14.8115 11.5318 14.8658 11.2734 14.8912 11.0234C14.9158 10.7734 14.9282 10.5234 14.9282 10.2734C14.9282 10.0068 14.9158 9.75276 14.8912 9.51142C14.8658 9.26942 14.8115 9.02342 14.7282 8.77342L16.9032 7.12342L15.9282 5.42342L13.4032 6.47342C13.0698 6.12342 12.6698 5.81076 12.2032 5.53542C11.7365 5.26076 11.2698 5.06509 10.8032 4.94842L10.4782 2.27342H8.50315L8.15315 4.94842C7.65315 5.06509 7.18648 5.24842 6.75315 5.49842C6.31982 5.74842 5.90315 6.06509 5.50315 6.44842L3.02815 5.42342L2.05315 7.12342L4.20315 8.72342C4.11982 8.97342 4.06149 9.22342 4.02815 9.47342C3.99482 9.72342 3.97815 9.99009 3.97815 10.2734C3.97815 10.5401 3.99482 10.7984 4.02815 11.0484C4.06149 11.2984 4.11982 11.5484 4.20315 11.7984L2.05315 13.4234L3.02815 15.1234L5.50315 14.0734C5.88648 14.4568 6.29482 14.7734 6.72815 15.0234C7.16149 15.2734 7.63649 15.4651 8.15315 15.5984L8.47815 18.2734Z" fill="#272443"/>
</svg>
