<svg width="24" height="24" viewBox="0 0 24 24" fill="none" xmlns="http://www.w3.org/2000/svg">
<mask id="mask0_287_1259" style="mask-type:alpha" maskUnits="userSpaceOnUse" x="0" y="0" width="24" height="24">
<rect width="24" height="24" fill="#D9D9D9"/>
</mask>
<g mask="url(#mask0_287_1259)">
<path d="M18.75 7.4C19 7.4 19.2127 7.31233 19.388 7.137C19.5627 6.96233 19.65 6.75 19.65 6.5C19.65 6.25 19.5627 6.03733 19.388 5.862C19.2127 5.68733 19 5.6 18.75 5.6C18.5 5.6 18.2877 5.68733 18.113 5.862C17.9377 6.03733 17.85 6.25 17.85 6.5C17.85 6.75 17.9377 6.96233 18.113 7.137C18.2877 7.31233 18.5 7.4 18.75 7.4ZM14.75 7.4C15 7.4 15.2123 7.31233 15.387 7.137C15.5623 6.96233 15.65 6.75 15.65 6.5C15.65 6.25 15.5623 6.03733 15.387 5.862C15.2123 5.68733 15 5.6 14.75 5.6C14.5 5.6 14.2877 5.68733 14.113 5.862C13.9377 6.03733 13.85 6.25 13.85 6.5C13.85 6.75 13.9377 6.96233 14.113 7.137C14.2877 7.31233 14.5 7.4 14.75 7.4ZM15.075 10.8H18.425C18.6417 10.8 18.8043 10.729 18.913 10.587C19.021 10.4457 19.025 10.3 18.925 10.15C18.7417 9.81667 18.45 9.55833 18.05 9.375C17.65 9.19167 17.2167 9.1 16.75 9.1C16.2667 9.1 15.8293 9.19167 15.438 9.375C15.046 9.55833 14.7583 9.81667 14.575 10.15C14.475 10.3 14.4793 10.4457 14.588 10.587C14.696 10.729 14.8583 10.8 15.075 10.8ZM7.25 21.5C5.71667 21.5 4.41667 20.9667 3.35 19.9C2.28333 18.8333 1.75 17.5333 1.75 16V11.3C1.75 10.8 1.925 10.375 2.275 10.025C2.625 9.675 3.05 9.5 3.55 9.5H10.95C11.45 9.5 11.875 9.675 12.225 10.025C12.575 10.375 12.75 10.8 12.75 11.3V16C12.75 17.5333 12.2167 18.8333 11.15 19.9C10.0833 20.9667 8.78333 21.5 7.25 21.5ZM7.25 20C8.35 20 9.29167 19.6083 10.075 18.825C10.8583 18.0417 11.25 17.1 11.25 16V11.3C11.25 11.2167 11.221 11.1457 11.163 11.087C11.1043 11.029 11.0333 11 10.95 11H3.55C3.46667 11 3.396 11.029 3.338 11.087C3.27933 11.1457 3.25 11.2167 3.25 11.3V16C3.25 17.1 3.64167 18.0417 4.425 18.825C5.20833 19.6083 6.15 20 7.25 20ZM16.75 14.5C16.3167 14.5 15.875 14.4457 15.425 14.337C14.975 14.229 14.575 14.075 14.225 13.875L14.25 12.1C14.6167 12.3833 15.0083 12.604 15.425 12.762C15.8417 12.9207 16.2833 13 16.75 13C17.85 13 18.7917 12.6083 19.575 11.825C20.3583 11.0417 20.75 10.1 20.75 9V4.3C20.75 4.21667 20.721 4.14567 20.663 4.087C20.6043 4.029 20.5333 4 20.45 4H13.05C12.9667 4 12.896 4.029 12.838 4.087C12.7793 4.14567 12.75 4.21667 12.75 4.3V8H11.25V4.3C11.25 3.8 11.425 3.375 11.775 3.025C12.125 2.675 12.55 2.5 13.05 2.5H20.45C20.95 2.5 21.375 2.675 21.725 3.025C22.075 3.375 22.25 3.8 22.25 4.3V9C22.25 10.5333 21.7167 11.8333 20.65 12.9C19.5833 13.9667 18.2833 14.5 16.75 14.5ZM5.25 14.4C5.5 14.4 5.71267 14.3123 5.888 14.137C6.06267 13.9623 6.15 13.75 6.15 13.5C6.15 13.25 6.06267 13.0377 5.888 12.863C5.71267 12.6877 5.5 12.6 5.25 12.6C5 12.6 4.78767 12.6877 4.613 12.863C4.43767 13.0377 4.35 13.25 4.35 13.5C4.35 13.75 4.43767 13.9623 4.613 14.137C4.78767 14.3123 5 14.4 5.25 14.4ZM9.25 14.4C9.5 14.4 9.71233 14.3123 9.887 14.137C10.0623 13.9623 10.15 13.75 10.15 13.5C10.15 13.25 10.0623 13.0377 9.887 12.863C9.71233 12.6877 9.5 12.6 9.25 12.6C9 12.6 8.78767 12.6877 8.613 12.863C8.43767 13.0377 8.35 13.25 8.35 13.5C8.35 13.75 8.43767 13.9623 8.613 14.137C8.78767 14.3123 9 14.4 9.25 14.4ZM7.25 17.8C7.73333 17.8 8.16667 17.7083 8.55 17.525C8.93333 17.3417 9.21667 17.1 9.4 16.8C9.5 16.65 9.50433 16.4957 9.413 16.337C9.321 16.179 9.175 16.1 8.975 16.1H5.525C5.30833 16.1 5.15833 16.179 5.075 16.337C4.99167 16.4957 5 16.65 5.1 16.8C5.28333 17.1 5.571 17.3417 5.963 17.525C6.35433 17.7083 6.78333 17.8 7.25 17.8Z" fill="#272443"/>
</g>
</svg>
