<svg width="20" height="20" viewBox="0 0 20 20" fill="none" xmlns="http://www.w3.org/2000/svg">
<path d="M11.4999 19.5H8.47494C8.25828 19.5 8.06661 19.425 7.89994 19.275C7.73327 19.125 7.63328 18.9333 7.59994 18.7L7.29994 16.45C7.03327 16.3667 6.76261 16.2417 6.48794 16.075C6.21261 15.9083 5.95827 15.7333 5.72494 15.55L3.64994 16.45C3.43327 16.5333 3.22094 16.5417 3.01294 16.475C2.80427 16.4083 2.63327 16.275 2.49994 16.075L0.999941 13.45C0.883275 13.25 0.849941 13.0373 0.899941 12.812C0.949941 12.5873 1.05827 12.4083 1.22494 12.275L3.04994 10.9C3.01661 10.75 2.99594 10.6 2.98794 10.45C2.97927 10.3 2.97494 10.15 2.97494 10C2.97494 9.86667 2.97927 9.725 2.98794 9.575C2.99594 9.425 3.01661 9.26667 3.04994 9.1L1.22494 7.725C1.05827 7.59167 0.949941 7.41267 0.899941 7.188C0.849941 6.96267 0.883275 6.75 0.999941 6.55L2.49994 3.95C2.61661 3.75 2.78327 3.61667 2.99994 3.55C3.21661 3.48333 3.42494 3.49167 3.62494 3.575L5.72494 4.45C5.95827 4.26667 6.21261 4.096 6.48794 3.938C6.76261 3.77933 7.03327 3.65 7.29994 3.55L7.59994 1.3C7.63328 1.06667 7.73327 0.875 7.89994 0.725C8.06661 0.575 8.25828 0.5 8.47494 0.5H11.4999C11.7333 0.5 11.9333 0.575 12.0999 0.725C12.2666 0.875 12.3666 1.06667 12.3999 1.3L12.6999 3.55C12.9999 3.66667 13.2706 3.79567 13.5119 3.937C13.7539 4.079 13.9999 4.25 14.2499 4.45L16.3749 3.575C16.5749 3.49167 16.7793 3.48333 16.9879 3.55C17.1959 3.61667 17.3666 3.75 17.4999 3.95L18.9999 6.55C19.1166 6.75 19.1499 6.96267 19.0999 7.188C19.0499 7.41267 18.9416 7.59167 18.7749 7.725L16.9249 9.125C16.9583 9.29167 16.9749 9.44167 16.9749 9.575V10C16.9749 10.1333 16.9706 10.2707 16.9619 10.412C16.9539 10.554 16.9333 10.7167 16.8999 10.9L18.7249 12.275C18.9083 12.4083 19.0249 12.5873 19.0749 12.812C19.1249 13.0373 19.0833 13.25 18.9499 13.45L17.4499 16.05C17.3333 16.25 17.1666 16.3833 16.9499 16.45C16.7333 16.5167 16.5166 16.5083 16.2999 16.425L14.2499 15.55C13.9999 15.75 13.7459 15.925 13.4879 16.075C13.2293 16.225 12.9666 16.35 12.6999 16.45L12.3999 18.7C12.3666 18.9333 12.2666 19.125 12.0999 19.275C11.9333 19.425 11.7333 19.5 11.4999 19.5ZM9.99994 13C10.8333 13 11.5416 12.7083 12.1249 12.125C12.7083 11.5417 12.9999 10.8333 12.9999 10C12.9999 9.16667 12.7083 8.45833 12.1249 7.875C11.5416 7.29167 10.8333 7 9.99994 7C9.16661 7 8.45827 7.29167 7.87494 7.875C7.29161 8.45833 6.99994 9.16667 6.99994 10C6.99994 10.8333 7.29161 11.5417 7.87494 12.125C8.45827 12.7083 9.16661 13 9.99994 13ZM9.99994 11.5C9.58327 11.5 9.22927 11.354 8.93794 11.062C8.64594 10.7707 8.49994 10.4167 8.49994 10C8.49994 9.58333 8.64594 9.22933 8.93794 8.938C9.22927 8.646 9.58327 8.5 9.99994 8.5C10.4166 8.5 10.7706 8.646 11.0619 8.938C11.3539 9.22933 11.4999 9.58333 11.4999 10C11.4999 10.4167 11.3539 10.7707 11.0619 11.062C10.7706 11.354 10.4166 11.5 9.99994 11.5ZM8.99994 18H10.9749L11.3249 15.325C11.8416 15.1917 12.3083 15 12.7249 14.75C13.1416 14.5 13.5499 14.1833 13.9499 13.8L16.4249 14.85L17.4249 13.15L15.2499 11.525C15.3333 11.2583 15.3876 11 15.4129 10.75C15.4376 10.5 15.4499 10.25 15.4499 10C15.4499 9.73333 15.4376 9.47933 15.4129 9.238C15.3876 8.996 15.3333 8.75 15.2499 8.5L17.4249 6.85L16.4499 5.15L13.9249 6.2C13.5916 5.85 13.1916 5.53733 12.7249 5.262C12.2583 4.98733 11.7916 4.79167 11.3249 4.675L10.9999 2H9.02494L8.67494 4.675C8.17494 4.79167 7.70827 4.975 7.27494 5.225C6.84161 5.475 6.42494 5.79167 6.02494 6.175L3.54994 5.15L2.57494 6.85L4.72494 8.45C4.64161 8.7 4.58327 8.95 4.54994 9.2C4.51661 9.45 4.49994 9.71667 4.49994 10C4.49994 10.2667 4.51661 10.525 4.54994 10.775C4.58327 11.025 4.64161 11.275 4.72494 11.525L2.57494 13.15L3.54994 14.85L6.02494 13.8C6.40827 14.1833 6.81661 14.5 7.24994 14.75C7.68327 15 8.15827 15.1917 8.67494 15.325L8.99994 18Z" fill="#78787A"/>
</svg>
