<svg width="24" height="24" viewBox="0 0 24 24" fill="none" xmlns="http://www.w3.org/2000/svg">
<mask id="mask0_287_1271" style="mask-type:alpha" maskUnits="userSpaceOnUse" x="0" y="0" width="24" height="24">
<rect width="24" height="24" fill="#D9D9D9"/>
</mask>
<g mask="url(#mask0_287_1271)">
<path d="M4.3 17.725C3.8 17.725 3.375 17.55 3.025 17.2C2.675 16.85 2.5 16.425 2.5 15.925V5.54998C2.5 5.04998 2.675 4.62064 3.025 4.26198C3.375 3.90398 3.8 3.72498 4.3 3.72498H19.7C20.2 3.72498 20.625 3.90398 20.975 4.26198C21.325 4.62064 21.5 5.04998 21.5 5.54998V15.925C21.5 16.425 21.325 16.85 20.975 17.2C20.625 17.55 20.2 17.725 19.7 17.725H4.3ZM4.3 16.225H19.7C19.7833 16.225 19.8543 16.196 19.913 16.138C19.971 16.0793 20 16.0083 20 15.925V5.54998C20 5.44998 19.971 5.37064 19.913 5.31198C19.8543 5.25398 19.7833 5.22498 19.7 5.22498H4.3C4.21667 5.22498 4.146 5.25398 4.088 5.31198C4.02933 5.37064 4 5.44998 4 5.54998V15.925C4 16.0083 4.02933 16.0793 4.088 16.138C4.146 16.196 4.21667 16.225 4.3 16.225ZM2.125 20.225C1.925 20.225 1.75 20.1543 1.6 20.013C1.45 19.871 1.375 19.6916 1.375 19.475C1.375 19.2583 1.45 19.0793 1.6 18.938C1.75 18.796 1.925 18.725 2.125 18.725H21.875C22.075 18.725 22.25 18.796 22.4 18.938C22.55 19.0793 22.625 19.2583 22.625 19.475C22.625 19.6916 22.55 19.871 22.4 20.013C22.25 20.1543 22.075 20.225 21.875 20.225H2.125Z" fill="#272443"/>
</g>
</svg>
