<svg width="24" height="24" viewBox="0 0 24 24" fill="none" xmlns="http://www.w3.org/2000/svg">
<mask id="mask0_287_1289" style="mask-type:alpha" maskUnits="userSpaceOnUse" x="0" y="0" width="24" height="24">
<rect width="24" height="24" fill="#D9D9D9"/>
</mask>
<g mask="url(#mask0_287_1289)">
<path d="M9.25 21C9.03333 21 8.85433 20.9293 8.713 20.788C8.571 20.646 8.5 20.4667 8.5 20.25C8.5 20.0333 8.571 19.854 8.713 19.712C8.85433 19.5707 9.03333 19.5 9.25 19.5H10.5V17.5H4.3C3.8 17.5 3.375 17.325 3.025 16.975C2.675 16.625 2.5 16.2 2.5 15.7V5.3C2.5 4.8 2.675 4.375 3.025 4.025C3.375 3.675 3.8 3.5 4.3 3.5H19.7C20.2 3.5 20.625 3.675 20.975 4.025C21.325 4.375 21.5 4.8 21.5 5.3V15.7C21.5 16.2 21.325 16.625 20.975 16.975C20.625 17.325 20.2 17.5 19.7 17.5H13.5V19.5H14.75C14.9667 19.5 15.146 19.5707 15.288 19.712C15.4293 19.854 15.5 20.0333 15.5 20.25C15.5 20.4667 15.4293 20.646 15.288 20.788C15.146 20.9293 14.9667 21 14.75 21H9.25ZM4.3 16H19.7C19.7833 16 19.8543 15.9707 19.913 15.912C19.971 15.854 20 15.7833 20 15.7V5.3C20 5.21667 19.971 5.146 19.913 5.088C19.8543 5.02933 19.7833 5 19.7 5H4.3C4.21667 5 4.146 5.02933 4.088 5.088C4.02933 5.146 4 5.21667 4 5.3V15.7C4 15.7833 4.02933 15.854 4.088 15.912C4.146 15.9707 4.21667 16 4.3 16Z" fill="#272443"/>
</g>
</svg>
