<svg width="24" height="24" viewBox="0 0 24 24" fill="none" xmlns="http://www.w3.org/2000/svg">
<mask id="mask0_287_1277" style="mask-type:alpha" maskUnits="userSpaceOnUse" x="0" y="0" width="24" height="24">
<rect width="24" height="24" fill="#D9D9D9"/>
</mask>
<g mask="url(#mask0_287_1277)">
<path d="M12 21.5C10.2 21.5 8.66667 20.8667 7.4 19.6C6.13333 18.3334 5.5 16.8 5.5 15V9.05005C5.5 7.25005 6.13333 5.71672 7.4 4.45005C8.66667 3.18338 10.2 2.55005 12 2.55005C13.8 2.55005 15.3333 3.18338 16.6 4.45005C17.8667 5.71672 18.5 7.25005 18.5 9.05005V15C18.5 16.8 17.8667 18.3334 16.6 19.6C15.3333 20.8667 13.8 21.5 12 21.5ZM12.75 9.05005H17C17 7.78338 16.5917 6.68738 15.775 5.76205C14.9583 4.83738 13.95 4.28338 12.75 4.10005V9.05005ZM7 9.05005H11.25V4.10005C10.05 4.28338 9.04167 4.83738 8.225 5.76205C7.40833 6.68738 7 7.78338 7 9.05005ZM12 20C13.3833 20 14.5627 19.5127 15.538 18.538C16.5127 17.5627 17 16.3834 17 15V10.55H7V15C7 16.3834 7.48767 17.5627 8.463 18.538C9.43767 19.5127 10.6167 20 12 20Z" fill="#272443"/>
</g>
</svg>
