<svg width="24" height="24" viewBox="0 0 24 24" fill="none" xmlns="http://www.w3.org/2000/svg">
<mask id="mask0_287_1340" style="mask-type:alpha" maskUnits="userSpaceOnUse" x="0" y="0" width="24" height="24">
<rect width="24" height="24" fill="#D9D9D9"/>
</mask>
<g mask="url(#mask0_287_1340)">
<path d="M16 8.30005V5.30005H8.00005V8.30005H6.50005V4.70005C6.50005 4.45005 6.58772 4.23738 6.76305 4.06205C6.93772 3.88738 7.15005 3.80005 7.40005 3.80005H16.6C16.85 3.80005 17.0627 3.88738 17.238 4.06205C17.4127 4.23738 17.5 4.45005 17.5 4.70005V8.30005H16ZM17.8 12.3C18.0834 12.3 18.321 12.204 18.513 12.012C18.7044 11.8207 18.8 11.5834 18.8 11.3C18.8 11.0167 18.7044 10.779 18.513 10.587C18.321 10.3957 18.0834 10.3 17.8 10.3C17.5167 10.3 17.279 10.3957 17.087 10.587C16.8957 10.779 16.8 11.0167 16.8 11.3C16.8 11.5834 16.8957 11.8207 17.087 12.012C17.279 12.204 17.5167 12.3 17.8 12.3ZM8.30005 19H15.7C15.7834 19 15.8544 18.971 15.913 18.913C15.971 18.8544 16 18.7834 16 18.7V14.725H8.00005V18.7C8.00005 18.7834 8.02938 18.8544 8.08805 18.913C8.14605 18.971 8.21672 19 8.30005 19ZM8.30005 20.5C7.80005 20.5 7.37505 20.325 7.02505 19.975C6.67505 19.625 6.50005 19.2 6.50005 18.7V16.5H3.70005C3.43338 16.5 3.21672 16.4127 3.05005 16.238C2.88338 16.0627 2.80005 15.85 2.80005 15.6V10.8C2.80005 10.1 3.04172 9.50838 3.52505 9.02505C4.00838 8.54171 4.60005 8.30005 5.30005 8.30005H18.7C19.4167 8.30005 20.0127 8.54171 20.4881 9.02505C20.9627 9.50838 21.2001 10.1 21.2001 10.8V15.6C21.2001 15.85 21.1167 16.0627 20.9501 16.238C20.7834 16.4127 20.5667 16.5 20.3 16.5H17.5V18.7C17.5 19.2 17.325 19.625 16.975 19.975C16.625 20.325 16.2 20.5 15.7 20.5H8.30005ZM19.7001 15V10.8C19.7001 10.5167 19.6044 10.279 19.413 10.087C19.221 9.89572 18.9834 9.80005 18.7 9.80005H5.30005C5.01672 9.80005 4.77938 9.89572 4.58805 10.087C4.39605 10.279 4.30005 10.5167 4.30005 10.8V15H6.50005V13.225H17.5V15H19.7001Z" fill="#272443"/>
</g>
</svg>
