<svg width="24" height="24" viewBox="0 0 24 24" fill="none" xmlns="http://www.w3.org/2000/svg">
<mask id="mask0_287_1229" style="mask-type:alpha" maskUnits="userSpaceOnUse" x="0" y="0" width="24" height="24">
<rect width="24" height="24" fill="#D9D9D9"/>
</mask>
<g mask="url(#mask0_287_1229)">
<path d="M10.75 18.85C11.3333 18.85 11.8293 18.646 12.238 18.238C12.646 17.8293 12.85 17.3333 12.85 16.75V12.875H14.825C15.075 12.875 15.2833 12.7917 15.45 12.625C15.6167 12.4583 15.7 12.25 15.7 12C15.7 11.75 15.6167 11.5417 15.45 11.375C15.2833 11.2083 15.075 11.125 14.825 11.125H12.875C12.6083 11.125 12.3877 11.2083 12.213 11.375C12.0377 11.5417 11.95 11.7583 11.95 12.025V15.1C11.7833 14.95 11.6 14.8373 11.4 14.762C11.2 14.6873 10.9833 14.65 10.75 14.65C10.1667 14.65 9.67067 14.854 9.262 15.262C8.854 15.6707 8.65 16.1667 8.65 16.75C8.65 17.3333 8.854 17.8293 9.262 18.238C9.67067 18.646 10.1667 18.85 10.75 18.85ZM6.3 21.5C5.8 21.5 5.375 21.325 5.025 20.975C4.675 20.625 4.5 20.2 4.5 19.7V4.3C4.5 3.8 4.675 3.375 5.025 3.025C5.375 2.675 5.8 2.5 6.3 2.5H13.5C13.75 2.5 13.9833 2.54567 14.2 2.637C14.4167 2.729 14.6083 2.85833 14.775 3.025L18.975 7.225C19.1417 7.39167 19.271 7.58333 19.363 7.8C19.4543 8.01667 19.5 8.25 19.5 8.5V19.7C19.5 20.2 19.325 20.625 18.975 20.975C18.625 21.325 18.2 21.5 17.7 21.5H6.3ZM13.5 4H6.3C6.23333 4 6.16667 4.03333 6.1 4.1C6.03333 4.16667 6 4.23333 6 4.3V19.7C6 19.7667 6.03333 19.8333 6.1 19.9C6.16667 19.9667 6.23333 20 6.3 20H17.7C17.7667 20 17.8333 19.9667 17.9 19.9C17.9667 19.8333 18 19.7667 18 19.7V8.5H14.4C14.15 8.5 13.9373 8.41233 13.762 8.237C13.5873 8.06233 13.5 7.85 13.5 7.6V4Z" fill="#272443"/>
</g>
</svg>
