<svg width="24" height="24" viewBox="0 0 24 24" fill="none" xmlns="http://www.w3.org/2000/svg">
<mask id="mask0_287_1241" style="mask-type:alpha" maskUnits="userSpaceOnUse" x="0" y="0" width="24" height="24">
<rect width="24" height="24" fill="#D9D9D9"/>
</mask>
<g mask="url(#mask0_287_1241)">
<path d="M12.75 22.2C12.5333 22.2 12.3543 22.125 12.213 21.975C12.071 21.825 12 21.65 12 21.45C12 21.2333 12.071 21.0543 12.213 20.913C12.3543 20.771 12.5333 20.7 12.75 20.7H18.7C18.7833 20.7 18.8543 20.6707 18.913 20.612C18.971 20.554 19 20.475 19 20.375V19.5H17.275C16.775 19.5 16.346 19.325 15.988 18.975C15.6293 18.625 15.45 18.2 15.45 17.7V14.225C15.45 13.725 15.6293 13.3 15.988 12.95C16.346 12.6 16.775 12.425 17.275 12.425H19V11C19 9.06667 18.3167 7.41667 16.95 6.05C15.5833 4.68333 13.9333 4 12 4C10.0667 4 8.41667 4.68333 7.05 6.05C5.68333 7.41667 5 9.06667 5 11V12.425H6.725C7.225 12.425 7.65433 12.6 8.013 12.95C8.371 13.3 8.55 13.725 8.55 14.225V17.7C8.55 18.2 8.371 18.625 8.013 18.975C7.65433 19.325 7.225 19.5 6.725 19.5H5.3C4.8 19.5 4.375 19.325 4.025 18.975C3.675 18.625 3.5 18.2 3.5 17.7V11C3.5 9.83333 3.725 8.73333 4.175 7.7C4.625 6.66667 5.23333 5.76667 6 5C6.76667 4.23333 7.66667 3.625 8.7 3.175C9.73333 2.725 10.8333 2.5 12 2.5C13.1667 2.5 14.2667 2.725 15.3 3.175C16.3333 3.625 17.2333 4.23333 18 5C18.7667 5.76667 19.375 6.66667 19.825 7.7C20.275 8.73333 20.5 9.83333 20.5 11V20.375C20.5 20.8917 20.325 21.325 19.975 21.675C19.625 22.025 19.2 22.2 18.7 22.2H12.75ZM5.3 18H6.725C6.825 18 6.90433 17.971 6.963 17.913C7.021 17.8543 7.05 17.7833 7.05 17.7V14.225C7.05 14.1417 7.021 14.0707 6.963 14.012C6.90433 13.954 6.825 13.925 6.725 13.925H5V17.7C5 17.7833 5.02933 17.8543 5.088 17.913C5.146 17.971 5.21667 18 5.3 18ZM17.275 18H19V13.925H17.275C17.175 13.925 17.096 13.954 17.038 14.012C16.9793 14.0707 16.95 14.1417 16.95 14.225V17.7C16.95 17.7833 16.9793 17.8543 17.038 17.913C17.096 17.971 17.175 18 17.275 18ZM5.3 18H5H7.05H6.725H5.3ZM17.275 18H16.95H19H17.275Z" fill="#272443"/>
</g>
</svg>
