<svg width="24" height="24" viewBox="0 0 24 24" fill="none" xmlns="http://www.w3.org/2000/svg">
<mask id="mask0_287_1247" style="mask-type:alpha" maskUnits="userSpaceOnUse" x="0" y="0" width="24" height="24">
<rect width="24" height="24" fill="#D9D9D9"/>
</mask>
<g mask="url(#mask0_287_1247)">
<path d="M10.0249 20.4C9.05824 20.4 8.23324 20.0583 7.5499 19.375C6.86657 18.6916 6.5249 17.8666 6.5249 16.9C6.5249 15.9333 6.86657 15.1083 7.5499 14.425C8.23324 13.7416 9.05824 13.4 10.0249 13.4C10.4082 13.4 10.7666 13.4583 11.0999 13.575C11.4332 13.6916 11.7416 13.8666 12.0249 14.1V5.39998C12.0249 4.89998 12.2039 4.47498 12.5619 4.12498C12.9206 3.77498 13.3416 3.59998 13.8249 3.59998H15.8249C16.2749 3.59998 16.6626 3.75831 16.9879 4.07498C17.3126 4.39164 17.4749 4.77498 17.4749 5.22498C17.4749 5.67498 17.3126 6.06231 16.9879 6.38698C16.6626 6.71231 16.2749 6.87498 15.8249 6.87498H13.5249V16.9C13.5249 17.8666 13.1832 18.6916 12.4999 19.375C11.8166 20.0583 10.9916 20.4 10.0249 20.4Z" fill="#272443"/>
</g>
</svg>
