<svg width="24" height="24" viewBox="0 0 24 24" fill="none" xmlns="http://www.w3.org/2000/svg">
<mask id="mask0_287_1253" style="mask-type:alpha" maskUnits="userSpaceOnUse" x="0" y="0" width="24" height="24">
<rect width="24" height="24" fill="#D9D9D9"/>
</mask>
<g mask="url(#mask0_287_1253)">
<path d="M5.3 20.5C4.8 20.5 4.375 20.325 4.025 19.975C3.675 19.625 3.5 19.2 3.5 18.7V5.3C3.5 4.8 3.675 4.375 4.025 4.025C4.375 3.675 4.8 3.5 5.3 3.5H18.7C19.2 3.5 19.625 3.675 19.975 4.025C20.325 4.375 20.5 4.8 20.5 5.3V18.7C20.5 19.2 20.325 19.625 19.975 19.975C19.625 20.325 19.2 20.5 18.7 20.5H5.3ZM5.3 19H8.45V14.35H8.125C7.85833 14.35 7.63767 14.2623 7.463 14.087C7.28767 13.9123 7.2 13.6917 7.2 13.425V5H5.3C5.21667 5 5.146 5.02933 5.088 5.088C5.02933 5.146 5 5.21667 5 5.3V18.7C5 18.7833 5.02933 18.8543 5.088 18.913C5.146 18.971 5.21667 19 5.3 19ZM15.55 19H18.7C18.7833 19 18.8543 18.971 18.913 18.913C18.971 18.8543 19 18.7833 19 18.7V5.3C19 5.21667 18.971 5.146 18.913 5.088C18.8543 5.02933 18.7833 5 18.7 5H16.8V13.425C16.8 13.6917 16.7127 13.9123 16.538 14.087C16.3627 14.2623 16.1417 14.35 15.875 14.35H15.55V19ZM9.65 19H14.35V14.35H14.025C13.7583 14.35 13.5377 14.2623 13.363 14.087C13.1877 13.9123 13.1 13.6917 13.1 13.425V5H10.9V13.425C10.9 13.6917 10.8123 13.9123 10.637 14.087C10.4623 14.2623 10.2417 14.35 9.975 14.35H9.65V19Z" fill="#272443"/>
</g>
</svg>
