<svg width="24" height="24" viewBox="0 0 24 24" fill="none" xmlns="http://www.w3.org/2000/svg">
<mask id="mask0_287_1304" style="mask-type:alpha" maskUnits="userSpaceOnUse" x="0" y="0" width="24" height="24">
<rect width="24" height="24" fill="#D9D9D9"/>
</mask>
<g mask="url(#mask0_287_1304)">
<path d="M8.00011 23.875C7.75011 23.875 7.54177 23.7917 7.37511 23.625C7.20844 23.4583 7.12511 23.25 7.12511 23C7.12511 22.75 7.20844 22.5417 7.37511 22.375C7.54177 22.2083 7.75011 22.125 8.00011 22.125C8.25011 22.125 8.45844 22.2083 8.62511 22.375C8.79177 22.5417 8.87511 22.75 8.87511 23C8.87511 23.25 8.79177 23.4583 8.62511 23.625C8.45844 23.7917 8.25011 23.875 8.00011 23.875ZM12.0001 23.875C11.7501 23.875 11.5418 23.7917 11.3751 23.625C11.2084 23.4583 11.1251 23.25 11.1251 23C11.1251 22.75 11.2084 22.5417 11.3751 22.375C11.5418 22.2083 11.7501 22.125 12.0001 22.125C12.2501 22.125 12.4584 22.2083 12.6251 22.375C12.7918 22.5417 12.8751 22.75 12.8751 23C12.8751 23.25 12.7918 23.4583 12.6251 23.625C12.4584 23.7917 12.2501 23.875 12.0001 23.875ZM16.0001 23.875C15.7501 23.875 15.5418 23.7917 15.3751 23.625C15.2084 23.4583 15.1251 23.25 15.1251 23C15.1251 22.75 15.2084 22.5417 15.3751 22.375C15.5418 22.2083 15.7501 22.125 16.0001 22.125C16.2501 22.125 16.4584 22.2083 16.6251 22.375C16.7918 22.5417 16.8751 22.75 16.8751 23C16.8751 23.25 16.7918 23.4583 16.6251 23.625C16.4584 23.7917 16.2501 23.875 16.0001 23.875ZM12.0001 13.5C11.3001 13.5 10.7084 13.2583 10.2251 12.775C9.74177 12.2917 9.50011 11.7 9.50011 11V5C9.50011 4.3 9.74177 3.70833 10.2251 3.225C10.7084 2.74167 11.3001 2.5 12.0001 2.5C12.7001 2.5 13.2918 2.74167 13.7751 3.225C14.2584 3.70833 14.5001 4.3 14.5001 5V11C14.5001 11.7 14.2584 12.2917 13.7751 12.775C13.2918 13.2583 12.7001 13.5 12.0001 13.5ZM12.0001 20.75C11.7834 20.75 11.6044 20.6793 11.4631 20.538C11.3211 20.396 11.2501 20.2167 11.2501 20V17.45C9.73344 17.2833 8.44611 16.6707 7.38811 15.612C6.32944 14.554 5.71677 13.2833 5.55011 11.8C5.51677 11.5833 5.57511 11.396 5.72511 11.238C5.87511 11.0793 6.06677 11 6.30011 11C6.48344 11 6.64577 11.0667 6.78711 11.2C6.92911 11.3333 7.01677 11.5 7.05011 11.7C7.21677 12.9167 7.76677 13.9373 8.70011 14.762C9.63344 15.5873 10.7334 16 12.0001 16C13.2668 16 14.3668 15.5873 15.3001 14.762C16.2334 13.9373 16.7834 12.9167 16.9501 11.7C16.9834 11.5 17.0708 11.3333 17.2121 11.2C17.3541 11.0667 17.5168 11 17.7001 11C17.9334 11 18.1251 11.0793 18.2751 11.238C18.4251 11.396 18.4834 11.5833 18.4501 11.8C18.2834 13.2833 17.6711 14.554 16.6131 15.612C15.5544 16.6707 14.2668 17.2833 12.7501 17.45V20C12.7501 20.2167 12.6794 20.396 12.5381 20.538C12.3961 20.6793 12.2168 20.75 12.0001 20.75ZM12.0001 12C12.2834 12 12.5211 11.904 12.7131 11.712C12.9044 11.5207 13.0001 11.2833 13.0001 11V5C13.0001 4.71667 12.9044 4.479 12.7131 4.287C12.5211 4.09567 12.2834 4 12.0001 4C11.7168 4 11.4794 4.09567 11.2881 4.287C11.0961 4.479 11.0001 4.71667 11.0001 5V11C11.0001 11.2833 11.0961 11.5207 11.2881 11.712C11.4794 11.904 11.7168 12 12.0001 12Z" fill="#272443"/>
</g>
</svg>
