<svg width="24" height="24" viewBox="0 0 24 24" fill="none" xmlns="http://www.w3.org/2000/svg">
<mask id="mask0_287_1334" style="mask-type:alpha" maskUnits="userSpaceOnUse" x="0" y="0" width="24" height="24">
<rect width="24" height="24" fill="#D9D9D9"/>
</mask>
<g mask="url(#mask0_287_1334)">
<path d="M16.7 21.5H7.3C6.8 21.5 6.375 21.325 6.025 20.975C5.675 20.625 5.5 20.2 5.5 19.7V4.3C5.5 3.8 5.675 3.375 6.025 3.025C6.375 2.675 6.8 2.5 7.3 2.5H16.7C17.2 2.5 17.625 2.675 17.975 3.025C18.325 3.375 18.5 3.8 18.5 4.3V19.7C18.5 20.2 18.325 20.625 17.975 20.975C17.625 21.325 17.2 21.5 16.7 21.5ZM16.7 20C16.7833 20 16.8543 19.971 16.913 19.913C16.971 19.8543 17 19.7833 17 19.7V4.3C17 4.21667 16.971 4.14567 16.913 4.087C16.8543 4.029 16.7833 4 16.7 4H7.3C7.21667 4 7.146 4.029 7.088 4.087C7.02933 4.14567 7 4.21667 7 4.3V19.7C7 19.7833 7.02933 19.8543 7.088 19.913C7.146 19.971 7.21667 20 7.3 20H16.7ZM12 8.8C12.5 8.8 12.925 8.625 13.275 8.275C13.625 7.925 13.8 7.5 13.8 7C13.8 6.5 13.625 6.075 13.275 5.725C12.925 5.375 12.5 5.2 12 5.2C11.5 5.2 11.075 5.375 10.725 5.725C10.375 6.075 10.2 6.5 10.2 7C10.2 7.5 10.375 7.925 10.725 8.275C11.075 8.625 11.5 8.8 12 8.8ZM12 18.725C13.0333 18.725 13.9127 18.3627 14.638 17.638C15.3627 16.9127 15.725 16.0333 15.725 15C15.725 13.9667 15.3627 13.0873 14.638 12.362C13.9127 11.6373 13.0333 11.275 12 11.275C10.9667 11.275 10.0877 11.6373 9.363 12.362C8.63767 13.0873 8.275 13.9667 8.275 15C8.275 16.0333 8.63767 16.9127 9.363 17.638C10.0877 18.3627 10.9667 18.725 12 18.725ZM12 17.225C11.3833 17.225 10.8583 17.0083 10.425 16.575C9.99167 16.1417 9.775 15.6167 9.775 15C9.775 14.3833 9.99167 13.8583 10.425 13.425C10.8583 12.9917 11.3833 12.775 12 12.775C12.6167 12.775 13.1417 12.9917 13.575 13.425C14.0083 13.8583 14.225 14.3833 14.225 15C14.225 15.6167 14.0083 16.1417 13.575 16.575C13.1417 17.0083 12.6167 17.225 12 17.225Z" fill="#272443"/>
</g>
</svg>
