<svg width="24" height="24" viewBox="0 0 24 24" fill="none" xmlns="http://www.w3.org/2000/svg">
<mask id="mask0_287_1265" style="mask-type:alpha" maskUnits="userSpaceOnUse" x="0" y="0" width="24" height="24">
<rect width="24" height="24" fill="#D9D9D9"/>
</mask>
<g mask="url(#mask0_287_1265)">
<path d="M15.0499 19.775C14.7999 19.875 14.5709 19.8416 14.3629 19.675C14.1542 19.5083 14.0499 19.2833 14.0499 19C14.0499 18.8666 14.0876 18.75 14.1629 18.65C14.2376 18.55 14.3416 18.4666 14.4749 18.4C15.7916 17.8666 16.8499 17.021 17.6499 15.863C18.4499 14.7043 18.8499 13.4083 18.8499 11.975C18.8499 10.5416 18.4499 9.24563 17.6499 8.08696C16.8499 6.92896 15.7916 6.08329 14.4749 5.54996C14.3249 5.48329 14.2166 5.39563 14.1499 5.28696C14.0832 5.17896 14.0499 5.05829 14.0499 4.92496C14.0499 4.64163 14.1542 4.42063 14.3629 4.26196C14.5709 4.10396 14.7999 4.07496 15.0499 4.17496C16.6499 4.84163 17.9332 5.87496 18.8999 7.27496C19.8666 8.67496 20.3499 10.2416 20.3499 11.975C20.3499 13.7083 19.8666 15.275 18.8999 16.675C17.9332 18.075 16.6499 19.1083 15.0499 19.775ZM4.5499 14.5C4.2999 14.5 4.08757 14.4126 3.9129 14.238C3.73757 14.0626 3.6499 13.85 3.6499 13.6V10.4C3.6499 10.15 3.73757 9.93729 3.9129 9.76196C4.08757 9.58729 4.2999 9.49996 4.5499 9.49996H7.3749L10.1249 6.74996C10.4082 6.46663 10.7332 6.40396 11.0999 6.56196C11.4666 6.72063 11.6499 6.99996 11.6499 7.39996V16.6C11.6499 17 11.4666 17.2793 11.0999 17.438C10.7332 17.596 10.4082 17.5333 10.1249 17.25L7.3749 14.5H4.5499ZM14.0499 15.65V8.29996C14.6832 8.64996 15.1916 9.15829 15.5749 9.82496C15.9582 10.4916 16.1499 11.2166 16.1499 12C16.1499 12.7833 15.9582 13.5 15.5749 14.15C15.1916 14.8 14.6832 15.3 14.0499 15.65ZM10.1499 8.84996L7.9999 11H5.1499V13H7.9999L10.1499 15.15V8.84996Z" fill="#272443"/>
</g>
</svg>
