<svg width="24" height="24" viewBox="0 0 24 24" fill="none" xmlns="http://www.w3.org/2000/svg">
<mask id="mask0_287_788" style="mask-type:alpha" maskUnits="userSpaceOnUse" x="0" y="0" width="24" height="24">
<rect width="24" height="24" fill="#D9D9D9"/>
</mask>
<g mask="url(#mask0_287_788)">
<path d="M10.2 16.725C9.96667 16.725 9.73767 16.679 9.513 16.587C9.28767 16.4956 9.08333 16.3666 8.9 16.2L4.575 11.85C4.40833 11.6666 4.27933 11.4666 4.188 11.25C4.096 11.0333 4.05 10.8083 4.05 10.575C4.05 10.325 4.096 10.0873 4.188 9.86198C4.27933 9.63731 4.40833 9.44164 4.575 9.27497L9.125 4.72498L6.9 2.49998C6.76667 2.36664 6.7 2.19564 6.7 1.98698C6.7 1.77898 6.775 1.59998 6.925 1.44998C7.075 1.29998 7.25 1.22498 7.45 1.22498C7.65 1.22498 7.825 1.29998 7.975 1.44998L15.8 9.27497C15.9833 9.44164 16.1167 9.63731 16.2 9.86198C16.2833 10.0873 16.325 10.325 16.325 10.575C16.325 10.8083 16.2833 11.0333 16.2 11.25C16.1167 11.4666 15.9833 11.6666 15.8 11.85L11.475 16.2C11.3083 16.3666 11.1127 16.4956 10.888 16.587C10.6627 16.679 10.4333 16.725 10.2 16.725ZM10.2 5.79998L5.625 10.375C5.59167 10.4083 5.57067 10.4416 5.562 10.475C5.554 10.5083 5.55 10.5416 5.55 10.575H14.85C14.85 10.5416 14.846 10.5083 14.838 10.475C14.8293 10.4416 14.8083 10.4083 14.775 10.375L10.2 5.79998ZM18.8 17.35C18.3 17.35 17.8833 17.179 17.55 16.837C17.2167 16.4956 17.05 16.0833 17.05 15.6C17.05 15.2666 17.1373 14.929 17.312 14.587C17.4873 14.2456 17.6833 13.925 17.9 13.625C18.0333 13.425 18.175 13.229 18.325 13.037C18.475 12.8456 18.6333 12.6583 18.8 12.475C18.95 12.6583 19.1 12.8456 19.25 13.037C19.4 13.229 19.5417 13.425 19.675 13.625C19.8917 13.925 20.0917 14.2456 20.275 14.587C20.4583 14.929 20.55 15.2666 20.55 15.6C20.55 16.0833 20.3793 16.4956 20.038 16.837C19.696 17.179 19.2833 17.35 18.8 17.35ZM3.5 24C3.08333 24 2.72933 23.854 2.438 23.562C2.146 23.2706 2 22.9166 2 22.5C2 22.0833 2.146 21.7293 2.438 21.438C2.72933 21.146 3.08333 21 3.5 21H20.5C20.9167 21 21.2707 21.146 21.562 21.438C21.854 21.7293 22 22.0833 22 22.5C22 22.9166 21.854 23.2706 21.562 23.562C21.2707 23.854 20.9167 24 20.5 24H3.5Z" fill="#272443"/>
</g>
</svg>
