<svg width="24" height="24" viewBox="0 0 24 24" fill="none" xmlns="http://www.w3.org/2000/svg">
<mask id="mask0_287_800" style="mask-type:alpha" maskUnits="userSpaceOnUse" x="0" y="0" width="24" height="24">
<rect width="24" height="24" fill="#D9D9D9"/>
</mask>
<g mask="url(#mask0_287_800)">
<path d="M14.325 22.725H11.075C10.8416 22.725 10.6376 22.6416 10.463 22.475C10.2876 22.3083 10.2 22.1 10.2 21.85V16.225C10.2 15.9916 10.2876 15.7876 10.463 15.613C10.6376 15.4376 10.8416 15.35 11.075 15.35H11.95V11.875C11.95 11.7916 11.921 11.7206 11.863 11.662C11.8043 11.604 11.7333 11.575 11.65 11.575H4.49995C3.99995 11.575 3.57495 11.4 3.22495 11.05C2.87495 10.7 2.69995 10.275 2.69995 9.77495V6.24995C2.69995 5.74995 2.87495 5.32495 3.22495 4.97495C3.57495 4.62495 3.99995 4.44995 4.49995 4.44995H6.09995V3.57495C6.09995 3.32495 6.18762 3.11662 6.36295 2.94995C6.53762 2.78328 6.74995 2.69995 6.99995 2.69995H18.425C18.6583 2.69995 18.8626 2.78328 19.038 2.94995C19.2126 3.11662 19.2999 3.32495 19.2999 3.57495V6.79995C19.2999 7.04995 19.2126 7.26262 19.038 7.43795C18.8626 7.61262 18.6583 7.69995 18.425 7.69995H6.99995C6.74995 7.69995 6.53762 7.61262 6.36295 7.43795C6.18762 7.26262 6.09995 7.04995 6.09995 6.79995V5.94995H4.49995C4.41662 5.94995 4.34562 5.97895 4.28695 6.03695C4.22895 6.09562 4.19995 6.16662 4.19995 6.24995V9.77495C4.19995 9.85828 4.22895 9.92895 4.28695 9.98695C4.34562 10.0456 4.41662 10.075 4.49995 10.075H11.65C12.15 10.075 12.575 10.25 12.925 10.6C13.275 10.95 13.45 11.375 13.45 11.875V15.35H14.325C14.5583 15.35 14.7626 15.4376 14.938 15.613C15.1126 15.7876 15.2 15.9916 15.2 16.225V21.85C15.2 22.1 15.1126 22.3083 14.938 22.475C14.7626 22.6416 14.5583 22.725 14.325 22.725ZM11.7 21.225H13.7V16.85H11.7V21.225ZM7.59995 6.19995H17.8V4.19995H7.59995V6.19995Z" fill="#272443"/>
</g>
</svg>
