<svg width="24" height="24" viewBox="0 0 24 24" fill="none" xmlns="http://www.w3.org/2000/svg">
<mask id="mask0_287_740" style="mask-type:alpha" maskUnits="userSpaceOnUse" x="0" y="0" width="24" height="24">
<rect width="24" height="24" fill="#D9D9D9"/>
</mask>
<g mask="url(#mask0_287_740)">
<path d="M11.975 19C11.825 19 11.675 18.9793 11.525 18.938C11.375 18.896 11.2417 18.8417 11.125 18.775C10.4083 18.3583 9.66667 18.0417 8.9 17.825C8.13333 17.6083 7.33333 17.5 6.5 17.5C5.88333 17.5 5.28333 17.5667 4.7 17.7C4.11667 17.8333 3.55 18.0333 3 18.3C2.65 18.4667 2.31267 18.4417 1.988 18.225C1.66267 18.0083 1.5 17.7083 1.5 17.325V6.47501C1.5 6.25835 1.55833 6.06235 1.675 5.88701C1.79167 5.71235 1.95 5.58335 2.15 5.50001C2.81667 5.16668 3.521 4.91668 4.263 4.75001C5.00433 4.58335 5.75 4.50001 6.5 4.50001C7.46667 4.50001 8.41267 4.63735 9.338 4.91201C10.2627 5.18735 11.15 5.57501 12 6.07501V17.55C12.85 17.0167 13.7417 16.625 14.675 16.375C15.6083 16.125 16.55 16 17.5 16C18.0667 16 18.6083 16.0417 19.125 16.125C19.6417 16.2083 20.1667 16.3333 20.7 16.5C20.7833 16.5167 20.8543 16.5167 20.913 16.5C20.971 16.4833 21 16.4333 21 16.35V5.12501C21.1667 5.17501 21.3333 5.22901 21.5 5.28701C21.6667 5.34568 21.8333 5.42501 22 5.52501C22.1667 5.60835 22.2917 5.72901 22.375 5.88701C22.4583 6.04568 22.5 6.21668 22.5 6.40001V17.3C22.5 17.7 22.3333 18.004 22 18.212C21.6667 18.4207 21.3167 18.4417 20.95 18.275C20.4 18.025 19.8377 17.8333 19.263 17.7C18.6877 17.5667 18.1 17.5 17.5 17.5C16.6667 17.5 15.8583 17.6083 15.075 17.825C14.2917 18.0417 13.5417 18.3583 12.825 18.775C12.7083 18.8417 12.575 18.896 12.425 18.938C12.275 18.9793 12.125 19 11.975 19ZM14.775 14.3C14.6083 14.45 14.4373 14.4833 14.262 14.4C14.0873 14.3167 14 14.1667 14 13.95V6.20001C14 6.16668 14.05 6.05001 14.15 5.85001L18.225 1.77501C18.375 1.62501 18.5417 1.59168 18.725 1.67501C18.9083 1.75835 19 1.90835 19 2.12501V10.3C19 10.35 18.95 10.4667 18.85 10.65L14.775 14.3ZM10.5 16.825V6.97501C9.86667 6.67501 9.21667 6.43735 8.55 6.26201C7.88333 6.08735 7.2 6.00001 6.5 6.00001C5.88333 6.00001 5.296 6.05835 4.738 6.17501C4.17933 6.29168 3.65833 6.45001 3.175 6.65001C3.125 6.66668 3.08333 6.69168 3.05 6.72501C3.01667 6.75835 3 6.80001 3 6.85001V16.375C3 16.475 3.02933 16.5333 3.088 16.55C3.146 16.5667 3.21667 16.5583 3.3 16.525C3.78333 16.3417 4.28733 16.2083 4.812 16.125C5.33733 16.0417 5.9 16 6.5 16C7.25 16 7.96667 16.0793 8.65 16.238C9.33333 16.396 9.95 16.5917 10.5 16.825Z" fill="#272443"/>
</g>
</svg>
