<svg width="24" height="24" viewBox="0 0 24 24" fill="none" xmlns="http://www.w3.org/2000/svg">
<mask id="mask0_287_254" style="mask-type:alpha" maskUnits="userSpaceOnUse" x="0" y="0" width="24" height="24">
<rect width="24" height="24" fill="#D9D9D9"/>
</mask>
<g mask="url(#mask0_287_254)">
<path d="M12 21.5C10.8166 21.5 9.71262 21.2751 8.68795 20.8251C7.66262 20.3751 6.76662 19.7667 5.99995 19C5.23328 18.2334 4.62495 17.3374 4.17495 16.312C3.72495 15.2874 3.49995 14.1834 3.49995 13C3.49995 11.8167 3.72495 10.7127 4.17495 9.68805C4.62495 8.66272 5.23328 7.76672 5.99995 7.00005C6.76662 6.23338 7.66262 5.62505 8.68795 5.17505C9.71262 4.72505 10.8166 4.50005 12 4.50005C13.1833 4.50005 14.2873 4.72505 15.312 5.17505C16.3373 5.62505 17.2333 6.23338 18 7.00005C18.7666 7.76672 19.375 8.66272 19.825 9.68805C20.275 10.7127 20.5 11.8167 20.5 13C20.5 14.1834 20.275 15.2874 19.825 16.312C19.375 17.3374 18.7666 18.2334 18 19C17.2333 19.7667 16.3373 20.3751 15.312 20.8251C14.2873 21.2751 13.1833 21.5 12 21.5ZM11.25 8.75005V12.925C11.25 13.0417 11.2706 13.154 11.312 13.262C11.354 13.3707 11.425 13.475 11.525 13.575L14.475 16.525C14.6083 16.6584 14.775 16.725 14.975 16.725C15.175 16.725 15.35 16.65 15.5 16.5C15.65 16.35 15.725 16.175 15.725 15.975C15.725 15.775 15.65 15.6 15.5 15.45L12.75 12.7V8.72505C12.75 8.52505 12.6793 8.35405 12.538 8.21205C12.396 8.07072 12.2166 8.00005 12 8.00005C11.7833 8.00005 11.6043 8.07072 11.463 8.21205C11.321 8.35405 11.25 8.53338 11.25 8.75005ZM3.44995 7.30005C3.29995 7.45005 3.12928 7.52505 2.93795 7.52505C2.74595 7.52505 2.57495 7.44172 2.42495 7.27505C2.27495 7.14172 2.19995 6.97072 2.19995 6.76205C2.19995 6.55405 2.27495 6.37505 2.42495 6.22505L5.24995 3.40005C5.38328 3.25005 5.54995 3.17505 5.74995 3.17505C5.94995 3.17505 6.12495 3.25838 6.27495 3.42505C6.42495 3.55838 6.49995 3.72938 6.49995 3.93805C6.49995 4.14605 6.42495 4.32505 6.27495 4.47505L3.44995 7.30005ZM20.525 7.27505L17.7 4.45005C17.55 4.30005 17.475 4.12905 17.475 3.93705C17.475 3.74572 17.5583 3.57505 17.725 3.42505C17.8583 3.27505 18.0293 3.20005 18.238 3.20005C18.446 3.20005 18.625 3.27505 18.775 3.42505L21.6 6.25005C21.75 6.38338 21.825 6.55005 21.825 6.75005C21.825 6.95005 21.7416 7.12505 21.575 7.27505C21.4416 7.42505 21.2706 7.50005 21.062 7.50005C20.854 7.50005 20.675 7.42505 20.525 7.27505ZM12 20C13.95 20 15.604 19.3207 16.962 17.962C18.3206 16.604 19 14.95 19 13C19 11.05 18.3206 9.39571 16.962 8.03705C15.604 6.67905 13.95 6.00005 12 6.00005C10.05 6.00005 8.39595 6.67905 7.03795 8.03705C5.67928 9.39571 4.99995 11.05 4.99995 13C4.99995 14.95 5.67928 16.604 7.03795 17.962C8.39595 19.3207 10.05 20 12 20Z" fill="#272443"/>
</g>
</svg>
