<svg width="24" height="24" viewBox="0 0 24 24" fill="none" xmlns="http://www.w3.org/2000/svg">
<mask id="mask0_287_524" style="mask-type:alpha" maskUnits="userSpaceOnUse" x="0" y="0" width="24" height="24">
<rect width="24" height="24" fill="#D9D9D9"/>
</mask>
<g mask="url(#mask0_287_524)">
<path d="M10.725 21.1C10.3417 21.1 9.98333 20.9834 9.65 20.75C9.31667 20.5167 9.1 20.2 9 19.8L8.25 17.25C7.43333 16.7 6.771 15.9624 6.263 15.037C5.75433 14.1124 5.5 13.1 5.5 12C5.5 10.9 5.75433 9.88736 6.263 8.96202C6.771 8.03736 7.43333 7.30002 8.25 6.75002L9 4.20002C9.1 3.80002 9.31667 3.48336 9.65 3.25002C9.98333 3.01669 10.3417 2.90002 10.725 2.90002H13.275C13.6583 2.90002 14.0167 3.01669 14.35 3.25002C14.6833 3.48336 14.9 3.80002 15 4.20002L15.75 6.75002C16.5667 7.30002 17.2293 8.03736 17.738 8.96202C18.246 9.88736 18.5 10.9 18.5 12C18.5 13.1 18.246 14.1124 17.738 15.037C17.2293 15.9624 16.5667 16.7 15.75 17.25L15 19.8C14.9 20.2 14.6833 20.5167 14.35 20.75C14.0167 20.9834 13.6583 21.1 13.275 21.1H10.725ZM12 17C13.3833 17 14.5627 16.5124 15.538 15.537C16.5127 14.5624 17 13.3834 17 12C17 10.6167 16.5127 9.43736 15.538 8.46202C14.5627 7.48736 13.3833 7.00002 12 7.00002C10.6167 7.00002 9.43767 7.48736 8.463 8.46202C7.48767 9.43736 7 10.6167 7 12C7 13.3834 7.48767 14.5624 8.463 15.537C9.43767 16.5124 10.6167 17 12 17ZM10.075 5.80002C10.7417 5.58336 11.3833 5.47502 12 5.47502C12.6167 5.47502 13.2583 5.58336 13.925 5.80002L13.5 4.40002H10.5L10.075 5.80002ZM10.5 19.6H13.5L13.925 18.2C13.2583 18.4167 12.6167 18.525 12 18.525C11.3833 18.525 10.7417 18.4167 10.075 18.2L10.5 19.6ZM10.5 19.6H10.075H13.925H13.5H10.5Z" fill="#272443"/>
</g>
</svg>
