<svg width="24" height="24" viewBox="0 0 24 24" fill="none" xmlns="http://www.w3.org/2000/svg">
<mask id="mask0_287_1205" style="mask-type:alpha" maskUnits="userSpaceOnUse" x="0" y="0" width="24" height="24">
<rect width="24" height="24" fill="#D9D9D9"/>
</mask>
<g mask="url(#mask0_287_1205)">
<path d="M12 16.95L8.125 20.85C7.775 21.1834 7.35 21.35 6.85 21.35C6.35 21.35 5.925 21.1834 5.575 20.85L3.15 18.4C2.8 18.05 2.625 17.629 2.625 17.137C2.625 16.6457 2.8 16.225 3.15 15.875L7.05 11.975L3.175 8.12502C2.825 7.77502 2.65 7.35002 2.65 6.85002C2.65 6.35002 2.81667 5.92502 3.15 5.57502L5.575 3.15002C5.925 2.81669 6.35 2.65002 6.85 2.65002C7.35 2.65002 7.775 2.81669 8.125 3.15002L12 7.02502L15.875 3.15002C16.2083 2.81669 16.625 2.65002 17.125 2.65002C17.625 2.65002 18.05 2.81669 18.4 3.15002L20.825 5.60002C21.175 5.95002 21.35 6.37069 21.35 6.86202C21.35 7.35402 21.175 7.77502 20.825 8.12502L16.95 12L20.825 15.875C21.175 16.225 21.35 16.65 21.35 17.15C21.35 17.65 21.175 18.075 20.825 18.425L18.425 20.825C18.075 21.175 17.65 21.35 17.15 21.35C16.65 21.35 16.225 21.175 15.875 20.825L12 16.95ZM12 11.1C12.25 11.1 12.4623 11.0124 12.637 10.837C12.8123 10.6624 12.9 10.45 12.9 10.2C12.9 9.93336 12.8123 9.71669 12.637 9.55002C12.4623 9.38336 12.25 9.30002 12 9.30002C11.75 9.30002 11.5377 9.38336 11.363 9.55002C11.1877 9.71669 11.1 9.93336 11.1 10.2C11.1 10.45 11.1877 10.6624 11.363 10.837C11.5377 11.0124 11.75 11.1 12 11.1ZM8.075 10.925L10.925 8.07502L7.05 4.20002C7 4.15002 6.93333 4.12502 6.85 4.12502C6.76667 4.12502 6.7 4.15002 6.65 4.20002L4.2 6.65002C4.15 6.70002 4.125 6.76669 4.125 6.85002C4.125 6.93336 4.15 7.00002 4.2 7.05002L8.075 10.925ZM10.2 12.9C10.45 12.9 10.6627 12.8124 10.838 12.637C11.0127 12.4624 11.1 12.25 11.1 12C11.1 11.75 11.0127 11.5377 10.838 11.363C10.6627 11.1877 10.45 11.1 10.2 11.1C9.93333 11.1 9.71667 11.1877 9.55 11.363C9.38333 11.5377 9.3 11.75 9.3 12C9.3 12.25 9.38333 12.4624 9.55 12.637C9.71667 12.8124 9.93333 12.9 10.2 12.9ZM12 14.7C12.25 14.7 12.4623 14.6167 12.637 14.45C12.8123 14.2834 12.9 14.0667 12.9 13.8C12.9 13.55 12.8123 13.3374 12.637 13.162C12.4623 12.9874 12.25 12.9 12 12.9C11.75 12.9 11.5377 12.9874 11.363 13.162C11.1877 13.3374 11.1 13.55 11.1 13.8C11.1 14.0667 11.1877 14.2834 11.363 14.45C11.5377 14.6167 11.75 14.7 12 14.7ZM13.8 12.9C14.0667 12.9 14.2833 12.8124 14.45 12.637C14.6167 12.4624 14.7 12.25 14.7 12C14.7 11.75 14.6167 11.5377 14.45 11.363C14.2833 11.1877 14.0667 11.1 13.8 11.1C13.55 11.1 13.3377 11.1877 13.163 11.363C12.9877 11.5377 12.9 11.75 12.9 12C12.9 12.25 12.9877 12.4624 13.163 12.637C13.3377 12.8124 13.55 12.9 13.8 12.9ZM13.05 15.9L16.95 19.8C17 19.85 17.0667 19.875 17.15 19.875C17.2333 19.875 17.3 19.85 17.35 19.8L19.8 17.35C19.85 17.3 19.875 17.2334 19.875 17.15C19.875 17.0667 19.85 17 19.8 16.95L15.9 13.05L13.05 15.9Z" fill="#272443"/>
</g>
</svg>
