<svg width="24" height="24" viewBox="0 0 24 24" fill="none" xmlns="http://www.w3.org/2000/svg">
<mask id="mask0_287_1217" style="mask-type:alpha" maskUnits="userSpaceOnUse" x="0" y="0" width="24" height="24">
<rect width="24" height="24" fill="#D9D9D9"/>
</mask>
<g mask="url(#mask0_287_1217)">
<path d="M2.5 17.7V10.3C2.5 9.80005 2.675 9.37505 3.025 9.02505C3.375 8.67505 3.8 8.50005 4.3 8.50005H7.25V6.60005C7.25 6.10005 7.425 5.67505 7.775 5.32505C8.125 4.97505 8.55 4.80005 9.05 4.80005H14.95C15.45 4.80005 15.875 4.97505 16.225 5.32505C16.575 5.67505 16.75 6.10005 16.75 6.60005V8.50005H19.7C20.2 8.50005 20.625 8.67505 20.975 9.02505C21.325 9.37505 21.5 9.80005 21.5 10.3V17.7C21.5 18.2 21.325 18.625 20.975 18.975C20.625 19.325 20.2 19.5 19.7 19.5H4.3C3.8 19.5 3.375 19.325 3.025 18.975C2.675 18.625 2.5 18.2 2.5 17.7ZM4.3 18H19.7C19.7833 18 19.8543 17.971 19.913 17.913C19.971 17.8544 20 17.7834 20 17.7V14.75H17.75V15C17.75 15.2167 17.6793 15.3957 17.538 15.537C17.396 15.679 17.2167 15.75 17 15.75C16.7833 15.75 16.604 15.679 16.462 15.537C16.3207 15.3957 16.25 15.2167 16.25 15V14.75H7.75V15C7.75 15.2167 7.679 15.3957 7.537 15.537C7.39567 15.679 7.21667 15.75 7 15.75C6.78333 15.75 6.60433 15.679 6.463 15.537C6.321 15.3957 6.25 15.2167 6.25 15V14.75H4V17.7C4 17.7834 4.02933 17.8544 4.088 17.913C4.146 17.971 4.21667 18 4.3 18ZM4 10.3V13.25H6.25V13C6.25 12.7834 6.321 12.604 6.463 12.462C6.60433 12.3207 6.78333 12.25 7 12.25C7.21667 12.25 7.39567 12.3207 7.537 12.462C7.679 12.604 7.75 12.7834 7.75 13V13.25H16.25V13C16.25 12.7834 16.3207 12.604 16.462 12.462C16.604 12.3207 16.7833 12.25 17 12.25C17.2167 12.25 17.396 12.3207 17.538 12.462C17.6793 12.604 17.75 12.7834 17.75 13V13.25H20V10.3C20 10.2167 19.971 10.1457 19.913 10.087C19.8543 10.029 19.7833 10 19.7 10H4.3C4.21667 10 4.146 10.029 4.088 10.087C4.02933 10.1457 4 10.2167 4 10.3ZM8.75 8.50005H15.25V6.60005C15.25 6.50005 15.221 6.42505 15.163 6.37505C15.1043 6.32505 15.0333 6.30005 14.95 6.30005H9.05C8.96667 6.30005 8.896 6.32505 8.838 6.37505C8.77933 6.42505 8.75 6.50005 8.75 6.60005V8.50005Z" fill="#272443"/>
</g>
</svg>
