<svg width="24" height="24" viewBox="0 0 24 24" fill="none" xmlns="http://www.w3.org/2000/svg">
<mask id="mask0_287_1211" style="mask-type:alpha" maskUnits="userSpaceOnUse" x="0" y="0" width="24" height="24">
<rect width="24" height="24" fill="#D9D9D9"/>
</mask>
<g mask="url(#mask0_287_1211)">
<path d="M18.9499 9.20005L15.7499 5.97505L13.6249 8.10005L11.8499 6.35005L14.4999 3.67505C14.6832 3.49172 14.8832 3.36238 15.0999 3.28705C15.3166 3.21238 15.5332 3.17505 15.7499 3.17505C15.9666 3.17505 16.1832 3.21238 16.3999 3.28705C16.6166 3.36238 16.8082 3.49172 16.9749 3.67505L18.7999 5.50005C19.0832 5.76672 19.2876 6.07072 19.4129 6.41205C19.5376 6.75405 19.5999 7.10005 19.5999 7.45005C19.5999 7.76672 19.5459 8.07105 19.4379 8.36305C19.3292 8.65438 19.1666 8.93338 18.9499 9.20005ZM6.3749 13.575C6.1249 13.325 5.9999 13.0294 5.9999 12.688C5.9999 12.346 6.1249 12.05 6.3749 11.8L8.6499 9.50005L10.4249 11.275L8.1249 13.575C7.8749 13.8417 7.58324 13.975 7.2499 13.975C6.91657 13.975 6.6249 13.8417 6.3749 13.575ZM4.8999 20.725C4.73324 20.5584 4.60824 20.3667 4.5249 20.15C4.44157 19.9334 4.3999 19.7084 4.3999 19.475C4.3999 19.2417 4.43757 19.0167 4.5129 18.8C4.58757 18.5834 4.71657 18.3917 4.8999 18.225L11.8499 11.275L8.4999 7.92505C8.2499 7.67505 8.1249 7.38338 8.1249 7.05005C8.1249 6.71672 8.2499 6.42505 8.4999 6.17505C8.7499 5.92505 9.04557 5.80005 9.3869 5.80005C9.7289 5.80005 10.0249 5.92505 10.2749 6.17505L13.6249 9.52505L15.0499 8.10005L17.5749 10.675C17.7416 10.825 17.8249 10.996 17.8249 11.188C17.8249 11.3794 17.7416 11.55 17.5749 11.7C17.4249 11.85 17.2499 11.925 17.0499 11.925C16.8499 11.925 16.6499 11.8334 16.4499 11.65L7.3749 20.725C7.20824 20.8917 7.01657 21.0167 6.7999 21.1C6.58324 21.1834 6.36657 21.225 6.1499 21.225C5.91657 21.225 5.69157 21.1834 5.4749 21.1C5.25824 21.0167 5.06657 20.8917 4.8999 20.725Z" fill="#272443"/>
</g>
</svg>
