<svg width="24" height="24" viewBox="0 0 24 24" fill="none" xmlns="http://www.w3.org/2000/svg">
<mask id="mask0_287_1295" style="mask-type:alpha" maskUnits="userSpaceOnUse" x="0" y="0" width="24" height="24">
<rect width="24" height="24" fill="#D9D9D9"/>
</mask>
<g mask="url(#mask0_287_1295)">
<path d="M4.6249 7.875L3.3249 7.275C3.20824 7.225 3.1499 7.13333 3.1499 7C3.1499 6.86667 3.20824 6.775 3.3249 6.725L4.6249 6.125L5.2249 4.825C5.2749 4.70833 5.36657 4.65 5.4999 4.65C5.63324 4.65 5.7249 4.70833 5.7749 4.825L6.3749 6.125L7.6749 6.725C7.79157 6.775 7.8499 6.86667 7.8499 7C7.8499 7.13333 7.79157 7.225 7.6749 7.275L6.3749 7.875L5.7749 9.175C5.7249 9.29167 5.63324 9.35 5.4999 9.35C5.36657 9.35 5.2749 9.29167 5.2249 9.175L4.6249 7.875ZM17.1999 5.55L16.5749 5.25C16.4582 5.2 16.3999 5.11667 16.3999 5C16.3999 4.88333 16.4582 4.8 16.5749 4.75L17.1999 4.45L17.4999 3.825C17.5499 3.70833 17.6332 3.65 17.7499 3.65C17.8666 3.65 17.9499 3.70833 17.9999 3.825L18.2999 4.45L18.9249 4.75C19.0416 4.8 19.0999 4.88333 19.0999 5C19.0999 5.11667 19.0416 5.2 18.9249 5.25L18.2999 5.55L17.9999 6.175C17.9499 6.29167 17.8666 6.35 17.7499 6.35C17.6332 6.35 17.5499 6.29167 17.4999 6.175L17.1999 5.55ZM18.9749 9.55L18.3499 9.25C18.2332 9.2 18.1749 9.11667 18.1749 9C18.1749 8.88333 18.2332 8.8 18.3499 8.75L18.9749 8.45L19.2499 7.825C19.3166 7.70833 19.4082 7.65 19.5249 7.65C19.6416 7.65 19.7249 7.70833 19.7749 7.825L20.0749 8.45L20.6999 8.75C20.7999 8.8 20.8499 8.88333 20.8499 9C20.8499 9.11667 20.7999 9.2 20.6999 9.25L20.0749 9.55L19.7749 10.175C19.7249 10.2917 19.6416 10.35 19.5249 10.35C19.4082 10.35 19.3166 10.2917 19.2499 10.175L18.9749 9.55ZM11.9999 14.5C11.2999 14.5 10.7082 14.2583 10.2249 13.775C9.74157 13.2917 9.4999 12.7 9.4999 12V6C9.4999 5.3 9.74157 4.70833 10.2249 4.225C10.7082 3.74167 11.2999 3.5 11.9999 3.5C12.6999 3.5 13.2916 3.74167 13.7749 4.225C14.2582 4.70833 14.4999 5.3 14.4999 6V12C14.4999 12.7 14.2582 13.2917 13.7749 13.775C13.2916 14.2583 12.6999 14.5 11.9999 14.5ZM11.9999 13C12.2832 13 12.5209 12.904 12.7129 12.712C12.9042 12.5207 12.9999 12.2833 12.9999 12V6C12.9999 5.71667 12.9042 5.479 12.7129 5.287C12.5209 5.09567 12.2832 5 11.9999 5C11.7166 5 11.4792 5.09567 11.2879 5.287C11.0959 5.479 10.9999 5.71667 10.9999 6V12C10.9999 12.2833 11.0959 12.5207 11.2879 12.712C11.4792 12.904 11.7166 13 11.9999 13ZM11.9999 21.75C11.7832 21.75 11.6042 21.6793 11.4629 21.538C11.3209 21.396 11.2499 21.2167 11.2499 21V18.45C9.73324 18.2667 8.4459 17.65 7.3879 16.6C6.32924 15.55 5.71657 14.2833 5.5499 12.8C5.51657 12.5833 5.5749 12.396 5.7249 12.238C5.8749 12.0793 6.06657 12 6.2999 12C6.48324 12 6.64557 12.0667 6.7869 12.2C6.9289 12.3333 7.01657 12.5 7.0499 12.7C7.21657 13.9167 7.76657 14.9373 8.6999 15.762C9.63324 16.5873 10.7332 17 11.9999 17C13.2666 17 14.3666 16.5873 15.2999 15.762C16.2332 14.9373 16.7832 13.9167 16.9499 12.7C16.9832 12.5 17.0706 12.3333 17.2119 12.2C17.3539 12.0667 17.5166 12 17.6999 12C17.9332 12 18.1249 12.0793 18.2749 12.238C18.4249 12.396 18.4832 12.5833 18.4499 12.8C18.2832 14.2833 17.6709 15.55 16.6129 16.6C15.5542 17.65 14.2666 18.2667 12.7499 18.45V21C12.7499 21.2167 12.6792 21.396 12.5379 21.538C12.3959 21.6793 12.2166 21.75 11.9999 21.75Z" fill="#272443"/>
</g>
</svg>
