<svg width="24" height="24" viewBox="0 0 24 24" fill="none" xmlns="http://www.w3.org/2000/svg">
<mask id="mask0_287_1235" style="mask-type:alpha" maskUnits="userSpaceOnUse" x="0" y="0" width="24" height="24">
<rect width="24" height="24" fill="#D9D9D9"/>
</mask>
<g mask="url(#mask0_287_1235)">
<path d="M5.3 20.5C4.8 20.5 4.375 20.325 4.025 19.975C3.675 19.625 3.5 19.2 3.5 18.7V12C3.5 10.8167 3.725 9.71267 4.175 8.688C4.625 7.66267 5.23333 6.76667 6 6C6.76667 5.23333 7.66267 4.625 8.688 4.175C9.71267 3.725 10.8167 3.5 12 3.5C13.1833 3.5 14.2873 3.725 15.312 4.175C16.3373 4.625 17.2333 5.23333 18 6C18.7667 6.76667 19.375 7.66267 19.825 8.688C20.275 9.71267 20.5 10.8167 20.5 12V18.7C20.5 19.2 20.325 19.625 19.975 19.975C19.625 20.325 19.2 20.5 18.7 20.5H17.275C16.775 20.5 16.346 20.325 15.988 19.975C15.6293 19.625 15.45 19.2 15.45 18.7V15.225C15.45 14.725 15.6293 14.3 15.988 13.95C16.346 13.6 16.775 13.425 17.275 13.425H19V12C19 10.05 18.3207 8.39567 16.962 7.037C15.604 5.679 13.95 5 12 5C10.05 5 8.396 5.679 7.038 7.037C5.67933 8.39567 5 10.05 5 12V13.425H6.725C7.225 13.425 7.65433 13.6 8.013 13.95C8.371 14.3 8.55 14.725 8.55 15.225V18.7C8.55 19.2 8.371 19.625 8.013 19.975C7.65433 20.325 7.225 20.5 6.725 20.5H5.3ZM5.3 19H6.725C6.825 19 6.90433 18.971 6.963 18.913C7.021 18.8543 7.05 18.7833 7.05 18.7V15.225C7.05 15.1417 7.021 15.0707 6.963 15.012C6.90433 14.954 6.825 14.925 6.725 14.925H5V18.7C5 18.7833 5.02933 18.8543 5.088 18.913C5.146 18.971 5.21667 19 5.3 19ZM17.275 19H18.7C18.7833 19 18.8543 18.971 18.913 18.913C18.971 18.8543 19 18.7833 19 18.7V14.925H17.275C17.175 14.925 17.096 14.954 17.038 15.012C16.9793 15.0707 16.95 15.1417 16.95 15.225V18.7C16.95 18.7833 16.9793 18.8543 17.038 18.913C17.096 18.971 17.175 19 17.275 19ZM5.3 19H5H7.05H6.725H5.3ZM17.275 19H16.95H19H18.7H17.275Z" fill="#272443"/>
</g>
</svg>
