<svg width="24" height="24" viewBox="0 0 24 24" fill="none" xmlns="http://www.w3.org/2000/svg">
<mask id="mask0_287_440" style="mask-type:alpha" maskUnits="userSpaceOnUse" x="0" y="0" width="24" height="24">
<rect width="24" height="24" fill="#D9D9D9"/>
</mask>
<g mask="url(#mask0_287_440)">
<path d="M19.5 20.75C19.15 20.75 18.8543 20.629 18.613 20.387C18.371 20.1456 18.25 19.85 18.25 19.5C18.25 19.15 18.371 18.8543 18.613 18.613C18.8543 18.371 19.15 18.25 19.5 18.25C19.85 18.25 20.146 18.371 20.388 18.613C20.6293 18.8543 20.75 19.15 20.75 19.5C20.75 19.85 20.6293 20.1456 20.388 20.387C20.146 20.629 19.85 20.75 19.5 20.75ZM10 21.75C8.4 21.75 7.04167 21.5793 5.925 21.238C4.80833 20.896 4.25 20.4833 4.25 20C4.25 19.65 4.571 19.3373 5.213 19.062C5.85433 18.7873 6.60833 18.5833 7.475 18.45V19.175C7.475 19.425 7.56267 19.6333 7.738 19.8C7.91267 19.9666 8.125 20.05 8.375 20.05C8.60833 20.05 8.81267 19.9666 8.988 19.8C9.16267 19.6333 9.25 19.425 9.25 19.175V3.84997C9.25 3.49997 9.39167 3.23731 9.675 3.06197C9.95833 2.88731 10.25 2.87497 10.55 3.02497L14.825 5.09997C15.1583 5.26664 15.3293 5.54164 15.338 5.92497C15.346 6.30831 15.1833 6.58331 14.85 6.74997L10.75 8.84997V18.275C12.1833 18.3583 13.375 18.5583 14.325 18.875C15.275 19.1916 15.75 19.5666 15.75 20C15.75 20.4833 15.1917 20.896 14.075 21.238C12.9583 21.5793 11.6 21.75 10 21.75Z" fill="#272443"/>
</g>
</svg>
