<svg width="24" height="24" viewBox="0 0 24 24" fill="none" xmlns="http://www.w3.org/2000/svg">
<mask id="mask0_287_368" style="mask-type:alpha" maskUnits="userSpaceOnUse" x="0" y="0" width="24" height="24">
<rect width="24" height="24" fill="#D9D9D9"/>
</mask>
<g mask="url(#mask0_287_368)">
<path d="M4.025 11.25H7.2C7.11667 10.5333 6.91667 9.854 6.6 9.212C6.28333 8.57067 5.875 8.00833 5.375 7.525C5.00833 8.05833 4.70833 8.63733 4.475 9.262C4.24167 9.88733 4.09167 10.55 4.025 11.25ZM16.8 11.25H19.975C19.9083 10.5667 19.7583 9.91233 19.525 9.287C19.2917 8.66233 18.9917 8.08333 18.625 7.55C18.1083 8.03333 17.696 8.59167 17.388 9.225C17.0793 9.85833 16.8833 10.5333 16.8 11.25ZM5.375 16.45C5.875 15.9667 6.28333 15.4083 6.6 14.775C6.91667 14.1417 7.11667 13.4667 7.2 12.75H4.025C4.09167 13.45 4.24167 14.1083 4.475 14.725C4.70833 15.3417 5.00833 15.9167 5.375 16.45ZM18.625 16.45C18.9917 15.9167 19.2917 15.3373 19.525 14.712C19.7583 14.0873 19.9083 13.4333 19.975 12.75H16.8C16.8833 13.4667 17.0793 14.1417 17.388 14.775C17.696 15.4083 18.1083 15.9667 18.625 16.45ZM8.725 11.25H11.25V4.025C10.2833 4.125 9.37933 4.375 8.538 4.775C7.696 5.175 6.95833 5.70833 6.325 6.375C6.99167 7.025 7.53333 7.76233 7.95 8.587C8.36667 9.41233 8.625 10.3 8.725 11.25ZM12.75 11.25H15.275C15.375 10.3 15.6333 9.40833 16.05 8.575C16.4667 7.74167 17.0083 7.00833 17.675 6.375C17.0417 5.70833 16.3043 5.175 15.463 4.775C14.621 4.375 13.7167 4.125 12.75 4.025V11.25ZM11.25 19.975V12.75H8.725C8.625 13.7167 8.36667 14.6083 7.95 15.425C7.53333 16.2417 6.99167 16.9667 6.325 17.6C6.95833 18.2667 7.69167 18.804 8.525 19.212C9.35833 19.6207 10.2667 19.875 11.25 19.975ZM12.75 19.975C13.7167 19.875 14.621 19.625 15.463 19.225C16.3043 18.825 17.0417 18.2917 17.675 17.625C17.0083 16.9917 16.4667 16.2627 16.05 15.438C15.6333 14.6127 15.375 13.7167 15.275 12.75H12.75V19.975ZM12 21.5C10.6833 21.5 9.45 21.25 8.3 20.75C7.15 20.25 6.14567 19.5707 5.287 18.712C4.429 17.854 3.75 16.85 3.25 15.7C2.75 14.55 2.5 13.3167 2.5 12C2.5 10.6833 2.75 9.45 3.25 8.3C3.75 7.15 4.429 6.14567 5.287 5.287C6.14567 4.429 7.15 3.75 8.3 3.25C9.45 2.75 10.6833 2.5 12 2.5C13.3167 2.5 14.55 2.75 15.7 3.25C16.85 3.75 17.854 4.429 18.712 5.287C19.5707 6.14567 20.25 7.15 20.75 8.3C21.25 9.45 21.5 10.6833 21.5 12C21.5 13.3167 21.25 14.55 20.75 15.7C20.25 16.85 19.5707 17.854 18.712 18.712C17.854 19.5707 16.85 20.25 15.7 20.75C14.55 21.25 13.3167 21.5 12 21.5Z" fill="#272443"/>
</g>
</svg>
