<svg width="24" height="24" viewBox="0 0 24 24" fill="none" xmlns="http://www.w3.org/2000/svg">
<mask id="mask0_287_404" style="mask-type:alpha" maskUnits="userSpaceOnUse" x="0" y="0" width="24" height="24">
<rect width="24" height="24" fill="#D9D9D9"/>
</mask>
<g mask="url(#mask0_287_404)">
<path d="M7.65 21C6.75 21 5.95 20.9333 5.25 20.8C4.55 20.6667 4.06667 20.4583 3.8 20.175C3.55 19.9083 3.35433 19.4207 3.213 18.712C3.071 18.004 3 17.2 3 16.3C3 14.4333 3.325 12.6417 3.975 10.925C4.625 9.20833 5.51667 7.78333 6.65 6.65C7.78333 5.51667 9.20833 4.625 10.925 3.975C12.6417 3.325 14.45 3 16.35 3C17.25 3 18.05 3.06667 18.75 3.2C19.45 3.33333 19.9333 3.54167 20.2 3.825C20.45 4.09167 20.646 4.579 20.788 5.287C20.9293 5.99567 21 6.8 21 7.7C21 9.56667 20.675 11.3583 20.025 13.075C19.375 14.7917 18.4833 16.2167 17.35 17.35C16.2167 18.4833 14.7917 19.375 13.075 20.025C11.3583 20.675 9.55 21 7.65 21ZM4.55 16.65C5.1 15.25 5.775 13.9293 6.575 12.688C7.375 11.446 8.275 10.3083 9.275 9.275C10.275 8.275 11.4 7.375 12.65 6.575C13.9 5.775 15.225 5.1 16.625 4.55C14.9417 4.51667 13.2877 4.78733 11.663 5.362C10.0377 5.93733 8.725 6.725 7.725 7.725C6.70833 8.725 5.91267 10.0333 5.338 11.65C4.76267 13.2667 4.5 14.9333 4.55 16.65ZM7.4 19.45C9.06667 19.4833 10.7127 19.2123 12.338 18.637C13.9627 18.0623 15.275 17.275 16.275 16.275C17.2917 15.275 18.0877 13.9623 18.663 12.337C19.2377 10.7123 19.5 9.04167 19.45 7.325C18.9 8.725 18.2293 10.05 17.438 11.3C16.646 12.55 15.7417 13.6917 14.725 14.725C13.7083 15.725 12.5793 16.625 11.338 17.425C10.096 18.225 8.78333 18.9 7.4 19.45ZM5.4 18.6C6.88333 18.15 8.354 17.4833 9.812 16.6C11.2707 15.7167 12.5417 14.725 13.625 13.625C14.7417 12.525 15.7417 11.2417 16.625 9.775C17.5083 8.30833 18.1667 6.85 18.6 5.4C17.1167 5.85 15.646 6.51667 14.188 7.4C12.7293 8.28333 11.4583 9.275 10.375 10.375C9.25833 11.475 8.25833 12.7583 7.375 14.225C6.49167 15.6917 5.83333 17.15 5.4 18.6Z" fill="#272443"/>
</g>
</svg>
