<svg width="24" height="24" viewBox="0 0 24 24" fill="none" xmlns="http://www.w3.org/2000/svg">
<mask id="mask0_287_416" style="mask-type:alpha" maskUnits="userSpaceOnUse" x="0" y="0" width="24" height="24">
<rect width="24" height="24" fill="#D9D9D9"/>
</mask>
<g mask="url(#mask0_287_416)">
<path d="M7.8001 15.35L4.0001 19.125C3.8501 19.275 3.6751 19.35 3.4751 19.35C3.2751 19.35 3.10843 19.275 2.9751 19.125C2.80843 18.975 2.7251 18.8 2.7251 18.6C2.7251 18.4 2.8001 18.225 2.9501 18.075L6.7251 14.3C7.2251 13.8 7.56276 13.1873 7.7381 12.462C7.91276 11.7373 8.0001 10.625 8.0001 9.12501C8.0001 8.19168 8.20843 7.27901 8.6251 6.38701C9.04176 5.49568 9.63343 4.66668 10.4001 3.90001C11.8168 2.48335 13.3708 1.67501 15.0621 1.47501C16.7541 1.27501 18.1418 1.73335 19.2251 2.85001C20.3251 3.95001 20.7751 5.34568 20.5751 7.03701C20.3751 8.72901 19.5751 10.275 18.1751 11.675C17.4251 12.4417 16.6044 13.0293 15.7131 13.438C14.8211 13.846 13.9001 14.05 12.9501 14.05C11.4668 14.05 10.3668 14.1373 9.6501 14.312C8.93343 14.4873 8.31676 14.8333 7.8001 15.35ZM10.3751 11.65C11.1584 12.4167 12.2168 12.7 13.5501 12.5C14.8834 12.3 16.0751 11.675 17.1251 10.625C18.1918 9.55835 18.8294 8.36235 19.0381 7.03701C19.2461 5.71235 18.9584 4.67501 18.1751 3.92501C17.3751 3.12501 16.3294 2.82901 15.0381 3.03701C13.7461 3.24568 12.5584 3.88335 11.4751 4.95001C10.4251 5.98335 9.78743 7.16268 9.5621 8.48801C9.33743 9.81268 9.60843 10.8667 10.3751 11.65ZM18.0751 22.5C17.1084 22.5 16.2834 22.1583 15.6001 21.475C14.9168 20.7917 14.5751 19.9667 14.5751 19C14.5751 18.0333 14.9168 17.2083 15.6001 16.525C16.2834 15.8417 17.1084 15.5 18.0751 15.5C19.0418 15.5 19.8668 15.8417 20.5501 16.525C21.2334 17.2083 21.5751 18.0333 21.5751 19C21.5751 19.9667 21.2334 20.7917 20.5501 21.475C19.8668 22.1583 19.0418 22.5 18.0751 22.5ZM18.0751 21C18.6251 21 19.0961 20.8043 19.4881 20.413C19.8794 20.021 20.0751 19.55 20.0751 19C20.0751 18.45 19.8794 17.979 19.4881 17.587C19.0961 17.1957 18.6251 17 18.0751 17C17.5251 17 17.0544 17.1957 16.6631 17.587C16.2711 17.979 16.0751 18.45 16.0751 19C16.0751 19.55 16.2711 20.021 16.6631 20.413C17.0544 20.8043 17.5251 21 18.0751 21Z" fill="#272443"/>
</g>
</svg>
