<svg width="24" height="24" viewBox="0 0 24 24" fill="none" xmlns="http://www.w3.org/2000/svg">
<mask id="mask0_287_374" style="mask-type:alpha" maskUnits="userSpaceOnUse" x="0" y="0" width="24" height="24">
<rect width="24" height="24" fill="#D9D9D9"/>
</mask>
<g mask="url(#mask0_287_374)">
<path d="M9.4 18.9L5.1 14.6C5.01667 15.25 4.98333 15.9667 5 16.75C5.01667 17.5333 5.08333 18.2 5.2 18.75C5.61667 18.8833 6.26267 18.9623 7.138 18.987C8.01267 19.0123 8.76667 18.9833 9.4 18.9ZM11.2 18.6C12.1833 18.4167 13.1043 18.1127 13.963 17.688C14.821 17.2627 15.55 16.75 16.15 16.15C16.7333 15.5667 17.2333 14.854 17.65 14.012C18.0667 13.1707 18.3833 12.25 18.6 11.25L12.75 5.4C11.8 5.6 10.904 5.91667 10.062 6.35C9.22067 6.78333 8.50833 7.29167 7.925 7.875C7.34167 8.45833 6.83333 9.17067 6.4 10.012C5.96667 10.854 5.63333 11.7833 5.4 12.8L11.2 18.6ZM9.375 14.625C9.225 14.475 9.15 14.3 9.15 14.1C9.15 13.9 9.225 13.725 9.375 13.575L13.6 9.35C13.7333 9.21667 13.9 9.15 14.1 9.15C14.3 9.15 14.475 9.225 14.625 9.375C14.775 9.525 14.85 9.7 14.85 9.9C14.85 10.1 14.775 10.275 14.625 10.425L10.4 14.65C10.2667 14.7833 10.1 14.85 9.9 14.85C9.7 14.85 9.525 14.775 9.375 14.625ZM18.9 9.45C19 8.76667 19.0377 8.029 19.013 7.237C18.9877 6.44567 18.9167 5.78333 18.8 5.25C18.3833 5.11667 17.7377 5.03333 16.863 5C15.9877 4.96667 15.2333 5 14.6 5.1L18.9 9.45ZM7.825 20.5C6.95833 20.5 6.15 20.4373 5.4 20.312C4.65 20.1873 4.2 20.05 4.05 19.9C3.91667 19.75 3.79167 19.3083 3.675 18.575C3.55833 17.8417 3.5 17.05 3.5 16.2C3.5 14.2667 3.78767 12.4833 4.363 10.85C4.93767 9.21667 5.75833 7.875 6.825 6.825C7.875 5.75833 9.229 4.93733 10.887 4.362C12.5457 3.78733 14.3417 3.5 16.275 3.5C17.1417 3.5 17.921 3.55833 18.613 3.675C19.3043 3.79167 19.7333 3.925 19.9 4.075C20.0667 4.24167 20.2083 4.68333 20.325 5.4C20.4417 6.11667 20.5 6.925 20.5 7.825C20.5 9.74167 20.2127 11.5207 19.638 13.162C19.0627 14.804 18.25 16.15 17.2 17.2C16.1667 18.2333 14.825 19.0417 13.175 19.625C11.525 20.2083 9.74167 20.5 7.825 20.5Z" fill="#272443"/>
</g>
</svg>
