<svg width="24" height="24" viewBox="0 0 24 24" fill="none" xmlns="http://www.w3.org/2000/svg">
<mask id="mask0_287_422" style="mask-type:alpha" maskUnits="userSpaceOnUse" x="0" y="0" width="24" height="24">
<rect width="24" height="24" fill="#D9D9D9"/>
</mask>
<g mask="url(#mask0_287_422)">
<path d="M19.675 9.825C19.2083 8.24167 18.35 6.92067 17.1 5.862C15.85 4.804 14.4 4.19167 12.75 4.025V5.775L19.675 9.825ZM7.75 13.6L11.25 11.55V4.025C10.6167 4.09167 10.0083 4.22933 9.425 4.438C8.84167 4.646 8.28333 4.91667 7.75 5.25V13.6ZM4.75 15.325L6.25 14.45V6.475C5.51667 7.20833 4.95833 8.054 4.575 9.012C4.19167 9.97067 4 10.9667 4 12C4 12.5833 4.05833 13.154 4.175 13.712C4.29167 14.2707 4.48333 14.8083 4.75 15.325ZM8.25 19.05L15.5 14.9L12 12.85L5.5 16.65C5.85 17.15 6.25433 17.6083 6.713 18.025C7.171 18.4417 7.68333 18.7833 8.25 19.05ZM12 20C13.3 20 14.521 19.7 15.663 19.1C16.8043 18.5 17.75 17.6667 18.5 16.6L17 15.75L10.05 19.75C10.3667 19.85 10.6873 19.9167 11.012 19.95C11.3373 19.9833 11.6667 20 12 20ZM19.25 15.325C19.5333 14.775 19.7377 14.1957 19.863 13.587C19.9877 12.979 20.025 12.3583 19.975 11.725L12.75 7.5V11.55L19.25 15.325ZM12 21.5C10.6833 21.5 9.446 21.25 8.288 20.75C7.12933 20.25 6.125 19.575 5.275 18.725C4.425 17.875 3.75 16.8707 3.25 15.712C2.75 14.554 2.5 13.3167 2.5 12C2.5 10.6833 2.75 9.44567 3.25 8.287C3.75 7.129 4.425 6.125 5.275 5.275C6.125 4.425 7.12933 3.75 8.288 3.25C9.446 2.75 10.6833 2.5 12 2.5C13.3167 2.5 14.5543 2.75 15.713 3.25C16.871 3.75 17.875 4.425 18.725 5.275C19.575 6.125 20.25 7.129 20.75 8.287C21.25 9.44567 21.5 10.6833 21.5 12C21.5 13.3167 21.25 14.554 20.75 15.712C20.25 16.8707 19.575 17.875 18.725 18.725C17.875 19.575 16.871 20.25 15.713 20.75C14.5543 21.25 13.3167 21.5 12 21.5Z" fill="#272443"/>
</g>
</svg>
