<svg width="24" height="24" viewBox="0 0 24 24" fill="none" xmlns="http://www.w3.org/2000/svg">
<mask id="mask0_287_1370" style="mask-type:alpha" maskUnits="userSpaceOnUse" x="0" y="0" width="24" height="24">
<rect width="24" height="24" fill="#D9D9D9"/>
</mask>
<g mask="url(#mask0_287_1370)">
<path d="M4.75 20.575C4.33333 20.575 3.97933 20.4289 3.688 20.1369C3.396 19.8456 3.25 19.4916 3.25 19.075V8.57495C3.25 8.17495 3.396 7.82495 3.688 7.52495C3.97933 7.22495 4.33333 7.07495 4.75 7.07495H7.25V4.57495C7.25 4.17495 7.396 3.82495 7.688 3.52495C7.97933 3.22495 8.33333 3.07495 8.75 3.07495H15.25C15.6667 3.07495 16.0207 3.22495 16.312 3.52495C16.604 3.82495 16.75 4.17495 16.75 4.57495V11.075H19.25C19.6667 11.075 20.0207 11.225 20.312 11.525C20.604 11.825 20.75 12.175 20.75 12.575V19.075C20.75 19.4916 20.604 19.8456 20.312 20.1369C20.0207 20.4289 19.6667 20.575 19.25 20.575H13.25V16.575H10.75V20.575H4.75ZM4.75 19.075H7.25V16.575H4.75V19.075ZM4.75 15.075H7.25V12.575H4.75V15.075ZM4.75 11.075H7.25V8.57495H4.75V11.075ZM8.75 15.075H11.25V12.575H8.75V15.075ZM8.75 11.075H11.25V8.57495H8.75V11.075ZM8.75 7.07495H11.25V4.57495H8.75V7.07495ZM12.75 15.075H15.25V12.575H12.75V15.075ZM12.75 11.075H15.25V8.57495H12.75V11.075ZM12.75 7.07495H15.25V4.57495H12.75V7.07495ZM16.75 19.075H19.25V16.575H16.75V19.075ZM16.75 15.075H19.25V12.575H16.75V15.075Z" fill="#272443"/>
</g>
</svg>
