<svg width="24" height="24" viewBox="0 0 24 24" fill="none" xmlns="http://www.w3.org/2000/svg">
<mask id="mask0_287_1406" style="mask-type:alpha" maskUnits="userSpaceOnUse" x="0" y="0" width="24" height="24">
<rect width="24" height="24" fill="#D9D9D9"/>
</mask>
<g mask="url(#mask0_287_1406)">
<path d="M10.8749 19.5H6.39991C6.14991 19.5 5.93758 19.4126 5.76291 19.238C5.58758 19.0626 5.49991 18.85 5.49991 18.6V11.6H4.39991C4.18324 11.6 4.03758 11.5 3.96291 11.3C3.88758 11.1 3.93324 10.9333 4.09991 10.8L11.3999 4.22498C11.5666 4.05831 11.7666 3.97498 11.9999 3.97498C12.2332 3.97498 12.4249 4.04164 12.5749 4.17498L15.8749 7.17498V5.47498C15.8749 5.25831 15.9499 5.07898 16.0999 4.93698C16.2499 4.79564 16.4249 4.72498 16.6249 4.72498H17.4499C17.6499 4.72498 17.8249 4.79564 17.9749 4.93698C18.1249 5.07898 18.1999 5.25831 18.1999 5.47498V9.24998L19.8999 10.8C20.0666 10.9333 20.1126 11.1 20.0379 11.3C19.9626 11.5 19.8166 11.6 19.5999 11.6H18.4999V18.6C18.4999 18.85 18.4126 19.0626 18.2379 19.238C18.0626 19.4126 17.8499 19.5 17.5999 19.5H13.1249V13.875H10.8749V19.5ZM6.99991 18H9.37491V13.3C9.37491 13.0333 9.46224 12.8123 9.63691 12.637C9.81224 12.4623 10.0332 12.375 10.2999 12.375H13.6999C13.9666 12.375 14.1876 12.4623 14.3629 12.637C14.5376 12.8123 14.6249 13.0333 14.6249 13.3V18H16.9999V10.2L11.9999 5.69998L6.99991 10.2V18ZM10.0999 10.025H13.8999C13.8999 9.52498 13.7082 9.11231 13.3249 8.78698C12.9416 8.46231 12.4999 8.29998 11.9999 8.29998C11.4999 8.29998 11.0582 8.45831 10.6749 8.77498C10.2916 9.09164 10.0999 9.50831 10.0999 10.025Z" fill="#272443"/>
</g>
</svg>
