<svg width="24" height="24" viewBox="0 0 24 24" fill="none" xmlns="http://www.w3.org/2000/svg">
<mask id="mask0_287_1412" style="mask-type:alpha" maskUnits="userSpaceOnUse" x="0" y="0" width="24" height="24">
<rect width="24" height="24" fill="#D9D9D9"/>
</mask>
<g mask="url(#mask0_287_1412)">
<path d="M5.5249 20.575C5.10824 20.575 4.75424 20.429 4.4629 20.137C4.1709 19.8456 4.0249 19.4916 4.0249 19.075V8.57498C4.0249 8.17498 4.1709 7.82498 4.4629 7.52498C4.75424 7.22498 5.10824 7.07498 5.5249 7.07498H9.2499V5.07498C9.2499 4.97498 9.25824 4.87498 9.2749 4.77498C9.29157 4.67498 9.3209 4.58331 9.3629 4.49998C9.40424 4.41664 9.4499 4.33331 9.4999 4.24998C9.5499 4.16664 9.61657 4.08331 9.6999 3.99998L11.3749 2.37498C11.5416 2.19164 11.7499 2.09998 11.9999 2.09998C12.2499 2.09998 12.4582 2.19164 12.6249 2.37498L14.2999 3.99998C14.4499 4.14998 14.5622 4.31231 14.6369 4.48698C14.7122 4.66231 14.7499 4.85831 14.7499 5.07498V11.075H18.4749C18.8916 11.075 19.2459 11.225 19.5379 11.525C19.8292 11.825 19.9749 12.175 19.9749 12.575V19.075C19.9749 19.4916 19.8292 19.8456 19.5379 20.137C19.2459 20.429 18.8916 20.575 18.4749 20.575H5.5249ZM5.5249 19.075H8.0249V16.575H5.5249V19.075ZM5.5249 15.075H8.0249V12.575H5.5249V15.075ZM5.5249 11.075H8.0249V8.57498H5.5249V11.075ZM10.7499 19.075H13.2499V16.575H10.7499V19.075ZM10.7499 15.075H13.2499V12.575H10.7499V15.075ZM10.7499 11.075H13.2499V8.57498H10.7499V11.075ZM10.7499 7.07498H13.2499V4.57498H10.7499V7.07498ZM15.9749 19.075H18.4749V16.575H15.9749V19.075ZM15.9749 15.075H18.4749V12.575H15.9749V15.075Z" fill="#272443"/>
</g>
</svg>
