<svg width="24" height="24" viewBox="0 0 24 24" fill="none" xmlns="http://www.w3.org/2000/svg">
<mask id="mask0_287_1424" style="mask-type:alpha" maskUnits="userSpaceOnUse" x="0" y="0" width="24" height="24">
<rect width="24" height="24" fill="#D9D9D9"/>
</mask>
<g mask="url(#mask0_287_1424)">
<path d="M4.4 20.5C4.15 20.5 3.93767 20.4126 3.763 20.238C3.58767 20.0626 3.5 19.85 3.5 19.6V8.97497C3.5 8.77497 3.55433 8.59996 3.663 8.44996C3.771 8.29996 3.90833 8.19163 4.075 8.12496L14.4 4.14996C14.7 4.0333 14.9793 4.06663 15.238 4.24996C15.496 4.4333 15.625 4.6833 15.625 4.99996V12.5H16.95C16.95 12.0166 17.125 11.6 17.475 11.25C17.825 10.9 18.2417 10.725 18.725 10.725C19.2083 10.725 19.625 10.9 19.975 11.25C20.325 11.6 20.5 12.0166 20.5 12.5V19.6C20.5 19.85 20.4127 20.0626 20.238 20.238C20.0627 20.4126 19.85 20.5 19.6 20.5H4.4ZM5 19H9.5V13.4C9.5 13.15 9.58733 12.9373 9.762 12.762C9.93733 12.5873 10.15 12.5 10.4 12.5H14.125V5.84996L5 9.37496V19ZM11 19H14.125V17.225C14.125 16.9916 14.2083 16.7876 14.375 16.613C14.5417 16.4376 14.75 16.35 15 16.35C15.25 16.35 15.4583 16.4376 15.625 16.613C15.7917 16.7876 15.875 16.9916 15.875 17.225V19H19V14H11V19Z" fill="#272443"/>
</g>
</svg>
