<svg width="24" height="24" viewBox="0 0 24 24" fill="none" xmlns="http://www.w3.org/2000/svg">
<mask id="mask0_287_1121" style="mask-type:alpha" maskUnits="userSpaceOnUse" x="0" y="0" width="24" height="24">
<rect width="24" height="24" fill="#D9D9D9"/>
</mask>
<g mask="url(#mask0_287_1121)">
<path d="M18.7 21.5H5.3C4.8 21.5 4.375 21.325 4.025 20.975C3.675 20.625 3.5 20.2 3.5 19.7V8.3C3.5 7.8 3.675 7.375 4.025 7.025C4.375 6.675 4.8 6.5 5.3 6.5H7.5C7.5 5.25 7.93733 4.18733 8.812 3.312C9.68733 2.43733 10.75 2 12 2C13.25 2 14.3127 2.43733 15.188 3.312C16.0627 4.18733 16.5 5.25 16.5 6.5H18.7C19.2 6.5 19.625 6.675 19.975 7.025C20.325 7.375 20.5 7.8 20.5 8.3V19.7C20.5 20.2 20.325 20.625 19.975 20.975C19.625 21.325 19.2 21.5 18.7 21.5ZM9 6.5H15C15 5.66667 14.7083 4.95833 14.125 4.375C13.5417 3.79167 12.8333 3.5 12 3.5C11.1667 3.5 10.4583 3.79167 9.875 4.375C9.29167 4.95833 9 5.66667 9 6.5ZM18.7 20C18.7833 20 18.8543 19.971 18.913 19.913C18.971 19.8543 19 19.7833 19 19.7V8.3C19 8.21667 18.971 8.14567 18.913 8.087C18.8543 8.029 18.7833 8 18.7 8H5.3C5.21667 8 5.146 8.029 5.088 8.087C5.02933 8.14567 5 8.21667 5 8.3V19.7C5 19.7833 5.02933 19.8543 5.088 19.913C5.146 19.971 5.21667 20 5.3 20H18.7ZM12 13.5C13.1333 13.5 14.15 13.1167 15.05 12.35C15.95 11.5833 16.3917 10.7167 16.375 9.75C16.375 9.53333 16.3083 9.354 16.175 9.212C16.0417 9.07067 15.8667 9 15.65 9C15.4667 9 15.3083 9.06267 15.175 9.188C15.0417 9.31267 14.9417 9.48333 14.875 9.7C14.7417 10.3667 14.4 10.9167 13.85 11.35C13.3 11.7833 12.6833 12 12 12C11.3167 12 10.7 11.7833 10.15 11.35C9.6 10.9167 9.25833 10.3667 9.125 9.7C9.05833 9.46667 8.96267 9.29167 8.838 9.175C8.71267 9.05833 8.55833 9 8.375 9C8.175 9 8 9.07067 7.85 9.212C7.7 9.354 7.625 9.53333 7.625 9.75C7.625 10.7167 8.071 11.5833 8.963 12.35C9.85433 13.1167 10.8667 13.5 12 13.5Z" fill="#272443"/>
</g>
</svg>
