<svg width="24" height="24" viewBox="0 0 24 24" fill="none" xmlns="http://www.w3.org/2000/svg">
<mask id="mask0_287_1133" style="mask-type:alpha" maskUnits="userSpaceOnUse" x="0" y="0" width="24" height="24">
<rect width="24" height="24" fill="#D9D9D9"/>
</mask>
<g mask="url(#mask0_287_1133)">
<path d="M11.975 18.8C12.1583 18.8 12.3167 18.7333 12.45 18.6C12.5833 18.4667 12.65 18.3083 12.65 18.125V17.6C13.4333 17.5 14.1377 17.2083 14.763 16.725C15.3877 16.2417 15.7 15.5167 15.7 14.55C15.7 13.85 15.496 13.2293 15.088 12.688C14.6793 12.146 13.875 11.6583 12.675 11.225C11.625 10.875 10.925 10.5667 10.575 10.3C10.225 10.0333 10.05 9.66667 10.05 9.2C10.05 8.73333 10.2293 8.35 10.588 8.05C10.946 7.75 11.4333 7.6 12.05 7.6C12.4167 7.6 12.7417 7.67067 13.025 7.812C13.3083 7.954 13.5417 8.14167 13.725 8.375C13.8583 8.525 14.0043 8.62933 14.163 8.688C14.321 8.746 14.4667 8.74167 14.6 8.675C14.8 8.59167 14.9373 8.45833 15.012 8.275C15.0873 8.09167 15.0667 7.925 14.95 7.775C14.6833 7.39167 14.3543 7.075 13.963 6.825C13.571 6.575 13.15 6.43333 12.7 6.4V5.875C12.7 5.69167 12.6333 5.53333 12.5 5.4C12.3667 5.26667 12.2083 5.2 12.025 5.2C11.8417 5.2 11.6833 5.26667 11.55 5.4C11.4167 5.53333 11.35 5.69167 11.35 5.875V6.4C10.5 6.56667 9.846 6.91233 9.388 7.437C8.92933 7.96233 8.7 8.55 8.7 9.2C8.7 9.95 8.925 10.554 9.375 11.012C9.825 11.4707 10.5667 11.8833 11.6 12.25C12.6667 12.65 13.3917 13.004 13.775 13.312C14.1583 13.6207 14.35 14.0333 14.35 14.55C14.35 15.1833 14.125 15.6417 13.675 15.925C13.225 16.2083 12.7167 16.35 12.15 16.35C11.6667 16.35 11.2333 16.2293 10.85 15.988C10.4667 15.746 10.15 15.4 9.9 14.95C9.8 14.7833 9.66267 14.6667 9.488 14.6C9.31267 14.5333 9.14167 14.5333 8.975 14.6C8.80833 14.6667 8.68333 14.7917 8.6 14.975C8.51667 15.1583 8.51667 15.3333 8.6 15.5C8.86667 16.0667 9.225 16.5167 9.675 16.85C10.125 17.1833 10.6667 17.4167 11.3 17.55V18.125C11.3 18.3083 11.3667 18.4667 11.5 18.6C11.6333 18.7333 11.7917 18.8 11.975 18.8ZM12 21.5C10.6833 21.5 9.446 21.25 8.288 20.75C7.12933 20.25 6.125 19.575 5.275 18.725C4.425 17.875 3.75 16.8707 3.25 15.712C2.75 14.554 2.5 13.3167 2.5 12C2.5 10.6833 2.75 9.44567 3.25 8.287C3.75 7.129 4.425 6.125 5.275 5.275C6.125 4.425 7.12933 3.75 8.288 3.25C9.446 2.75 10.6833 2.5 12 2.5C13.3167 2.5 14.5543 2.75 15.713 3.25C16.871 3.75 17.875 4.425 18.725 5.275C19.575 6.125 20.25 7.129 20.75 8.287C21.25 9.44567 21.5 10.6833 21.5 12C21.5 13.3167 21.25 14.554 20.75 15.712C20.25 16.8707 19.575 17.875 18.725 18.725C17.875 19.575 16.871 20.25 15.713 20.75C14.5543 21.25 13.3167 21.5 12 21.5ZM12 20C14.2167 20 16.1043 19.221 17.663 17.663C19.221 16.1043 20 14.2167 20 12C20 9.78333 19.221 7.89567 17.663 6.337C16.1043 4.779 14.2167 4 12 4C9.78333 4 7.896 4.779 6.338 6.337C4.77933 7.89567 4 9.78333 4 12C4 14.2167 4.77933 16.1043 6.338 17.663C7.896 19.221 9.78333 20 12 20Z" fill="#272443"/>
</g>
</svg>
