<svg width="24" height="24" viewBox="0 0 24 24" fill="none" xmlns="http://www.w3.org/2000/svg">
<mask id="mask0_287_1145" style="mask-type:alpha" maskUnits="userSpaceOnUse" x="0" y="0" width="24" height="24">
<rect width="24" height="24" fill="#D9D9D9"/>
</mask>
<g mask="url(#mask0_287_1145)">
<path d="M4 16.8V18.7C4 18.7834 4.02933 18.8544 4.088 18.913C4.146 18.971 4.21667 19 4.3 19H19.7C19.7833 19 19.8543 18.971 19.913 18.913C19.971 18.8544 20 18.7834 20 18.7V16.8H4ZM4.3 20.5C3.8 20.5 3.375 20.325 3.025 19.975C2.675 19.625 2.5 19.2 2.5 18.7V8.32502C2.5 7.82502 2.675 7.40002 3.025 7.05002C3.375 6.70002 3.8 6.52502 4.3 6.52502H7.075C6.99167 6.37502 6.92933 6.21669 6.888 6.05002C6.846 5.88336 6.825 5.70836 6.825 5.52502C6.825 4.82502 7.06667 4.23336 7.55 3.75002C8.03333 3.26669 8.625 3.02502 9.325 3.02502C9.74167 3.02502 10.1293 3.13336 10.488 3.35002C10.846 3.56669 11.1583 3.83336 11.425 4.15002L11.975 4.90002L12.55 4.15002C12.8 3.81669 13.1043 3.54569 13.463 3.33702C13.821 3.12902 14.2083 3.02502 14.625 3.02502C15.325 3.02502 15.9167 3.26669 16.4 3.75002C16.8833 4.23336 17.125 4.82502 17.125 5.52502C17.125 5.70836 17.1083 5.88336 17.075 6.05002C17.0417 6.21669 16.975 6.37502 16.875 6.52502H19.7C20.2 6.52502 20.625 6.70002 20.975 7.05002C21.325 7.40002 21.5 7.82502 21.5 8.32502V18.7C21.5 19.2 21.325 19.625 20.975 19.975C20.625 20.325 20.2 20.5 19.7 20.5H4.3ZM4 14.2H20V8.32502C20 8.24169 19.971 8.17069 19.913 8.11202C19.8543 8.05402 19.7833 8.02502 19.7 8.02502H14.225L15.85 10.25C15.9667 10.4 16 10.5667 15.95 10.75C15.9 10.9334 15.8083 11.1 15.675 11.25C15.5083 11.3667 15.325 11.4084 15.125 11.375C14.925 11.3417 14.7667 11.2417 14.65 11.075L11.975 7.47502L9.3 11.1C9.16667 11.2834 9 11.3874 8.8 11.412C8.6 11.4374 8.43333 11.3834 8.3 11.25C8.11667 11.1167 8.01267 10.95 7.988 10.75C7.96267 10.55 8.00833 10.375 8.125 10.225L9.7 8.02502H4.3C4.21667 8.02502 4.146 8.05402 4.088 8.11202C4.02933 8.17069 4 8.24169 4 8.32502V14.2ZM9.325 6.52502C9.60833 6.52502 9.846 6.42902 10.038 6.23702C10.2293 6.04569 10.325 5.80836 10.325 5.52502C10.325 5.24169 10.2293 5.00402 10.038 4.81202C9.846 4.62069 9.60833 4.52502 9.325 4.52502C9.04167 4.52502 8.80433 4.62069 8.613 4.81202C8.421 5.00402 8.325 5.24169 8.325 5.52502C8.325 5.80836 8.421 6.04569 8.613 6.23702C8.80433 6.42902 9.04167 6.52502 9.325 6.52502ZM14.625 6.52502C14.9083 6.52502 15.146 6.42902 15.338 6.23702C15.5293 6.04569 15.625 5.80836 15.625 5.52502C15.625 5.24169 15.5293 5.00402 15.338 4.81202C15.146 4.62069 14.9083 4.52502 14.625 4.52502C14.3417 4.52502 14.1043 4.62069 13.913 4.81202C13.721 5.00402 13.625 5.24169 13.625 5.52502C13.625 5.80836 13.721 6.04569 13.913 6.23702C14.1043 6.42902 14.3417 6.52502 14.625 6.52502Z" fill="#272443"/>
</g>
</svg>
