<svg width="24" height="24" viewBox="0 0 24 24" fill="none" xmlns="http://www.w3.org/2000/svg">
<mask id="mask0_287_846" style="mask-type:alpha" maskUnits="userSpaceOnUse" x="0" y="0" width="24" height="24">
<rect width="24" height="24" fill="#D9D9D9"/>
</mask>
<g mask="url(#mask0_287_846)">
<path d="M16 10.875C16.25 10.875 16.4583 10.7917 16.625 10.625C16.7917 10.4583 16.875 10.25 16.875 10C16.875 9.75 16.7917 9.54167 16.625 9.375C16.4583 9.20833 16.25 9.125 16 9.125C15.75 9.125 15.5417 9.20833 15.375 9.375C15.2083 9.54167 15.125 9.75 15.125 10C15.125 10.25 15.2083 10.4583 15.375 10.625C15.5417 10.7917 15.75 10.875 16 10.875ZM8.75 8.75H12.25C12.4667 8.75 12.646 8.679 12.788 8.537C12.9293 8.39567 13 8.21667 13 8C13 7.78333 12.9293 7.60433 12.788 7.463C12.646 7.321 12.4667 7.25 12.25 7.25H8.75C8.53333 7.25 8.35433 7.321 8.213 7.463C8.071 7.60433 8 7.78333 8 8C8 8.21667 8.071 8.39567 8.213 8.537C8.35433 8.679 8.53333 8.75 8.75 8.75ZM6.2 20.5C5.83333 20.5 5.48733 20.375 5.162 20.125C4.83733 19.875 4.625 19.575 4.525 19.225C4.10833 17.7917 3.771 16.575 3.513 15.575C3.25433 14.575 3.05 13.7123 2.9 12.987C2.75 12.2623 2.646 11.629 2.588 11.087C2.52933 10.5457 2.5 10.0167 2.5 9.5C2.5 8.1 2.98333 6.91667 3.95 5.95C4.91667 4.98333 6.1 4.5 7.5 4.5H12.75C13.2 3.9 13.75 3.41667 14.4 3.05C15.05 2.68333 15.75 2.5 16.5 2.5C16.7833 2.5 17.0207 2.59567 17.212 2.787C17.404 2.979 17.5 3.21667 17.5 3.5C17.5 3.56667 17.4917 3.63333 17.475 3.7L17.425 3.9C17.3417 4.08333 17.2667 4.29167 17.2 4.525C17.1333 4.75833 17.0667 5.05 17 5.4L19.625 8H20.6C20.85 8 21.0627 8.08733 21.238 8.262C21.4127 8.43733 21.5 8.65 21.5 8.9V13.45C21.5 13.65 21.4457 13.825 21.337 13.975C21.229 14.125 21.075 14.2417 20.875 14.325L18.775 15L17.5 19.2C17.3833 19.6 17.1667 19.9167 16.85 20.15C16.5333 20.3833 16.175 20.5 15.775 20.5H14.3C13.8 20.5 13.375 20.325 13.025 19.975C12.675 19.625 12.5 19.2 12.5 18.7V18.5H9.5V18.7C9.5 19.2 9.325 19.625 8.975 19.975C8.625 20.325 8.2 20.5 7.7 20.5H6.2ZM6.25 19H7.7C7.78333 19 7.854 18.971 7.912 18.913C7.97067 18.8543 8 18.7833 8 18.7V17H14V18.7C14 18.7833 14.0293 18.8543 14.088 18.913C14.146 18.971 14.2167 19 14.3 19H15.775C15.8417 19 15.9043 18.9793 15.963 18.938C16.021 18.896 16.0583 18.8417 16.075 18.775L17.55 13.85L20 13.025V9.5H19L15.5 6C15.5 5.68333 15.5207 5.36233 15.562 5.037C15.604 4.71233 15.675 4.4 15.775 4.1C15.3083 4.23333 14.8877 4.47067 14.513 4.812C14.1377 5.154 13.8583 5.55 13.675 6H7.5C6.53333 6 5.70833 6.34167 5.025 7.025C4.34167 7.70833 4 8.53333 4 9.5C4 10.1667 4.16667 11.3083 4.5 12.925C4.83333 14.5417 5.30833 16.4833 5.925 18.75C5.94167 18.8333 5.98333 18.896 6.05 18.938C6.11667 18.9793 6.18333 19 6.25 19Z" fill="#272443"/>
</g>
</svg>
