<svg width="24" height="24" viewBox="0 0 24 24" fill="none" xmlns="http://www.w3.org/2000/svg">
<mask id="mask0_287_1157" style="mask-type:alpha" maskUnits="userSpaceOnUse" x="0" y="0" width="24" height="24">
<rect width="24" height="24" fill="#D9D9D9"/>
</mask>
<g mask="url(#mask0_287_1157)">
<path d="M7.15 21.55C6.66667 21.55 6.25433 21.3793 5.913 21.038C5.571 20.696 5.4 20.2833 5.4 19.8C5.4 19.3167 5.571 18.904 5.913 18.562C6.25433 18.2207 6.66667 18.05 7.15 18.05C7.63333 18.05 8.04567 18.2207 8.387 18.562C8.729 18.904 8.9 19.3167 8.9 19.8C8.9 20.2833 8.729 20.696 8.387 21.038C8.04567 21.3793 7.63333 21.55 7.15 21.55ZM16.85 21.55C16.3667 21.55 15.9543 21.3793 15.613 21.038C15.271 20.696 15.1 20.2833 15.1 19.8C15.1 19.3167 15.271 18.904 15.613 18.562C15.9543 18.2207 16.3667 18.05 16.85 18.05C17.3333 18.05 17.7457 18.2207 18.087 18.562C18.429 18.904 18.6 19.3167 18.6 19.8C18.6 20.2833 18.429 20.696 18.087 21.038C17.7457 21.3793 17.3333 21.55 16.85 21.55ZM6.025 5.75L8.55 11.05H15.55L18.325 6.025C18.3583 5.95833 18.3583 5.896 18.325 5.838C18.2917 5.77933 18.2417 5.75 18.175 5.75H6.025ZM7.15 16.55C6.48333 16.55 5.98333 16.2627 5.65 15.688C5.31667 15.1127 5.30833 14.5417 5.625 13.975L7.05 11.4L3.4 3.75H2.225C2.025 3.75 1.854 3.679 1.712 3.537C1.57067 3.39567 1.5 3.21667 1.5 3C1.5 2.78333 1.57067 2.604 1.712 2.462C1.854 2.32067 2.03333 2.25 2.25 2.25H3.775C3.94167 2.25 4.1 2.29567 4.25 2.387C4.4 2.479 4.51667 2.60833 4.6 2.775L5.3 4.25H19.175C19.6417 4.25 19.971 4.42067 20.163 4.762C20.3543 5.104 20.35 5.46667 20.15 5.85L16.925 11.65C16.775 11.9333 16.5667 12.154 16.3 12.312C16.0333 12.4707 15.7333 12.55 15.4 12.55H8.1L6.95 14.675C6.9 14.7583 6.896 14.8417 6.938 14.925C6.97933 15.0083 7.05 15.05 7.15 15.05H17.875C18.075 15.05 18.246 15.125 18.388 15.275C18.5293 15.425 18.6 15.6 18.6 15.8C18.6 16.0167 18.5293 16.1957 18.388 16.337C18.246 16.479 18.0667 16.55 17.85 16.55H7.15Z" fill="#272443"/>
</g>
</svg>
