<svg width="24" height="24" viewBox="0 0 24 24" fill="none" xmlns="http://www.w3.org/2000/svg">
<mask id="mask0_287_1352" style="mask-type:alpha" maskUnits="userSpaceOnUse" x="0" y="0" width="24" height="24">
<rect width="24" height="24" fill="#D9D9D9"/>
</mask>
<g mask="url(#mask0_287_1352)">
<path d="M7.25 21.75V15.75H5.4C4.8 15.75 4.29167 15.5417 3.875 15.125C3.45833 14.7083 3.25 14.2 3.25 13.6C3.25 13.1667 3.36667 12.7667 3.6 12.4C3.83333 12.0333 4.15 11.7583 4.55 11.575L11.25 8.6V7.6C10.65 7.43333 10.1667 7.11233 9.8 6.637C9.43333 6.16233 9.25 5.61667 9.25 5C9.25 4.23333 9.51667 3.58333 10.05 3.05C10.5833 2.51667 11.2333 2.25 12 2.25C12.7667 2.25 13.4167 2.51667 13.95 3.05C14.4833 3.58333 14.75 4.23333 14.75 5H13.225C13.225 4.65 13.1083 4.354 12.875 4.112C12.6417 3.87067 12.35 3.75 12 3.75C11.65 3.75 11.3543 3.87067 11.113 4.112C10.871 4.354 10.75 4.65 10.75 5C10.75 5.35 10.871 5.64567 11.113 5.887C11.3543 6.129 11.65 6.25 12 6.25C12.2167 6.25 12.396 6.321 12.538 6.463C12.6793 6.60433 12.75 6.78333 12.75 7V8.6L19.45 11.575C19.85 11.7583 20.1667 12.0333 20.4 12.4C20.6333 12.7667 20.75 13.1667 20.75 13.6C20.75 14.2 20.5417 14.7083 20.125 15.125C19.7083 15.5417 19.2 15.75 18.6 15.75H16.75V21.75H7.25ZM5.4 14.25H7.25V13.25H16.75V14.25H18.6C18.7833 14.25 18.9373 14.1833 19.062 14.05C19.1873 13.9167 19.25 13.7583 19.25 13.575C19.25 13.4417 19.2167 13.3207 19.15 13.212C19.0833 13.104 18.9917 13.025 18.875 12.975L12 9.925L5.15 12.975C5.01667 13.025 4.91667 13.104 4.85 13.212C4.78333 13.3207 4.75 13.4417 4.75 13.575C4.75 13.7583 4.81267 13.9167 4.938 14.05C5.06267 14.1833 5.21667 14.25 5.4 14.25ZM8.75 20.25H15.25V14.75H8.75V20.25Z" fill="#272443"/>
</g>
</svg>
