<svg width="24" height="24" viewBox="0 0 24 24" fill="none" xmlns="http://www.w3.org/2000/svg">
<mask id="mask0_287_491" style="mask-type:alpha" maskUnits="userSpaceOnUse" x="0" y="0" width="24" height="24">
<rect width="24" height="24" fill="#D9D9D9"/>
</mask>
<g mask="url(#mask0_287_491)">
<path d="M15.9249 21.25C15.8749 21.25 15.8126 21.2293 15.7379 21.188C15.6626 21.146 15.5999 21.0917 15.5499 21.025L13.0749 16.85H9.99992C9.76659 16.85 9.56658 16.7667 9.39992 16.6C9.23325 16.4333 9.14992 16.2333 9.14992 16C9.14992 15.7667 9.23325 15.5667 9.39992 15.4C9.56658 15.2333 9.76659 15.15 9.99992 15.15H13.0749L15.5499 10.975C15.5999 10.9083 15.6583 10.854 15.7249 10.812C15.7916 10.7707 15.8666 10.75 15.9499 10.75C16.1166 10.75 16.2333 10.804 16.2999 10.912C16.3666 11.0207 16.3749 11.1417 16.3249 11.275L15.1999 15.15H18.3249L18.9499 14.3C18.9833 14.2667 19.0333 14.2333 19.0999 14.2C19.1666 14.1667 19.2333 14.15 19.2999 14.15C19.4333 14.15 19.5333 14.2 19.5999 14.3C19.6666 14.4 19.6833 14.5083 19.6499 14.625L19.2249 16L19.6499 17.375C19.6833 17.4917 19.6666 17.6 19.5999 17.7C19.5333 17.8 19.4249 17.85 19.2749 17.85C19.2083 17.85 19.1456 17.8333 19.0869 17.8C19.0289 17.7667 18.9833 17.7333 18.9499 17.7L18.3249 16.85H15.1999L16.3249 20.725C16.3749 20.8583 16.3626 20.979 16.2879 21.087C16.2126 21.1957 16.0916 21.25 15.9249 21.25ZM8.04992 13.25C7.88325 13.25 7.76659 13.1957 7.69992 13.087C7.63325 12.979 7.62492 12.8583 7.67492 12.725L8.79992 8.85H5.67492L5.04992 9.7C5.01659 9.73333 4.96659 9.76667 4.89992 9.8C4.83325 9.83333 4.76659 9.85 4.69992 9.85C4.56659 9.85 4.46659 9.8 4.39992 9.7C4.33325 9.6 4.31659 9.49167 4.34992 9.375L4.77492 8L4.34992 6.625C4.31659 6.50833 4.33325 6.4 4.39992 6.3C4.46659 6.2 4.57492 6.15 4.72492 6.15C4.79159 6.15 4.85392 6.16667 4.91192 6.2C4.97059 6.23333 5.01659 6.26667 5.04992 6.3L5.67492 7.15H8.79992L7.67492 3.275C7.62492 3.14167 7.63759 3.02067 7.71292 2.912C7.78759 2.804 7.90825 2.75 8.07492 2.75C8.12492 2.75 8.18725 2.77067 8.26192 2.812C8.33725 2.854 8.39992 2.90833 8.44992 2.975L10.9249 7.15H13.9999C14.2333 7.15 14.4333 7.23333 14.5999 7.4C14.7666 7.56667 14.8499 7.76667 14.8499 8C14.8499 8.23333 14.7666 8.43333 14.5999 8.6C14.4333 8.76667 14.2333 8.85 13.9999 8.85H10.9249L8.44992 13.025C8.39992 13.0917 8.34158 13.146 8.27492 13.188C8.20825 13.2293 8.13325 13.25 8.04992 13.25Z" fill="#272443"/>
</g>
</svg>
