<svg width="24" height="24" viewBox="0 0 24 24" fill="none" xmlns="http://www.w3.org/2000/svg">
<mask id="mask0_287_236" style="mask-type:alpha" maskUnits="userSpaceOnUse" x="0" y="0" width="24" height="24">
<rect width="24" height="24" fill="#D9D9D9"/>
</mask>
<g mask="url(#mask0_287_236)">
<path d="M3.95008 20.75C3.73341 20.75 3.55441 20.6793 3.41308 20.538C3.27108 20.396 3.20008 20.2167 3.20008 20C3.20008 19.7833 3.27108 19.604 3.41308 19.462C3.55441 19.3207 3.73341 19.25 3.95008 19.25H19.9501C20.1667 19.25 20.3461 19.3207 20.4881 19.462C20.6294 19.604 20.7001 19.7833 20.7001 20C20.7001 20.2167 20.6294 20.396 20.4881 20.538C20.3461 20.6793 20.1667 20.75 19.9501 20.75H3.95008ZM5.57508 15.525C5.37508 15.5917 5.18341 15.5873 5.00008 15.512C4.81675 15.4373 4.67508 15.3083 4.57508 15.125L2.80008 12.075C2.66675 11.875 2.64175 11.6833 2.72508 11.5C2.80841 11.3167 2.97508 11.2 3.22508 11.15C3.32508 11.1167 3.42941 11.1207 3.53808 11.162C3.64608 11.204 3.73341 11.2583 3.80008 11.325L5.32508 12.625L10.4251 11.25L6.90008 5.27499C6.75008 5.02499 6.72075 4.78732 6.81208 4.56199C6.90408 4.33732 7.09175 4.18332 7.37508 4.09999C7.50841 4.03332 7.66675 4.02499 7.85008 4.07499C8.03341 4.12499 8.18341 4.19999 8.30008 4.29999L14.7501 10.075L19.8501 8.69999C20.3167 8.58332 20.7334 8.67499 21.1001 8.97499C21.4667 9.27499 21.6501 9.65832 21.6501 10.125C21.6501 10.4417 21.5584 10.7207 21.3751 10.962C21.1917 11.204 20.9501 11.3667 20.6501 11.45L5.57508 15.525Z" fill="#272443"/>
</g>
</svg>
