<svg width="24" height="24" viewBox="0 0 24 24" fill="none" xmlns="http://www.w3.org/2000/svg">
<mask id="mask0_287_473" style="mask-type:alpha" maskUnits="userSpaceOnUse" x="0" y="0" width="24" height="24">
<rect width="24" height="24" fill="#D9D9D9"/>
</mask>
<g mask="url(#mask0_287_473)">
<path d="M7.3 20.5C6.8 20.5 6.375 20.325 6.025 19.975C5.675 19.625 5.5 19.2 5.5 18.7V8.25005C5.5 7.76672 5.671 7.35405 6.013 7.01205C6.35433 6.67072 6.76667 6.50005 7.25 6.50005H9.25V3.70005C9.25 3.43338 9.33733 3.21672 9.512 3.05005C9.68733 2.88338 9.9 2.80005 10.15 2.80005H13.85C14.1 2.80005 14.3127 2.88338 14.488 3.05005C14.6627 3.21672 14.75 3.43338 14.75 3.70005V6.50005H16.7C17.2 6.50005 17.625 6.67505 17.975 7.02505C18.325 7.37505 18.5 7.80005 18.5 8.30005V18.7C18.5 19.2 18.325 19.625 17.975 19.975C17.625 20.325 17.2 20.5 16.7 20.5C16.7 20.75 16.6127 20.9584 16.438 21.125C16.2627 21.2917 16.05 21.375 15.8 21.375C15.55 21.375 15.3417 21.2917 15.175 21.125C15.0083 20.9584 14.925 20.75 14.925 20.5H9.075C9.075 20.75 8.99167 20.9584 8.825 21.125C8.65833 21.2917 8.45 21.375 8.2 21.375C7.95 21.375 7.73733 21.2917 7.562 21.125C7.38733 20.9584 7.3 20.75 7.3 20.5ZM10.45 6.50005H13.55V3.97505H10.45V6.50005ZM7.3 19H16.7C16.7833 19 16.8543 18.971 16.913 18.913C16.971 18.8544 17 18.7834 17 18.7V8.30005C17 8.21672 16.971 8.14572 16.913 8.08705C16.8543 8.02905 16.7833 8.00005 16.7 8.00005H7.3C7.21667 8.00005 7.146 8.02905 7.088 8.08705C7.02933 8.14572 7 8.21672 7 8.30005V18.7C7 18.7834 7.02933 18.8544 7.088 18.913C7.146 18.971 7.21667 19 7.3 19ZM8.15 17.15C8.15 17.3167 8.20833 17.4584 8.325 17.575C8.44167 17.6917 8.58333 17.75 8.75 17.75C8.91667 17.75 9.05833 17.6917 9.175 17.575C9.29167 17.4584 9.35 17.3167 9.35 17.15V9.85005C9.35 9.68338 9.29167 9.54172 9.175 9.42505C9.05833 9.30838 8.91667 9.25005 8.75 9.25005C8.58333 9.25005 8.44167 9.30838 8.325 9.42505C8.20833 9.54172 8.15 9.68338 8.15 9.85005V17.15ZM11.4 17.15C11.4 17.3167 11.4583 17.4584 11.575 17.575C11.6917 17.6917 11.8333 17.75 12 17.75C12.1667 17.75 12.3083 17.6917 12.425 17.575C12.5417 17.4584 12.6 17.3167 12.6 17.15V9.85005C12.6 9.68338 12.5417 9.54172 12.425 9.42505C12.3083 9.30838 12.1667 9.25005 12 9.25005C11.8333 9.25005 11.6917 9.30838 11.575 9.42505C11.4583 9.54172 11.4 9.68338 11.4 9.85005V17.15ZM14.65 17.15C14.65 17.3167 14.7083 17.4584 14.825 17.575C14.9417 17.6917 15.0833 17.75 15.25 17.75C15.4167 17.75 15.5583 17.6917 15.675 17.575C15.7917 17.4584 15.85 17.3167 15.85 17.15V9.85005C15.85 9.68338 15.7917 9.54172 15.675 9.42505C15.5583 9.30838 15.4167 9.25005 15.25 9.25005C15.0833 9.25005 14.9417 9.30838 14.825 9.42505C14.7083 9.54172 14.65 9.68338 14.65 9.85005V17.15Z" fill="#272443"/>
</g>
</svg>
