<svg width="19" height="20" viewBox="0 0 19 20" fill="none" xmlns="http://www.w3.org/2000/svg">
<path d="M3.88424 15.6779C3.66757 15.6779 3.48857 15.6073 3.34724 15.4659C3.20524 15.3239 3.13424 15.1446 3.13424 14.9279V8.90294C3.13424 8.70294 3.20524 8.53194 3.34724 8.38994C3.48857 8.24861 3.66757 8.17794 3.88424 8.17794C4.10091 8.17794 4.27991 8.24861 4.42124 8.38994C4.56324 8.53194 4.63424 8.71128 4.63424 8.92794V14.9529C4.63424 15.1529 4.56324 15.3239 4.42124 15.4659C4.27991 15.6073 4.10091 15.6779 3.88424 15.6779ZM9.38424 15.6779C9.16757 15.6779 8.98857 15.6073 8.84724 15.4659C8.70524 15.3239 8.63424 15.1446 8.63424 14.9279V8.90294C8.63424 8.70294 8.70524 8.53194 8.84724 8.38994C8.98857 8.24861 9.16757 8.17794 9.38424 8.17794C9.60091 8.17794 9.78024 8.24861 9.92224 8.38994C10.0636 8.53194 10.1342 8.71128 10.1342 8.92794V14.9529C10.1342 15.1529 10.0636 15.3239 9.92224 15.4659C9.78024 15.6073 9.60091 15.6779 9.38424 15.6779ZM0.884241 19.1779C0.667574 19.1779 0.492574 19.1073 0.359241 18.9659C0.225907 18.8239 0.159241 18.6446 0.159241 18.4279C0.159241 18.2113 0.230241 18.0319 0.372241 17.8899C0.513574 17.7486 0.692574 17.6779 0.909241 17.6779H17.8842C18.1009 17.6779 18.2759 17.7486 18.4092 17.8899C18.5426 18.0319 18.6092 18.2113 18.6092 18.4279C18.6092 18.6446 18.5386 18.8239 18.3972 18.9659C18.2552 19.1073 18.0759 19.1779 17.8592 19.1779H0.884241ZM14.8842 15.6779C14.6676 15.6779 14.4882 15.6073 14.3462 15.4659C14.2049 15.3239 14.1342 15.1446 14.1342 14.9279V8.90294C14.1342 8.70294 14.2049 8.53194 14.3462 8.38994C14.4882 8.24861 14.6676 8.17794 14.8842 8.17794C15.1009 8.17794 15.2802 8.24861 15.4222 8.38994C15.5636 8.53194 15.6342 8.71128 15.6342 8.92794V14.9529C15.6342 15.1529 15.5636 15.3239 15.4222 15.4659C15.2802 15.6073 15.1009 15.6779 14.8842 15.6779ZM10.1842 0.627942L18.1342 4.50294C18.2842 4.58628 18.4009 4.70294 18.4842 4.85294C18.5676 5.00294 18.6092 5.16961 18.6092 5.35294C18.6092 5.58628 18.5259 5.78194 18.3592 5.93994C18.1926 6.09861 17.9926 6.17794 17.7592 6.17794H1.00924C0.775907 6.17794 0.575907 6.09861 0.409241 5.93994C0.242574 5.78194 0.159241 5.58628 0.159241 5.35294C0.159241 5.16961 0.200907 5.00294 0.284241 4.85294C0.367574 4.70294 0.492574 4.59461 0.659241 4.52794L8.58424 0.627942C8.83424 0.511275 9.10091 0.452942 9.38424 0.452942C9.66757 0.452942 9.93424 0.511275 10.1842 0.627942ZM3.70924 4.67794H15.0592L9.38424 1.92794L3.70924 4.67794Z" fill="#272443"/>
</svg>
