<svg width="18" height="18" viewBox="0 0 18 18" fill="none" xmlns="http://www.w3.org/2000/svg">
<path d="M2.62111 17.2179C2.12111 17.2179 1.69611 17.0429 1.34611 16.6929C0.996106 16.3429 0.821106 15.9179 0.821106 15.4179V2.0179C0.821106 1.5179 0.996106 1.0929 1.34611 0.742896C1.69611 0.392896 2.12111 0.217896 2.62111 0.217896H16.0211C16.5211 0.217896 16.9461 0.392896 17.2961 0.742896C17.6461 1.0929 17.8211 1.5179 17.8211 2.0179V15.4179C17.8211 15.9179 17.6461 16.3429 17.2961 16.6929C16.9461 17.0429 16.5211 17.2179 16.0211 17.2179H2.62111ZM2.62111 15.7179H8.57111V1.7179H2.62111C2.55444 1.7179 2.48777 1.75123 2.42111 1.8179C2.35444 1.88456 2.32111 1.95123 2.32111 2.0179V15.4179C2.32111 15.4846 2.35444 15.5512 2.42111 15.6179C2.48777 15.6846 2.55444 15.7179 2.62111 15.7179ZM10.0711 15.7179H16.0211C16.0878 15.7179 16.1544 15.6846 16.2211 15.6179C16.2878 15.5512 16.3211 15.4846 16.3211 15.4179V8.7179H10.0711V15.7179ZM10.0711 7.2179H16.3211V2.0179C16.3211 1.95123 16.2878 1.88456 16.2211 1.8179C16.1544 1.75123 16.0878 1.7179 16.0211 1.7179H10.0711V7.2179Z" fill="#272443"/>
</svg>
