<svg width="20" height="19" viewBox="0 0 20 19" fill="none" xmlns="http://www.w3.org/2000/svg">
<path d="M14 8.875C14.25 8.875 14.4583 8.79167 14.625 8.625C14.7917 8.45833 14.875 8.25 14.875 8C14.875 7.75 14.7917 7.54167 14.625 7.375C14.4583 7.20833 14.25 7.125 14 7.125C13.75 7.125 13.5417 7.20833 13.375 7.375C13.2083 7.54167 13.125 7.75 13.125 8C13.125 8.25 13.2083 8.45833 13.375 8.625C13.5417 8.79167 13.75 8.875 14 8.875ZM6.75 6.75H10.25C10.4667 6.75 10.646 6.679 10.788 6.537C10.9293 6.39567 11 6.21667 11 6C11 5.78333 10.9293 5.60433 10.788 5.463C10.646 5.321 10.4667 5.25 10.25 5.25H6.75C6.53333 5.25 6.35433 5.321 6.213 5.463C6.071 5.60433 6 5.78333 6 6C6 6.21667 6.071 6.39567 6.213 6.537C6.35433 6.679 6.53333 6.75 6.75 6.75ZM4.2 18.5C3.83333 18.5 3.48733 18.375 3.162 18.125C2.83733 17.875 2.625 17.575 2.525 17.225C2.10833 15.7917 1.771 14.575 1.513 13.575C1.25433 12.575 1.05 11.7123 0.9 10.987C0.75 10.2623 0.646 9.629 0.588 9.087C0.529333 8.54567 0.5 8.01667 0.5 7.5C0.5 6.1 0.983333 4.91667 1.95 3.95C2.91667 2.98333 4.1 2.5 5.5 2.5H10.75C11.2 1.9 11.75 1.41667 12.4 1.05C13.05 0.683333 13.75 0.5 14.5 0.5C14.7833 0.5 15.0207 0.595667 15.212 0.787C15.404 0.979 15.5 1.21667 15.5 1.5C15.5 1.56667 15.4917 1.63333 15.475 1.7L15.425 1.9C15.3417 2.08333 15.2667 2.29167 15.2 2.525C15.1333 2.75833 15.0667 3.05 15 3.4L17.625 6H18.6C18.85 6 19.0627 6.08733 19.238 6.262C19.4127 6.43733 19.5 6.65 19.5 6.9V11.45C19.5 11.65 19.4457 11.825 19.337 11.975C19.229 12.125 19.075 12.2417 18.875 12.325L16.775 13L15.5 17.2C15.3833 17.6 15.1667 17.9167 14.85 18.15C14.5333 18.3833 14.175 18.5 13.775 18.5H12.3C11.8 18.5 11.375 18.325 11.025 17.975C10.675 17.625 10.5 17.2 10.5 16.7V16.5H7.5V16.7C7.5 17.2 7.325 17.625 6.975 17.975C6.625 18.325 6.2 18.5 5.7 18.5H4.2ZM4.25 17H5.7C5.78333 17 5.854 16.971 5.912 16.913C5.97067 16.8543 6 16.7833 6 16.7V15H12V16.7C12 16.7833 12.0293 16.8543 12.088 16.913C12.146 16.971 12.2167 17 12.3 17H13.775C13.8417 17 13.9043 16.9793 13.963 16.938C14.021 16.896 14.0583 16.8417 14.075 16.775L15.55 11.85L18 11.025V7.5H17L13.5 4C13.5 3.68333 13.5207 3.36233 13.562 3.037C13.604 2.71233 13.675 2.4 13.775 2.1C13.3083 2.23333 12.8877 2.47067 12.513 2.812C12.1377 3.154 11.8583 3.55 11.675 4H5.5C4.53333 4 3.70833 4.34167 3.025 5.025C2.34167 5.70833 2 6.53333 2 7.5C2 8.16667 2.16667 9.30833 2.5 10.925C2.83333 12.5417 3.30833 14.4833 3.925 16.75C3.94167 16.8333 3.98333 16.896 4.05 16.938C4.11667 16.9793 4.18333 17 4.25 17Z" fill="#272443"/>
</svg>
