<svg width="24" height="24" viewBox="0 0 24 24" fill="none" xmlns="http://www.w3.org/2000/svg">
<mask id="mask0_287_758" style="mask-type:alpha" maskUnits="userSpaceOnUse" x="0" y="0" width="24" height="24">
<rect width="24" height="24" fill="#D9D9D9"/>
</mask>
<g mask="url(#mask0_287_758)">
<path d="M10.75 10.75H16.725C16.9417 10.75 17.121 10.679 17.263 10.537C17.4043 10.3957 17.475 10.2167 17.475 10C17.475 9.78333 17.4043 9.604 17.263 9.462C17.121 9.32067 16.9417 9.25 16.725 9.25H10.75C10.5333 9.25 10.3543 9.32067 10.213 9.462C10.071 9.604 10 9.78333 10 10C10 10.2167 10.071 10.3957 10.213 10.537C10.3543 10.679 10.5333 10.75 10.75 10.75ZM10.75 13.75H13C13.2 13.75 13.375 13.679 13.525 13.537C13.675 13.3957 13.75 13.2167 13.75 13C13.75 12.7833 13.675 12.604 13.525 12.462C13.375 12.3207 13.2 12.25 13 12.25H10.75C10.5333 12.25 10.3543 12.3207 10.213 12.462C10.071 12.604 10 12.7833 10 13C10 13.2167 10.071 13.3957 10.213 13.537C10.3543 13.679 10.5333 13.75 10.75 13.75ZM10.75 7.75H16.725C16.9417 7.75 17.121 7.679 17.263 7.537C17.4043 7.39567 17.475 7.21667 17.475 7C17.475 6.78333 17.4043 6.60433 17.263 6.463C17.121 6.321 16.9417 6.25 16.725 6.25H10.75C10.5333 6.25 10.3543 6.321 10.213 6.463C10.071 6.60433 10 6.78333 10 7C10 7.21667 10.071 7.39567 10.213 7.537C10.3543 7.679 10.5333 7.75 10.75 7.75ZM8.05 17.5C7.55 17.5 7.125 17.325 6.775 16.975C6.425 16.625 6.25 16.2 6.25 15.7V4.3C6.25 3.8 6.425 3.375 6.775 3.025C7.125 2.675 7.55 2.5 8.05 2.5H19.45C19.95 2.5 20.375 2.675 20.725 3.025C21.075 3.375 21.25 3.8 21.25 4.3V15.7C21.25 16.2 21.075 16.625 20.725 16.975C20.375 17.325 19.95 17.5 19.45 17.5H8.05ZM8.05 16H19.45C19.5333 16 19.6043 15.9707 19.663 15.912C19.721 15.854 19.75 15.7833 19.75 15.7V4.3C19.75 4.21667 19.721 4.14567 19.663 4.087C19.6043 4.029 19.5333 4 19.45 4H8.05C7.96667 4 7.896 4.029 7.838 4.087C7.77933 4.14567 7.75 4.21667 7.75 4.3V15.7C7.75 15.7833 7.77933 15.854 7.838 15.912C7.896 15.9707 7.96667 16 8.05 16ZM4.55 21C4.05 21 3.625 20.825 3.275 20.475C2.925 20.125 2.75 19.7 2.75 19.2V7.05C2.75 6.85 2.821 6.675 2.963 6.525C3.10433 6.375 3.28333 6.3 3.5 6.3C3.71667 6.3 3.89567 6.375 4.037 6.525C4.179 6.675 4.25 6.85 4.25 7.05V19.2C4.25 19.2833 4.27933 19.3543 4.338 19.413C4.396 19.471 4.46667 19.5 4.55 19.5H16.7C16.9 19.5 17.075 19.5707 17.225 19.712C17.375 19.854 17.45 20.0333 17.45 20.25C17.45 20.4667 17.375 20.646 17.225 20.788C17.075 20.9293 16.9 21 16.7 21H4.55Z" fill="#272443"/>
</g>
</svg>
