<svg width="24" height="24" viewBox="0 0 24 24" fill="none" xmlns="http://www.w3.org/2000/svg">
<mask id="mask0_287_764" style="mask-type:alpha" maskUnits="userSpaceOnUse" x="0" y="0" width="24" height="24">
<rect width="24" height="24" fill="#D9D9D9"/>
</mask>
<g mask="url(#mask0_287_764)">
<path d="M13.95 8.84998C13.95 8.74998 13.9873 8.64164 14.062 8.52498C14.1373 8.40831 14.225 8.32498 14.325 8.27498C14.825 8.07498 15.3377 7.92498 15.863 7.82498C16.3877 7.72498 16.9333 7.67498 17.5 7.67498C17.8333 7.67498 18.15 7.69598 18.45 7.73798C18.75 7.77931 19.0583 7.83331 19.375 7.89998C19.4917 7.91664 19.5917 7.97498 19.675 8.07498C19.7583 8.17498 19.8 8.29164 19.8 8.42498C19.8 8.65831 19.729 8.82498 19.587 8.92498C19.4457 9.02498 19.2667 9.04998 19.05 8.99998C18.8 8.94998 18.546 8.91664 18.288 8.89998C18.0293 8.88331 17.7667 8.87498 17.5 8.87498C17.0167 8.87498 16.5417 8.92064 16.075 9.01198C15.6083 9.10398 15.1667 9.22498 14.75 9.37498C14.5167 9.47498 14.325 9.47498 14.175 9.37498C14.025 9.27498 13.95 9.09998 13.95 8.84998ZM13.95 14.325C13.95 14.2083 13.9873 14.0916 14.062 13.975C14.1373 13.8583 14.225 13.775 14.325 13.725C14.8083 13.525 15.321 13.375 15.863 13.275C16.4043 13.175 16.95 13.125 17.5 13.125C17.8333 13.125 18.15 13.146 18.45 13.188C18.75 13.2293 19.0583 13.2833 19.375 13.35C19.4917 13.3833 19.5917 13.45 19.675 13.55C19.7583 13.65 19.8 13.7666 19.8 13.9C19.8 14.1166 19.729 14.279 19.587 14.387C19.4457 14.4956 19.2667 14.525 19.05 14.475C18.8 14.425 18.546 14.3873 18.288 14.362C18.0293 14.3373 17.7667 14.325 17.5 14.325C17.0167 14.325 16.546 14.3706 16.088 14.462C15.6293 14.554 15.1917 14.6833 14.775 14.85C14.525 14.95 14.325 14.9456 14.175 14.837C14.025 14.729 13.95 14.5583 13.95 14.325ZM13.95 11.6C13.95 11.4833 13.9873 11.3666 14.062 11.25C14.1373 11.1333 14.225 11.05 14.325 11C14.825 10.8 15.3377 10.65 15.863 10.55C16.3877 10.45 16.9333 10.4 17.5 10.4C17.8333 10.4 18.15 10.4206 18.45 10.462C18.75 10.504 19.0583 10.5583 19.375 10.625C19.4917 10.6416 19.5917 10.704 19.675 10.812C19.7583 10.9206 19.8 11.0416 19.8 11.175C19.8 11.3916 19.729 11.554 19.587 11.662C19.4457 11.7706 19.2667 11.7916 19.05 11.725C18.8 11.675 18.546 11.6416 18.288 11.625C18.0293 11.6083 17.7667 11.6 17.5 11.6C17.0167 11.6 16.546 11.646 16.088 11.738C15.6293 11.8293 15.1917 11.9583 14.775 12.125C14.525 12.225 14.325 12.2206 14.175 12.112C14.025 12.004 13.95 11.8333 13.95 11.6ZM6.5 16.025C7.33333 16.025 8.14167 16.1166 8.925 16.3C9.70833 16.4833 10.4833 16.775 11.25 17.175V7.34998C10.55 6.89998 9.79167 6.55831 8.975 6.32498C8.15833 6.09164 7.33333 5.97498 6.5 5.97498C5.9 5.97498 5.33733 6.02498 4.812 6.12498C4.28733 6.22498 3.75 6.37498 3.2 6.57498C3.13333 6.60831 3.08333 6.64998 3.05 6.69998C3.01667 6.74998 3 6.79998 3 6.84998V16.3C3 16.4 3.03333 16.4706 3.1 16.512C3.16667 16.554 3.23333 16.5583 3.3 16.525C3.78333 16.3583 4.28733 16.2333 4.812 16.15C5.33733 16.0666 5.9 16.025 6.5 16.025ZM12.75 17.175C13.5167 16.775 14.2917 16.4833 15.075 16.3C15.8583 16.1166 16.6667 16.025 17.5 16.025C18.1 16.025 18.6627 16.0666 19.188 16.15C19.7127 16.2333 20.2167 16.3583 20.7 16.525C20.7667 16.5583 20.8333 16.554 20.9 16.512C20.9667 16.4706 21 16.4 21 16.3V6.84998C21 6.79998 20.9833 6.74998 20.95 6.69998C20.9167 6.64998 20.8667 6.60831 20.8 6.57498C20.25 6.37498 19.7127 6.22498 19.188 6.12498C18.6627 6.02498 18.1 5.97498 17.5 5.97498C16.6667 5.97498 15.8417 6.09164 15.025 6.32498C14.2083 6.55831 13.45 6.89998 12.75 7.34998V17.175ZM12 18.975C11.8 18.975 11.6167 18.95 11.45 18.9C11.2833 18.85 11.125 18.7833 10.975 18.7C10.2917 18.3166 9.57067 18.025 8.812 17.825C8.054 17.625 7.28333 17.525 6.5 17.525C5.88333 17.525 5.28333 17.5916 4.7 17.725C4.11667 17.8583 3.55 18.0583 3 18.325C2.65 18.4916 2.31267 18.4666 1.988 18.25C1.66267 18.0333 1.5 17.725 1.5 17.325V6.47498C1.5 6.25831 1.55433 6.05398 1.663 5.86198C1.771 5.67064 1.93333 5.53331 2.15 5.44998C2.81667 5.11664 3.521 4.87064 4.263 4.71198C5.00433 4.55398 5.75 4.47498 6.5 4.47498C7.46667 4.47498 8.41667 4.60831 9.35 4.87498C10.2833 5.14164 11.1667 5.53331 12 6.04998C12.8333 5.53331 13.7167 5.14164 14.65 4.87498C15.5833 4.60831 16.5333 4.47498 17.5 4.47498C18.25 4.47498 18.996 4.55398 19.738 4.71198C20.4793 4.87064 21.1833 5.11664 21.85 5.44998C22.0667 5.53331 22.229 5.67064 22.337 5.86198C22.4457 6.05398 22.5 6.25831 22.5 6.47498V17.325C22.5 17.725 22.3333 18.0293 22 18.238C21.6667 18.446 21.3167 18.4666 20.95 18.3C20.4 18.05 19.8377 17.8583 19.263 17.725C18.6877 17.5916 18.1 17.525 17.5 17.525C16.7167 17.525 15.946 17.625 15.188 17.825C14.4293 18.025 13.7083 18.3166 13.025 18.7C12.875 18.7833 12.7167 18.85 12.55 18.9C12.3833 18.95 12.2 18.975 12 18.975Z" fill="#272443"/>
</g>
</svg>
