<svg width="24" height="24" viewBox="0 0 24 24" fill="none" xmlns="http://www.w3.org/2000/svg">
<mask id="mask0_287_770" style="mask-type:alpha" maskUnits="userSpaceOnUse" x="0" y="0" width="24" height="24">
<rect width="24" height="24" fill="#D9D9D9"/>
</mask>
<g mask="url(#mask0_287_770)">
<path d="M6.3 21.5C5.8 21.5 5.375 21.325 5.025 20.975C4.675 20.625 4.5 20.2 4.5 19.7V4.3C4.5 3.8 4.675 3.375 5.025 3.025C5.375 2.675 5.8 2.5 6.3 2.5H17.7C18.2 2.5 18.625 2.675 18.975 3.025C19.325 3.375 19.5 3.8 19.5 4.3V19.7C19.5 20.2 19.325 20.625 18.975 20.975C18.625 21.325 18.2 21.5 17.7 21.5H6.3ZM6.3 20H17.7C17.7667 20 17.8333 19.9667 17.9 19.9C17.9667 19.8333 18 19.7667 18 19.7V4.3C18 4.23333 17.9667 4.16667 17.9 4.1C17.8333 4.03333 17.7667 4 17.7 4H16V9.75C16 9.93333 15.925 10.0667 15.775 10.15C15.625 10.2333 15.4667 10.2333 15.3 10.15L13.75 9.2L12.2 10.15C12.0333 10.2333 11.875 10.2333 11.725 10.15C11.575 10.0667 11.5 9.93333 11.5 9.75V4H6.3C6.23333 4 6.16667 4.03333 6.1 4.1C6.03333 4.16667 6 4.23333 6 4.3V19.7C6 19.7667 6.03333 19.8333 6.1 19.9C6.16667 19.9667 6.23333 20 6.3 20ZM8.3 17.75H15.8C15.9833 17.75 16.1207 17.6667 16.212 17.5C16.304 17.3333 16.2833 17.1667 16.15 17L14.025 14.15C13.925 14.0333 13.8 13.975 13.65 13.975C13.5 13.975 13.375 14.0333 13.275 14.15L11.075 17.025L9.825 15.425C9.74167 15.3083 9.625 15.254 9.475 15.262C9.325 15.2707 9.2 15.3333 9.1 15.45L7.925 17C7.80833 17.1667 7.79167 17.3333 7.875 17.5C7.95833 17.6667 8.1 17.75 8.3 17.75ZM6.3 4H6H18H17.7H6.3Z" fill="#272443"/>
</g>
</svg>
