<svg width="24" height="24" viewBox="0 0 24 24" fill="none" xmlns="http://www.w3.org/2000/svg">
<mask id="mask0_287_776" style="mask-type:alpha" maskUnits="userSpaceOnUse" x="0" y="0" width="24" height="24">
<rect width="24" height="24" fill="#D9D9D9"/>
</mask>
<g mask="url(#mask0_287_776)">
<path d="M5.3 21.5C4.8 21.5 4.375 21.325 4.025 20.975C3.675 20.625 3.5 20.2 3.5 19.7V4.3C3.5 3.8 3.675 3.375 4.025 3.025C4.375 2.675 4.8 2.5 5.3 2.5H16.7C17.2 2.5 17.625 2.675 17.975 3.025C18.325 3.375 18.5 3.8 18.5 4.3V10.675C18.5 10.875 18.4293 11.05 18.288 11.2C18.146 11.35 17.9667 11.425 17.75 11.425C17.5333 11.425 17.354 11.35 17.212 11.2C17.0707 11.05 17 10.875 17 10.675V4.3C17 4.23333 16.9667 4.16667 16.9 4.1C16.8333 4.03333 16.7667 4 16.7 4H11.75V9.8C11.75 9.96667 11.675 10.096 11.525 10.188C11.375 10.2793 11.2167 10.275 11.05 10.175L9.5 9.25L7.95 10.175C7.78333 10.275 7.625 10.2793 7.475 10.188C7.325 10.096 7.25 9.96667 7.25 9.8V4H5.3C5.23333 4 5.16667 4.03333 5.1 4.1C5.03333 4.16667 5 4.23333 5 4.3V19.7C5 19.7667 5.03333 19.8333 5.1 19.9C5.16667 19.9667 5.23333 20 5.3 20H11.25C11.4667 20 11.646 20.0707 11.788 20.212C11.9293 20.354 12 20.5333 12 20.75C12 20.9667 11.9293 21.146 11.788 21.288C11.646 21.4293 11.4667 21.5 11.25 21.5H5.3ZM17.75 22.35C16.5 22.35 15.4373 21.9127 14.562 21.038C13.6873 20.1627 13.25 19.1 13.25 17.85C13.25 16.6 13.6873 15.5373 14.562 14.662C15.4373 13.7873 16.5 13.35 17.75 13.35C19 13.35 20.0627 13.7873 20.938 14.662C21.8127 15.5373 22.25 16.6 22.25 17.85C22.25 19.1 21.8127 20.1627 20.938 21.038C20.0627 21.9127 19 22.35 17.75 22.35ZM17.425 19.575L19.475 18.225C19.625 18.125 19.7 17.9917 19.7 17.825C19.7 17.6583 19.625 17.5333 19.475 17.45L17.425 16.1C17.275 15.9833 17.1167 15.9707 16.95 16.062C16.7833 16.154 16.7 16.2917 16.7 16.475V19.175C16.7 19.3583 16.7833 19.4957 16.95 19.587C17.1167 19.679 17.275 19.675 17.425 19.575Z" fill="#272443"/>
</g>
</svg>
