<svg width="24" height="24" viewBox="0 0 24 24" fill="none" xmlns="http://www.w3.org/2000/svg">
<mask id="mask0_287_860" style="mask-type:alpha" maskUnits="userSpaceOnUse" x="0" y="0" width="24" height="24">
<rect width="24" height="24" fill="#D9D9D9"/>
</mask>
<g mask="url(#mask0_287_860)">
<path d="M11 17.625C9.2 17.625 7.66667 16.9917 6.4 15.725C5.13333 14.4583 4.5 12.925 4.5 11.125V5C4.5 4.58333 4.646 4.22933 4.938 3.938C5.22933 3.646 5.58333 3.5 6 3.5H18.1C18.95 3.5 19.675 3.8 20.275 4.4C20.875 5 21.175 5.725 21.175 6.575C21.175 7.425 20.875 8.15 20.275 8.75C19.675 9.35 18.95 9.65 18.1 9.65H17.5V11.125C17.5 12.925 16.8667 14.4583 15.6 15.725C14.3333 16.9917 12.8 17.625 11 17.625ZM6 8.15H16V5H6V8.15ZM11 16.125C12.3833 16.125 13.5627 15.6373 14.538 14.662C15.5127 13.6873 16 12.5083 16 11.125V9.65H6V11.125C6 12.5083 6.48767 13.6873 7.463 14.662C8.43767 15.6373 9.61667 16.125 11 16.125ZM17.5 8.15H18.1C18.5333 8.15 18.904 8 19.212 7.7C19.5207 7.4 19.675 7.025 19.675 6.575C19.675 6.14167 19.5207 5.771 19.212 5.463C18.904 5.15433 18.5333 5 18.1 5H17.5V8.15ZM5.25 20.5C5.03333 20.5 4.85433 20.4293 4.713 20.288C4.571 20.146 4.5 19.9667 4.5 19.75C4.5 19.5333 4.571 19.354 4.713 19.212C4.85433 19.0707 5.03333 19 5.25 19H18.475C18.6917 19 18.871 19.0707 19.013 19.212C19.1543 19.354 19.225 19.5333 19.225 19.75C19.225 19.9667 19.1543 20.146 19.013 20.288C18.871 20.4293 18.6917 20.5 18.475 20.5H5.25Z" fill="#272443"/>
</g>
</svg>
