<svg width="24" height="24" viewBox="0 0 24 24" fill="none" xmlns="http://www.w3.org/2000/svg">
<mask id="mask0_287_872" style="mask-type:alpha" maskUnits="userSpaceOnUse" x="0" y="0" width="24" height="24">
<rect width="24" height="24" fill="#D9D9D9"/>
</mask>
<g mask="url(#mask0_287_872)">
<path d="M5.25 20.4501C5.03333 20.4501 4.85433 20.375 4.713 20.225C4.571 20.075 4.5 19.9001 4.5 19.7001C4.5 19.4834 4.571 19.3044 4.713 19.163C4.85433 19.021 5.03333 18.95 5.25 18.95H18.525C18.7417 18.95 18.9207 19.021 19.062 19.163C19.204 19.3044 19.275 19.4834 19.275 19.7001C19.275 19.9001 19.204 20.075 19.062 20.225C18.9207 20.375 18.7417 20.4501 18.525 20.4501H5.25ZM8 16.55C7.03333 16.55 6.20833 16.2084 5.525 15.525C4.84167 14.8417 4.5 14.0167 4.5 13.05V5.37505C4.5 4.87505 4.675 4.44572 5.025 4.08705C5.375 3.72905 5.8 3.55005 6.3 3.55005H19.275C19.775 3.55005 20.2 3.72505 20.55 4.07505C20.9 4.42505 21.075 4.85838 21.075 5.37505V7.87505C21.075 8.37505 20.9 8.80005 20.55 9.15005C20.2 9.50005 19.775 9.67505 19.275 9.67505H17.5V13.05C17.5 14.0167 17.1583 14.8417 16.475 15.525C15.7917 16.2084 14.9667 16.55 14 16.55H8ZM17.5 8.17505H19.275C19.3583 8.17505 19.4293 8.14572 19.488 8.08705C19.546 8.02905 19.575 7.95838 19.575 7.87505V5.37505C19.575 5.27505 19.546 5.19572 19.488 5.13705C19.4293 5.07905 19.3583 5.05005 19.275 5.05005H17.5V8.17505ZM8 15.05H14C14.55 15.05 15.021 14.854 15.413 14.462C15.8043 14.0707 16 13.6 16 13.05V5.05005H9.95V5.77505L11.6 7.15005C11.6333 7.18338 11.7 7.31672 11.8 7.55005V11.175C11.8 11.3084 11.75 11.425 11.65 11.525C11.55 11.625 11.4333 11.675 11.3 11.675H7.7C7.56667 11.675 7.45 11.625 7.35 11.525C7.25 11.425 7.2 11.3084 7.2 11.175V7.55005C7.2 7.51672 7.26667 7.38338 7.4 7.15005L9.05 5.77505V5.05005H6.3C6.21667 5.05005 6.146 5.07905 6.088 5.13705C6.02933 5.19572 6 5.27505 6 5.37505V13.05C6 13.6 6.196 14.0707 6.588 14.462C6.97933 14.854 7.45 15.05 8 15.05Z" fill="#272443"/>
</g>
</svg>
