<svg width="24" height="24" viewBox="0 0 24 24" fill="none" xmlns="http://www.w3.org/2000/svg">
<mask id="mask0_287_878" style="mask-type:alpha" maskUnits="userSpaceOnUse" x="0" y="0" width="24" height="24">
<rect width="24" height="24" fill="#D9D9D9"/>
</mask>
<g mask="url(#mask0_287_878)">
<path d="M2.7001 15.2C2.43343 15.2 2.21276 15.104 2.0381 14.912C1.86276 14.7206 1.8001 14.5 1.8501 14.25C2.1501 12.9166 2.9501 11.8873 4.2501 11.162C5.5501 10.4373 7.0751 10.075 8.8251 10.075C10.5751 10.075 12.1001 10.4373 13.4001 11.162C14.7001 11.8873 15.4918 12.9166 15.7751 14.25C15.8251 14.4833 15.7668 14.7 15.6001 14.9C15.4334 15.1 15.2084 15.2 14.9251 15.2H2.7001ZM17.8751 22.5V21H19.2751L20.6751 7.19995H11.4001L11.3251 6.64995C11.3084 6.38328 11.3874 6.15828 11.5621 5.97495C11.7374 5.79162 11.9584 5.69995 12.2251 5.69995H16.0001V2.44995C16.0001 2.23328 16.0751 2.05395 16.2251 1.91195C16.3751 1.77062 16.5501 1.69995 16.7501 1.69995C16.9668 1.69995 17.1461 1.77062 17.2881 1.91195C17.4294 2.05395 17.5001 2.23328 17.5001 2.44995V5.69995H21.3251C21.5918 5.69995 21.8168 5.79562 22.0001 5.98695C22.1834 6.17895 22.2584 6.40828 22.2251 6.67495L20.7501 21.325C20.7001 21.675 20.5501 21.9583 20.3001 22.1749C20.0501 22.3916 19.7418 22.5 19.3751 22.5H17.8751ZM13.8501 13.7C13.4668 13.05 12.8251 12.5333 11.9251 12.15C11.0251 11.7666 9.9751 11.575 8.7751 11.575C7.5751 11.575 6.52943 11.7666 5.6381 12.15C4.7461 12.5333 4.1001 13.05 3.7001 13.7H13.8501ZM2.4751 18.85C2.25843 18.85 2.07943 18.7793 1.9381 18.638C1.7961 18.496 1.7251 18.3166 1.7251 18.1C1.7251 17.8833 1.7961 17.704 1.9381 17.562C2.07943 17.4206 2.25843 17.35 2.4751 17.35H15.0751C15.2918 17.35 15.4711 17.4206 15.6131 17.562C15.7544 17.704 15.8251 17.8833 15.8251 18.1C15.8251 18.3166 15.7544 18.496 15.6131 18.638C15.4711 18.7793 15.2918 18.85 15.0751 18.85H2.4751ZM2.4751 22.5C2.25843 22.5 2.07943 22.4293 1.9381 22.288C1.7961 22.146 1.7251 21.9666 1.7251 21.75C1.7251 21.5333 1.7961 21.354 1.9381 21.212C2.07943 21.0706 2.25843 21 2.4751 21H15.0751C15.2918 21 15.4711 21.0706 15.6131 21.212C15.7544 21.354 15.8251 21.5333 15.8251 21.75C15.8251 21.9666 15.7544 22.146 15.6131 22.288C15.4711 22.4293 15.2918 22.5 15.0751 22.5H2.4751Z" fill="#272443"/>
</g>
</svg>
