<svg width="24" height="24" viewBox="0 0 24 24" fill="none" xmlns="http://www.w3.org/2000/svg">
<mask id="mask0_287_938" style="mask-type:alpha" maskUnits="userSpaceOnUse" x="0" y="0" width="24" height="24">
<rect width="24" height="24" fill="#D9D9D9"/>
</mask>
<g mask="url(#mask0_287_938)">
<path d="M12.05 20.85C11.8833 20.85 11.725 20.8127 11.575 20.738C11.425 20.6627 11.3083 20.5417 11.225 20.375L7.65 13.4C6.58333 13.6 5.625 13.3707 4.775 12.712C3.925 12.054 3.5 11.15 3.5 10C3.5 9.25 3.725 8.56267 4.175 7.938C4.625 7.31267 5.25 6.875 6.05 6.625C6.3 5.075 6.99167 3.83333 8.125 2.9C9.25833 1.96667 10.55 1.5 12 1.5C13.45 1.5 14.7417 1.96667 15.875 2.9C17.0083 3.83333 17.7 5.075 17.95 6.625C18.75 6.875 19.375 7.31267 19.825 7.938C20.275 8.56267 20.5 9.25 20.5 10C20.5 11.15 20.075 12.05 19.225 12.7C18.375 13.35 17.4417 13.5833 16.425 13.4L12.85 20.375C12.7667 20.5417 12.6543 20.6627 12.513 20.738C12.371 20.8127 12.2167 20.85 12.05 20.85ZM7 12C7.25 12 7.49567 11.9583 7.737 11.875C7.979 11.7917 8.2 11.65 8.4 11.45L8.95 10.9L9.6 11.3C9.95 11.5333 10.3293 11.7083 10.738 11.825C11.146 11.9417 11.5667 12 12 12C12.4333 12 12.854 11.9417 13.262 11.825C13.6707 11.7083 14.05 11.5333 14.4 11.3L15.05 10.9L15.6 11.45C15.8 11.65 16.0207 11.7917 16.262 11.875C16.504 11.9583 16.75 12 17 12C17.55 12 18.021 11.804 18.413 11.412C18.8043 11.0207 19 10.55 19 10C19 9.5 18.8417 9.06267 18.525 8.688C18.2083 8.31267 17.8 8.08333 17.3 8L16.55 7.9L16.5 7.1C16.4167 5.95 15.9417 4.97933 15.075 4.188C14.2083 3.396 13.1833 3 12 3C10.8167 3 9.79167 3.396 8.925 4.188C8.05833 4.97933 7.58333 5.95 7.5 7.1L7.45 7.9L6.7 8.05C6.2 8.15 5.79167 8.375 5.475 8.725C5.15833 9.075 5 9.5 5 10C5 10.55 5.196 11.0207 5.588 11.412C5.97933 11.804 6.45 12 7 12ZM12.05 18.65L15 12.9L14.875 12.775C14.4083 13.0083 13.9293 13.1873 13.438 13.312C12.946 13.4373 12.4667 13.5 12 13.5C11.5833 13.5 11.1333 13.4417 10.65 13.325C10.1667 13.2083 9.68333 13.025 9.2 12.775L9.075 12.9L12.05 18.65Z" fill="#272443"/>
</g>
</svg>
