<svg width="24" height="24" viewBox="0 0 24 24" fill="none" xmlns="http://www.w3.org/2000/svg">
<mask id="mask0_287_884" style="mask-type:alpha" maskUnits="userSpaceOnUse" x="0" y="0" width="24" height="24">
<rect width="24" height="24" fill="#D9D9D9"/>
</mask>
<g mask="url(#mask0_287_884)">
<path d="M4.30005 21.5C4.08338 21.5 3.90438 21.4293 3.76305 21.288C3.62105 21.146 3.55005 20.9667 3.55005 20.75C3.55005 20.5333 3.62105 20.354 3.76305 20.212C3.90438 20.0707 4.08338 20 4.30005 20H5.37505V16.675C4.82505 16.525 4.38338 16.225 4.05005 15.775C3.71672 15.325 3.55005 14.8167 3.55005 14.25V7.725C3.55005 7.475 3.63338 7.26233 3.80005 7.087C3.96672 6.91233 4.18338 6.825 4.45005 6.825H7.80005C8.05005 6.825 8.26272 6.91233 8.43805 7.087C8.61272 7.26233 8.70005 7.475 8.70005 7.725V14.25C8.70005 14.8167 8.53338 15.325 8.20005 15.775C7.86672 16.225 7.42505 16.525 6.87505 16.675V20H7.95005C8.15005 20 8.32505 20.0707 8.47505 20.212C8.62505 20.354 8.70005 20.5333 8.70005 20.75C8.70005 20.9667 8.62505 21.146 8.47505 21.288C8.32505 21.4293 8.15005 21.5 7.95005 21.5H4.30005ZM5.05005 11.525H7.20005V8.325H5.05005V11.525ZM6.12505 15.325C6.42505 15.325 6.67938 15.2207 6.88805 15.012C7.09605 14.804 7.20005 14.55 7.20005 14.25V13.025H5.05005V14.25C5.05005 14.55 5.15005 14.804 5.35005 15.012C5.55005 15.2207 5.80838 15.325 6.12505 15.325ZM12.95 21.5C12.55 21.5 12.2 21.354 11.9 21.062C11.6 20.7707 11.45 20.4167 11.45 20V10.45C11.45 10.1333 11.55 9.84567 11.75 9.587C11.95 9.329 12.1917 9.14167 12.475 9.025L13.425 8.675C13.7584 8.55833 14.0127 8.396 14.188 8.188C14.3627 7.97933 14.45 7.675 14.45 7.275V3.5C14.45 3.25 14.5377 3.04167 14.713 2.875C14.8877 2.70833 15.1 2.625 15.35 2.625H17.575C17.825 2.625 18.0334 2.70833 18.2 2.875C18.3667 3.04167 18.45 3.25 18.45 3.5V7.275C18.45 7.675 18.5417 7.97933 18.725 8.188C18.9084 8.396 19.1667 8.55833 19.5 8.675L20.4501 9.025C20.7501 9.14167 20.9917 9.329 21.175 9.587C21.3584 9.84567 21.4501 10.1333 21.4501 10.45V20C21.4501 20.4167 21.3044 20.7707 21.0131 21.062C20.7211 21.354 20.3667 21.5 19.9501 21.5H12.95ZM15.95 5.15H16.95V4.125H15.95V5.15ZM12.95 12.35H19.9501V10.45L19 10.1C18.3667 9.86667 17.8667 9.52067 17.5 9.062C17.1334 8.604 16.95 8.01667 16.95 7.3V6.65H15.95V7.3C15.95 8.01667 15.7667 8.604 15.4 9.062C15.0334 9.52067 14.5334 9.86667 13.9 10.1L12.95 10.45V12.35ZM12.95 20H19.9501V17.675H12.95V20ZM12.95 16.175H19.9501V13.85H12.95V16.175Z" fill="#272443"/>
</g>
</svg>
