<svg width="24" height="24" viewBox="0 0 24 24" fill="none" xmlns="http://www.w3.org/2000/svg">
<mask id="mask0_287_914" style="mask-type:alpha" maskUnits="userSpaceOnUse" x="0" y="0" width="24" height="24">
<rect width="24" height="24" fill="#D9D9D9"/>
</mask>
<g mask="url(#mask0_287_914)">
<path d="M3.3 9.99995C3.08333 9.99995 2.89567 9.92062 2.737 9.76195C2.579 9.60395 2.5 9.41662 2.5 9.19995C2.5 7.44995 3.3 6.09562 4.9 5.13695C6.5 4.17895 8.86667 3.69995 12 3.69995C15.1333 3.69995 17.5 4.17895 19.1 5.13695C20.7 6.09562 21.5 7.44995 21.5 9.19995C21.5 9.41662 21.421 9.60395 21.263 9.76195C21.1043 9.92062 20.9167 9.99995 20.7 9.99995H3.3ZM4.1 8.49995H19.9C19.6667 7.44995 18.875 6.63728 17.525 6.06195C16.175 5.48728 14.3333 5.19995 12 5.19995C9.66667 5.19995 7.825 5.48728 6.475 6.06195C5.125 6.63728 4.33333 7.44995 4.1 8.49995ZM2.5 13.5C2.5 13.3166 2.56267 13.1416 2.688 12.975C2.81267 12.8083 2.98333 12.675 3.2 12.575C3.56667 12.4583 3.91267 12.2916 4.238 12.075C4.56267 11.8583 5.04167 11.75 5.675 11.75C6.525 11.75 7.11267 11.9166 7.438 12.25C7.76267 12.5833 8.225 12.75 8.825 12.75C9.425 12.75 9.89167 12.5833 10.225 12.25C10.5583 11.9166 11.15 11.75 12 11.75C12.85 11.75 13.4417 11.9166 13.775 12.25C14.1083 12.5833 14.575 12.75 15.175 12.75C15.775 12.75 16.2333 12.5833 16.55 12.25C16.8667 11.9166 17.45 11.75 18.3 11.75C18.9333 11.75 19.421 11.854 19.763 12.062C20.1043 12.2706 20.45 12.4416 20.8 12.575C21 12.675 21.1667 12.8083 21.3 12.975C21.4333 13.1416 21.5 13.3166 21.5 13.5C21.5 13.7166 21.4127 13.8873 21.238 14.012C21.0627 14.1373 20.8833 14.175 20.7 14.125C20.1667 14.0083 19.775 13.8333 19.525 13.6C19.275 13.3666 18.9 13.25 18.4 13.25C17.8167 13.25 17.346 13.4166 16.988 13.75C16.6293 14.0833 16.025 14.25 15.175 14.25C14.325 14.25 13.7333 14.0833 13.4 13.75C13.0667 13.4166 12.6 13.25 12 13.25C11.4 13.25 10.9333 13.4166 10.6 13.75C10.2667 14.0833 9.675 14.25 8.825 14.25C7.975 14.25 7.38733 14.0833 7.062 13.75C6.73733 13.4166 6.275 13.25 5.675 13.25C5.175 13.25 4.79167 13.3666 4.525 13.6C4.25833 13.8333 3.85 14.0083 3.3 14.125C3.11667 14.175 2.93767 14.1373 2.763 14.012C2.58767 13.8873 2.5 13.7166 2.5 13.5ZM4.3 20.5C3.8 20.5 3.375 20.325 3.025 19.975C2.675 19.625 2.5 19.2 2.5 18.7V17.8C2.5 17.3 2.675 16.875 3.025 16.525C3.375 16.175 3.8 16 4.3 16H19.7C20.2 16 20.625 16.175 20.975 16.525C21.325 16.875 21.5 17.3 21.5 17.8V18.7C21.5 19.2 21.325 19.625 20.975 19.975C20.625 20.325 20.2 20.5 19.7 20.5H4.3ZM4.3 19H19.7C19.7833 19 19.8543 18.971 19.913 18.913C19.971 18.8543 20 18.7833 20 18.7V17.8C20 17.7166 19.971 17.6456 19.913 17.587C19.8543 17.529 19.7833 17.5 19.7 17.5H4.3C4.21667 17.5 4.146 17.529 4.088 17.587C4.02933 17.6456 4 17.7166 4 17.8V18.7C4 18.7833 4.02933 18.8543 4.088 18.913C4.146 18.971 4.21667 19 4.3 19ZM4.3 17.5H4H20H19.7H4.3Z" fill="#272443"/>
</g>
</svg>
