<svg width="24" height="24" viewBox="0 0 24 24" fill="none" xmlns="http://www.w3.org/2000/svg">
<mask id="mask0_287_956" style="mask-type:alpha" maskUnits="userSpaceOnUse" x="0" y="0" width="24" height="24">
<rect width="24" height="24" fill="#D9D9D9"/>
</mask>
<g mask="url(#mask0_287_956)">
<path d="M9.67489 20H13.6749V18.875L14.5749 18.525C15.7582 18.125 16.7622 17.5084 17.5869 16.675C18.4122 15.8417 18.9916 14.95 19.3249 14H4.04989C4.38322 14.95 4.95822 15.8417 5.77489 16.675C6.59155 17.5084 7.59155 18.125 8.77489 18.525L9.67489 18.875V20ZM9.07489 21.5C8.82489 21.5 8.61255 21.4127 8.43789 21.238C8.26255 21.0627 8.17489 20.85 8.17489 20.6V19.9C6.65822 19.3 5.38322 18.4417 4.34989 17.325C3.31655 16.2084 2.64989 14.925 2.34989 13.475C2.31655 13.225 2.38322 13 2.54989 12.8C2.71655 12.6 2.94155 12.5 3.22489 12.5H3.97489V5.32503C3.97489 5.09169 4.05422 4.88736 4.21289 4.71203C4.37089 4.53736 4.56655 4.43336 4.79989 4.40003L20.9749 2.65003C21.1582 2.61669 21.3126 2.65836 21.4379 2.77503C21.5626 2.89169 21.6249 3.04169 21.6249 3.22503C21.6249 3.35836 21.5749 3.48336 21.4749 3.60003C21.3749 3.71669 21.2499 3.78336 21.0999 3.80003L9.94989 5.05003V6.92503H21.0749C21.2582 6.92503 21.4042 6.97936 21.5129 7.08803C21.6209 7.19603 21.6749 7.34169 21.6749 7.52503C21.6749 7.69169 21.6209 7.83336 21.5129 7.95003C21.4042 8.06669 21.2582 8.12503 21.0749 8.12503H9.94989V12.5H20.1499C20.4332 12.5 20.6582 12.6 20.8249 12.8C20.9916 13 21.0582 13.225 21.0249 13.475C20.7249 14.925 20.0542 16.2084 19.0129 17.325C17.9709 18.4417 16.6916 19.3 15.1749 19.9V20.6C15.1749 20.85 15.0876 21.0627 14.9129 21.238C14.7376 21.4127 14.5249 21.5 14.2749 21.5H9.07489ZM7.54989 6.92503H8.74989V5.17503L7.54989 5.30003V6.92503ZM5.17489 6.92503H6.37489V5.45003L5.17489 5.55003V6.92503ZM7.54989 12.5H8.74989V8.12503H7.54989V12.5ZM5.17489 12.5H6.37489V8.12503H5.17489V12.5Z" fill="#272443"/>
</g>
</svg>
