<svg width="24" height="24" viewBox="0 0 24 24" fill="none" xmlns="http://www.w3.org/2000/svg">
<mask id="mask0_287_962" style="mask-type:alpha" maskUnits="userSpaceOnUse" x="0" y="0" width="24" height="24">
<rect width="24" height="24" fill="#D9D9D9"/>
</mask>
<g mask="url(#mask0_287_962)">
<path d="M17.625 21.75C17.4083 21.75 17.229 21.6793 17.087 21.538C16.9457 21.396 16.875 21.2167 16.875 21V13.75H15.95C15.45 13.75 15.021 13.575 14.663 13.225C14.3043 12.875 14.125 12.45 14.125 11.95V7C14.125 5.75 14.5293 4.66667 15.338 3.75C16.146 2.83333 17.1583 2.34167 18.375 2.275V21C18.375 21.2167 18.3 21.396 18.15 21.538C18 21.6793 17.825 21.75 17.625 21.75ZM8 21.75C7.78333 21.75 7.60433 21.6793 7.463 21.538C7.321 21.396 7.25 21.2167 7.25 21V12.65C6.43333 12.4833 5.75 12.075 5.2 11.425C4.65 10.775 4.375 10.0083 4.375 9.125V3C4.375 2.78333 4.446 2.604 4.588 2.462C4.72933 2.32067 4.90833 2.25 5.125 2.25C5.325 2.25 5.5 2.32067 5.65 2.462C5.8 2.604 5.875 2.78333 5.875 3V9.125H7.25V3C7.25 2.78333 7.321 2.604 7.463 2.462C7.60433 2.32067 7.78333 2.25 8 2.25C8.21667 2.25 8.396 2.32067 8.538 2.462C8.67933 2.604 8.75 2.78333 8.75 3V9.125H10.125V3C10.125 2.78333 10.2 2.604 10.35 2.462C10.5 2.32067 10.675 2.25 10.875 2.25C11.0917 2.25 11.271 2.32067 11.413 2.462C11.5543 2.604 11.625 2.78333 11.625 3V9.125C11.625 10.0083 11.35 10.775 10.8 11.425C10.25 12.075 9.56667 12.4833 8.75 12.65V21C8.75 21.2167 8.67933 21.396 8.538 21.538C8.396 21.6793 8.21667 21.75 8 21.75Z" fill="#272443"/>
</g>
</svg>
