<svg width="24" height="24" viewBox="0 0 24 24" fill="none" xmlns="http://www.w3.org/2000/svg">
<mask id="mask0_287_1358" style="mask-type:alpha" maskUnits="userSpaceOnUse" x="0" y="0" width="24" height="24">
<rect width="24" height="24" fill="#D9D9D9"/>
</mask>
<g mask="url(#mask0_287_1358)">
<path d="M16 13.5C16.4333 13.5 16.7917 13.3583 17.075 13.075C17.3583 12.7917 17.5 12.4333 17.5 12C17.5 11.5667 17.3583 11.2083 17.075 10.925C16.7917 10.6417 16.4333 10.5 16 10.5C15.5667 10.5 15.2083 10.6417 14.925 10.925C14.6417 11.2083 14.5 11.5667 14.5 12C14.5 12.4333 14.6417 12.7917 14.925 13.075C15.2083 13.3583 15.5667 13.5 16 13.5ZM5.3 20.5C4.8 20.5 4.375 20.325 4.025 19.975C3.675 19.625 3.5 19.2 3.5 18.7V5.3C3.5 4.8 3.675 4.375 4.025 4.025C4.375 3.675 4.8 3.5 5.3 3.5H18.7C19.2 3.5 19.625 3.675 19.975 4.025C20.325 4.375 20.5 4.8 20.5 5.3V8.025H19V5.3C19 5.21667 18.971 5.146 18.913 5.088C18.8543 5.02933 18.7833 5 18.7 5H5.3C5.21667 5 5.146 5.02933 5.088 5.088C5.02933 5.146 5 5.21667 5 5.3V18.7C5 18.7833 5.02933 18.8543 5.088 18.913C5.146 18.971 5.21667 19 5.3 19H18.7C18.7833 19 18.8543 18.971 18.913 18.913C18.971 18.8543 19 18.7833 19 18.7V15.975H20.5V18.7C20.5 19.2 20.325 19.625 19.975 19.975C19.625 20.325 19.2 20.5 18.7 20.5H5.3ZM13.3 16.5C12.8 16.5 12.375 16.325 12.025 15.975C11.675 15.625 11.5 15.2 11.5 14.7V9.3C11.5 8.8 11.675 8.375 12.025 8.025C12.375 7.675 12.8 7.5 13.3 7.5H19.7C20.2 7.5 20.625 7.675 20.975 8.025C21.325 8.375 21.5 8.8 21.5 9.3V14.7C21.5 15.2 21.325 15.625 20.975 15.975C20.625 16.325 20.2 16.5 19.7 16.5H13.3Z" fill="#272443"/>
</g>
</svg>
