<svg width="24" height="24" viewBox="0 0 24 24" fill="none" xmlns="http://www.w3.org/2000/svg">
<mask id="mask0_287_1346" style="mask-type:alpha" maskUnits="userSpaceOnUse" x="0" y="0" width="24" height="24">
<rect width="24" height="24" fill="#D9D9D9"/>
</mask>
<g mask="url(#mask0_287_1346)">
<path d="M7.875 17.5C6.79167 17.5 5.95 17.0873 5.35 16.262C4.75 15.4373 4.46667 14.4583 4.5 13.325V13.225L3.975 12.425C3.70833 12.025 3.396 11.3373 3.038 10.362C2.67933 9.38733 2.5 8.26667 2.5 7C2.5 5.41667 2.87933 4.104 3.638 3.062C4.396 2.02067 5.35 1.5 6.5 1.5C7.71667 1.5 8.68767 2.06267 9.413 3.188C10.1377 4.31267 10.5 5.58333 10.5 7C10.5 7.91667 10.3667 8.79567 10.1 9.637C9.83333 10.479 9.58333 11.1667 9.35 11.7L9.675 12.225C9.84167 12.5083 10.021 12.879 10.213 13.337C10.4043 13.7957 10.5 14.2417 10.5 14.675C10.5 15.4917 10.254 16.1667 9.762 16.7C9.27067 17.2333 8.64167 17.5 7.875 17.5ZM5.425 11.9L7.875 11.35C8.10833 10.8167 8.35433 10.1583 8.613 9.375C8.871 8.59167 9 7.8 9 7C9 5.96667 8.76667 5.04167 8.3 4.225C7.83333 3.40833 7.23333 3 6.5 3C5.76667 3 5.16667 3.40833 4.7 4.225C4.23333 5.04167 4 5.96667 4 7C4 8 4.15 8.93733 4.45 9.812C4.75 10.6873 5.075 11.3833 5.425 11.9ZM7.875 16C8.19167 16 8.45833 15.879 8.675 15.637C8.89167 15.3957 9 15.075 9 14.675C9 14.3917 8.92933 14.0833 8.788 13.75C8.646 13.4167 8.475 13.1 8.275 12.8L6 13.3C6 14.0667 6.15433 14.7083 6.463 15.225C6.771 15.7417 7.24167 16 7.875 16ZM16.125 22.5C15.3583 22.5 14.7293 22.2333 14.238 21.7C13.746 21.1667 13.5 20.4917 13.5 19.675C13.5 19.2417 13.596 18.7957 13.788 18.337C13.9793 17.879 14.1583 17.5083 14.325 17.225L14.65 16.7C14.4333 16.1667 14.1877 15.479 13.913 14.637C13.6377 13.7957 13.5 12.9167 13.5 12C13.5 10.5833 13.8627 9.31267 14.588 8.188C15.3127 7.06267 16.2833 6.5 17.5 6.5C18.65 6.5 19.6043 7.02067 20.363 8.062C21.121 9.104 21.5 10.4167 21.5 12C21.5 13.2667 21.3207 14.379 20.962 15.337C20.604 16.2957 20.2917 16.9833 20.025 17.4L19.5 18.225V18.325C19.5167 19.4417 19.2293 20.4167 18.638 21.25C18.046 22.0833 17.2083 22.5 16.125 22.5ZM18.525 16.95C18.9583 16.2833 19.3123 15.554 19.587 14.762C19.8623 13.9707 20 13.05 20 12C20 10.9667 19.7667 10.0417 19.3 9.225C18.8333 8.40833 18.2333 8 17.5 8C16.7667 8 16.1667 8.40833 15.7 9.225C15.2333 10.0417 15 10.9667 15 12C15 12.8 15.129 13.5877 15.387 14.363C15.6457 15.1377 15.8917 15.8 16.125 16.35L18.525 16.95ZM16.125 21C16.7417 21 17.2083 20.746 17.525 20.238C17.8417 19.7293 18 19.1083 18 18.375L15.725 17.775C15.575 18.0417 15.4167 18.346 15.25 18.688C15.0833 19.0293 15 19.3583 15 19.675C15 20.0083 15.1083 20.3123 15.325 20.587C15.5417 20.8623 15.8083 21 16.125 21Z" fill="#272443"/>
</g>
</svg>
