<svg width="24" height="24" viewBox="0 0 24 24" fill="none" xmlns="http://www.w3.org/2000/svg">
<mask id="mask0_287_1151" style="mask-type:alpha" maskUnits="userSpaceOnUse" x="0" y="0" width="24" height="24">
<rect width="24" height="24" fill="#D9D9D9"/>
</mask>
<g mask="url(#mask0_287_1151)">
<path d="M13.9 21.05C13.6167 21.3333 13.2627 21.475 12.838 21.475C12.4127 21.475 12.0583 21.3333 11.775 21.05L2.975 12.25C2.825 12.1 2.70833 11.9333 2.625 11.75C2.54167 11.5667 2.5 11.3667 2.5 11.15V4C2.5 3.58333 2.646 3.22933 2.938 2.938C3.22933 2.646 3.58333 2.5 4 2.5H11.15C11.35 2.5 11.546 2.54167 11.738 2.625C11.9293 2.70833 12.0917 2.81667 12.225 2.95L21.025 11.75C21.325 12.05 21.475 12.4123 21.475 12.837C21.475 13.2623 21.3333 13.6167 21.05 13.9L13.9 21.05ZM12.825 20L19.975 12.85L11.15 4H4V11.15L12.825 20ZM6.5 7.75C6.85 7.75 7.146 7.629 7.388 7.387C7.62933 7.14567 7.75 6.85 7.75 6.5C7.75 6.15 7.62933 5.854 7.388 5.612C7.146 5.37067 6.85 5.25 6.5 5.25C6.15 5.25 5.85433 5.37067 5.613 5.612C5.371 5.854 5.25 6.15 5.25 6.5C5.25 6.85 5.371 7.14567 5.613 7.387C5.85433 7.629 6.15 7.75 6.5 7.75Z" fill="#272443"/>
</g>
</svg>
