<svg width="24" height="24" viewBox="0 0 24 24" fill="none" xmlns="http://www.w3.org/2000/svg">
<mask id="mask0_287_1175" style="mask-type:alpha" maskUnits="userSpaceOnUse" x="0" y="0" width="24" height="24">
<rect width="24" height="24" fill="#D9D9D9"/>
</mask>
<g mask="url(#mask0_287_1175)">
<path d="M5.07495 20.75C4.57495 20.75 4.14995 20.575 3.79995 20.225C3.44995 19.875 3.27495 19.45 3.27495 18.95V10.95C2.85828 10.6167 2.54995 10.1873 2.34995 9.662C2.14995 9.13733 2.14995 8.56667 2.34995 7.95L3.34995 4.65C3.48328 4.23333 3.71262 3.89567 4.03795 3.637C4.36262 3.379 4.74162 3.25 5.17495 3.25H18.825C19.275 3.25 19.6583 3.375 19.975 3.625C20.2916 3.875 20.5166 4.20833 20.65 4.625L21.6749 7.95C21.8749 8.56667 21.8749 9.13733 21.6749 9.662C21.4749 10.1873 21.175 10.625 20.775 10.975V18.95C20.775 19.45 20.6 19.875 20.25 20.225C19.9 20.575 19.4666 20.75 18.95 20.75H5.07495ZM14.225 10.25C14.7583 10.25 15.1626 10.0833 15.438 9.75C15.7126 9.41667 15.825 9.05833 15.775 8.675L15.175 4.75H12.775V8.7C12.775 9.11667 12.9166 9.479 13.2 9.787C13.4833 10.0957 13.825 10.25 14.225 10.25ZM9.72495 10.25C10.175 10.25 10.546 10.0957 10.838 9.787C11.1293 9.479 11.275 9.11667 11.275 8.7V4.75H8.84995L8.24995 8.7C8.19995 9.06667 8.31262 9.41667 8.58795 9.75C8.86262 10.0833 9.24162 10.25 9.72495 10.25ZM5.27495 10.25C5.64162 10.25 5.95828 10.121 6.22495 9.863C6.49162 9.60433 6.65828 9.28333 6.72495 8.9L7.29995 4.75H5.17495C5.07495 4.75 4.99162 4.775 4.92495 4.825C4.85828 4.875 4.80828 4.95 4.77495 5.05L3.82495 8.3C3.69162 8.71667 3.74995 9.14567 3.99995 9.587C4.24995 10.029 4.67495 10.25 5.27495 10.25ZM18.775 10.25C19.3083 10.25 19.721 10.0377 20.013 9.613C20.3043 9.18767 20.375 8.75 20.225 8.3L19.2 5.025C19.1666 4.925 19.1206 4.854 19.062 4.812C19.004 4.77067 18.9166 4.75 18.7999 4.75H16.725L17.325 8.9C17.375 9.28333 17.5333 9.60433 17.8 9.863C18.0666 10.121 18.3916 10.25 18.775 10.25ZM5.07495 19.25H18.95C19.05 19.25 19.1293 19.221 19.188 19.163C19.246 19.1043 19.275 19.0333 19.275 18.95V11.65C19.1583 11.7 19.0626 11.7293 18.988 11.738C18.9126 11.746 18.8416 11.75 18.775 11.75C18.325 11.75 17.929 11.6667 17.587 11.5C17.2456 11.3333 16.9083 11.075 16.575 10.725C16.3083 11.0417 15.9833 11.2917 15.6 11.475C15.2166 11.6583 14.775 11.75 14.275 11.75C13.8583 11.75 13.4626 11.6627 13.088 11.488C12.7126 11.3127 12.3583 11.0583 12.025 10.725C11.7083 11.0583 11.3543 11.3127 10.963 11.488C10.571 11.6627 10.175 11.75 9.77495 11.75C9.32495 11.75 8.90395 11.6667 8.51195 11.5C8.12062 11.3333 7.77495 11.075 7.47495 10.725C7.04162 11.1417 6.64995 11.4167 6.29995 11.55C5.94995 11.6833 5.60828 11.75 5.27495 11.75C5.19162 11.75 5.10828 11.746 5.02495 11.738C4.94162 11.7293 4.85828 11.7 4.77495 11.65V18.95C4.77495 19.0333 4.80428 19.1043 4.86295 19.163C4.92095 19.221 4.99162 19.25 5.07495 19.25Z" fill="#272443"/>
</g>
</svg>
