<svg width="24" height="24" viewBox="0 0 24 24" fill="none" xmlns="http://www.w3.org/2000/svg">
<mask id="mask0_287_1169" style="mask-type:alpha" maskUnits="userSpaceOnUse" x="0" y="0" width="24" height="24">
<rect width="24" height="24" fill="#D9D9D9"/>
</mask>
<g mask="url(#mask0_287_1169)">
<path d="M4.94994 5.75C4.74994 5.75 4.57494 5.679 4.42494 5.537C4.27494 5.39567 4.19994 5.21667 4.19994 5C4.19994 4.78333 4.27494 4.604 4.42494 4.462C4.57494 4.32067 4.74994 4.25 4.94994 4.25H19.0499C19.2499 4.25 19.4249 4.32067 19.5749 4.462C19.7249 4.604 19.7999 4.78333 19.7999 5C19.7999 5.21667 19.7249 5.39567 19.5749 5.537C19.4249 5.679 19.2499 5.75 19.0499 5.75H4.94994ZM5.14994 19.75C4.89994 19.75 4.68761 19.6627 4.51294 19.488C4.33761 19.3127 4.24994 19.1 4.24994 18.85V13.75H3.94994C3.66661 13.75 3.42928 13.6373 3.23794 13.412C3.04594 13.1873 2.98328 12.9333 3.04994 12.65L4.04994 7.975C4.09994 7.75833 4.20828 7.58333 4.37494 7.45C4.54161 7.31667 4.73328 7.25 4.94994 7.25H19.0499C19.2666 7.25 19.4583 7.31667 19.6249 7.45C19.7916 7.58333 19.8999 7.75833 19.9499 7.975L20.9499 12.65C21.0166 12.9333 20.9543 13.1873 20.7629 13.412C20.5709 13.6373 20.3333 13.75 20.0499 13.75H19.7499V19C19.7499 19.2167 19.6793 19.396 19.5379 19.538C19.3959 19.6793 19.2166 19.75 18.9999 19.75C18.7833 19.75 18.6039 19.6793 18.4619 19.538C18.3206 19.396 18.2499 19.2167 18.2499 19V13.75H13.7499V18.85C13.7499 19.1 13.6626 19.3127 13.4879 19.488C13.3126 19.6627 13.0999 19.75 12.8499 19.75H5.14994ZM5.74994 18.25H12.2499V13.75H5.74994V18.25ZM4.67494 12.25H19.3249L18.5749 8.75H5.42494L4.67494 12.25Z" fill="#272443"/>
</g>
</svg>
