<svg width="24" height="24" viewBox="0 0 24 24" fill="none" xmlns="http://www.w3.org/2000/svg">
<mask id="mask0_287_1364" style="mask-type:alpha" maskUnits="userSpaceOnUse" x="0" y="0" width="24" height="24">
<rect width="24" height="24" fill="#D9D9D9"/>
</mask>
<g mask="url(#mask0_287_1364)">
<path d="M6 19.5C5.03333 19.5 4.20833 19.1583 3.525 18.475C2.84167 17.7917 2.5 16.9667 2.5 16V8C2.5 7.03333 2.84167 6.20833 3.525 5.525C4.20833 4.84167 5.03333 4.5 6 4.5H18C18.9667 4.5 19.7917 4.84167 20.475 5.525C21.1583 6.20833 21.5 7.03333 21.5 8V16C21.5 16.9667 21.1583 17.7917 20.475 18.475C19.7917 19.1583 18.9667 19.5 18 19.5H6ZM6 8.25H18C18.3833 8.25 18.7417 8.304 19.075 8.412C19.4083 8.52067 19.7167 8.68333 20 8.9V8C20 7.45 19.8043 6.97933 19.413 6.588C19.021 6.196 18.55 6 18 6H6C5.45 6 4.97933 6.196 4.588 6.588C4.196 6.97933 4 7.45 4 8V8.9C4.28333 8.68333 4.59167 8.52067 4.925 8.412C5.25833 8.304 5.61667 8.25 6 8.25ZM4.1 11.25L15.325 13.975C15.4583 14.0083 15.596 14.0083 15.738 13.975C15.8793 13.9417 16.0083 13.8833 16.125 13.8L19.725 10.775C19.5583 10.4583 19.321 10.2083 19.013 10.025C18.7043 9.84167 18.3667 9.75 18 9.75H6C5.53333 9.75 5.125 9.88733 4.775 10.162C4.425 10.4373 4.2 10.8 4.1 11.25Z" fill="#272443"/>
</g>
</svg>
