<svg width="24" height="24" viewBox="0 0 24 24" fill="none" xmlns="http://www.w3.org/2000/svg">
<mask id="mask0_287_1382" style="mask-type:alpha" maskUnits="userSpaceOnUse" x="0" y="0" width="24" height="24">
<rect width="24" height="24" fill="#D9D9D9"/>
</mask>
<g mask="url(#mask0_287_1382)">
<path d="M5.40003 20.5C5.15003 20.5 4.9377 20.4126 4.76303 20.238C4.5877 20.0626 4.50003 19.85 4.50003 19.6V11.25L3.22503 12.225C3.05836 12.3583 2.87503 12.4123 2.67503 12.387C2.47503 12.3623 2.30836 12.2583 2.17503 12.075C2.05836 11.8916 2.0127 11.704 2.03803 11.512C2.0627 11.3206 2.15836 11.1583 2.32503 11.025L4.50003 9.34995V7.22495C4.50003 7.00828 4.57103 6.82895 4.71303 6.68695C4.85436 6.54562 5.03336 6.47495 5.25003 6.47495C5.4667 6.47495 5.6457 6.54562 5.78703 6.68695C5.92903 6.82895 6.00003 7.00828 6.00003 7.22495V8.19995L11.45 4.04995C11.5334 3.98328 11.621 3.93328 11.713 3.89995C11.8044 3.86662 11.9 3.84995 12 3.84995C12.1 3.84995 12.196 3.86662 12.288 3.89995C12.3794 3.93328 12.4667 3.98328 12.55 4.04995L21.675 11.025C21.8417 11.1583 21.9374 11.3206 21.962 11.512C21.9874 11.704 21.9417 11.8916 21.825 12.075C21.6917 12.2416 21.525 12.3373 21.325 12.362C21.125 12.3873 20.9417 12.3333 20.775 12.2L19.5 11.25V19.6C19.5 19.85 19.4127 20.0626 19.238 20.238C19.0627 20.4126 18.85 20.5 18.6 20.5H5.40003ZM6.00003 19H10.8V15.8C10.8 15.4666 10.9167 15.1873 11.15 14.962C11.3834 14.7373 11.6667 14.625 12 14.625C12.3334 14.625 12.6167 14.7373 12.85 14.962C13.0834 15.1873 13.2 15.4666 13.2 15.8V19H18V10.1L12 5.52495L6.00003 10.1V19ZM5.42503 5.37495C5.17503 5.37495 4.9667 5.27062 4.80003 5.06195C4.63336 4.85395 4.6167 4.62495 4.75003 4.37495C4.93336 3.90828 5.22503 3.52895 5.62503 3.23695C6.02503 2.94562 6.52503 2.79995 7.12503 2.79995C7.3917 2.79995 7.6127 2.73728 7.78803 2.61195C7.9627 2.48728 8.08336 2.31662 8.15003 2.09995C8.2167 1.98328 8.30436 1.88728 8.41303 1.81195C8.52103 1.73728 8.65003 1.69995 8.80003 1.69995C9.08336 1.69995 9.30003 1.81228 9.45003 2.03695C9.60003 2.26228 9.6167 2.49162 9.50003 2.72495C9.30003 3.19162 8.99603 3.57062 8.58803 3.86195C8.17936 4.15395 7.6917 4.29995 7.12503 4.29995C6.85836 4.29995 6.63336 4.35828 6.45003 4.47495C6.2667 4.59162 6.1417 4.74995 6.07503 4.94995C6.00836 5.09995 5.9167 5.20828 5.80003 5.27495C5.68336 5.34162 5.55836 5.37495 5.42503 5.37495Z" fill="#272443"/>
</g>
</svg>
