<svg width="24" height="24" viewBox="0 0 24 24" fill="none" xmlns="http://www.w3.org/2000/svg">
<mask id="mask0_287_1388" style="mask-type:alpha" maskUnits="userSpaceOnUse" x="0" y="0" width="24" height="24">
<rect width="24" height="24" fill="#D9D9D9"/>
</mask>
<g mask="url(#mask0_287_1388)">
<path d="M4 18.5C3.58333 18.5 3.22933 18.35 2.938 18.05C2.646 17.75 2.5 17.4 2.5 17V10.975C2.5 10.775 2.53733 10.5833 2.612 10.4C2.68733 10.2166 2.79167 10.0583 2.925 9.92498L5.925 6.92498C6.05833 6.79164 6.21667 6.68731 6.4 6.61198C6.58333 6.53731 6.775 6.49998 6.975 6.49998H7.5V5.47498C7.5 5.25831 7.571 5.07898 7.713 4.93698C7.85433 4.79564 8.03333 4.72498 8.25 4.72498C8.46667 4.72498 8.646 4.79564 8.788 4.93698C8.92933 5.07898 9 5.25831 9 5.47498V6.49998H17.025C17.225 6.49998 17.4167 6.53731 17.6 6.61198C17.7833 6.68731 17.9417 6.79164 18.075 6.92498L21.075 9.92498C21.2083 10.0583 21.3127 10.2166 21.388 10.4C21.4627 10.5833 21.5 10.775 21.5 10.975V17C21.5 17.4 21.354 17.75 21.062 18.05C20.7707 18.35 20.4167 18.5 20 18.5H4ZM15.5 17H20V10.975L17.75 8.72498L15.5 11V17ZM4 17H14V12H4V17Z" fill="#272443"/>
</g>
</svg>
