<svg width="24" height="24" viewBox="0 0 24 24" fill="none" xmlns="http://www.w3.org/2000/svg">
<mask id="mask0_287_1400" style="mask-type:alpha" maskUnits="userSpaceOnUse" x="0" y="0" width="24" height="24">
<rect width="24" height="24" fill="#D9D9D9"/>
</mask>
<g mask="url(#mask0_287_1400)">
<path d="M17.125 8.875H18.875V7.125H17.125V8.875ZM17.125 12.875H18.875V11.125H17.125V12.875ZM17.125 16.875H18.875V15.125H17.125V16.875ZM16.5 20.5V19H21V5H11.7V6.8L10.2 5.7V4.975C10.2 4.575 10.346 4.22933 10.638 3.938C10.9293 3.646 11.2833 3.5 11.7 3.5H21C21.4167 3.5 21.7707 3.646 22.062 3.938C22.354 4.22933 22.5 4.58333 22.5 5V19C22.5 19.4167 22.354 19.7707 22.062 20.062C21.7707 20.354 21.4167 20.5 21 20.5H16.5ZM1.5 19.6V12.175C1.5 11.875 1.56667 11.5957 1.7 11.337C1.83333 11.079 2.025 10.8667 2.275 10.7L6.95 7.375C7.26667 7.14167 7.61667 7.025 8 7.025C8.38333 7.025 8.73333 7.14167 9.05 7.375L13.725 10.7C13.975 10.8667 14.1667 11.079 14.3 11.337C14.4333 11.5957 14.5 11.875 14.5 12.175V19.6C14.5 19.85 14.4127 20.0627 14.238 20.238C14.0627 20.4127 13.85 20.5 13.6 20.5H9.125V15.75H6.875V20.5H2.4C2.15 20.5 1.93733 20.4127 1.762 20.238C1.58733 20.0627 1.5 19.85 1.5 19.6ZM3 19H5.375V14.25H10.625V19H13V12L8 8.475L3 12V19Z" fill="#272443"/>
</g>
</svg>
