<svg width="24" height="24" viewBox="0 0 24 24" fill="none" xmlns="http://www.w3.org/2000/svg">
<mask id="mask0_287_575" style="mask-type:alpha" maskUnits="userSpaceOnUse" x="0" y="0" width="24" height="24">
<rect width="24" height="24" fill="#D9D9D9"/>
</mask>
<g mask="url(#mask0_287_575)">
<path d="M13.5 5.35002C12.9833 5.35002 12.546 5.17069 12.188 4.81202C11.8293 4.45402 11.65 4.01669 11.65 3.50002C11.65 2.98336 11.8293 2.54569 12.188 2.18702C12.546 1.82902 12.9833 1.65002 13.5 1.65002C14.0167 1.65002 14.454 1.82902 14.812 2.18702C15.1707 2.54569 15.35 2.98336 15.35 3.50002C15.35 4.01669 15.1707 4.45402 14.812 4.81202C14.454 5.17069 14.0167 5.35002 13.5 5.35002ZM14 22.75C13.7833 22.75 13.6043 22.6794 13.463 22.538C13.321 22.396 13.25 22.2167 13.25 22V16.925L10.75 14.525L10.1 17.4C9.98334 17.8667 9.72067 18.2334 9.31201 18.5C8.90401 18.7667 8.45834 18.85 7.97501 18.75L4.02501 17.95C3.82501 17.9167 3.66267 17.8124 3.53801 17.637C3.41267 17.4624 3.38334 17.2667 3.45001 17.05C3.48334 16.85 3.58767 16.6917 3.76301 16.575C3.93767 16.4584 4.12501 16.425 4.32501 16.475L8.07501 17.25C8.17501 17.2667 8.25834 17.25 8.32501 17.2C8.39167 17.15 8.43334 17.0834 8.45001 17L10.125 8.47502L7.95001 9.35002C7.88334 9.38336 7.83334 9.42502 7.80001 9.47502C7.76667 9.52502 7.75001 9.58336 7.75001 9.65002V12C7.75001 12.2167 7.67901 12.3957 7.53701 12.537C7.39567 12.679 7.21667 12.75 7.00001 12.75C6.78334 12.75 6.60434 12.679 6.46301 12.537C6.32101 12.3957 6.25001 12.2167 6.25001 12V9.65002C6.25001 9.28336 6.35001 8.95002 6.55001 8.65002C6.75001 8.35002 7.01667 8.12502 7.35001 7.97502L10.225 6.77502C10.725 6.55836 11.096 6.41669 11.338 6.35002C11.5793 6.28336 11.8 6.25002 12 6.25002C12.3 6.25002 12.5833 6.32902 12.85 6.48702C13.1167 6.64569 13.3333 6.85836 13.5 7.12502L14.5 8.72502C14.8667 9.34169 15.3627 9.86669 15.988 10.3C16.6127 10.7334 17.3167 11.025 18.1 11.175C18.2833 11.1917 18.4373 11.2707 18.562 11.412C18.6873 11.554 18.75 11.7167 18.75 11.9C18.75 12.1334 18.6667 12.3294 18.5 12.488C18.3333 12.646 18.1417 12.7084 17.925 12.675C17.0583 12.5417 16.2293 12.2374 15.438 11.762C14.646 11.2874 13.9583 10.6417 13.375 9.82502L12.625 13.575L14.2 15.075C14.3833 15.2584 14.521 15.4584 14.613 15.675C14.7043 15.8917 14.75 16.125 14.75 16.375V22C14.75 22.2167 14.6793 22.396 14.538 22.538C14.396 22.6794 14.2167 22.75 14 22.75Z" fill="#272443"/>
</g>
</svg>
