<svg width="24" height="24" viewBox="0 0 24 24" fill="none" xmlns="http://www.w3.org/2000/svg">
<mask id="mask0_287_1223" style="mask-type:alpha" maskUnits="userSpaceOnUse" x="0" y="0" width="24" height="24">
<rect width="24" height="24" fill="#D9D9D9"/>
</mask>
<g mask="url(#mask0_287_1223)">
<path d="M12.925 21.075C12.775 20.925 12.7 20.7333 12.7 20.5C12.7 20.2666 12.775 20.0749 12.925 19.9249L15.9 16.95L7.05005 8.09995L4.07505 11.075C3.90838 11.2416 3.71672 11.3206 3.50005 11.312C3.28338 11.304 3.09172 11.225 2.92505 11.075C2.75838 10.9083 2.67505 10.7123 2.67505 10.487C2.67505 10.2623 2.75838 10.0666 2.92505 9.89995L3.77505 9.04995L3.25005 8.52495C3.06672 8.35828 2.97505 8.15395 2.97505 7.91195C2.97505 7.67062 3.06672 7.45828 3.25005 7.27495L4.72505 5.79995L3.85005 4.89995C3.70005 4.74995 3.62505 4.57495 3.62505 4.37495C3.62505 4.17495 3.70005 3.99162 3.85005 3.82495C4.01672 3.67495 4.20005 3.59995 4.40005 3.59995C4.60005 3.59995 4.77505 3.67495 4.92505 3.82495L5.80005 4.72495L7.27505 3.24995C7.45838 3.06662 7.67105 2.97495 7.91305 2.97495C8.15438 2.97495 8.35838 3.06662 8.52505 3.24995L9.07505 3.77495L9.92505 2.92495C10.075 2.77495 10.2667 2.69995 10.5 2.69995C10.7334 2.69995 10.925 2.77495 11.075 2.92495C11.225 3.07495 11.3 3.26662 11.3 3.49995C11.3 3.73328 11.225 3.92495 11.075 4.07495L8.10005 7.04995L16.95 15.9L19.925 12.925C20.0917 12.7583 20.2877 12.675 20.5131 12.675C20.7377 12.675 20.9334 12.7583 21.1 12.925C21.25 13.0916 21.3251 13.2873 21.3251 13.512C21.3251 13.7373 21.25 13.925 21.1 14.075L20.225 14.95L20.75 15.475C20.9334 15.6416 21.025 15.8456 21.025 16.087C21.025 16.329 20.9334 16.5416 20.75 16.725L19.275 18.2L20.15 19.1C20.3 19.25 20.375 19.425 20.375 19.625C20.375 19.825 20.3 20 20.15 20.15C20 20.3 19.825 20.375 19.625 20.375C19.425 20.375 19.2417 20.3 19.0751 20.15L18.2 19.275L16.725 20.75C16.5417 20.9333 16.329 21.025 16.087 21.025C15.8457 21.025 15.6417 20.9333 15.475 20.75L14.925 20.225L14.075 21.075C13.925 21.225 13.7334 21.2999 13.5 21.2999C13.2667 21.2999 13.075 21.225 12.925 21.075Z" fill="#272443"/>
</g>
</svg>
