<svg width="24" height="24" viewBox="0 0 24 24" fill="none" xmlns="http://www.w3.org/2000/svg">
<mask id="mask0_287_386" style="mask-type:alpha" maskUnits="userSpaceOnUse" x="0" y="0" width="24" height="24">
<rect width="24" height="24" fill="#D9D9D9"/>
</mask>
<g mask="url(#mask0_287_386)">
<path d="M12 15.5C10.1833 15.5 8.646 14.871 7.388 13.613C6.12933 12.3543 5.5 10.8167 5.5 9C5.5 7.18333 6.12933 5.64567 7.388 4.387C8.646 3.129 10.1833 2.5 12 2.5C13.8167 2.5 15.3543 3.129 16.613 4.387C17.871 5.64567 18.5 7.18333 18.5 9C18.5 10.8167 17.871 12.3543 16.613 13.613C15.3543 14.871 13.8167 15.5 12 15.5ZM12 14C13.3833 14 14.5627 13.5123 15.538 12.537C16.5127 11.5623 17 10.3833 17 9C17 7.61667 16.5127 6.43767 15.538 5.463C14.5627 4.48767 13.3833 4 12 4C10.6167 4 9.43767 4.48767 8.463 5.463C7.48767 6.43767 7 7.61667 7 9C7 10.3833 7.48767 11.5623 8.463 12.537C9.43767 13.5123 10.6167 14 12 14ZM10 9C10.2833 9 10.521 8.904 10.713 8.712C10.9043 8.52067 11 8.28333 11 8C11 7.71667 10.9043 7.479 10.713 7.287C10.521 7.09567 10.2833 7 10 7C9.71667 7 9.47933 7.09567 9.288 7.287C9.096 7.479 9 7.71667 9 8C9 8.28333 9.096 8.52067 9.288 8.712C9.47933 8.904 9.71667 9 10 9ZM14 9C14.2833 9 14.521 8.904 14.713 8.712C14.9043 8.52067 15 8.28333 15 8C15 7.71667 14.9043 7.479 14.713 7.287C14.521 7.09567 14.2833 7 14 7C13.7167 7 13.4793 7.09567 13.288 7.287C13.096 7.479 13 7.71667 13 8C13 8.28333 13.096 8.52067 13.288 8.712C13.4793 8.904 13.7167 9 14 9ZM12 7C12.2833 7 12.521 6.90433 12.713 6.713C12.9043 6.521 13 6.28333 13 6C13 5.71667 12.9043 5.479 12.713 5.287C12.521 5.09567 12.2833 5 12 5C11.7167 5 11.4793 5.09567 11.288 5.287C11.096 5.479 11 5.71667 11 6C11 6.28333 11.096 6.521 11.288 6.713C11.4793 6.90433 11.7167 7 12 7ZM11.25 21.45V20.45C11.25 19.8167 11.0333 19.2833 10.6 18.85C10.1667 18.4167 9.63333 18.2 9 18.2H8.125C7.925 18.2 7.75 18.125 7.6 17.975C7.45 17.825 7.375 17.65 7.375 17.45C7.375 17.2333 7.45 17.0543 7.6 16.913C7.75 16.771 7.925 16.7 8.125 16.7H15.875C16.075 16.7 16.25 16.771 16.4 16.913C16.55 17.0543 16.625 17.2333 16.625 17.45C16.625 17.65 16.55 17.825 16.4 17.975C16.25 18.125 16.075 18.2 15.875 18.2H15C14.3667 18.2 13.8333 18.4167 13.4 18.85C12.9667 19.2833 12.75 19.8167 12.75 20.45V21.45H11.25Z" fill="#272443"/>
</g>
</svg>
