<svg width="24" height="24" viewBox="0 0 24 24" fill="none" xmlns="http://www.w3.org/2000/svg">
<mask id="mask0_287_380" style="mask-type:alpha" maskUnits="userSpaceOnUse" x="0" y="0" width="24" height="24">
<rect width="24" height="24" fill="#D9D9D9"/>
</mask>
<g mask="url(#mask0_287_380)">
<path d="M14.6501 14.125L12.1251 16.65C11.9417 16.8333 11.7334 16.925 11.5001 16.925C11.2667 16.925 11.0584 16.8333 10.8751 16.65L2.65007 8.425C2.46674 8.24167 2.37074 8.04167 2.36207 7.825C2.35407 7.60833 2.44174 7.40833 2.62507 7.225L5.20007 4.65C5.38341 4.46667 5.59174 4.375 5.82507 4.375C6.05841 4.375 6.25841 4.46667 6.42507 4.65L14.6751 12.875C14.8417 13.0583 14.9251 13.2667 14.9251 13.5C14.9251 13.7333 14.8334 13.9417 14.6501 14.125ZM11.5001 15.175L13.1751 13.5L5.80007 6.125L4.12507 7.8L11.5001 15.175ZM18.0751 21.125L14.3001 17.375L15.3751 16.3L19.1501 20.1C19.2834 20.2333 19.3501 20.4 19.3501 20.6C19.3501 20.8 19.2751 20.975 19.1251 21.125C18.9751 21.275 18.8001 21.35 18.6001 21.35C18.4001 21.35 18.2251 21.275 18.0751 21.125ZM18.5001 8.625C17.6334 8.625 16.8961 8.321 16.2881 7.713C15.6794 7.10433 15.3751 6.36667 15.3751 5.5C15.3751 4.63333 15.6794 3.89567 16.2881 3.287C16.8961 2.679 17.6334 2.375 18.5001 2.375C19.3667 2.375 20.1041 2.679 20.7121 3.287C21.3207 3.89567 21.6251 4.63333 21.6251 5.5C21.6251 6.36667 21.3207 7.10433 20.7121 7.713C20.1041 8.321 19.3667 8.625 18.5001 8.625ZM18.5001 7.125C18.9501 7.125 19.3334 6.96667 19.6501 6.65C19.9667 6.33333 20.1251 5.95 20.1251 5.5C20.1251 5.05 19.9667 4.66667 19.6501 4.35C19.3334 4.03333 18.9501 3.875 18.5001 3.875C18.0501 3.875 17.6667 4.03333 17.3501 4.35C17.0334 4.66667 16.8751 5.05 16.8751 5.5C16.8751 5.95 17.0334 6.33333 17.3501 6.65C17.6667 6.96667 18.0501 7.125 18.5001 7.125Z" fill="#272443"/>
</g>
</svg>
