<svg width="24" height="24" viewBox="0 0 24 24" fill="none" xmlns="http://www.w3.org/2000/svg">
<mask id="mask0_287_392" style="mask-type:alpha" maskUnits="userSpaceOnUse" x="0" y="0" width="24" height="24">
<rect width="24" height="24" fill="#D9D9D9"/>
</mask>
<g mask="url(#mask0_287_392)">
<path d="M15.675 9.05005C15.175 9.05005 14.7416 8.87072 14.375 8.51205C14.0083 8.15405 13.825 7.71672 13.825 7.20005C13.825 6.70005 14.0083 6.27072 14.375 5.91205C14.7416 5.55405 15.175 5.37505 15.675 5.37505C16.1916 5.37505 16.6293 5.55405 16.988 5.91205C17.346 6.27072 17.525 6.70005 17.525 7.20005C17.525 7.71672 17.346 8.15405 16.988 8.51205C16.6293 8.87072 16.1916 9.05005 15.675 9.05005ZM16 17.225C16.15 16.875 16.2623 16.5374 16.337 16.212C16.4123 15.8874 16.45 15.5584 16.45 15.225C16.45 14.7417 16.3583 14.2624 16.175 13.787C15.9916 13.3124 15.6833 12.8584 15.25 12.425L9.27496 22.7001C9.17496 22.8834 9.02062 23.004 8.81196 23.062C8.60396 23.1207 8.41662 23.0917 8.24996 22.975C8.06662 22.875 7.94996 22.725 7.89996 22.525C7.84996 22.325 7.87496 22.1334 7.97496 21.9501L10.6 17.4L8.92496 16.425L7.69996 18.5C7.59996 18.6667 7.44996 18.779 7.24996 18.837C7.04996 18.8957 6.85829 18.875 6.67496 18.775C6.50829 18.675 6.39596 18.5207 6.33796 18.312C6.27929 18.104 6.29996 17.9167 6.39996 17.75L11.175 9.52505C10.5416 8.92505 10.0666 8.27938 9.74996 7.58805C9.43329 6.89605 9.27496 6.15838 9.27496 5.37505C9.27496 4.94172 9.31662 4.51238 9.39996 4.08705C9.48329 3.66238 9.62496 3.21672 9.82496 2.75005C9.89162 2.55005 10.0333 2.41672 10.25 2.35005C10.4666 2.28338 10.6833 2.31672 10.9 2.45005C11.0333 2.53338 11.1293 2.66238 11.188 2.83705C11.246 3.01238 11.2416 3.18338 11.175 3.35005C11.0416 3.68338 10.9416 4.01672 10.875 4.35005C10.8083 4.68338 10.775 5.00005 10.775 5.30005C10.775 6.08338 10.971 6.80005 11.363 7.45005C11.7543 8.10005 12.3416 8.65005 13.125 9.10005L15.3 10.375C16.2166 10.9084 16.8916 11.6334 17.325 12.55C17.7583 13.4667 17.975 14.3417 17.975 15.175C17.975 15.6084 17.929 16.0417 17.837 16.475C17.7456 16.9084 17.6 17.3584 17.4 17.8251C17.3166 18.0251 17.1626 18.1627 16.938 18.2381C16.7126 18.3127 16.5 18.2834 16.3 18.15C16.15 18.0667 16.046 17.9374 15.988 17.762C15.9293 17.5874 15.9333 17.4084 16 17.225ZM13.45 4.35005C13.05 4.35005 12.7166 4.21238 12.45 3.93705C12.1833 3.66238 12.05 3.33338 12.05 2.95005C12.05 2.55005 12.1876 2.21672 12.463 1.95005C12.7376 1.68338 13.0666 1.55005 13.45 1.55005C13.85 1.55005 14.1833 1.68738 14.45 1.96205C14.7166 2.23738 14.85 2.56672 14.85 2.95005C14.85 3.35005 14.7126 3.68338 14.438 3.95005C14.1626 4.21672 13.8333 4.35005 13.45 4.35005Z" fill="#272443"/>
</g>
</svg>
