<svg width="24" height="24" viewBox="0 0 24 24" fill="none" xmlns="http://www.w3.org/2000/svg">
<mask id="mask0_287_410" style="mask-type:alpha" maskUnits="userSpaceOnUse" x="0" y="0" width="24" height="24">
<rect width="24" height="24" fill="#D9D9D9"/>
</mask>
<g mask="url(#mask0_287_410)">
<path d="M12 21.5C10.6833 21.5 9.45 21.25 8.3 20.75C7.15 20.25 6.14567 19.5707 5.287 18.712C4.429 17.854 3.75 16.85 3.25 15.7C2.75 14.55 2.5 13.3167 2.5 12C2.5 10.6833 2.75 9.45 3.25 8.3C3.75 7.15 4.429 6.14567 5.287 5.287C6.14567 4.429 7.15 3.75 8.3 3.25C9.45 2.75 10.6833 2.5 12 2.5C13.3167 2.5 14.55 2.75 15.7 3.25C16.85 3.75 17.854 4.429 18.712 5.287C19.5707 6.14567 20.25 7.15 20.75 8.3C21.25 9.45 21.5 10.6833 21.5 12C21.5 13.3167 21.25 14.55 20.75 15.7C20.25 16.85 19.5707 17.854 18.712 18.712C17.854 19.5707 16.85 20.25 15.7 20.75C14.55 21.25 13.3167 21.5 12 21.5ZM16.825 9.8L18.375 9.275L18.8 7.75C18.2667 6.91667 17.6083 6.204 16.825 5.612C16.0417 5.02067 15.175 4.58333 14.225 4.3L12.75 5.35V6.925L16.825 9.8ZM7.175 9.8L11.25 6.925V5.35L9.775 4.3C8.825 4.58333 7.95833 5.02067 7.175 5.612C6.39167 6.204 5.73333 6.91667 5.2 7.75L5.65 9.275L7.175 9.8ZM6 17.275L7.35 17.15L8.225 15.675L6.75 11.25L5.15 10.7L4 11.525C4 12.6583 4.146 13.6833 4.438 14.6C4.72933 15.5167 5.25 16.4083 6 17.275ZM12 20C12.4333 20 12.8667 19.9667 13.3 19.9C13.7333 19.8333 14.1667 19.725 14.6 19.575L15.375 17.9L14.6 16.625H9.4L8.65 17.9L9.425 19.575C9.84167 19.725 10.2667 19.8333 10.7 19.9C11.1333 19.9667 11.5667 20 12 20ZM9.65 15.125H14.375L15.8 10.9L12 8.25L8.225 10.9L9.65 15.125ZM18 17.275C18.75 16.4083 19.2707 15.5167 19.562 14.6C19.854 13.6833 20 12.6583 20 11.525L18.875 10.75L17.25 11.225L15.775 15.675L16.65 17.15L18 17.275Z" fill="#272443"/>
</g>
</svg>
