<svg width="24" height="24" viewBox="0 0 24 24" fill="none" xmlns="http://www.w3.org/2000/svg">
<mask id="mask0_287_344" style="mask-type:alpha" maskUnits="userSpaceOnUse" x="0" y="0" width="24" height="24">
<rect width="24" height="24" fill="#D9D9D9"/>
</mask>
<g mask="url(#mask0_287_344)">
<path d="M5.75 17C6.53333 16.4167 7.146 15.6833 7.588 14.8C8.02933 13.9167 8.25 12.9833 8.25 12C8.25 11.0167 8.02933 10.0833 7.588 9.2C7.146 8.31667 6.53333 7.58333 5.75 7C5.18333 7.71667 4.75 8.5 4.45 9.35C4.15 10.2 4 11.0833 4 12C4 12.9167 4.15 13.8 4.45 14.65C4.75 15.5 5.18333 16.2833 5.75 17ZM12 20C12.95 20 13.871 19.8417 14.763 19.525C15.6543 19.2083 16.4583 18.7333 17.175 18.1C16.2417 17.35 15.5207 16.4417 15.012 15.375C14.504 14.3083 14.25 13.1833 14.25 12C14.25 10.8167 14.504 9.69167 15.012 8.625C15.5207 7.55833 16.2417 6.65 17.175 5.9C16.4583 5.26667 15.6543 4.79167 14.763 4.475C13.871 4.15833 12.95 4 12 4C11.05 4 10.1293 4.15833 9.238 4.475C8.346 4.79167 7.54167 5.26667 6.825 5.9C7.75833 6.65 8.47933 7.55833 8.988 8.625C9.496 9.69167 9.75 10.8167 9.75 12C9.75 13.1833 9.496 14.3083 8.988 15.375C8.47933 16.4417 7.75833 17.35 6.825 18.1C7.54167 18.7333 8.346 19.2083 9.238 19.525C10.1293 19.8417 11.05 20 12 20ZM18.25 17C18.8167 16.2833 19.25 15.5 19.55 14.65C19.85 13.8 20 12.9167 20 12C20 11.0833 19.85 10.2 19.55 9.35C19.25 8.5 18.8167 7.71667 18.25 7C17.4667 7.58333 16.8543 8.31667 16.413 9.2C15.971 10.0833 15.75 11.0167 15.75 12C15.75 12.9833 15.971 13.9167 16.413 14.8C16.8543 15.6833 17.4667 16.4167 18.25 17ZM12 21.5C10.6833 21.5 9.446 21.25 8.288 20.75C7.12933 20.25 6.125 19.575 5.275 18.725C4.425 17.875 3.75 16.8707 3.25 15.712C2.75 14.554 2.5 13.3167 2.5 12C2.5 10.6833 2.75 9.44567 3.25 8.287C3.75 7.129 4.425 6.125 5.275 5.275C6.125 4.425 7.12933 3.75 8.288 3.25C9.446 2.75 10.6833 2.5 12 2.5C13.3167 2.5 14.5543 2.75 15.713 3.25C16.871 3.75 17.875 4.425 18.725 5.275C19.575 6.125 20.25 7.129 20.75 8.287C21.25 9.44567 21.5 10.6833 21.5 12C21.5 13.3167 21.25 14.554 20.75 15.712C20.25 16.8707 19.575 17.875 18.725 18.725C17.875 19.575 16.871 20.25 15.713 20.75C14.5543 21.25 13.3167 21.5 12 21.5Z" fill="#272443"/>
</g>
</svg>
