<svg width="20" height="20" viewBox="0 0 20 20" fill="none" xmlns="http://www.w3.org/2000/svg">
<path d="M4.4999 16C4.28324 16 4.10424 15.9294 3.9629 15.788C3.8209 15.646 3.7499 15.4667 3.7499 15.25V9.22503C3.7499 9.02503 3.8209 8.85402 3.9629 8.71202C4.10424 8.57069 4.28324 8.50002 4.4999 8.50002C4.71657 8.50002 4.89557 8.57069 5.0369 8.71202C5.1789 8.85402 5.2499 9.03336 5.2499 9.25002V15.275C5.2499 15.475 5.1789 15.646 5.0369 15.788C4.89557 15.9294 4.71657 16 4.4999 16ZM9.9999 16C9.78324 16 9.60424 15.9294 9.4629 15.788C9.3209 15.646 9.2499 15.4667 9.2499 15.25V9.22503C9.2499 9.02503 9.3209 8.85402 9.4629 8.71202C9.60424 8.57069 9.78324 8.50002 9.9999 8.50002C10.2166 8.50002 10.3959 8.57069 10.5379 8.71202C10.6792 8.85402 10.7499 9.03336 10.7499 9.25002V15.275C10.7499 15.475 10.6792 15.646 10.5379 15.788C10.3959 15.9294 10.2166 16 9.9999 16ZM1.4999 19.5C1.28324 19.5 1.10824 19.4294 0.974902 19.288C0.841569 19.146 0.774902 18.9667 0.774902 18.75C0.774902 18.5334 0.845902 18.354 0.987902 18.212C1.12924 18.0707 1.30824 18 1.5249 18H18.4999C18.7166 18 18.8916 18.0707 19.0249 18.212C19.1582 18.354 19.2249 18.5334 19.2249 18.75C19.2249 18.9667 19.1542 19.146 19.0129 19.288C18.8709 19.4294 18.6916 19.5 18.4749 19.5H1.4999ZM15.4999 16C15.2832 16 15.1039 15.9294 14.9619 15.788C14.8206 15.646 14.7499 15.4667 14.7499 15.25V9.22503C14.7499 9.02503 14.8206 8.85402 14.9619 8.71202C15.1039 8.57069 15.2832 8.50002 15.4999 8.50002C15.7166 8.50002 15.8959 8.57069 16.0379 8.71202C16.1792 8.85402 16.2499 9.03336 16.2499 9.25002V15.275C16.2499 15.475 16.1792 15.646 16.0379 15.788C15.8959 15.9294 15.7166 16 15.4999 16ZM10.7999 0.950024L18.7499 4.82502C18.8999 4.90836 19.0166 5.02502 19.0999 5.17502C19.1832 5.32502 19.2249 5.49169 19.2249 5.67502C19.2249 5.90836 19.1416 6.10402 18.9749 6.26202C18.8082 6.42069 18.6082 6.50002 18.3749 6.50002H1.6249C1.39157 6.50002 1.19157 6.42069 1.0249 6.26202C0.858236 6.10402 0.774902 5.90836 0.774902 5.67502C0.774902 5.49169 0.816569 5.32502 0.899902 5.17502C0.983236 5.02502 1.10824 4.91669 1.2749 4.85002L9.1999 0.950024C9.4499 0.833358 9.71657 0.775024 9.9999 0.775024C10.2832 0.775024 10.5499 0.833358 10.7999 0.950024ZM4.3249 5.00002H15.6749L9.9999 2.25002L4.3249 5.00002Z" fill="#78787A"/>
</svg>
