<svg width="24" height="24" viewBox="0 0 24 24" fill="none" xmlns="http://www.w3.org/2000/svg">
<mask id="mask0_315_13" style="mask-type:alpha" maskUnits="userSpaceOnUse" x="0" y="0" width="24" height="24">
<rect width="24" height="24" fill="#D9D9D9"/>
</mask>
<g mask="url(#mask0_315_13)">
<path d="M8.85 19.5H6.3C5.8 19.5 5.375 19.325 5.025 18.975C4.675 18.625 4.5 18.2 4.5 17.7V15.15L2.65 13.275C2.3 12.925 2.125 12.5 2.125 12C2.125 11.5 2.3 11.075 2.65 10.725L4.5 8.85V6.3C4.5 5.8 4.675 5.375 5.025 5.025C5.375 4.675 5.8 4.5 6.3 4.5H8.85L10.725 2.65C11.075 2.3 11.5 2.125 12 2.125C12.5 2.125 12.925 2.3 13.275 2.65L15.15 4.5H17.7C18.2 4.5 18.625 4.675 18.975 5.025C19.325 5.375 19.5 5.8 19.5 6.3V8.85L21.35 10.725C21.7 11.075 21.875 11.5 21.875 12C21.875 12.5 21.7 12.925 21.35 13.275L19.5 15.15V17.7C19.5 18.2 19.325 18.625 18.975 18.975C18.625 19.325 18.2 19.5 17.7 19.5H15.15L13.275 21.35C12.925 21.7 12.5 21.875 12 21.875C11.5 21.875 11.075 21.7 10.725 21.35L8.85 19.5ZM12 16.625C10.7167 16.625 9.625 16.175 8.725 15.275C7.825 14.375 7.375 13.2833 7.375 12C7.375 10.7167 7.825 9.625 8.725 8.725C9.625 7.825 10.7167 7.375 12 7.375C13.2833 7.375 14.375 7.825 15.275 8.725C16.175 9.625 16.625 10.7167 16.625 12C16.625 13.2833 16.175 14.375 15.275 15.275C14.375 16.175 13.2833 16.625 12 16.625ZM12 15.125C12.8667 15.125 13.6043 14.8207 14.213 14.212C14.821 13.604 15.125 12.8667 15.125 12C15.125 11.1333 14.821 10.3957 14.213 9.787C13.6043 9.179 12.8667 8.875 12 8.875C11.1333 8.875 10.396 9.179 9.788 9.787C9.17933 10.3957 8.875 11.1333 8.875 12C8.875 12.8667 9.17933 13.604 9.788 14.212C10.396 14.8207 11.1333 15.125 12 15.125ZM12 20.5L14.5 18H18V14.5L20.5 12L18 9.5V6H14.5L12 3.5L9.5 6H6V9.5L3.5 12L6 14.5V18H9.5L12 20.5Z" fill="#272443"/>
</g>
</svg>
