<svg width="24" height="24" viewBox="0 0 24 24" fill="none" xmlns="http://www.w3.org/2000/svg">
<mask id="mask0_315_31" style="mask-type:alpha" maskUnits="userSpaceOnUse" x="0" y="0" width="24" height="24">
<rect width="24" height="24" fill="#D9D9D9"/>
</mask>
<g mask="url(#mask0_315_31)">
<path d="M12.0249 20.5C9.65824 20.5 7.6499 19.675 5.9999 18.025C4.3499 16.375 3.5249 14.3667 3.5249 12C3.5249 10.0334 4.13757 8.27905 5.3629 6.73705C6.58757 5.19572 8.21657 4.20838 10.2499 3.77505C10.6499 3.67505 10.9626 3.77505 11.1879 4.07505C11.4126 4.37505 11.4332 4.70005 11.2499 5.05005C11.0332 5.43338 10.8749 5.82505 10.7749 6.22505C10.6749 6.62505 10.6249 7.05005 10.6249 7.50005C10.6249 9.13338 11.1999 10.525 12.3499 11.675C13.4999 12.825 14.8916 13.4 16.5249 13.4C17.0249 13.4 17.4959 13.3374 17.9379 13.212C18.3792 13.0874 18.7666 12.9417 19.0999 12.775C19.4332 12.6417 19.7332 12.6667 19.9999 12.85C20.2666 13.0334 20.3582 13.3167 20.2749 13.7C19.9249 15.6667 18.9709 17.2917 17.4129 18.575C15.8542 19.8584 14.0582 20.5 12.0249 20.5ZM12.0249 19C13.4916 19 14.8082 18.596 15.9749 17.788C17.1416 16.9794 17.9916 15.925 18.5249 14.625C18.1916 14.7084 17.8582 14.775 17.5249 14.825C17.1916 14.875 16.8582 14.9 16.5249 14.9C14.4749 14.9 12.7292 14.1794 11.2879 12.738C9.8459 11.296 9.1249 9.55005 9.1249 7.50005C9.1249 7.16672 9.1499 6.83338 9.1999 6.50005C9.2499 6.16672 9.31657 5.83338 9.3999 5.50005C8.0999 6.03338 7.0459 6.88338 6.2379 8.05005C5.42924 9.21672 5.0249 10.5334 5.0249 12C5.0249 13.9334 5.70824 15.5834 7.0749 16.95C8.44157 18.3167 10.0916 19 12.0249 19Z" fill="#272443"/>
</g>
</svg>
