<svg width="15" height="17" viewBox="0 0 15 17" fill="none" xmlns="http://www.w3.org/2000/svg">
<path d="M1.25 16.75C1.03333 16.75 0.854333 16.6793 0.713 16.538C0.571 16.396 0.5 16.2167 0.5 16V1.4C0.5 1.15 0.587667 0.937333 0.763 0.762C0.937667 0.587333 1.15 0.5 1.4 0.5H7.85C8.06667 0.5 8.25833 0.566666 8.425 0.7C8.59167 0.833333 8.69167 1.00833 8.725 1.225L9 2.5H13.6C13.85 2.5 14.0627 2.58733 14.238 2.762C14.4127 2.93733 14.5 3.15 14.5 3.4V10.6C14.5 10.85 14.4127 11.0627 14.238 11.238C14.0627 11.4127 13.85 11.5 13.6 11.5H9.15C8.93333 11.5 8.74167 11.4333 8.575 11.3C8.40833 11.1667 8.30833 10.9917 8.275 10.775L8 9.5H2V16C2 16.2167 1.929 16.396 1.787 16.538C1.64567 16.6793 1.46667 16.75 1.25 16.75ZM9.65 10H13V4H7.75L7.35 2H2V8H9.25L9.65 10Z" fill="#272443"/>
</svg>
