<svg width="24" height="24" viewBox="0 0 24 24" fill="none" xmlns="http://www.w3.org/2000/svg">
<mask id="mask0_287_1283" style="mask-type:alpha" maskUnits="userSpaceOnUse" x="0" y="0" width="24" height="24">
<rect width="24" height="24" fill="#D9D9D9"/>
</mask>
<g mask="url(#mask0_287_1283)">
<path d="M4.5 17.125V6.29998C4.5 5.78331 4.675 5.34998 5.025 4.99998C5.375 4.64998 5.8 4.47498 6.3 4.47498H20C20.2 4.47498 20.375 4.54564 20.525 4.68698C20.675 4.82898 20.75 5.00831 20.75 5.22498C20.75 5.44164 20.675 5.62064 20.525 5.76198C20.375 5.90398 20.2 5.97498 20 5.97498H6.3C6.21667 5.97498 6.146 6.00398 6.088 6.06198C6.02933 6.12064 6 6.19998 6 6.29998V17.125H10.625C10.925 17.125 11.1877 17.2373 11.413 17.462C11.6377 17.6873 11.75 17.95 11.75 18.25C11.75 18.5666 11.6377 18.8333 11.413 19.05C11.1877 19.2666 10.925 19.375 10.625 19.375H3.625C3.30833 19.375 3.04167 19.2666 2.825 19.05C2.60833 18.8333 2.5 18.5666 2.5 18.25C2.5 17.95 2.60833 17.6873 2.825 17.462C3.04167 17.2373 3.30833 17.125 3.625 17.125H4.5ZM15.4 19.375C15.15 19.375 14.9373 19.2916 14.762 19.125C14.5873 18.9583 14.5 18.75 14.5 18.5V9.24998C14.5 8.99998 14.5873 8.79164 14.762 8.62498C14.9373 8.45831 15.15 8.37498 15.4 8.37498H20.625C20.875 8.37498 21.0833 8.45831 21.25 8.62498C21.4167 8.79164 21.5 8.99998 21.5 9.24998V18.5C21.5 18.75 21.4167 18.9583 21.25 19.125C21.0833 19.2916 20.875 19.375 20.625 19.375H15.4ZM16 17.125H20V9.87498H16V17.125Z" fill="#272443"/>
</g>
</svg>
