<svg width="24" height="24" viewBox="0 0 24 24" fill="none" xmlns="http://www.w3.org/2000/svg">
<mask id="mask0_287_308" style="mask-type:alpha" maskUnits="userSpaceOnUse" x="0" y="0" width="24" height="24">
<rect width="24" height="24" fill="#D9D9D9"/>
</mask>
<g mask="url(#mask0_287_308)">
<path d="M12.15 9.125H19.45C19.0167 7.95833 18.3293 6.94167 17.388 6.075C16.446 5.20833 15.3667 4.61667 14.15 4.3L11.75 8.425C11.6667 8.575 11.6707 8.729 11.762 8.887C11.854 9.04567 11.9833 9.125 12.15 9.125ZM8.75 10.425C8.85 10.575 8.98767 10.65 9.163 10.65C9.33767 10.65 9.46667 10.575 9.55 10.425L13.225 4.1C13.0417 4.06667 12.8377 4.04167 12.613 4.025C12.3877 4.00833 12.1833 4 12 4C10.9 4 9.875 4.20833 8.925 4.625C7.975 5.04167 7.13333 5.6 6.4 6.3L8.75 10.425ZM4.25 14H9C9.16667 14 9.3 13.925 9.4 13.775C9.5 13.625 9.50833 13.4667 9.425 13.3L5.775 7C5.225 7.7 4.79167 8.47067 4.475 9.312C4.15833 10.154 4 11.05 4 12C4 12.35 4.02067 12.6873 4.062 13.012C4.104 13.3373 4.16667 13.6667 4.25 14ZM9.875 19.7L12.25 15.575C12.35 15.425 12.35 15.271 12.25 15.113C12.15 14.9543 12.0167 14.875 11.85 14.875H4.55C4.98333 16.0417 5.675 17.0583 6.625 17.925C7.575 18.7917 8.65833 19.3833 9.875 19.7ZM12 20C13.1 20 14.125 19.7917 15.075 19.375C16.025 18.9583 16.8667 18.4 17.6 17.7L15.25 13.575C15.15 13.425 15.0127 13.35 14.838 13.35C14.6627 13.35 14.5333 13.425 14.45 13.575L10.775 19.875C10.9583 19.925 11.1583 19.9583 11.375 19.975C11.5917 19.9917 11.8 20 12 20ZM18.225 17C18.7583 16.3167 19.1877 15.546 19.513 14.688C19.8377 13.8293 20 12.9333 20 12C20 11.65 19.9793 11.3127 19.938 10.988C19.896 10.6627 19.8333 10.3333 19.75 10H15C14.8333 10 14.7 10.075 14.6 10.225C14.5 10.375 14.4917 10.5333 14.575 10.7L18.225 17ZM12 21.5C10.7 21.5 9.47067 21.25 8.312 20.75C7.154 20.25 6.14567 19.5707 5.287 18.712C4.429 17.854 3.75 16.846 3.25 15.688C2.75 14.5293 2.5 13.3 2.5 12C2.5 10.6833 2.75 9.45 3.25 8.3C3.75 7.15 4.429 6.14567 5.287 5.287C6.14567 4.429 7.154 3.75 8.312 3.25C9.47067 2.75 10.7 2.5 12 2.5C13.3167 2.5 14.55 2.75 15.7 3.25C16.85 3.75 17.854 4.429 18.712 5.287C19.5707 6.14567 20.25 7.15 20.75 8.3C21.25 9.45 21.5 10.6833 21.5 12C21.5 13.3 21.25 14.5293 20.75 15.688C20.25 16.846 19.5707 17.854 18.712 18.712C17.854 19.5707 16.85 20.25 15.7 20.75C14.55 21.25 13.3167 21.5 12 21.5Z" fill="#272443"/>
</g>
</svg>
