<svg width="24" height="24" viewBox="0 0 24 24" fill="none" xmlns="http://www.w3.org/2000/svg">
<mask id="mask0_287_557" style="mask-type:alpha" maskUnits="userSpaceOnUse" x="0" y="0" width="24" height="24">
<rect width="24" height="24" fill="#D9D9D9"/>
</mask>
<g mask="url(#mask0_287_557)">
<path d="M12 17.125C13.15 17.125 14.125 16.725 14.925 15.925C15.725 15.125 16.125 14.15 16.125 13C16.125 11.85 15.725 10.875 14.925 10.075C14.125 9.275 13.15 8.875 12 8.875C10.85 8.875 9.875 9.275 9.075 10.075C8.275 10.875 7.875 11.85 7.875 13C7.875 14.15 8.275 15.125 9.075 15.925C9.875 16.725 10.85 17.125 12 17.125ZM4.3 20.5C3.8 20.5 3.375 20.325 3.025 19.975C2.675 19.625 2.5 19.2 2.5 18.7V7.3C2.5 6.8 2.675 6.375 3.025 6.025C3.375 5.675 3.8 5.5 4.3 5.5H7.35L8.675 4.075C8.84167 3.89167 9.04167 3.75 9.275 3.65C9.50833 3.55 9.75 3.5 10 3.5H14C14.25 3.5 14.4917 3.55 14.725 3.65C14.9583 3.75 15.1583 3.89167 15.325 4.075L16.65 5.5H19.7C20.2 5.5 20.625 5.675 20.975 6.025C21.325 6.375 21.5 6.8 21.5 7.3V18.7C21.5 19.2 21.325 19.625 20.975 19.975C20.625 20.325 20.2 20.5 19.7 20.5H4.3ZM19.7 19C19.7833 19 19.8543 18.971 19.913 18.913C19.971 18.8543 20 18.7833 20 18.7V7.3C20 7.21667 19.971 7.146 19.913 7.088C19.8543 7.02933 19.7833 7 19.7 7H4.3C4.21667 7 4.146 7.02933 4.088 7.088C4.02933 7.146 4 7.21667 4 7.3V18.7C4 18.7833 4.02933 18.8543 4.088 18.913C4.146 18.971 4.21667 19 4.3 19H19.7Z" fill="#272443"/>
</g>
</svg>
