<svg width="24" height="24" viewBox="0 0 24 24" fill="none" xmlns="http://www.w3.org/2000/svg">
<mask id="mask0_287_569" style="mask-type:alpha" maskUnits="userSpaceOnUse" x="0" y="0" width="24" height="24">
<rect width="24" height="24" fill="#D9D9D9"/>
</mask>
<g mask="url(#mask0_287_569)">
<path d="M4.55 19.5C4.05 19.5 3.625 19.325 3.275 18.975C2.925 18.625 2.75 18.2 2.75 17.7V6.3C2.75 5.8 2.925 5.375 3.275 5.025C3.625 4.675 4.05 4.5 4.55 4.5H15.925C16.4417 4.5 16.875 4.675 17.225 5.025C17.575 5.375 17.75 5.8 17.75 6.3V10.875L20.475 8.15C20.625 8 20.7917 7.96233 20.975 8.037C21.1583 8.11233 21.25 8.25833 21.25 8.475V15.525C21.25 15.7417 21.1583 15.8873 20.975 15.962C20.7917 16.0373 20.625 16 20.475 15.85L17.75 13.125V17.7C17.75 18.2 17.575 18.625 17.225 18.975C16.875 19.325 16.4417 19.5 15.925 19.5H4.55ZM4.55 18H15.925C16.025 18 16.1043 17.971 16.163 17.913C16.221 17.8543 16.25 17.7833 16.25 17.7V6.3C16.25 6.21667 16.221 6.146 16.163 6.088C16.1043 6.02933 16.025 6 15.925 6H4.55C4.46667 6 4.396 6.02933 4.338 6.088C4.27933 6.146 4.25 6.21667 4.25 6.3V17.7C4.25 17.7833 4.27933 17.8543 4.338 17.913C4.396 17.971 4.46667 18 4.55 18Z" fill="#272443"/>
</g>
</svg>
