<svg width="24" height="24" viewBox="0 0 24 24" fill="none" xmlns="http://www.w3.org/2000/svg">
<mask id="mask0_287_1181" style="mask-type:alpha" maskUnits="userSpaceOnUse" x="0" y="0" width="24" height="24">
<rect width="24" height="24" fill="#D9D9D9"/>
</mask>
<g mask="url(#mask0_287_1181)">
<path d="M18.125 20.325C17.825 20.325 17.546 20.275 17.288 20.175C17.0293 20.075 16.7916 19.9167 16.575 19.7L11.175 14.275C10.825 14.425 10.4666 14.5417 10.1 14.625C9.73329 14.7083 9.34995 14.75 8.94995 14.75C7.34995 14.75 5.99162 14.1917 4.87495 13.075C3.75828 11.9583 3.19995 10.6 3.19995 9C3.19995 8.48333 3.26262 7.98767 3.38795 7.513C3.51262 7.03767 3.69995 6.59167 3.94995 6.175L7.54995 9.75L9.69995 7.6L6.12495 4.025C6.55828 3.79167 7.00828 3.604 7.47495 3.462C7.94162 3.32067 8.43328 3.25 8.94995 3.25C10.55 3.25 11.9083 3.80833 13.025 4.925C14.1416 6.04167 14.7 7.4 14.7 9C14.7 9.41667 14.6583 9.80833 14.575 10.175C14.4916 10.5417 14.375 10.8917 14.225 11.225L19.65 16.65C19.8666 16.8667 20.0293 17.1043 20.138 17.363C20.246 17.621 20.2999 17.8917 20.2999 18.175C20.2999 18.4583 20.2416 18.7333 20.125 19C20.0083 19.2667 19.85 19.5 19.65 19.7C19.4333 19.9167 19.196 20.075 18.938 20.175C18.6793 20.275 18.4083 20.325 18.125 20.325ZM17.675 18.65C17.7916 18.7667 17.9416 18.825 18.125 18.825C18.3083 18.825 18.4583 18.7667 18.575 18.65C18.7083 18.5167 18.775 18.3583 18.775 18.175C18.775 17.9917 18.7083 17.8417 18.575 17.725L12.375 11.525C12.6583 11.175 12.8666 10.779 13 10.337C13.1333 9.89567 13.2 9.45 13.2 9C13.2 7.88333 12.8043 6.9 12.013 6.05C11.221 5.2 10.2166 4.78333 8.99995 4.8L11.175 6.975C11.3416 7.15833 11.4293 7.36667 11.438 7.6C11.446 7.83333 11.3666 8.03333 11.2 8.2L8.17495 11.225C7.99162 11.4083 7.77928 11.5 7.53795 11.5C7.29595 11.5 7.09162 11.4083 6.92495 11.225L4.74995 9.05C4.74995 10.3333 5.17895 11.3543 6.03695 12.113C6.89562 12.871 7.86662 13.25 8.94995 13.25C9.38328 13.25 9.81662 13.1833 10.25 13.05C10.6833 12.9167 11.0833 12.7167 11.45 12.45L17.675 18.65Z" fill="#272443"/>
</g>
</svg>
