<svg width="24" height="24" viewBox="0 0 24 24" fill="none" xmlns="http://www.w3.org/2000/svg">
<mask id="mask0_287_1187" style="mask-type:alpha" maskUnits="userSpaceOnUse" x="0" y="0" width="24" height="24">
<rect width="24" height="24" fill="#D9D9D9"/>
</mask>
<g mask="url(#mask0_287_1187)">
<path d="M17.675 19.675L13.15 15.15L14.725 13.575L19.275 18.1C19.475 18.3167 19.5751 18.5794 19.5751 18.888C19.5751 19.196 19.475 19.4584 19.275 19.675C19.0584 19.8917 18.7917 20 18.475 20C18.1584 20 17.8917 19.8917 17.675 19.675ZM4.22505 19.675C4.00838 19.4584 3.90005 19.196 3.90005 18.888C3.90005 18.5794 4.00838 18.3167 4.22505 18.1L10.175 12.15L8.07505 10.05C7.89172 10.2334 7.67938 10.3167 7.43805 10.3C7.19605 10.2834 6.99172 10.2 6.82505 10.05L6.35005 9.55005V11.475L6.20005 11.625C6.06672 11.775 5.90838 11.85 5.72505 11.85C5.54172 11.85 5.38338 11.775 5.25005 11.625L3.37505 9.77505C3.24172 9.62505 3.17505 9.46238 3.17505 9.28705C3.17505 9.11238 3.24172 8.95005 3.37505 8.80005L3.52505 8.67505H5.45005L4.97505 8.20005C4.79172 8.01672 4.70005 7.80405 4.70005 7.56205C4.70005 7.32072 4.79172 7.10838 4.97505 6.92505L7.20005 4.70005C7.48338 4.41672 7.78772 4.21238 8.11305 4.08705C8.43772 3.96238 8.77505 3.90005 9.12505 3.90005C9.49172 3.90005 9.83772 3.96238 10.163 4.08705C10.4877 4.21238 10.7917 4.41672 11.075 4.70005L9.10005 6.67505L9.65005 7.22505C9.81671 7.39172 9.90438 7.59572 9.91305 7.83705C9.92105 8.07905 9.83338 8.29172 9.65005 8.47505L11.75 10.575L14.25 8.07505C14.15 7.85838 14.075 7.64172 14.025 7.42505C13.975 7.20838 13.95 6.98338 13.95 6.75005C13.95 5.85005 14.2584 5.09172 14.875 4.47505C15.4917 3.85838 16.25 3.55005 17.15 3.55005C17.3667 3.55005 17.571 3.56672 17.763 3.60005C17.9544 3.63338 18.15 3.69172 18.35 3.77505L16.075 6.05005L17.85 7.85005L20.125 5.57505C20.225 5.75838 20.2874 5.94572 20.312 6.13705C20.3374 6.32905 20.35 6.53338 20.35 6.75005C20.35 7.65005 20.0417 8.41238 19.425 9.03705C18.8084 9.66238 18.05 9.97505 17.15 9.97505C16.9167 9.97505 16.6917 9.95005 16.475 9.90005C16.2584 9.85005 16.05 9.76671 15.85 9.65005L5.80005 19.675C5.58338 19.8917 5.32105 20 5.01305 20C4.70438 20 4.44172 19.8917 4.22505 19.675Z" fill="#272443"/>
</g>
</svg>
