<svg width="24" height="24" viewBox="0 0 24 24" fill="none" xmlns="http://www.w3.org/2000/svg">
<mask id="mask0_287_1193" style="mask-type:alpha" maskUnits="userSpaceOnUse" x="0" y="0" width="24" height="24">
<rect width="24" height="24" fill="#D9D9D9"/>
</mask>
<g mask="url(#mask0_287_1193)">
<path d="M19.2501 9.70005C19.1334 9.70005 19.0374 9.66238 18.9621 9.58705C18.8874 9.51238 18.8334 9.42505 18.8001 9.32505L18.7251 8.80005C18.5584 8.75005 18.3918 8.67905 18.2251 8.58705C18.0584 8.49572 17.9168 8.38338 17.8001 8.25005L17.2501 8.45005C17.1501 8.48338 17.0501 8.48338 16.9501 8.45005C16.8501 8.41672 16.7751 8.35005 16.7251 8.25005L16.5251 7.95005C16.4751 7.85005 16.4584 7.74572 16.4751 7.63705C16.4918 7.52905 16.5501 7.44172 16.6501 7.37505L17.0751 7.00005C17.0418 6.90005 17.0251 6.81238 17.0251 6.73705V6.26205C17.0251 6.18738 17.0418 6.10005 17.0751 6.00005L16.6501 5.62505C16.5501 5.55838 16.4918 5.47072 16.4751 5.36205C16.4584 5.25405 16.4751 5.15005 16.5251 5.05005L16.7251 4.75005C16.7751 4.65005 16.8501 4.58338 16.9501 4.55005C17.0501 4.51672 17.1501 4.51672 17.2501 4.55005L17.8001 4.75005C17.9168 4.61672 18.0584 4.50405 18.2251 4.41205C18.3918 4.32072 18.5584 4.25005 18.7251 4.20005L18.8001 3.67505C18.8334 3.57505 18.8874 3.48738 18.9621 3.41205C19.0374 3.33738 19.1334 3.30005 19.2501 3.30005H19.6001C19.7168 3.30005 19.8128 3.33738 19.8881 3.41205C19.9628 3.48738 20.0168 3.57505 20.0501 3.67505L20.1251 4.20005C20.2918 4.25005 20.4584 4.32072 20.6251 4.41205C20.7918 4.50405 20.9334 4.61672 21.0501 4.75005L21.6001 4.55005C21.7001 4.51672 21.8001 4.51672 21.9001 4.55005C22.0001 4.58338 22.0834 4.65005 22.1501 4.75005L22.3251 5.07505C22.3751 5.17505 22.3918 5.27505 22.3751 5.37505C22.3584 5.47505 22.3001 5.55838 22.2001 5.62505L21.7751 6.00005C21.8084 6.10005 21.8251 6.18738 21.8251 6.26205V6.73705C21.8251 6.81238 21.8084 6.90005 21.7751 7.00005L22.2001 7.37505C22.3001 7.44172 22.3584 7.52905 22.3751 7.63705C22.3918 7.74572 22.3751 7.85005 22.3251 7.95005L22.1251 8.25005C22.0751 8.35005 22.0001 8.41672 21.9001 8.45005C21.8001 8.48338 21.7001 8.48338 21.6001 8.45005L21.0501 8.25005C20.9334 8.38338 20.7918 8.49572 20.6251 8.58705C20.4584 8.67905 20.2918 8.75005 20.1251 8.80005L20.0501 9.32505C20.0168 9.42505 19.9628 9.51238 19.8881 9.58705C19.8128 9.66238 19.7168 9.70005 19.6001 9.70005H19.2501ZM19.4251 7.80005C19.7918 7.80005 20.1001 7.67505 20.3501 7.42505C20.6001 7.17505 20.7251 6.86672 20.7251 6.50005C20.7251 6.13338 20.6001 5.82505 20.3501 5.57505C20.1001 5.32505 19.7918 5.20005 19.4251 5.20005C19.0584 5.20005 18.7501 5.32505 18.5001 5.57505C18.2501 5.82505 18.1251 6.13338 18.1251 6.50005C18.1251 6.86672 18.2501 7.17505 18.5001 7.42505C18.7501 7.67505 19.0584 7.80005 19.4251 7.80005ZM16.7001 14.925C16.6668 14.925 16.5834 14.8584 16.4501 14.725L16.4001 14.2C16.2834 14.1667 16.1668 14.1207 16.0501 14.062C15.9334 14.004 15.8334 13.925 15.7501 13.825L15.2501 14.025L14.9751 13.925L14.7251 13.5C14.7084 13.4834 14.7251 13.3834 14.7751 13.2L15.2001 12.85C15.1834 12.8 15.1751 12.746 15.1751 12.688V12.325C15.1751 12.275 15.1834 12.2167 15.2001 12.15L14.7751 11.8C14.7584 11.7834 14.7418 11.6834 14.7251 11.5L14.9751 11.075L15.2501 10.975L15.7501 11.175C15.8334 11.0917 15.9334 11.0167 16.0501 10.95C16.1668 10.8834 16.2834 10.8334 16.4001 10.8L16.4501 10.275C16.4501 10.2417 16.5334 10.175 16.7001 10.075H17.1751C17.2084 10.075 17.2918 10.1417 17.4251 10.275L17.5001 10.8C17.6168 10.8334 17.7334 10.8834 17.8501 10.95C17.9668 11.0167 18.0668 11.0917 18.1501 11.175L18.6251 10.975C18.6418 10.975 18.7418 11.0084 18.9251 11.075L19.1751 11.5C19.1751 11.5167 19.1501 11.6167 19.1001 11.8L18.7001 12.15C18.7168 12.2167 18.7251 12.275 18.7251 12.325V12.688C18.7251 12.746 18.7168 12.8 18.7001 12.85L19.1001 13.2C19.1168 13.2167 19.1418 13.3167 19.1751 13.5L18.9251 13.925L18.6251 14.025L18.1501 13.825C18.0501 13.925 17.9458 14.004 17.8371 14.062C17.7291 14.1207 17.6168 14.1667 17.5001 14.2L17.4251 14.725C17.4251 14.7584 17.3418 14.825 17.1751 14.925H16.7001ZM16.9501 13.325C17.1668 13.325 17.3584 13.2457 17.5251 13.087C17.6918 12.929 17.7751 12.7334 17.7751 12.5C17.7751 12.2667 17.6918 12.0707 17.5251 11.912C17.3584 11.754 17.1668 11.675 16.9501 11.675C16.7168 11.675 16.5211 11.754 16.3631 11.912C16.2044 12.0707 16.1251 12.2667 16.1251 12.5C16.1251 12.7334 16.2044 12.929 16.3631 13.087C16.5211 13.2457 16.7168 13.325 16.9501 13.325ZM8.9751 12.975C8.00843 12.975 7.18343 12.6374 6.5001 11.962C5.81676 11.2874 5.4751 10.4417 5.4751 9.42505H5.2501C5.11676 9.42505 5.00843 9.38338 4.9251 9.30005C4.84176 9.21672 4.8001 9.10838 4.8001 8.97505C4.8001 8.84172 4.84176 8.73738 4.9251 8.66205C5.00843 8.58738 5.11676 8.55005 5.2501 8.55005H5.4751C5.49176 7.91672 5.63743 7.34572 5.9121 6.83705C6.18743 6.32905 6.58343 5.89172 7.1001 5.52505V6.47505C7.1001 6.60838 7.14176 6.71672 7.2251 6.80005C7.30843 6.88338 7.41676 6.92505 7.5501 6.92505C7.66676 6.92505 7.76676 6.88338 7.8501 6.80005C7.93343 6.71672 7.9751 6.60838 7.9751 6.47505V5.15005C8.1251 5.10005 8.28343 5.05838 8.4501 5.02505C8.61676 4.99172 8.79176 4.97505 8.9751 4.97505C9.15843 4.97505 9.33743 4.99172 9.5121 5.02505C9.68743 5.05838 9.84176 5.10005 9.9751 5.15005V6.47505C9.9751 6.60838 10.0168 6.71672 10.1001 6.80005C10.1834 6.88338 10.2918 6.92505 10.4251 6.92505C10.5584 6.92505 10.6668 6.88338 10.7501 6.80005C10.8334 6.71672 10.8751 6.60838 10.8751 6.47505V5.52505C11.3918 5.89172 11.7874 6.32905 12.0621 6.83705C12.3374 7.34572 12.4751 7.91672 12.4751 8.55005H12.7251C12.8418 8.55005 12.9418 8.58738 13.0251 8.66205C13.1084 8.73738 13.1501 8.84172 13.1501 8.97505C13.1501 9.10838 13.1084 9.21672 13.0251 9.30005C12.9418 9.38338 12.8418 9.42505 12.7251 9.42505H12.4751C12.4751 10.4417 12.1378 11.2874 11.4631 11.962C10.7878 12.6374 9.95843 12.975 8.9751 12.975ZM8.9751 11.475C9.54176 11.475 10.0168 11.2834 10.4001 10.9C10.7834 10.5167 10.9751 10.0417 10.9751 9.47505H6.9751C6.9751 10.0417 7.17076 10.5167 7.5621 10.9C7.9541 11.2834 8.4251 11.475 8.9751 11.475ZM1.4751 20.6V18.375C1.4751 17.875 1.60443 17.4207 1.8631 17.012C2.1211 16.604 2.48343 16.2834 2.9501 16.05C3.78343 15.6334 4.71276 15.2874 5.7381 15.012C6.76276 14.7374 7.84176 14.6 8.9751 14.6C10.1084 14.6 11.1918 14.7374 12.2251 15.012C13.2584 15.2874 14.1918 15.6334 15.0251 16.05C15.4751 16.2834 15.8294 16.604 16.0881 17.012C16.3461 17.4207 16.4751 17.875 16.4751 18.375V20.6H1.4751ZM2.9751 19.1H14.9751V18.375C14.9751 18.1417 14.9128 17.946 14.7881 17.788C14.6628 17.6294 14.5084 17.5 14.3251 17.4C13.7084 17.0834 12.9294 16.7877 11.9881 16.513C11.0461 16.2377 10.0418 16.1 8.9751 16.1C7.90843 16.1 6.90443 16.2377 5.9631 16.513C5.0211 16.7877 4.24176 17.0834 3.6251 17.4C3.44176 17.5 3.28776 17.6294 3.1631 17.788C3.03776 17.946 2.9751 18.1417 2.9751 18.375V19.1Z" fill="#272443"/>
</g>
</svg>
