<svg width="24" height="24" viewBox="0 0 24 24" fill="none" xmlns="http://www.w3.org/2000/svg">
<mask id="mask0_287_1199" style="mask-type:alpha" maskUnits="userSpaceOnUse" x="0" y="0" width="24" height="24">
<rect width="24" height="24" fill="#D9D9D9"/>
</mask>
<g mask="url(#mask0_287_1199)">
<path d="M18.6499 21.475C18.5332 21.475 18.4249 21.4544 18.3249 21.413C18.2249 21.371 18.1249 21.3084 18.0249 21.225L12.9749 16.175C12.8916 16.0917 12.8292 15.9957 12.7879 15.887C12.7459 15.779 12.7249 15.6667 12.7249 15.55C12.7249 15.4334 12.7459 15.3207 12.7879 15.212C12.8292 15.104 12.8916 15.0084 12.9749 14.925L14.8749 13.025C14.9749 12.925 15.0749 12.8584 15.1749 12.825C15.2749 12.7917 15.3832 12.775 15.4999 12.775C15.6332 12.775 15.7499 12.7917 15.8499 12.825C15.9499 12.8584 16.0499 12.925 16.1499 13.025L21.1749 18.0751C21.2749 18.1584 21.3459 18.254 21.3879 18.362C21.4292 18.4707 21.4499 18.5834 21.4499 18.7001C21.4499 18.8167 21.4292 18.9294 21.3879 19.038C21.3459 19.146 21.2749 19.2417 21.1749 19.3251L19.2999 21.225C19.1999 21.3084 19.0999 21.371 18.9999 21.413C18.8999 21.4544 18.7832 21.475 18.6499 21.475ZM18.6499 19.775L19.7249 18.7001L15.5249 14.5L14.4749 15.575L18.6499 19.775ZM5.3249 21.5C5.19157 21.5 5.0709 21.475 4.9629 21.425C4.85424 21.375 4.75824 21.3084 4.6749 21.225L2.7999 19.35C2.6999 19.25 2.62924 19.146 2.5879 19.038C2.5459 18.9294 2.5249 18.8167 2.5249 18.7001C2.5249 18.5834 2.5459 18.4707 2.5879 18.362C2.62924 18.254 2.6999 18.15 2.7999 18.05L8.0249 12.825H10.1249L10.9249 12.025L6.7499 7.85005H5.3249L2.5499 5.07505L5.0249 2.60005L7.7999 5.37505V6.80005L11.9749 10.975L14.9499 8.02505L13.4749 6.55005L14.7499 5.30005H12.1999L11.6499 4.75005L14.8499 1.55005L15.3749 2.10005V4.65005L16.6499 3.37505L20.4249 7.12505C20.6749 7.39172 20.8666 7.68738 20.9999 8.01205C21.1332 8.33738 21.1999 8.68338 21.1999 9.05005C21.1999 9.38338 21.1459 9.69572 21.0379 9.98705C20.9292 10.279 20.7666 10.55 20.5499 10.8L18.4749 8.72505L17.0499 10.125L15.9999 9.07505L11.1749 13.9V16.025L5.9499 21.225C5.8499 21.3084 5.7499 21.375 5.6499 21.425C5.5499 21.475 5.44157 21.5 5.3249 21.5ZM5.3249 19.75L9.8999 15.175V14.1H8.8499L4.2499 18.7001L5.3249 19.75ZM5.3249 19.75L4.2499 18.7001L4.7999 19.225L5.3249 19.75Z" fill="#272443"/>
</g>
</svg>
