<svg width="24" height="24" viewBox="0 0 24 24" fill="none" xmlns="http://www.w3.org/2000/svg">
<mask id="mask0_287_623" style="mask-type:alpha" maskUnits="userSpaceOnUse" x="0" y="0" width="24" height="24">
<rect width="24" height="24" fill="#D9D9D9"/>
</mask>
<g mask="url(#mask0_287_623)">
<path d="M6.825 20.5C6.525 20.5 6.275 20.396 6.075 20.188C5.875 19.9793 5.775 19.7333 5.775 19.45V17.775C5.45833 17.5417 5.16667 17.2083 4.9 16.775C4.63333 16.3417 4.5 15.85 4.5 15.3V6C4.5 4.78333 5.1 3.89567 6.3 3.337C7.5 2.779 9.4 2.5 12 2.5C14.6833 2.5 16.6043 2.77067 17.763 3.312C18.921 3.854 19.5 4.75 19.5 6V15.3C19.5 15.85 19.3667 16.3417 19.1 16.775C18.8333 17.2083 18.5417 17.5417 18.225 17.775V19.45C18.225 19.7333 18.125 19.9793 17.925 20.188C17.725 20.396 17.475 20.5 17.175 20.5C16.875 20.5 16.625 20.396 16.425 20.188C16.225 19.9793 16.125 19.7333 16.125 19.45V18.5H7.875V19.45C7.875 19.7333 7.775 19.9793 7.575 20.188C7.375 20.396 7.125 20.5 6.825 20.5ZM6 10.5H18V6.775H6V10.5ZM8.5 15.8C8.86667 15.8 9.175 15.675 9.425 15.425C9.675 15.175 9.8 14.8667 9.8 14.5C9.8 14.1333 9.675 13.825 9.425 13.575C9.175 13.325 8.86667 13.2 8.5 13.2C8.13333 13.2 7.825 13.325 7.575 13.575C7.325 13.825 7.2 14.1333 7.2 14.5C7.2 14.8667 7.325 15.175 7.575 15.425C7.825 15.675 8.13333 15.8 8.5 15.8ZM15.5 15.8C15.8667 15.8 16.175 15.675 16.425 15.425C16.675 15.175 16.8 14.8667 16.8 14.5C16.8 14.1333 16.675 13.825 16.425 13.575C16.175 13.325 15.8667 13.2 15.5 13.2C15.1333 13.2 14.825 13.325 14.575 13.575C14.325 13.825 14.2 14.1333 14.2 14.5C14.2 14.8667 14.325 15.175 14.575 15.425C14.825 15.675 15.1333 15.8 15.5 15.8ZM6.275 5.275H17.775C17.575 4.875 17.0417 4.56233 16.175 4.337C15.3083 4.11233 13.925 4 12.025 4C10.1583 4 8.796 4.11667 7.938 4.35C7.07933 4.58333 6.525 4.89167 6.275 5.275ZM8 17H16C16.55 17 17.021 16.8043 17.413 16.413C17.8043 16.021 18 15.55 18 15V12H6V15C6 15.55 6.196 16.021 6.588 16.413C6.97933 16.8043 7.45 17 8 17Z" fill="#272443"/>
</g>
</svg>
