<svg width="24" height="24" viewBox="0 0 24 24" fill="none" xmlns="http://www.w3.org/2000/svg">
<mask id="mask0_287_617" style="mask-type:alpha" maskUnits="userSpaceOnUse" x="0" y="0" width="24" height="24">
<rect width="24" height="24" fill="#D9D9D9"/>
</mask>
<g mask="url(#mask0_287_617)">
<path d="M4.325 18.475L2.675 12.5C2.625 12.3166 2.63767 12.1083 2.713 11.875C2.78767 11.6416 2.95 11.4916 3.2 11.425L4.5 10.975V6.49995C4.5 5.99995 4.675 5.57495 5.025 5.22495C5.375 4.87495 5.8 4.69995 6.3 4.69995H9.5V2.59995C9.5 2.33328 9.58733 2.11662 9.762 1.94995C9.93733 1.78328 10.15 1.69995 10.4 1.69995H13.6C13.85 1.69995 14.0627 1.78328 14.238 1.94995C14.4127 2.11662 14.5 2.33328 14.5 2.59995V4.69995H17.7C18.2 4.69995 18.625 4.87495 18.975 5.22495C19.325 5.57495 19.5 5.99995 19.5 6.49995V10.975L20.8 11.425C21.0833 11.525 21.2627 11.6833 21.338 11.9C21.4127 12.1166 21.425 12.3166 21.375 12.5L19.675 18.475C19.1417 18.4083 18.65 18.2583 18.2 18.025C17.75 17.7916 17.3083 17.4833 16.875 17.1C16.7417 17 16.6 16.9206 16.45 16.862C16.3 16.804 16.15 16.775 16 16.775C15.85 16.775 15.7 16.804 15.55 16.862C15.4 16.9206 15.2667 17 15.15 17.1C14.7 17.5166 14.2167 17.8543 13.7 18.113C13.1833 18.371 12.6167 18.5 12 18.5C11.3833 18.5 10.8167 18.371 10.3 18.113C9.78333 17.8543 9.3 17.5166 8.85 17.1C8.73333 17 8.6 16.9206 8.45 16.862C8.3 16.804 8.15 16.775 8 16.775C7.85 16.775 7.7 16.804 7.55 16.862C7.4 16.9206 7.26667 17 7.15 17.1C6.71667 17.4833 6.27067 17.7916 5.812 18.025C5.354 18.2583 4.85833 18.4083 4.325 18.475ZM3 22.5C2.78333 22.5 2.60433 22.4293 2.463 22.288C2.321 22.146 2.25 21.9666 2.25 21.75C2.25 21.5333 2.321 21.354 2.463 21.212C2.60433 21.0706 2.78333 21 3 21H4C4.56667 21 5.12933 20.9293 5.688 20.788C6.246 20.646 6.79167 20.425 7.325 20.125C7.40833 20.075 7.50833 20.0376 7.625 20.013C7.74167 19.9876 7.86667 19.975 8 19.975C8.13333 19.975 8.25833 19.9876 8.375 20.013C8.49167 20.0376 8.59167 20.075 8.675 20.125C9.20833 20.4083 9.754 20.6166 10.312 20.75C10.8707 20.8833 11.4333 20.95 12 20.95C12.5667 20.95 13.1293 20.8833 13.688 20.75C14.246 20.6166 14.7917 20.4083 15.325 20.125C15.4083 20.075 15.5083 20.0376 15.625 20.013C15.7417 19.9876 15.8667 19.975 16 19.975C16.1333 19.975 16.2583 19.9876 16.375 20.013C16.4917 20.0376 16.5917 20.075 16.675 20.125C17.2083 20.425 17.754 20.646 18.312 20.788C18.8707 20.9293 19.4333 21 20 21H21C21.2167 21 21.396 21.0706 21.538 21.212C21.6793 21.354 21.75 21.5333 21.75 21.75C21.75 21.9666 21.6793 22.146 21.538 22.288C21.396 22.4293 21.2167 22.5 21 22.5H20C19.3 22.5 18.6167 22.4166 17.95 22.25C17.2833 22.0833 16.6333 21.8333 16 21.5C15.3667 21.8333 14.7127 22.0833 14.038 22.25C13.3627 22.4166 12.6833 22.5 12 22.5C11.3167 22.5 10.6377 22.4166 9.963 22.25C9.28767 22.0833 8.63333 21.8333 8 21.5C7.36667 21.8333 6.71667 22.0833 6.05 22.25C5.38333 22.4166 4.7 22.5 4 22.5H3ZM6 10.475L11.425 8.69995C11.6083 8.63328 11.8 8.59995 12 8.59995C12.2 8.59995 12.3917 8.63328 12.575 8.69995L18 10.475V6.49995C18 6.41662 17.971 6.34562 17.913 6.28695C17.8543 6.22895 17.7833 6.19995 17.7 6.19995H6.3C6.21667 6.19995 6.146 6.22895 6.088 6.28695C6.02933 6.34562 6 6.41662 6 6.49995V10.475ZM12 17C12.4333 17 12.8123 16.9126 13.137 16.738C13.4623 16.5626 13.8 16.3083 14.15 15.975C14.4333 15.725 14.7293 15.5416 15.038 15.425C15.346 15.3083 15.6583 15.25 15.975 15.25C16.3083 15.25 16.6333 15.3126 16.95 15.438C17.2667 15.5626 17.5667 15.75 17.85 16C18 16.15 18.1333 16.271 18.25 16.363C18.3667 16.4543 18.5 16.5416 18.65 16.625L19.75 12.65L12.1 10.125C12.0667 10.1083 12.0333 10.1 12 10.1C11.9667 10.1 11.9333 10.1083 11.9 10.125L4.225 12.65L5.35 16.6C5.5 16.5166 5.63333 16.429 5.75 16.337C5.86667 16.2456 6 16.125 6.15 15.975C6.45 15.725 6.75833 15.5416 7.075 15.425C7.39167 15.3083 7.70833 15.25 8.025 15.25C8.35833 15.25 8.675 15.3083 8.975 15.425C9.275 15.5416 9.56667 15.725 9.85 15.975C10.2 16.3083 10.5377 16.5626 10.863 16.738C11.1877 16.9126 11.5667 17 12 17Z" fill="#272443"/>
</g>
</svg>
