<svg width="24" height="24" viewBox="0 0 24 24" fill="none" xmlns="http://www.w3.org/2000/svg">
<mask id="mask0_287_674" style="mask-type:alpha" maskUnits="userSpaceOnUse" x="0" y="0" width="24" height="24">
<rect width="24" height="24" fill="#D9D9D9"/>
</mask>
<g mask="url(#mask0_287_674)">
<path d="M4.375 13.25C4.175 13.25 4.03333 13.1706 3.95 13.012C3.86667 12.854 3.875 12.6916 3.975 12.525L9.925 3.99995C10.0417 3.81662 10.2083 3.75828 10.425 3.82495C10.6417 3.89162 10.75 4.04162 10.75 4.27495V12.8C10.75 12.9166 10.7043 13.021 10.613 13.113C10.521 13.2043 10.4167 13.25 10.3 13.25H4.375ZM6.35 11.75H9.25V7.57495L6.35 11.75ZM13.075 12.55C13.2417 11.95 13.396 11.1916 13.538 10.275C13.6793 9.35828 13.75 8.43328 13.75 7.49995C13.75 6.58328 13.6873 5.66228 13.562 4.73695C13.4373 3.81228 13.2917 3.01662 13.125 2.34995C13.0417 2.06662 13.071 1.87062 13.213 1.76195C13.3543 1.65395 13.55 1.66662 13.8 1.79995C14.65 2.24995 15.475 2.84995 16.275 3.59995C17.075 4.34995 17.7877 5.20395 18.413 6.16195C19.0377 7.12062 19.5583 8.15395 19.975 9.26195C20.3917 10.3706 20.6333 11.5083 20.7 12.675C20.7167 12.825 20.6707 12.9583 20.562 13.075C20.454 13.1916 20.325 13.25 20.175 13.25H13.575C13.375 13.25 13.225 13.1833 13.125 13.05C13.025 12.9166 13.0083 12.75 13.075 12.55ZM14.8 11.75H19.075C18.8083 10.2833 18.3083 8.92895 17.575 7.68695C16.8417 6.44562 15.9917 5.39995 15.025 4.54995C15.0917 5.01662 15.146 5.50395 15.188 6.01195C15.2293 6.52062 15.25 7.01662 15.25 7.49995C15.25 8.26662 15.2083 9.00828 15.125 9.72495C15.0417 10.4416 14.9333 11.1166 14.8 11.75ZM11.475 18.1749C11.1083 18.4749 10.7127 18.6956 10.288 18.837C9.86267 18.979 9.43333 19.0499 9 19.0499C8.56667 19.0499 8.13767 18.979 7.713 18.837C7.28767 18.6956 6.89167 18.4749 6.525 18.1749C6.35833 18.0583 6.18333 18 6 18C5.81667 18 5.64167 18.0666 5.475 18.2C5.35833 18.3166 5.225 18.4166 5.075 18.5C4.925 18.5833 4.775 18.6583 4.625 18.725C4.225 18.4416 3.87067 18.104 3.562 17.712C3.254 17.3206 2.99167 16.9 2.775 16.45C2.625 16.1333 2.63333 15.8543 2.8 15.613C2.96667 15.371 3.23333 15.25 3.6 15.25H20.4C20.7667 15.25 21.0333 15.371 21.2 15.613C21.3667 15.8543 21.375 16.1333 21.225 16.45C21.0083 16.9 20.746 17.3206 20.438 17.712C20.1293 18.104 19.775 18.4416 19.375 18.725C19.225 18.6583 19.075 18.5833 18.925 18.5C18.775 18.4166 18.6417 18.3166 18.525 18.2C18.3583 18.0666 18.1833 18 18 18C17.8167 18 17.6417 18.0583 17.475 18.1749C17.1083 18.4749 16.7127 18.6956 16.288 18.837C15.8627 18.979 15.4333 19.0499 15 19.0499C14.5667 19.0499 14.1377 18.979 13.713 18.837C13.2877 18.6956 12.8917 18.4749 12.525 18.1749C12.3583 18.0583 12.1833 18 12 18C11.8167 18 11.6417 18.0583 11.475 18.1749ZM3 22.75C3.5 22.75 4 22.6873 4.5 22.562C5 22.4373 5.5 22.2416 6 21.975C6.5 22.2416 7 22.4373 7.5 22.562C8 22.6873 8.5 22.75 9 22.75C9.5 22.75 10 22.6873 10.5 22.562C11 22.4373 11.5 22.2416 12 21.975C12.5 22.2416 13 22.4373 13.5 22.562C14 22.6873 14.5 22.75 15 22.75C15.5 22.75 16 22.6873 16.5 22.562C17 22.4373 17.5 22.2416 18 21.975C18.5 22.2416 19 22.4373 19.5 22.562C20 22.6873 20.5 22.75 21 22.75C21.2167 22.75 21.396 22.6793 21.538 22.538C21.6793 22.396 21.75 22.2166 21.75 22C21.75 21.7833 21.6793 21.604 21.538 21.462C21.396 21.3206 21.2167 21.25 21 21.25C20.55 21.25 20.1083 21.1916 19.675 21.075C19.2417 20.9583 18.825 20.7833 18.425 20.5499C18.3083 20.4833 18.1667 20.45 18 20.45C17.8333 20.45 17.6917 20.4833 17.575 20.5499C17.175 20.7833 16.7583 20.9583 16.325 21.075C15.8917 21.1916 15.45 21.25 15 21.25C14.55 21.25 14.1083 21.1916 13.675 21.075C13.2417 20.9583 12.825 20.7833 12.425 20.5499C12.3083 20.4833 12.1707 20.45 12.012 20.45C11.854 20.45 11.7083 20.4833 11.575 20.5499C11.175 20.7833 10.7583 20.9583 10.325 21.075C9.89167 21.1916 9.45 21.25 9 21.25C8.55 21.25 8.10833 21.1916 7.675 21.075C7.24167 20.9583 6.825 20.7833 6.425 20.5499C6.29167 20.4833 6.15 20.45 6 20.45C5.85 20.45 5.70833 20.4833 5.575 20.5499C5.175 20.7833 4.75833 20.9583 4.325 21.075C3.89167 21.1916 3.45 21.25 3 21.25C2.78333 21.25 2.60433 21.3206 2.463 21.462C2.321 21.604 2.25 21.7833 2.25 22C2.25 22.2166 2.321 22.396 2.463 22.538C2.60433 22.6793 2.78333 22.75 3 22.75Z" fill="#272443"/>
</g>
</svg>
