<svg width="24" height="24" viewBox="0 0 24 24" fill="none" xmlns="http://www.w3.org/2000/svg">
<mask id="mask0_287_692" style="mask-type:alpha" maskUnits="userSpaceOnUse" x="0" y="0" width="24" height="24">
<rect width="24" height="24" fill="#D9D9D9"/>
</mask>
<g mask="url(#mask0_287_692)">
<path d="M18.65 8.2C18.3833 8.2 18.1583 8.10833 17.975 7.925C17.7916 7.74167 17.7 7.51667 17.7 7.25C17.7 7.13333 17.7293 7.01667 17.788 6.9C17.846 6.78333 17.9166 6.68333 18 6.6C18.1833 6.4 18.6126 6.18333 19.288 5.95L20.2999 5.6C20.1833 5.96667 20.0666 6.30833 19.95 6.625C19.85 6.89167 19.7416 7.15 19.625 7.4C19.5083 7.65 19.4083 7.825 19.325 7.925C19.2416 8.00833 19.1416 8.075 19.025 8.125C18.9083 8.175 18.7833 8.2 18.65 8.2ZM4.62495 20.25C4.12495 20.25 3.69995 20.075 3.34995 19.725C2.99995 19.375 2.82495 18.95 2.82495 18.45V5.5C2.82495 5 3.00428 4.57067 3.36295 4.212C3.72095 3.854 4.14162 3.675 4.62495 3.675H10.05C10.55 3.675 10.9793 3.854 11.338 4.212C11.696 4.57067 11.875 5 11.875 5.5V13.4C12.025 13.3167 12.1916 13.246 12.375 13.188C12.5583 13.1293 12.7666 13.1 13 13.1C13.7333 13.1 14.3543 13.3583 14.863 13.875C15.371 14.3917 15.625 15.0167 15.625 15.75V17.625C15.625 17.9417 15.7333 18.2083 15.95 18.425C16.1666 18.6417 16.4416 18.75 16.775 18.75C17.0916 18.75 17.3583 18.6417 17.575 18.425C17.7916 18.2083 17.9 17.9417 17.9 17.625V12.725H16.95V11.45C16.1166 11.0833 15.4376 10.525 14.913 9.775C14.3876 9.025 14.125 8.18333 14.125 7.25C14.125 6 14.5666 4.93733 15.45 4.062C16.3333 3.18733 17.4 2.75 18.65 2.75C19.9 2.75 20.9666 3.18733 21.85 4.062C22.7333 4.93733 23.1749 6 23.1749 7.25C23.1749 8.18333 22.9126 9.025 22.388 9.775C21.8626 10.525 21.1833 11.0833 20.35 11.45V12.725H19.4V17.625C19.4 18.3583 19.146 18.9793 18.638 19.488C18.1293 19.996 17.5083 20.25 16.775 20.25C16.0416 20.25 15.4166 19.996 14.9 19.488C14.3833 18.9793 14.125 18.3583 14.125 17.625V15.75C14.125 15.4167 14.0166 15.1417 13.8 14.925C13.5833 14.7083 13.3166 14.6 13 14.6C12.6833 14.6 12.4166 14.7083 12.2 14.925C11.9833 15.1417 11.875 15.4167 11.875 15.75V18.45C11.875 18.95 11.696 19.375 11.338 19.725C10.9793 20.075 10.55 20.25 10.05 20.25H4.62495ZM18.65 10.275C19.5 10.275 20.2166 9.98333 20.7999 9.4C21.3833 8.81667 21.6749 8.1 21.6749 7.25C21.6749 6.41667 21.3793 5.70833 20.788 5.125C20.196 4.54167 19.4833 4.25 18.65 4.25C17.8166 4.25 17.1043 4.54167 16.513 5.125C15.921 5.70833 15.625 6.41667 15.625 7.25C15.625 8.1 15.921 8.81667 16.513 9.4C17.1043 9.98333 17.8166 10.275 18.65 10.275ZM4.62495 18.75H10.05C10.15 18.75 10.2293 18.721 10.288 18.663C10.346 18.6043 10.375 18.5333 10.375 18.45V16.225L8.47495 18.1V15.975L10.375 14.1V11.5L8.47495 13.4V11.275L10.375 9.375V6.8L8.47495 8.675V6.55L9.77495 5.275C9.74162 5.24167 9.70828 5.21667 9.67495 5.2C9.64162 5.18333 9.59995 5.175 9.54995 5.175H5.14995C5.09995 5.175 5.05428 5.18333 5.01295 5.2C4.97095 5.21667 4.94162 5.24167 4.92495 5.275L6.19995 6.55V8.675L4.32495 6.8V9.375L6.19995 11.275V13.4L4.32495 11.5V14.1L6.19995 15.975V18.1L4.32495 16.225V18.45C4.32495 18.5333 4.35395 18.6043 4.41195 18.663C4.47062 18.721 4.54162 18.75 4.62495 18.75Z" fill="#272443"/>
</g>
</svg>
