<svg width="24" height="24" viewBox="0 0 24 24" fill="none" xmlns="http://www.w3.org/2000/svg">
<mask id="mask0_255_37" style="mask-type:alpha" maskUnits="userSpaceOnUse" x="0" y="0" width="24" height="24">
<rect width="24" height="24" fill="#D9D9D9"/>
</mask>
<g mask="url(#mask0_255_37)">
<path d="M5.15002 19H6.40002L15.65 9.74995L14.425 8.49995L5.15002 17.775V19ZM18.85 8.64995L15.475 5.29995L16.8 3.99995C17.0834 3.71662 17.4377 3.57495 17.863 3.57495C18.2877 3.57495 18.6417 3.71662 18.925 3.99995L20.15 5.22495C20.4334 5.52495 20.5834 5.87895 20.6 6.28695C20.6167 6.69562 20.475 7.04162 20.175 7.32495L18.85 8.64995ZM4.55002 20.5C4.30002 20.5 4.08769 20.4126 3.91302 20.238C3.73769 20.0626 3.65002 19.85 3.65002 19.6V17.5C3.65002 17.3833 3.67102 17.271 3.71302 17.163C3.75436 17.0543 3.82502 16.95 3.92502 16.85L14.4 6.37495L17.775 9.74995L7.30002 20.225C7.20002 20.325 7.09602 20.396 6.98802 20.438C6.87936 20.4793 6.76669 20.5 6.65002 20.5H4.55002ZM15.025 9.12495L14.425 8.49995L15.65 9.74995L15.025 9.12495Z" fill="white"/>
</g>
</svg>
