<svg width="24" height="24" viewBox="0 0 24 24" fill="none" xmlns="http://www.w3.org/2000/svg">
<mask id="mask0_287_926" style="mask-type:alpha" maskUnits="userSpaceOnUse" x="0" y="0" width="24" height="24">
<rect width="24" height="24" fill="#D9D9D9"/>
</mask>
<g mask="url(#mask0_287_926)">
<path d="M19.975 17.175C20.3917 17.3917 20.746 17.3417 21.038 17.025C21.3293 16.7083 21.3667 16.35 21.15 15.95L19.475 12.8L18.125 16.225L19.975 17.175ZM14.825 16.25H16.475L18.9 10.25C19 10 19.0043 9.79567 18.913 9.637C18.821 9.479 18.6833 9.35833 18.5 9.275L16.5 8.475C16.2667 8.375 16.046 8.37067 15.838 8.462C15.6293 8.554 15.5083 8.725 15.475 8.975L14.825 16.25ZM7.525 16.25H9.175L8.525 8.925C8.49167 8.70833 8.375 8.554 8.175 8.462C7.975 8.37067 7.75 8.375 7.5 8.475L5.5 9.275C5.28333 9.35833 5.15 9.49167 5.1 9.675C5.05 9.85833 5.06667 10.0667 5.15 10.3L7.525 16.25ZM4.025 17.175L5.875 16.225L4.55 12.8L2.85 15.975C2.61667 16.3917 2.65433 16.75 2.963 17.05C3.271 17.35 3.625 17.3917 4.025 17.175ZM10.675 16.25H13.325L14.1 7.575C14.1333 7.34167 14.075 7.14567 13.925 6.987C13.775 6.829 13.5833 6.75 13.35 6.75H10.65C10.4667 6.75 10.2917 6.825 10.125 6.975C9.95833 7.125 9.88333 7.30833 9.9 7.525L10.675 16.25ZM3.5 18.775C2.85 18.775 2.31267 18.5417 1.888 18.075C1.46267 17.6083 1.25 17.0583 1.25 16.425C1.25 16.225 1.275 16.0333 1.325 15.85C1.375 15.6667 1.44167 15.4917 1.525 15.325L3.8 11C3.56667 10.3833 3.55433 9.77067 3.763 9.162C3.971 8.554 4.36667 8.125 4.95 7.875L6.95 7.075C7.2 6.975 7.45833 6.91667 7.725 6.9C7.99167 6.88333 8.24167 6.93333 8.475 7.05C8.625 6.55 8.896 6.125 9.288 5.775C9.67933 5.425 10.1417 5.25 10.675 5.25H13.35C13.8833 5.25 14.346 5.42067 14.738 5.762C15.1293 6.104 15.4 6.51667 15.55 7C15.7667 6.9 16.0083 6.86233 16.275 6.887C16.5417 6.91233 16.8 6.975 17.05 7.075L19.05 7.875C19.65 8.125 20.0667 8.55 20.3 9.15C20.5333 9.75 20.5083 10.35 20.225 10.95L22.5 15.275C22.5833 15.425 22.65 15.5873 22.7 15.762C22.75 15.9373 22.775 16.1167 22.775 16.3C22.775 17 22.5373 17.5873 22.062 18.062C21.5873 18.5373 21.0083 18.775 20.325 18.775C20.1583 18.775 19.996 18.754 19.838 18.712C19.6793 18.6707 19.525 18.6167 19.375 18.55L17.775 17.75H6.2L4.725 18.525C4.54167 18.625 4.34167 18.6917 4.125 18.725C3.90833 18.7583 3.7 18.775 3.5 18.775Z" fill="#272443"/>
</g>
</svg>
