<svg width="24" height="24" viewBox="0 0 24 24" fill="none" xmlns="http://www.w3.org/2000/svg">
<mask id="mask0_287_854" style="mask-type:alpha" maskUnits="userSpaceOnUse" x="0" y="0" width="24" height="24">
<rect width="24" height="24" fill="#D9D9D9"/>
</mask>
<g mask="url(#mask0_287_854)">
<path d="M3.0499 21.625C2.7999 21.625 2.59157 21.5377 2.4249 21.363C2.25824 21.1877 2.16657 20.975 2.1499 20.725V20.125H16.1499V20.725C16.1332 20.975 16.0416 21.1877 15.8749 21.363C15.7082 21.5377 15.4999 21.625 15.2499 21.625H3.0499ZM2.1499 17.925V17.3C2.16657 17.05 2.25824 16.8417 2.4249 16.675C2.59157 16.5083 2.7999 16.425 3.0499 16.425H7.1499V15.75C7.1499 15.5 7.23757 15.2877 7.4129 15.113C7.58757 14.9377 7.7999 14.85 8.0499 14.85H10.2499C10.4999 14.85 10.7122 14.9377 10.8869 15.113C11.0622 15.2877 11.1499 15.5 11.1499 15.75V16.425H15.2499C15.4999 16.425 15.7082 16.5083 15.8749 16.675C16.0416 16.8417 16.1332 17.05 16.1499 17.3V17.925H2.1499ZM19.4499 21.625C19.1832 21.625 18.9666 21.5377 18.7999 21.363C18.6332 21.1877 18.5499 20.9667 18.5499 20.7V15.45C17.9999 14.9 17.5539 14.3083 17.2119 13.675C16.8706 13.0417 16.6999 12.3 16.6999 11.45V3.525C16.6999 3.25833 16.7832 3.04167 16.9499 2.875C17.1166 2.70833 17.3332 2.625 17.5999 2.625H20.9499C21.1999 2.625 21.4126 2.70833 21.5879 2.875C21.7626 3.04167 21.8499 3.25833 21.8499 3.525V11.45C21.8499 12.3 21.6832 13.046 21.3499 13.688C21.0166 14.3293 20.5832 14.9167 20.0499 15.45V20.125H21.0999C21.3166 20.125 21.4959 20.1957 21.6379 20.337C21.7792 20.479 21.8499 20.6583 21.8499 20.875C21.8499 21.075 21.7792 21.25 21.6379 21.4C21.4959 21.55 21.3166 21.625 21.0999 21.625H19.4499ZM18.1999 8.3H20.3499V4.125H18.1999V8.3ZM19.2999 14.05C19.5999 13.75 19.8499 13.3707 20.0499 12.912C20.2499 12.454 20.3499 11.9667 20.3499 11.45V9.8H18.1999V11.45C18.1999 11.9667 18.2999 12.454 18.4999 12.912C18.6999 13.3707 18.9666 13.75 19.2999 14.05Z" fill="#272443"/>
</g>
</svg>
