<svg width="24" height="24" viewBox="0 0 24 24" fill="none" xmlns="http://www.w3.org/2000/svg">
<mask id="mask0_287_932" style="mask-type:alpha" maskUnits="userSpaceOnUse" x="0" y="0" width="24" height="24">
<rect width="24" height="24" fill="#D9D9D9"/>
</mask>
<g mask="url(#mask0_287_932)">
<path d="M4.375 21.5C4.125 21.5 3.91667 21.4127 3.75 21.2381C3.58333 21.0627 3.5 20.8584 3.5 20.625V15.725C3.5 15.225 3.675 14.8 4.025 14.45C4.375 14.1 4.8 13.925 5.3 13.925H5.5V9.85005C5.5 9.35005 5.675 8.92505 6.025 8.57505C6.375 8.22505 6.8 8.05005 7.3 8.05005H11.25V6.57505C10.95 6.37505 10.7083 6.14572 10.525 5.88705C10.3417 5.62905 10.25 5.31672 10.25 4.95005C10.25 4.73338 10.2917 4.52072 10.375 4.31205C10.4583 4.10405 10.5917 3.90838 10.775 3.72505L11.675 2.82505C11.7083 2.79172 11.8167 2.74172 12 2.67505C12.0333 2.67505 12.1417 2.72505 12.325 2.82505L13.225 3.72505C13.4083 3.90838 13.5417 4.10405 13.625 4.31205C13.7083 4.52072 13.75 4.73338 13.75 4.95005C13.75 5.31672 13.6583 5.62905 13.475 5.88705C13.2917 6.14572 13.05 6.37505 12.75 6.57505V8.05005H16.7C17.2 8.05005 17.625 8.22505 17.975 8.57505C18.325 8.92505 18.5 9.35005 18.5 9.85005V13.925H18.7C19.2 13.925 19.625 14.1 19.975 14.45C20.325 14.8 20.5 15.225 20.5 15.725V20.625C20.5 20.8584 20.4127 21.0627 20.238 21.2381C20.0627 21.4127 19.8583 21.5 19.625 21.5H4.375ZM7 13.925H17V9.85005C17 9.75005 16.971 9.67505 16.913 9.62505C16.8543 9.57505 16.7833 9.55005 16.7 9.55005H7.3C7.21667 9.55005 7.146 9.57505 7.088 9.62505C7.02933 9.67505 7 9.75005 7 9.85005V13.925ZM5 20H19V15.725C19 15.6417 18.971 15.5707 18.913 15.512C18.8543 15.454 18.7833 15.425 18.7 15.425H5.3C5.21667 15.425 5.146 15.454 5.088 15.512C5.02933 15.5707 5 15.6417 5 15.725V20Z" fill="#272443"/>
</g>
</svg>
