<svg width="24" height="24" viewBox="0 0 24 24" fill="none" xmlns="http://www.w3.org/2000/svg">
<mask id="mask0_287_866" style="mask-type:alpha" maskUnits="userSpaceOnUse" x="0" y="0" width="24" height="24">
<rect width="24" height="24" fill="#D9D9D9"/>
</mask>
<g mask="url(#mask0_287_866)">
<path d="M6.05 21.5C5.55 21.5 5.125 21.325 4.775 20.975C4.425 20.625 4.25 20.2 4.25 19.7V4.3C4.25 3.8 4.425 3.375 4.775 3.025C5.125 2.675 5.55 2.5 6.05 2.5H19C19.2167 2.5 19.396 2.57067 19.538 2.712C19.6793 2.854 19.75 3.03333 19.75 3.25C19.75 3.46667 19.6793 3.64567 19.538 3.787C19.396 3.929 19.2167 4 19 4H17.25V5.575C17.25 5.825 17.1667 6.03333 17 6.2C16.8333 6.36667 16.625 6.45 16.375 6.45H9.125C8.875 6.45 8.66667 6.36667 8.5 6.2C8.33333 6.03333 8.25 5.825 8.25 5.575V4H6.05C5.96667 4 5.896 4.029 5.838 4.087C5.77933 4.14567 5.75 4.21667 5.75 4.3V19.7C5.75 19.7833 5.77933 19.8543 5.838 19.913C5.896 19.971 5.96667 20 6.05 20H10.275C9.65833 19.6 9.16667 19.0833 8.8 18.45C8.43333 17.8167 8.25 17.0917 8.25 16.275V13.575C8.25 13.075 8.425 12.65 8.775 12.3C9.125 11.95 9.55 11.775 10.05 11.775H15.45C15.95 11.775 16.375 11.95 16.725 12.3C17.075 12.65 17.25 13.075 17.25 13.575V16.275C17.25 17.0917 17.0667 17.8167 16.7 18.45C16.3333 19.0833 15.8417 19.6 15.225 20H19C19.2167 20 19.396 20.0707 19.538 20.212C19.6793 20.354 19.75 20.5333 19.75 20.75C19.75 20.9667 19.6793 21.146 19.538 21.288C19.396 21.4293 19.2167 21.5 19 21.5H6.05ZM12.75 19.275C13.5833 19.275 14.2917 18.9833 14.875 18.4C15.4583 17.8167 15.75 17.1083 15.75 16.275V13.575C15.75 13.4917 15.721 13.4207 15.663 13.362C15.6043 13.304 15.5333 13.275 15.45 13.275H10.05C9.96667 13.275 9.896 13.304 9.838 13.362C9.77933 13.4207 9.75 13.4917 9.75 13.575V16.275C9.75 17.1083 10.0417 17.8167 10.625 18.4C11.2083 18.9833 11.9167 19.275 12.75 19.275ZM12.75 10C13 10 13.2083 9.91267 13.375 9.738C13.5417 9.56267 13.625 9.35833 13.625 9.125C13.625 8.875 13.5417 8.66267 13.375 8.488C13.2083 8.31267 13 8.225 12.75 8.225C12.5 8.225 12.2917 8.31267 12.125 8.488C11.9583 8.66267 11.875 8.875 11.875 9.125C11.875 9.35833 11.9583 9.56267 12.125 9.738C12.2917 9.91267 12.5 10 12.75 10Z" fill="#272443"/>
</g>
</svg>
