<svg width="24" height="24" viewBox="0 0 24 24" fill="none" xmlns="http://www.w3.org/2000/svg">
<mask id="mask0_287_944" style="mask-type:alpha" maskUnits="userSpaceOnUse" x="0" y="0" width="24" height="24">
<rect width="24" height="24" fill="#D9D9D9"/>
</mask>
<g mask="url(#mask0_287_944)">
<path d="M6.59995 22.2V18.5499H5.69995C5.06662 18.5499 4.53328 18.3333 4.09995 17.9C3.66662 17.4666 3.44995 16.9333 3.44995 16.3C3.44995 15.6833 3.66662 15.154 4.09995 14.712C4.53328 14.2706 5.06662 14.05 5.69995 14.05H6.59995V12.75H4.34995C4.08328 12.75 3.86662 12.6626 3.69995 12.488C3.53328 12.3126 3.44995 12.1 3.44995 11.85V9.14995C3.44995 8.89995 3.53328 8.68728 3.69995 8.51195C3.86662 8.33728 4.08328 8.24995 4.34995 8.24995H6.59995V6.94995H5.69995C5.06662 6.94995 4.53328 6.73328 4.09995 6.29995C3.66662 5.86662 3.44995 5.33328 3.44995 4.69995C3.44995 4.06662 3.66662 3.53328 4.09995 3.09995C4.53328 2.66662 5.06662 2.44995 5.69995 2.44995H6.59995V1.79995C6.59995 1.61662 6.65428 1.47062 6.76295 1.36195C6.87095 1.25395 7.01662 1.19995 7.19995 1.19995C7.36662 1.19995 7.50828 1.25395 7.62495 1.36195C7.74162 1.47062 7.79995 1.61662 7.79995 1.79995V2.44995H8.69995C9.31662 2.44995 9.84595 2.66662 10.288 3.09995C10.7293 3.53328 10.95 4.06662 10.95 4.69995C10.95 5.31662 10.7293 5.84562 10.288 6.28695C9.84595 6.72895 9.31662 6.94995 8.69995 6.94995H7.79995V8.24995H10.05C10.3 8.24995 10.5126 8.33728 10.688 8.51195C10.8626 8.68728 10.95 8.89995 10.95 9.14995V11.85C10.95 12.1 10.8626 12.3126 10.688 12.488C10.5126 12.6626 10.3 12.75 10.05 12.75H7.79995V14.05H8.69995C9.31662 14.05 9.84595 14.2666 10.288 14.7C10.7293 15.1333 10.95 15.6666 10.95 16.3C10.95 16.9333 10.7293 17.4666 10.288 17.9C9.84595 18.3333 9.31662 18.5499 8.69995 18.5499H7.79995V22.2C7.79995 22.3833 7.74162 22.5293 7.62495 22.638C7.50828 22.746 7.36662 22.7999 7.19995 22.7999C7.01662 22.7999 6.87095 22.746 6.76295 22.638C6.65428 22.5293 6.59995 22.3833 6.59995 22.2ZM16.2 22.2V18.5499H15.3C14.6833 18.5499 14.1543 18.3333 13.713 17.9C13.271 17.4666 13.05 16.9333 13.05 16.3C13.05 15.6833 13.271 15.154 13.713 14.712C14.1543 14.2706 14.6833 14.05 15.3 14.05H16.2V12.75H13.95C13.7 12.75 13.4873 12.6626 13.312 12.488C13.1373 12.3126 13.05 12.1 13.05 11.85V9.14995C13.05 8.89995 13.1373 8.68728 13.312 8.51195C13.4873 8.33728 13.7 8.24995 13.95 8.24995H16.2V6.94995H15.3C14.6833 6.94995 14.1543 6.73328 13.713 6.29995C13.271 5.86662 13.05 5.33328 13.05 4.69995C13.05 4.06662 13.271 3.53328 13.713 3.09995C14.1543 2.66662 14.6833 2.44995 15.3 2.44995H16.2V1.79995C16.2 1.61662 16.2583 1.47062 16.375 1.36195C16.4916 1.25395 16.6333 1.19995 16.8 1.19995C16.9833 1.19995 17.1293 1.25395 17.238 1.36195C17.346 1.47062 17.4 1.61662 17.4 1.79995V2.44995H18.3C18.9333 2.44995 19.4666 2.66662 19.9 3.09995C20.3333 3.53328 20.5499 4.06662 20.5499 4.69995C20.5499 5.31662 20.3333 5.84562 19.9 6.28695C19.4666 6.72895 18.9333 6.94995 18.3 6.94995H17.4V8.24995H19.65C19.9166 8.24995 20.1333 8.33728 20.2999 8.51195C20.4666 8.68728 20.5499 8.89995 20.5499 9.14995V11.85C20.5499 12.1 20.4666 12.3126 20.2999 12.488C20.1333 12.6626 19.9166 12.75 19.65 12.75H17.4V14.05H18.3C18.9333 14.05 19.4666 14.2666 19.9 14.7C20.3333 15.1333 20.5499 15.6666 20.5499 16.3C20.5499 16.9333 20.3333 17.4666 19.9 17.9C19.4666 18.3333 18.9333 18.5499 18.3 18.5499H17.4V22.2C17.4 22.3833 17.346 22.5293 17.238 22.638C17.1293 22.746 16.9833 22.7999 16.8 22.7999C16.6333 22.7999 16.4916 22.746 16.375 22.638C16.2583 22.5293 16.2 22.3833 16.2 22.2ZM5.69995 5.44995H8.69995C8.89995 5.44995 9.07495 5.37495 9.22495 5.22495C9.37495 5.07495 9.44995 4.89995 9.44995 4.69995C9.44995 4.48328 9.37495 4.30395 9.22495 4.16195C9.07495 4.02062 8.89995 3.94995 8.69995 3.94995H5.69995C5.48328 3.94995 5.30395 4.02062 5.16195 4.16195C5.02062 4.30395 4.94995 4.48328 4.94995 4.69995C4.94995 4.89995 5.02062 5.07495 5.16195 5.22495C5.30395 5.37495 5.48328 5.44995 5.69995 5.44995ZM15.3 5.44995H18.3C18.5166 5.44995 18.6956 5.37495 18.837 5.22495C18.979 5.07495 19.05 4.89995 19.05 4.69995C19.05 4.48328 18.979 4.30395 18.837 4.16195C18.6956 4.02062 18.5166 3.94995 18.3 3.94995H15.3C15.1 3.94995 14.925 4.02062 14.775 4.16195C14.625 4.30395 14.55 4.48328 14.55 4.69995C14.55 4.89995 14.625 5.07495 14.775 5.22495C14.925 5.37495 15.1 5.44995 15.3 5.44995ZM4.94995 11.25H9.44995V9.74995H4.94995V11.25ZM14.55 11.25H19.05V9.74995H14.55V11.25ZM5.69995 17.05H8.69995C8.89995 17.05 9.07495 16.979 9.22495 16.837C9.37495 16.6956 9.44995 16.5166 9.44995 16.3C9.44995 16.1 9.37495 15.925 9.22495 15.775C9.07495 15.625 8.89995 15.55 8.69995 15.55H5.69995C5.48328 15.55 5.30395 15.625 5.16195 15.775C5.02062 15.925 4.94995 16.1 4.94995 16.3C4.94995 16.5166 5.02062 16.6956 5.16195 16.837C5.30395 16.979 5.48328 17.05 5.69995 17.05ZM15.3 17.05H18.3C18.5166 17.05 18.6956 16.979 18.837 16.837C18.979 16.6956 19.05 16.5166 19.05 16.3C19.05 16.1 18.979 15.925 18.837 15.775C18.6956 15.625 18.5166 15.55 18.3 15.55H15.3C15.1 15.55 14.925 15.625 14.775 15.775C14.625 15.925 14.55 16.1 14.55 16.3C14.55 16.5166 14.625 16.6956 14.775 16.837C14.925 16.979 15.1 17.05 15.3 17.05Z" fill="#272443"/>
</g>
</svg>
