<svg width="24" height="24" viewBox="0 0 24 24" fill="none" xmlns="http://www.w3.org/2000/svg">
<mask id="mask0_287_890" style="mask-type:alpha" maskUnits="userSpaceOnUse" x="0" y="0" width="24" height="24">
<rect width="24" height="24" fill="#D9D9D9"/>
</mask>
<g mask="url(#mask0_287_890)">
<path d="M7.25005 20.75C7.03338 20.75 6.85438 20.6793 6.71305 20.538C6.57105 20.396 6.50005 20.2167 6.50005 20C6.50005 19.7833 6.57105 19.604 6.71305 19.462C6.85438 19.3207 7.03338 19.25 7.25005 19.25H11.25V13.525L3.95005 5.3C3.86672 5.21667 3.80005 5.10833 3.75005 4.975C3.70005 4.84167 3.67505 4.70833 3.67505 4.575C3.67505 4.275 3.77905 4.02067 3.98705 3.812C4.19572 3.604 4.45005 3.5 4.75005 3.5H19.25C19.55 3.5 19.8044 3.604 20.0131 3.812C20.2211 4.02067 20.3251 4.28333 20.3251 4.6C20.3251 4.71667 20.3 4.84167 20.25 4.975C20.2 5.10833 20.1334 5.21667 20.05 5.3L12.75 13.525V19.25H16.75C16.9667 19.25 17.146 19.3207 17.288 19.462C17.4294 19.604 17.5 19.7833 17.5 20C17.5 20.2167 17.4294 20.396 17.288 20.538C17.146 20.6793 16.9667 20.75 16.75 20.75H7.25005ZM7.45005 7H16.55L18.35 5H5.65005L7.45005 7ZM12 12.1L15.225 8.5H8.77505L12 12.1Z" fill="#272443"/>
</g>
</svg>
