<svg width="24" height="24" viewBox="0 0 24 24" fill="none" xmlns="http://www.w3.org/2000/svg">
<mask id="mask0_287_908" style="mask-type:alpha" maskUnits="userSpaceOnUse" x="0" y="0" width="24" height="24">
<rect width="24" height="24" fill="#D9D9D9"/>
</mask>
<g mask="url(#mask0_287_908)">
<path d="M12 19.65C11.7166 19.65 11.4376 19.5833 11.163 19.45C10.8876 19.3167 10.6666 19.1083 10.5 18.825L3.52498 8.375C3.27498 8.00833 3.18765 7.61267 3.26298 7.188C3.33765 6.76267 3.54998 6.43333 3.89998 6.2C5.09998 5.36667 6.38332 4.70833 7.74998 4.225C9.11665 3.74167 10.5333 3.5 12 3.5C13.4666 3.5 14.8873 3.73767 16.262 4.213C17.6373 4.68767 18.925 5.35 20.125 6.2C20.4583 6.43333 20.6627 6.76267 20.738 7.188C20.8127 7.61267 20.725 8.00833 20.475 8.375L13.5 18.825C13.3333 19.1083 13.1126 19.3167 12.838 19.45C12.5626 19.5833 12.2833 19.65 12 19.65ZM11.75 18.025C11.8 18.1083 11.8833 18.15 12 18.15C12.1166 18.15 12.2 18.1083 12.25 18.025L19.3 7.45C18.2166 6.7 17.0583 6.104 15.825 5.662C14.5916 5.22067 13.3166 5 12 5C10.6833 5 9.41265 5.22067 8.18798 5.662C6.96265 6.104 5.79998 6.7 4.69998 7.45L11.75 18.025ZM9.17498 9.7C9.52498 9.7 9.82065 9.579 10.062 9.337C10.304 9.09567 10.425 8.80833 10.425 8.475C10.425 8.125 10.304 7.825 10.062 7.575C9.82065 7.325 9.52498 7.2 9.17498 7.2C8.82498 7.2 8.52932 7.325 8.28798 7.575C8.04598 7.825 7.92498 8.11667 7.92498 8.45C7.92498 8.8 8.04598 9.09567 8.28798 9.337C8.52932 9.579 8.82498 9.7 9.17498 9.7ZM12 14.75C12.35 14.75 12.6456 14.629 12.887 14.387C13.129 14.1457 13.25 13.85 13.25 13.5C13.25 13.15 13.129 12.8543 12.887 12.613C12.6456 12.371 12.35 12.25 12 12.25C11.65 12.25 11.3543 12.371 11.113 12.613C10.871 12.8543 10.75 13.15 10.75 13.5C10.75 13.85 10.871 14.1457 11.113 14.387C11.3543 14.629 11.65 14.75 12 14.75Z" fill="#272443"/>
</g>
</svg>
