<svg width="24" height="24" viewBox="0 0 24 24" fill="none" xmlns="http://www.w3.org/2000/svg">
<mask id="mask0_287_902" style="mask-type:alpha" maskUnits="userSpaceOnUse" x="0" y="0" width="24" height="24">
<rect width="24" height="24" fill="#D9D9D9"/>
</mask>
<g mask="url(#mask0_287_902)">
<path d="M7.29998 21.5C6.81665 21.5 6.39998 21.346 6.04998 21.038C5.69998 20.7293 5.49998 20.3417 5.44998 19.875L3.67498 3.5C3.64165 3.21667 3.71265 2.979 3.88798 2.787C4.06265 2.59567 4.29165 2.5 4.57498 2.5H19.425C19.7083 2.5 19.9376 2.59567 20.113 2.787C20.2876 2.979 20.3583 3.21667 20.325 3.5L18.55 19.875C18.5 20.3417 18.304 20.7293 17.962 21.038C17.6206 21.346 17.2083 21.5 16.725 21.5H7.29998ZM5.84998 9.7L6.94998 19.7C6.96665 19.7833 7.00831 19.8543 7.07498 19.913C7.14165 19.971 7.21665 20 7.29998 20H16.725C16.8083 20 16.8793 19.9667 16.938 19.9C16.996 19.8333 17.0333 19.7667 17.05 19.7L18.15 9.7H5.84998ZM5.67498 8.2H18.325L18.75 4H5.24998L5.67498 8.2ZM12 18.55C12.7333 18.55 13.3666 18.3 13.9 17.8C14.4333 17.3 14.7 16.6833 14.7 15.95C14.7 15.4333 14.55 14.8873 14.25 14.312C13.95 13.7373 13.45 13.0083 12.75 12.125C12.55 11.8583 12.3 11.725 12 11.725C11.7 11.725 11.45 11.8583 11.25 12.125C10.55 13.0083 10.05 13.7373 9.74998 14.312C9.44998 14.8873 9.29998 15.4333 9.29998 15.95C9.29998 16.6833 9.56665 17.3 10.1 17.8C10.6333 18.3 11.2666 18.55 12 18.55ZM12 17.05C11.6666 17.05 11.3833 16.9373 11.15 16.712C10.9166 16.4873 10.8 16.2083 10.8 15.875C10.8 15.5917 10.9126 15.2417 11.138 14.825C11.3626 14.4083 11.65 13.9417 12 13.425C12.35 13.9583 12.6376 14.429 12.863 14.837C13.0876 15.2457 13.2 15.5917 13.2 15.875C13.2 16.2083 13.0833 16.4873 12.85 16.712C12.6166 16.9373 12.3333 17.05 12 17.05Z" fill="#272443"/>
</g>
</svg>
