<svg width="24" height="24" viewBox="0 0 24 24" fill="none" xmlns="http://www.w3.org/2000/svg">
<mask id="mask0_287_920" style="mask-type:alpha" maskUnits="userSpaceOnUse" x="0" y="0" width="24" height="24">
<rect width="24" height="24" fill="#D9D9D9"/>
</mask>
<g mask="url(#mask0_287_920)">
<path d="M8.5499 18.575H14.6999C14.7999 18.575 14.8792 18.5456 14.9379 18.487C14.9959 18.429 15.0249 18.35 15.0249 18.25V9.14995H13.1249C12.6582 9.14995 12.2749 9.26229 11.9749 9.48695C11.6749 9.71229 11.3166 10.05 10.8999 10.5C10.4999 10.95 10.0876 11.3416 9.6629 11.675C9.23757 12.0083 8.75824 12.2416 8.2249 12.375V18.25C8.2249 18.35 8.2539 18.429 8.3119 18.487C8.37057 18.5456 8.4499 18.575 8.5499 18.575ZM8.5499 20.075C8.0499 20.075 7.6209 19.896 7.2629 19.538C6.90424 19.1793 6.7249 18.75 6.7249 18.25V12.35C5.90824 12.15 5.23324 11.7416 4.6999 11.125C4.16657 10.5083 3.8999 9.75828 3.8999 8.87495C3.8999 8.07495 4.12924 7.36662 4.5879 6.74995C5.0459 6.13328 5.65824 5.70828 6.4249 5.47495C6.7749 4.72495 7.29157 4.11662 7.9749 3.64995C8.65824 3.18328 9.43324 2.94995 10.2999 2.94995C10.8332 2.94995 11.3292 3.04162 11.7879 3.22495C12.2459 3.40828 12.6832 3.66662 13.0999 3.99995C13.2499 3.96662 13.3916 3.93728 13.5249 3.91195C13.6582 3.88728 13.8082 3.87495 13.9749 3.87495C14.9582 3.87495 15.7832 4.22928 16.4499 4.93795C17.1166 5.64595 17.4499 6.48328 17.4499 7.44995C17.4499 7.78328 17.4209 8.08729 17.3629 8.36195C17.3042 8.63729 17.1999 8.89995 17.0499 9.14995H18.2999C18.7832 9.14995 19.2039 9.32495 19.5619 9.67495C19.9206 10.025 20.0999 10.45 20.0999 10.95V16.375C20.0999 16.875 19.9206 17.3 19.5619 17.65C19.2039 18 18.7832 18.175 18.2999 18.175H16.5249V18.25C16.5249 18.75 16.3459 19.1793 15.9879 19.538C15.6292 19.896 15.1999 20.075 14.6999 20.075H8.5499ZM5.3999 8.87495C5.3999 9.44162 5.60424 9.92895 6.0129 10.337C6.4209 10.7456 6.90824 10.95 7.4749 10.95C8.00824 10.95 8.45824 10.7873 8.8249 10.462C9.19157 10.1373 9.55824 9.76662 9.9249 9.34995C10.3416 8.91662 10.7876 8.52495 11.2629 8.17495C11.7376 7.82495 12.3582 7.64995 13.1249 7.64995H15.9499C15.9832 7.01662 15.8042 6.47895 15.4129 6.03695C15.0209 5.59562 14.5416 5.37495 13.9749 5.37495C13.6582 5.37495 13.3832 5.41228 13.1499 5.48695C12.9166 5.56228 12.7749 5.61662 12.7249 5.64995L12.0749 5.09995C11.8916 4.94995 11.6542 4.80395 11.3629 4.66195C11.0709 4.52062 10.7166 4.44995 10.2999 4.44995C9.76657 4.44995 9.2749 4.59162 8.8249 4.87495C8.3749 5.15828 8.03324 5.54995 7.7999 6.04995L7.4999 6.67495L6.8249 6.92495C6.39157 7.05828 6.0459 7.29995 5.7879 7.64995C5.52924 7.99995 5.3999 8.40828 5.3999 8.87495ZM16.5249 16.675H18.2999C18.3832 16.675 18.4542 16.6456 18.5129 16.587C18.5709 16.529 18.5999 16.4583 18.5999 16.375V10.95C18.5999 10.8666 18.5709 10.7956 18.5129 10.737C18.4542 10.679 18.3832 10.65 18.2999 10.65H16.5249V16.675ZM8.5499 18.575H8.2249H15.0249H14.6999H8.5499Z" fill="#272443"/>
</g>
</svg>
