<svg width="24" height="24" viewBox="0 0 24 24" fill="none" xmlns="http://www.w3.org/2000/svg">
<mask id="mask0_287_950" style="mask-type:alpha" maskUnits="userSpaceOnUse" x="0" y="0" width="24" height="24">
<rect width="24" height="24" fill="#D9D9D9"/>
</mask>
<g mask="url(#mask0_287_950)">
<path d="M8.0999 18H15.9499C16.0332 18 16.1042 17.971 16.1629 17.913C16.2209 17.8543 16.2499 17.7833 16.2499 17.7L16.7499 10.85H7.2749L7.7749 17.7C7.79157 17.7833 7.82924 17.8543 7.8879 17.913C7.9459 17.971 8.01657 18 8.0999 18ZM7.1499 9.35H16.8499L16.9749 7.775L14.2249 5.075C14.2082 5.05833 14.1792 5.04167 14.1379 5.025C14.0959 5.00833 14.0582 5 14.0249 5H9.9749C9.94157 5 9.90424 5.00833 9.8629 5.025C9.8209 5.04167 9.79157 5.05833 9.7749 5.075L7.0249 7.775L7.1499 9.35ZM5.7499 10.65L2.8749 7.875C2.7249 7.74167 2.6499 7.571 2.6499 7.363C2.6499 7.15433 2.71657 6.975 2.8499 6.825C2.98324 6.675 3.15824 6.6 3.3749 6.6C3.59157 6.6 3.76657 6.66667 3.8999 6.8L5.5499 8.4L5.4749 7.25L8.6749 4.025C8.84157 3.85833 9.03757 3.729 9.2629 3.637C9.48757 3.54567 9.71657 3.5 9.9499 3.5H14.0499C14.2832 3.5 14.5126 3.54567 14.7379 3.637C14.9626 3.729 15.1582 3.85833 15.3249 4.025L18.5249 7.25L18.4499 8.4L20.0999 6.8C20.2332 6.66667 20.4082 6.6 20.6249 6.6C20.8416 6.6 21.0166 6.675 21.1499 6.825C21.2832 6.975 21.3499 7.15433 21.3499 7.363C21.3499 7.571 21.2749 7.74167 21.1249 7.875L18.2499 10.65H5.7499ZM8.0999 19.5C7.61657 19.5 7.1999 19.3417 6.8499 19.025C6.4999 18.7083 6.30824 18.3083 6.2749 17.825L5.7499 10.65H18.2499L17.7249 17.825C17.6916 18.3083 17.4999 18.7083 17.1499 19.025C16.7999 19.3417 16.3832 19.5 15.8999 19.5H8.0999Z" fill="#272443"/>
</g>
</svg>
