<svg width="24" height="24" viewBox="0 0 24 24" fill="none" xmlns="http://www.w3.org/2000/svg">
<mask id="mask0_287_782" style="mask-type:alpha" maskUnits="userSpaceOnUse" x="0" y="0" width="24" height="24">
<rect width="24" height="24" fill="#D9D9D9"/>
</mask>
<g mask="url(#mask0_287_782)">
<path d="M6.2001 20.3C5.61676 20.3 5.0461 20.175 4.4881 19.925C3.92943 19.675 3.46676 19.3416 3.1001 18.925C3.48343 18.8083 3.8461 18.575 4.1881 18.225C4.52943 17.875 4.7001 17.4 4.7001 16.8C4.7001 16.1 4.94176 15.5083 5.4251 15.025C5.90843 14.5416 6.5001 14.3 7.2001 14.3C7.9001 14.3 8.49176 14.5416 8.9751 15.025C9.45843 15.5083 9.7001 16.1 9.7001 16.8C9.7001 17.7666 9.35443 18.5916 8.6631 19.275C7.9711 19.9583 7.1501 20.3 6.2001 20.3ZM6.2001 18.8C6.7501 18.8 7.2211 18.604 7.6131 18.212C8.00443 17.8206 8.2001 17.35 8.2001 16.8C8.2001 16.5166 8.10443 16.279 7.9131 16.087C7.7211 15.8956 7.48343 15.8 7.2001 15.8C6.91676 15.8 6.67943 15.8956 6.4881 16.087C6.2961 16.279 6.2001 16.5166 6.2001 16.8C6.2001 17.1833 6.1541 17.5333 6.0621 17.85C5.97076 18.1666 5.8501 18.4666 5.7001 18.75C5.78343 18.7833 5.86676 18.8 5.9501 18.8H6.2001ZM11.5001 14.75L9.2751 12.525L17.8251 3.94996C18.0084 3.76663 18.2378 3.67063 18.5131 3.66196C18.7878 3.65396 19.0251 3.74996 19.2251 3.94996L20.0751 4.77496C20.2751 4.97496 20.3751 5.20829 20.3751 5.47496C20.3751 5.74163 20.2751 5.97496 20.0751 6.17496L11.5001 14.75Z" fill="#272443"/>
</g>
</svg>
