<svg width="24" height="24" viewBox="0 0 24 24" fill="none" xmlns="http://www.w3.org/2000/svg">
<mask id="mask0_287_794" style="mask-type:alpha" maskUnits="userSpaceOnUse" x="0" y="0" width="24" height="24">
<rect width="24" height="24" fill="#D9D9D9"/>
</mask>
<g mask="url(#mask0_287_794)">
<path d="M11 21.6C10.5833 21.6 10.2293 21.4544 9.93795 21.163C9.64595 20.871 9.49995 20.5167 9.49995 20.1V15.4H6.37495C5.87495 15.4 5.44995 15.225 5.09995 14.875C4.74995 14.525 4.57495 14.1 4.57495 13.6V6.70002C4.57495 5.80002 4.89995 5.02502 5.54995 4.37502C6.19995 3.72502 6.97495 3.40002 7.87495 3.40002H19.425V13.6C19.425 14.1 19.25 14.525 18.9 14.875C18.55 15.225 18.125 15.4 17.625 15.4H14.5V20.1C14.5 20.5167 14.354 20.871 14.062 21.163C13.7706 21.4544 13.4166 21.6 13 21.6H11ZM6.07495 10.2H17.925V4.90002H16.625V8.05002C16.625 8.26669 16.5543 8.44569 16.413 8.58702C16.271 8.72902 16.0916 8.80002 15.875 8.80002C15.675 8.80002 15.5 8.72902 15.35 8.58702C15.2 8.44569 15.125 8.26669 15.125 8.05002V4.90002H13.75V6.15002C13.75 6.36669 13.6793 6.54569 13.538 6.68702C13.396 6.82902 13.2166 6.90002 13 6.90002C12.7833 6.90002 12.6043 6.82902 12.463 6.68702C12.321 6.54569 12.25 6.36669 12.25 6.15002V4.90002H7.87495C7.37495 4.90002 6.94995 5.07502 6.59995 5.42502C6.24995 5.77502 6.07495 6.20002 6.07495 6.70002V10.2ZM6.37495 13.9H17.625C17.7083 13.9 17.779 13.8707 17.837 13.812C17.8956 13.754 17.925 13.6834 17.925 13.6V11.7H6.07495V13.6C6.07495 13.6834 6.10395 13.754 6.16195 13.812C6.22062 13.8707 6.29162 13.9 6.37495 13.9ZM6.07495 11.7V13.9V13.6V11.7Z" fill="#272443"/>
</g>
</svg>
