<svg width="24" height="24" viewBox="0 0 24 24" fill="none" xmlns="http://www.w3.org/2000/svg">
<mask id="mask0_287_806" style="mask-type:alpha" maskUnits="userSpaceOnUse" x="0" y="0" width="24" height="24">
<rect width="24" height="24" fill="#D9D9D9"/>
</mask>
<g mask="url(#mask0_287_806)">
<path d="M11.975 21.5C10.675 21.5 9.45 21.25 8.3 20.75C7.15 20.25 6.14567 19.5707 5.287 18.712C4.429 17.854 3.75 16.846 3.25 15.688C2.75 14.5293 2.5 13.3 2.5 12C2.5 10.6833 2.75833 9.44567 3.275 8.287C3.79167 7.129 4.48767 6.125 5.363 5.275C6.23767 4.425 7.26667 3.75 8.45 3.25C9.63333 2.75 10.8917 2.5 12.225 2.5C13.475 2.5 14.6583 2.71233 15.775 3.137C16.8917 3.56233 17.875 4.154 18.725 4.912C19.575 5.67067 20.25 6.56667 20.75 7.6C21.25 8.63333 21.5 9.75833 21.5 10.975C21.5 12.7083 20.9873 14.0623 19.962 15.037C18.9373 16.0123 17.6167 16.5 16 16.5H14.2C13.9 16.5 13.6667 16.5917 13.5 16.775C13.3333 16.9583 13.25 17.1833 13.25 17.45C13.25 17.75 13.375 18.0667 13.625 18.4C13.875 18.7333 14 19.1167 14 19.55C14 20.2167 13.8167 20.7083 13.45 21.025C13.0833 21.3417 12.5917 21.5 11.975 21.5ZM6.5 12.75C6.85 12.75 7.146 12.629 7.388 12.387C7.62933 12.1457 7.75 11.85 7.75 11.5C7.75 11.15 7.62933 10.8543 7.388 10.613C7.146 10.371 6.85 10.25 6.5 10.25C6.15 10.25 5.85433 10.371 5.613 10.613C5.371 10.8543 5.25 11.15 5.25 11.5C5.25 11.85 5.371 12.1457 5.613 12.387C5.85433 12.629 6.15 12.75 6.5 12.75ZM9.5 8.75C9.85 8.75 10.1457 8.629 10.387 8.387C10.629 8.14567 10.75 7.85 10.75 7.5C10.75 7.15 10.629 6.854 10.387 6.612C10.1457 6.37067 9.85 6.25 9.5 6.25C9.15 6.25 8.85433 6.37067 8.613 6.612C8.371 6.854 8.25 7.15 8.25 7.5C8.25 7.85 8.371 8.14567 8.613 8.387C8.85433 8.629 9.15 8.75 9.5 8.75ZM14.5 8.75C14.85 8.75 15.1457 8.629 15.387 8.387C15.629 8.14567 15.75 7.85 15.75 7.5C15.75 7.15 15.629 6.854 15.387 6.612C15.1457 6.37067 14.85 6.25 14.5 6.25C14.15 6.25 13.8543 6.37067 13.613 6.612C13.371 6.854 13.25 7.15 13.25 7.5C13.25 7.85 13.371 8.14567 13.613 8.387C13.8543 8.629 14.15 8.75 14.5 8.75ZM17.5 12.75C17.85 12.75 18.146 12.629 18.388 12.387C18.6293 12.1457 18.75 11.85 18.75 11.5C18.75 11.15 18.6293 10.8543 18.388 10.613C18.146 10.371 17.85 10.25 17.5 10.25C17.15 10.25 16.8543 10.371 16.613 10.613C16.371 10.8543 16.25 11.15 16.25 11.5C16.25 11.85 16.371 12.1457 16.613 12.387C16.8543 12.629 17.15 12.75 17.5 12.75ZM11.975 20C12.1417 20 12.271 19.9583 12.363 19.875C12.4543 19.7917 12.5 19.6833 12.5 19.55C12.5 19.3167 12.375 19.054 12.125 18.762C11.875 18.4707 11.75 18.0167 11.75 17.4C11.75 16.6833 11.9917 16.104 12.475 15.662C12.9583 15.2207 13.55 15 14.25 15H16C17.1833 15 18.146 14.654 18.888 13.962C19.6293 13.2707 20 12.275 20 10.975C20 8.95833 19.225 7.29167 17.675 5.975C16.125 4.65833 14.3083 4 12.225 4C9.94167 4 8 4.775 6.4 6.325C4.8 7.875 4 9.76667 4 12C4 14.2167 4.77933 16.1043 6.338 17.663C7.896 19.221 9.775 20 11.975 20Z" fill="#272443"/>
</g>
</svg>
