<svg width="24" height="24" viewBox="0 0 24 24" fill="none" xmlns="http://www.w3.org/2000/svg">
<mask id="mask0_287_599" style="mask-type:alpha" maskUnits="userSpaceOnUse" x="0" y="0" width="24" height="24">
<rect width="24" height="24" fill="#D9D9D9"/>
</mask>
<g mask="url(#mask0_287_599)">
<path d="M6.175 18.1C5.45833 18.1 4.846 17.8457 4.338 17.337C3.82933 16.829 3.575 16.2167 3.575 15.5H3.425C2.925 15.5 2.5 15.325 2.15 14.975C1.8 14.625 1.625 14.2 1.625 13.7V7C1.625 6.58333 1.77067 6.22933 2.062 5.938C2.354 5.646 2.70833 5.5 3.125 5.5H15.925C16.175 5.5 16.4043 5.54567 16.613 5.637C16.821 5.729 17.0083 5.85 17.175 6L21.85 10.525C22.0167 10.6917 22.146 10.8873 22.238 11.112C22.3293 11.3373 22.375 11.575 22.375 11.825V13.7C22.375 14.2 22.2 14.625 21.85 14.975C21.5 15.325 21.075 15.5 20.575 15.5C20.575 16.2167 20.3207 16.829 19.812 17.337C19.304 17.8457 18.6917 18.1 17.975 18.1C17.2583 18.1 16.646 17.8457 16.138 17.337C15.6293 16.829 15.375 16.2167 15.375 15.5H8.775C8.775 16.2167 8.525 16.829 8.025 17.337C7.525 17.8457 6.90833 18.1 6.175 18.1ZM14.625 10.3H19.35L16.05 7.075C16.0167 7.05833 15.9793 7.04167 15.938 7.025C15.896 7.00833 15.8583 7 15.825 7H14.625V10.3ZM8.875 10.3H13.125V7H8.875V10.3ZM3.125 10.3H7.375V7H3.125V10.3ZM6.175 16.75C6.525 16.75 6.82067 16.629 7.062 16.387C7.304 16.1457 7.425 15.85 7.425 15.5C7.425 15.15 7.304 14.8543 7.062 14.613C6.82067 14.371 6.525 14.25 6.175 14.25C5.825 14.25 5.52933 14.371 5.288 14.613C5.046 14.8543 4.925 15.15 4.925 15.5C4.925 15.85 5.046 16.1457 5.288 16.387C5.52933 16.629 5.825 16.75 6.175 16.75ZM17.975 16.75C18.325 16.75 18.621 16.629 18.863 16.387C19.1043 16.1457 19.225 15.85 19.225 15.5C19.225 15.15 19.1043 14.8543 18.863 14.613C18.621 14.371 18.325 14.25 17.975 14.25C17.625 14.25 17.329 14.371 17.087 14.613C16.8457 14.8543 16.725 15.15 16.725 15.5C16.725 15.85 16.8457 16.1457 17.087 16.387C17.329 16.629 17.625 16.75 17.975 16.75ZM3.425 14H4.125C4.325 13.7 4.60433 13.4417 4.963 13.225C5.321 13.0083 5.725 12.9 6.175 12.9C6.625 12.9 7.025 13.004 7.375 13.212C7.725 13.4207 8.01667 13.6833 8.25 14H15.9C16.1167 13.7 16.4043 13.4417 16.763 13.225C17.121 13.0083 17.525 12.9 17.975 12.9C18.425 12.9 18.825 13.004 19.175 13.212C19.525 13.4207 19.8083 13.6833 20.025 14H20.575C20.6583 14 20.7293 13.9707 20.788 13.912C20.846 13.854 20.875 13.7833 20.875 13.7V12.1C20.875 12 20.871 11.929 20.863 11.887C20.8543 11.8457 20.8333 11.8167 20.8 11.8H3.125V13.7C3.125 13.7833 3.15433 13.854 3.213 13.912C3.271 13.9707 3.34167 14 3.425 14Z" fill="#272443"/>
</g>
</svg>
