<svg width="24" height="24" viewBox="0 0 24 24" fill="none" xmlns="http://www.w3.org/2000/svg">
<mask id="mask0_287_605" style="mask-type:alpha" maskUnits="userSpaceOnUse" x="0" y="0" width="24" height="24">
<rect width="24" height="24" fill="#D9D9D9"/>
</mask>
<g mask="url(#mask0_287_605)">
<path d="M0.125 18.75V17.25H4.425C4.575 16.0833 5.046 15.0707 5.838 14.212C6.62933 13.354 7.58333 12.8 8.7 12.55L7.225 5.975C7.20833 5.90833 7.171 5.854 7.113 5.812C7.05433 5.77067 6.99167 5.75 6.925 5.75H4.125C3.90833 5.75 3.72933 5.679 3.588 5.537C3.446 5.39567 3.375 5.21667 3.375 5C3.375 4.78333 3.446 4.604 3.588 4.462C3.72933 4.32067 3.90833 4.25 4.125 4.25H6.925C7.325 4.25 7.696 4.379 8.038 4.637C8.37933 4.89567 8.59167 5.23333 8.675 5.65L10.55 13.875H10C8.86667 13.875 7.896 14.2833 7.088 15.1C6.27933 15.9167 5.875 16.8917 5.875 18.025V18.75H0.125ZM10 20.775C9.23333 20.775 8.58333 20.5083 8.05 19.975C7.51667 19.4417 7.25 18.7917 7.25 18.025C7.25 17.2583 7.51667 16.6083 8.05 16.075C8.58333 15.5417 9.23333 15.275 10 15.275C10.7667 15.275 11.4167 15.5417 11.95 16.075C12.4833 16.6083 12.75 17.2583 12.75 18.025C12.75 18.7917 12.4833 19.4417 11.95 19.975C11.4167 20.5083 10.7667 20.775 10 20.775ZM10 19.275C10.35 19.275 10.6457 19.1543 10.887 18.913C11.129 18.671 11.25 18.375 11.25 18.025C11.25 17.675 11.129 17.379 10.887 17.137C10.6457 16.8957 10.35 16.775 10 16.775C9.65 16.775 9.35433 16.8957 9.113 17.137C8.871 17.379 8.75 17.675 8.75 18.025C8.75 18.375 8.871 18.671 9.113 18.913C9.35433 19.1543 9.65 19.275 10 19.275ZM19.125 17.725C17.9417 17.725 16.9127 17.3583 16.038 16.625C15.1627 15.8917 14.625 14.9333 14.425 13.75H11.9L11.575 12.25H14.425C14.4917 11.8333 14.6333 11.3833 14.85 10.9C15.0667 10.4167 15.3667 10.025 15.75 9.725H11.025L10.7 8.225H16.525L15.175 4.55C15.1583 4.48333 15.1293 4.43733 15.088 4.412C15.046 4.38733 14.9917 4.375 14.925 4.375H12.125C11.9083 4.375 11.7293 4.3 11.588 4.15C11.446 4 11.375 3.825 11.375 3.625C11.375 3.40833 11.446 3.229 11.588 3.087C11.7293 2.94567 11.9083 2.875 12.125 2.875H14.925C15.3083 2.875 15.65 2.975 15.95 3.175C16.25 3.375 16.4667 3.65 16.6 4L18.15 8.2H19.125C20.4417 8.2 21.5627 8.65833 22.488 9.575C23.4127 10.4917 23.875 11.6167 23.875 12.95C23.875 14.2833 23.404 15.4123 22.462 16.337C21.5207 17.2623 20.4083 17.725 19.125 17.725ZM19.125 16.25C20.0417 16.25 20.8127 15.9333 21.438 15.3C22.0627 14.6667 22.375 13.9 22.375 13C22.375 12.0833 22.0627 11.3127 21.438 10.688C20.8127 10.0627 20.0417 9.75 19.125 9.75H18.875C18.8083 9.75 18.7417 9.76667 18.675 9.8L19.425 11.775C19.4917 11.9917 19.4793 12.1917 19.388 12.375C19.296 12.5583 19.1583 12.6833 18.975 12.75C18.775 12.8333 18.5833 12.8293 18.4 12.738C18.2167 12.646 18.0833 12.5083 18 12.325L17.3 10.325C16.85 10.625 16.5 11.0123 16.25 11.487C16 11.9623 15.875 12.4667 15.875 13C15.875 13.9 16.1833 14.6667 16.8 15.3C17.4167 15.9333 18.1917 16.25 19.125 16.25Z" fill="#272443"/>
</g>
</svg>
