<svg width="24" height="24" viewBox="0 0 24 24" fill="none" xmlns="http://www.w3.org/2000/svg">
<mask id="mask0_287_635" style="mask-type:alpha" maskUnits="userSpaceOnUse" x="0" y="0" width="24" height="24">
<rect width="24" height="24" fill="#D9D9D9"/>
</mask>
<g mask="url(#mask0_287_635)">
<path d="M6.775 20.225C6.64167 20.225 6.52933 20.179 6.438 20.087C6.346 19.9957 6.3 19.875 6.3 19.725C6.3 19.6583 6.321 19.5793 6.363 19.488C6.40433 19.396 6.45833 19.325 6.525 19.275L7.7 18.5C6.8 18.5 6.04167 18.1917 5.425 17.575C4.80833 16.9583 4.5 16.2 4.5 15.3V6C4.5 4.78333 5.09167 3.89567 6.275 3.337C7.45833 2.779 9.36667 2.5 12 2.5C14.6833 2.5 16.6043 2.77067 17.763 3.312C18.921 3.854 19.5 4.75 19.5 6V15.3C19.5 16.2 19.1917 16.9583 18.575 17.575C17.9583 18.1917 17.2 18.5 16.3 18.5L17.475 19.275C17.5417 19.325 17.5957 19.3917 17.637 19.475C17.679 19.5583 17.7 19.6417 17.7 19.725C17.7 19.875 17.654 19.9957 17.562 20.087C17.4707 20.179 17.35 20.225 17.2 20.225H6.775ZM6 10.5H18V6.775H6V10.5ZM12 15.8C12.3667 15.8 12.675 15.675 12.925 15.425C13.175 15.175 13.3 14.8667 13.3 14.5C13.3 14.1333 13.175 13.825 12.925 13.575C12.675 13.325 12.3667 13.2 12 13.2C11.6333 13.2 11.325 13.325 11.075 13.575C10.825 13.825 10.7 14.1333 10.7 14.5C10.7 14.8667 10.825 15.175 11.075 15.425C11.325 15.675 11.6333 15.8 12 15.8ZM7.7 17H16.3C16.7833 17 17.1877 16.8373 17.513 16.512C17.8377 16.1873 18 15.7833 18 15.3V12H6V15.3C6 15.7833 6.16267 16.1873 6.488 16.512C6.81267 16.8373 7.21667 17 7.7 17ZM12 4C10.3667 4 9.07933 4.104 8.138 4.312C7.196 4.52067 6.575 4.84167 6.275 5.275H17.775C17.5417 4.84167 16.95 4.52067 16 4.312C15.05 4.104 13.7167 4 12 4Z" fill="#272443"/>
</g>
</svg>
