<svg width="24" height="24" viewBox="0 0 24 24" fill="none" xmlns="http://www.w3.org/2000/svg">
<mask id="mask0_287_611" style="mask-type:alpha" maskUnits="userSpaceOnUse" x="0" y="0" width="24" height="24">
<rect width="24" height="24" fill="#D9D9D9"/>
</mask>
<g mask="url(#mask0_287_611)">
<path d="M15.3 5.44995C14.8167 5.44995 14.404 5.27895 14.062 4.93695C13.7207 4.59562 13.55 4.18328 13.55 3.69995C13.55 3.21662 13.7207 2.80395 14.062 2.46195C14.404 2.12062 14.8167 1.94995 15.3 1.94995C15.7833 1.94995 16.196 2.12062 16.538 2.46195C16.8793 2.80395 17.05 3.21662 17.05 3.69995C17.05 4.18328 16.8793 4.59562 16.538 4.93695C16.196 5.27895 15.7833 5.44995 15.3 5.44995ZM12 18.75C11.7833 18.75 11.6043 18.6793 11.463 18.538C11.321 18.396 11.25 18.2166 11.25 18V13.775L7.925 11.075C7.725 10.9083 7.58333 10.729 7.5 10.537C7.41667 10.3456 7.375 10.1166 7.375 9.84995C7.375 9.58329 7.421 9.35828 7.513 9.17495C7.60433 8.99162 7.74167 8.80828 7.925 8.62495L10.775 5.77495C10.9583 5.59162 11.1583 5.45828 11.375 5.37495C11.5917 5.29162 11.8333 5.24995 12.1 5.24995C12.3667 5.24995 12.6083 5.29162 12.825 5.37495C13.0417 5.45828 13.2417 5.59162 13.425 5.77495L15.325 7.67495C15.6917 8.04162 16.1123 8.35828 16.587 8.62495C17.0623 8.89162 17.5917 9.07495 18.175 9.17495C18.375 9.20828 18.5377 9.29595 18.663 9.43795C18.7877 9.57928 18.85 9.74162 18.85 9.92495C18.85 10.175 18.771 10.3706 18.613 10.512C18.4543 10.654 18.2583 10.7083 18.025 10.675C17.2583 10.5583 16.5543 10.3333 15.913 9.99995C15.271 9.66662 14.6917 9.24162 14.175 8.72495L13.2 7.74995L10.5 10.45L12.25 12.275C12.4167 12.425 12.5417 12.6123 12.625 12.837C12.7083 13.0623 12.75 13.2833 12.75 13.5V18C12.75 18.2166 12.6793 18.396 12.538 18.538C12.396 18.6793 12.2167 18.75 12 18.75ZM5.2 21.7C3.86667 21.7 2.75 21.25 1.85 20.35C0.95 19.45 0.5 18.3333 0.5 17C0.5 15.6666 0.95 14.55 1.85 13.65C2.75 12.75 3.86667 12.3 5.2 12.3C6.51667 12.3 7.625 12.75 8.525 13.65C9.425 14.55 9.875 15.6666 9.875 17C9.875 18.3333 9.425 19.45 8.525 20.35C7.625 21.25 6.51667 21.7 5.2 21.7ZM5.2 20.5C6.15 20.5 6.971 20.1583 7.663 19.475C8.35433 18.7916 8.7 17.9666 8.7 17C8.7 16.0333 8.35433 15.2083 7.663 14.525C6.971 13.8416 6.15 13.5 5.2 13.5C4.23333 13.5 3.40833 13.8416 2.725 14.525C2.04167 15.2083 1.7 16.0333 1.7 17C1.7 17.9666 2.04167 18.7916 2.725 19.475C3.40833 20.1583 4.23333 20.5 5.2 20.5ZM18.8 21.7C17.4833 21.7 16.375 21.25 15.475 20.35C14.575 19.45 14.125 18.3333 14.125 17C14.125 15.6666 14.575 14.55 15.475 13.65C16.375 12.75 17.4833 12.3 18.8 12.3C20.1333 12.3 21.25 12.75 22.15 13.65C23.05 14.55 23.5 15.6666 23.5 17C23.5 18.3333 23.05 19.45 22.15 20.35C21.25 21.25 20.1333 21.7 18.8 21.7ZM18.8 20.5C19.7667 20.5 20.5917 20.1583 21.275 19.475C21.9583 18.7916 22.3 17.9666 22.3 17C22.3 16.0333 21.9583 15.2083 21.275 14.525C20.5917 13.8416 19.7667 13.5 18.8 13.5C17.85 13.5 17.029 13.8416 16.337 14.525C15.6457 15.2083 15.3 16.0333 15.3 17C15.3 17.9666 15.6457 18.7916 16.337 19.475C17.029 20.1583 17.85 20.5 18.8 20.5Z" fill="#272443"/>
</g>
</svg>
