<svg width="24" height="24" viewBox="0 0 24 24" fill="none" xmlns="http://www.w3.org/2000/svg">
<mask id="mask0_287_662" style="mask-type:alpha" maskUnits="userSpaceOnUse" x="0" y="0" width="24" height="24">
<rect width="24" height="24" fill="#D9D9D9"/>
</mask>
<g mask="url(#mask0_287_662)">
<path d="M8.575 18.55L10.7 14.95H9.425V12.175L7.3 15.8H8.575V18.55ZM6 10.25H12V5.3C12 5.23333 11.9667 5.16667 11.9 5.1C11.8333 5.03333 11.7667 5 11.7 5H6.3C6.23333 5 6.16667 5.03333 6.1 5.1C6.03333 5.16667 6 5.23333 6 5.3V10.25ZM6 19H12V11.75H6V19ZM12.6 20.5H5.4C5.15 20.5 4.93767 20.4127 4.763 20.238C4.58767 20.0627 4.5 19.85 4.5 19.6V5.3C4.5 4.8 4.675 4.375 5.025 4.025C5.375 3.675 5.8 3.5 6.3 3.5H11.7C12.2 3.5 12.625 3.675 12.975 4.025C13.325 4.375 13.5 4.8 13.5 5.3V11.8H14.625C15.075 11.8 15.4627 11.9623 15.788 12.287C16.1127 12.6123 16.275 13 16.275 13.45V18.075C16.275 18.3917 16.4043 18.675 16.663 18.925C16.921 19.175 17.2167 19.3 17.55 19.3C17.9 19.3 18.2 19.175 18.45 18.925C18.7 18.675 18.825 18.3917 18.825 18.075V8.95H18.525C18.275 8.95 18.0627 8.86267 17.888 8.688C17.7127 8.51267 17.625 8.3 17.625 8.05V6.7C17.625 6.58333 17.671 6.479 17.763 6.387C17.8543 6.29567 17.9583 6.25 18.075 6.25V5.375C18.075 5.25833 18.1207 5.15833 18.212 5.075C18.304 4.99167 18.4083 4.95 18.525 4.95C18.6417 4.95 18.7417 4.99167 18.825 5.075C18.9083 5.15833 18.95 5.25833 18.95 5.375V6.25H19.875V5.375C19.875 5.25833 19.921 5.15833 20.013 5.075C20.1043 4.99167 20.2083 4.95 20.325 4.95C20.4417 4.95 20.546 4.99167 20.638 5.075C20.7293 5.15833 20.775 5.25833 20.775 5.375V6.25C20.8917 6.25 20.996 6.29567 21.088 6.387C21.1793 6.479 21.225 6.58333 21.225 6.7V8.05C21.225 8.3 21.1377 8.51267 20.963 8.688C20.7877 8.86267 20.575 8.95 20.325 8.95H20.025V18.075C20.025 18.725 19.7833 19.2917 19.3 19.775C18.8167 20.2583 18.2333 20.5 17.55 20.5C16.8833 20.5 16.304 20.2583 15.812 19.775C15.3207 19.2917 15.075 18.725 15.075 18.075V13.45C15.075 13.3167 15.0333 13.2083 14.95 13.125C14.8667 13.0417 14.7583 13 14.625 13H13.5V19.6C13.5 19.85 13.4127 20.0627 13.238 20.238C13.0627 20.4127 12.85 20.5 12.6 20.5Z" fill="#272443"/>
</g>
</svg>
