<svg width="24" height="24" viewBox="0 0 24 24" fill="none" xmlns="http://www.w3.org/2000/svg">
<mask id="mask0_287_1316" style="mask-type:alpha" maskUnits="userSpaceOnUse" x="0" y="0" width="24" height="24">
<rect width="24" height="24" fill="#D9D9D9"/>
</mask>
<g mask="url(#mask0_287_1316)">
<path d="M5.4 20.5C5.15 20.5 4.93767 20.4127 4.763 20.238C4.58767 20.0627 4.5 19.85 4.5 19.6V5.3C4.5 4.8 4.675 4.375 5.025 4.025C5.375 3.675 5.8 3.5 6.3 3.5H11.7C12.2 3.5 12.625 3.675 12.975 4.025C13.325 4.375 13.5 4.8 13.5 5.3V11.8H14.45C14.95 11.8 15.3793 11.979 15.738 12.337C16.096 12.6957 16.275 13.125 16.275 13.625V18.15C16.275 18.4667 16.3877 18.7373 16.613 18.962C16.8377 19.1873 17.1083 19.3 17.425 19.3C17.7417 19.3 18.0127 19.1873 18.238 18.962C18.4627 18.7373 18.575 18.4667 18.575 18.15V11.15C18.425 11.2333 18.2667 11.2917 18.1 11.325C17.9333 11.3583 17.7583 11.375 17.575 11.375C16.9583 11.375 16.4377 11.1667 16.013 10.75C15.5877 10.3333 15.375 9.81667 15.375 9.2C15.375 8.7 15.5167 8.25833 15.8 7.875C16.0833 7.49167 16.4583 7.23333 16.925 7.1L15.1 5.25C14.9833 5.13333 14.921 4.99567 14.913 4.837C14.9043 4.679 14.9667 4.54167 15.1 4.425C15.2167 4.30833 15.354 4.24567 15.512 4.237C15.6707 4.229 15.8083 4.28333 15.925 4.4L19.075 7.5C19.3083 7.73333 19.4833 7.99567 19.6 8.287C19.7167 8.579 19.775 8.88333 19.775 9.2V18.15C19.775 18.8167 19.546 19.375 19.088 19.825C18.6293 20.275 18.075 20.5 17.425 20.5C16.775 20.5 16.2207 20.275 15.762 19.825C15.304 19.375 15.075 18.8167 15.075 18.15V13.3C15.075 13.2167 15.046 13.1457 14.988 13.087C14.9293 13.029 14.8583 13 14.775 13H13.5V19.6C13.5 19.85 13.4127 20.0627 13.238 20.238C13.0627 20.4127 12.85 20.5 12.6 20.5H5.4ZM6 10.25H12V5.3C12 5.23333 11.9667 5.16667 11.9 5.1C11.8333 5.03333 11.7667 5 11.7 5H6.3C6.23333 5 6.16667 5.03333 6.1 5.1C6.03333 5.16667 6 5.23333 6 5.3V10.25ZM17.575 10.2C17.8583 10.2 18.096 10.104 18.288 9.912C18.4793 9.72067 18.575 9.48333 18.575 9.2C18.575 8.91667 18.4793 8.679 18.288 8.487C18.096 8.29567 17.8583 8.2 17.575 8.2C17.2917 8.2 17.0543 8.29567 16.863 8.487C16.671 8.679 16.575 8.91667 16.575 9.2C16.575 9.48333 16.671 9.72067 16.863 9.912C17.0543 10.104 17.2917 10.2 17.575 10.2ZM6 19H12V11.75H6V19Z" fill="#272443"/>
</g>
</svg>
