<svg width="24" height="24" viewBox="0 0 24 24" fill="none" xmlns="http://www.w3.org/2000/svg">
<mask id="mask0_287_1127" style="mask-type:alpha" maskUnits="userSpaceOnUse" x="0" y="0" width="24" height="24">
<rect width="24" height="24" fill="#D9D9D9"/>
</mask>
<g mask="url(#mask0_287_1127)">
<path d="M5.8501 19.55C5.06676 19.55 4.4041 19.2793 3.8621 18.738C3.32076 18.196 3.0501 17.5333 3.0501 16.75C2.58343 16.7167 2.18343 16.525 1.8501 16.175C1.51676 15.825 1.3501 15.4167 1.3501 14.95V6.3C1.3501 5.8 1.5251 5.375 1.8751 5.025C2.2251 4.675 2.6501 4.5 3.1501 4.5H14.9501C15.4501 4.5 15.8794 4.675 16.2381 5.025C16.5961 5.375 16.7751 5.8 16.7751 6.3V8.3H18.9751C19.1251 8.3 19.2584 8.33333 19.3751 8.4C19.4918 8.46667 19.6001 8.55833 19.7001 8.675L22.4751 12.4C22.5418 12.4667 22.5878 12.5457 22.6131 12.637C22.6378 12.729 22.6501 12.825 22.6501 12.925V15.85C22.6501 16.1 22.5628 16.3127 22.3881 16.488C22.2128 16.6627 22.0001 16.75 21.7501 16.75H20.8501C20.8501 17.5333 20.5751 18.196 20.0251 18.738C19.4751 19.2793 18.8084 19.55 18.0251 19.55C17.2584 19.55 16.6001 19.2793 16.0501 18.738C15.5001 18.196 15.2251 17.5333 15.2251 16.75H8.6501C8.6501 17.5333 8.37943 18.196 7.8381 18.738C7.2961 19.2793 6.63343 19.55 5.8501 19.55ZM5.8501 18.05C6.21676 18.05 6.5251 17.925 6.7751 17.675C7.0251 17.425 7.1501 17.1167 7.1501 16.75C7.1501 16.3833 7.0251 16.075 6.7751 15.825C6.5251 15.575 6.21676 15.45 5.8501 15.45C5.48343 15.45 5.1751 15.575 4.9251 15.825C4.6751 16.075 4.5501 16.3833 4.5501 16.75C4.5501 17.1167 4.6751 17.425 4.9251 17.675C5.1751 17.925 5.48343 18.05 5.8501 18.05ZM2.8501 6.3V14.95C2.8501 14.9833 2.8541 15.0167 2.8621 15.05C2.87076 15.0833 2.88776 15.1123 2.9131 15.137L2.9881 15.212C3.01276 15.2373 3.04176 15.25 3.0751 15.25H3.5751C3.79176 14.8833 4.1001 14.575 4.5001 14.325C4.9001 14.075 5.3501 13.95 5.8501 13.95C6.33343 13.95 6.77943 14.0707 7.1881 14.312C7.5961 14.554 7.90843 14.8667 8.1251 15.25H15.2751V6.3C15.2751 6.21667 15.2461 6.146 15.1881 6.088C15.1294 6.02933 15.0501 6 14.9501 6H3.1501C3.06676 6 2.9961 6.02933 2.9381 6.088C2.87943 6.146 2.8501 6.21667 2.8501 6.3ZM18.0501 18.05C18.4168 18.05 18.7251 17.925 18.9751 17.675C19.2251 17.425 19.3501 17.1167 19.3501 16.75C19.3501 16.3833 19.2251 16.075 18.9751 15.825C18.7251 15.575 18.4168 15.45 18.0501 15.45C17.6834 15.45 17.3711 15.575 17.1131 15.825C16.8544 16.075 16.7251 16.3833 16.7251 16.75C16.7251 17.1167 16.8544 17.425 17.1131 17.675C17.3711 17.925 17.6834 18.05 18.0501 18.05ZM16.7751 13.25H21.2501L18.6501 9.8H16.7751V13.25Z" fill="#272443"/>
</g>
</svg>
