<svg width="24" height="24" viewBox="0 0 24 24" fill="none" xmlns="http://www.w3.org/2000/svg">
<mask id="mask0_287_668" style="mask-type:alpha" maskUnits="userSpaceOnUse" x="0" y="0" width="24" height="24">
<rect width="24" height="24" fill="#D9D9D9"/>
</mask>
<g mask="url(#mask0_287_668)">
<path d="M5.19995 18.5C3.94995 18.5 2.88762 18.0627 2.01295 17.188C1.13762 16.3127 0.699951 15.25 0.699951 14C0.699951 12.75 1.13762 11.6873 2.01295 10.812C2.88762 9.93733 3.94995 9.5 5.19995 9.5H16.9L14.4 7H11.95C11.7333 7 11.5543 6.929 11.413 6.787C11.271 6.64567 11.2 6.46667 11.2 6.25C11.2 6.03333 11.271 5.85433 11.413 5.713C11.5543 5.571 11.7333 5.5 11.95 5.5H14.65C14.7666 5.5 14.8793 5.52067 14.988 5.562C15.096 5.604 15.1916 5.675 15.275 5.775L19.0499 9.525C20.2499 9.575 21.2583 10.0333 22.075 10.9C22.8916 11.7667 23.2999 12.8 23.2999 14C23.2999 15.25 22.8626 16.3127 21.988 17.188C21.1126 18.0627 20.0499 18.5 18.7999 18.5C17.5499 18.5 16.4876 18.0627 15.613 17.188C14.7376 16.3127 14.3 15.25 14.3 14C14.3 13.5833 14.371 13.1873 14.513 12.812C14.6543 12.4373 14.85 12.0917 15.1 11.775H14.25L11.8 14.225C11.6333 14.3917 11.4376 14.521 11.213 14.613C10.9876 14.7043 10.7583 14.75 10.525 14.75H9.59995C9.43329 15.8333 8.93329 16.7293 8.09995 17.438C7.26662 18.146 6.29995 18.5 5.19995 18.5ZM18.7999 17C19.6333 17 20.3416 16.7083 20.9249 16.125C21.5083 15.5417 21.7999 14.8333 21.7999 14C21.7999 13.1667 21.5083 12.4583 20.9249 11.875C20.3416 11.2917 19.6333 11 18.7999 11C17.9666 11 17.2583 11.2917 16.675 11.875C16.0916 12.4583 15.8 13.1667 15.8 14C15.8 14.8333 16.0916 15.5417 16.675 16.125C17.2583 16.7083 17.9666 17 18.7999 17ZM5.19995 17C5.88328 17 6.48762 16.7877 7.01295 16.363C7.53762 15.9377 7.89162 15.4 8.07495 14.75H5.94995C5.73328 14.75 5.55395 14.679 5.41195 14.537C5.27062 14.3957 5.19995 14.2167 5.19995 14C5.19995 13.7833 5.27062 13.604 5.41195 13.462C5.55395 13.3207 5.73328 13.25 5.94995 13.25H8.07495C7.89162 12.6 7.53762 12.0623 7.01295 11.637C6.48762 11.2123 5.88328 11 5.19995 11C4.36662 11 3.65828 11.2917 3.07495 11.875C2.49162 12.4583 2.19995 13.1667 2.19995 14C2.19995 14.8333 2.49162 15.5417 3.07495 16.125C3.65828 16.7083 4.36662 17 5.19995 17ZM9.64995 13.25H10.5C10.5333 13.25 10.5666 13.2417 10.6 13.225L10.7 13.175L12.875 11H8.44995C8.78328 11.2833 9.05428 11.6207 9.26295 12.012C9.47095 12.404 9.59995 12.8167 9.64995 13.25Z" fill="#272443"/>
</g>
</svg>
