<svg width="24" height="24" viewBox="0 0 24 24" fill="none" xmlns="http://www.w3.org/2000/svg">
<mask id="mask0_287_680" style="mask-type:alpha" maskUnits="userSpaceOnUse" x="0" y="0" width="24" height="24">
<rect width="24" height="24" fill="#D9D9D9"/>
</mask>
<g mask="url(#mask0_287_680)">
<path d="M23.5001 18.15C23.2668 18.6333 22.9251 19.0207 22.4751 19.312C22.0251 19.604 21.5251 19.75 20.9751 19.75H15.9751C15.7584 19.75 15.5794 19.6793 15.4381 19.538C15.2961 19.396 15.2251 19.2167 15.2251 19C15.2251 18.7833 15.2961 18.604 15.4381 18.462C15.5794 18.3207 15.7584 18.25 15.9751 18.25H18.5251L15.9251 15.75H11.6501C11.6501 16.9 11.2544 17.8543 10.4631 18.613C9.6711 19.371 8.68343 19.75 7.5001 19.75H1.9751C1.4251 19.75 0.996098 19.5667 0.688098 19.2C0.379431 18.8333 0.225098 18.4333 0.225098 18C0.225098 17.7 0.300098 17.4127 0.450098 17.138C0.600098 16.8627 0.833431 16.6417 1.1501 16.475L5.2251 14.275L1.7751 13.275C1.3751 13.1583 1.1001 12.929 0.950098 12.587C0.800098 12.2457 0.825098 11.8917 1.0251 11.525L1.4501 10.6C1.63343 10.2333 1.93343 9.93333 2.3501 9.7C2.76676 9.46667 3.18343 9.375 3.6001 9.425L11.0501 10.275L14.4251 7.75L13.3251 6.75H11.8001C11.5834 6.75 11.4044 6.679 11.2631 6.537C11.1211 6.39567 11.0501 6.21667 11.0501 6C11.0501 5.78333 11.1211 5.60433 11.2631 5.463C11.4044 5.321 11.5834 5.25 11.8001 5.25H13.5751C13.6918 5.25 13.8001 5.27067 13.9001 5.312C14.0001 5.354 14.1001 5.41667 14.2001 5.5L21.1001 11.925C21.3334 12.1417 21.4961 12.3623 21.5881 12.587C21.6794 12.8123 21.7251 13.0333 21.7251 13.25C21.7251 13.9 21.4711 14.4793 20.9631 14.988C20.4544 15.496 19.6751 15.75 18.6251 15.75H18.0251L20.7001 18.25H20.9751C21.2084 18.25 21.4251 18.1917 21.6251 18.075C21.8251 17.9583 21.9918 17.8 22.1251 17.6C22.2084 17.45 22.3044 17.3373 22.4131 17.262C22.5211 17.1873 22.6334 17.15 22.7501 17.15C23.0501 17.15 23.2834 17.2583 23.4501 17.475C23.6168 17.6917 23.6334 17.9167 23.5001 18.15ZM1.9751 18.25H7.5001C8.26676 18.25 8.9001 18.0167 9.4001 17.55C9.9001 17.0833 10.1501 16.475 10.1501 15.725L7.2501 14.875L1.9501 17.725C1.9001 17.7583 1.8501 17.7957 1.8001 17.837C1.7501 17.879 1.7251 17.9333 1.7251 18C1.7251 18.0667 1.7501 18.125 1.8001 18.175C1.8501 18.225 1.90843 18.25 1.9751 18.25ZM10.4251 14.25H18.5501C19.0834 14.25 19.4961 14.1707 19.7881 14.012C20.0794 13.854 20.2251 13.5667 20.2251 13.15L15.5251 8.8L11.4751 11.825L2.9751 10.875L2.4751 11.9L10.4251 14.25Z" fill="#272443"/>
</g>
</svg>
