<svg width="24" height="24" viewBox="0 0 24 24" fill="none" xmlns="http://www.w3.org/2000/svg">
<mask id="mask0_287_686" style="mask-type:alpha" maskUnits="userSpaceOnUse" x="0" y="0" width="24" height="24">
<rect width="24" height="24" fill="#D9D9D9"/>
</mask>
<g mask="url(#mask0_287_686)">
<path d="M7.1 22.4501C6.86667 22.3667 6.72067 22.204 6.662 21.962C6.604 21.7207 6.66667 21.5167 6.85 21.35L7.7 20.5C6.8 20.5 6.04167 20.1917 5.425 19.5751C4.80833 18.9584 4.5 18.2 4.5 17.3V8.00005C4.5 6.58338 5.16233 5.65838 6.487 5.22505C7.81233 4.79172 9.39167 4.55005 11.225 4.50005L11.975 3.00005H7.625C7.45833 3.00005 7.321 2.94172 7.213 2.82505C7.10433 2.70838 7.05 2.56672 7.05 2.40005C7.05 2.23338 7.10433 2.09172 7.213 1.97505C7.321 1.85838 7.45833 1.80005 7.625 1.80005H16.375C16.5417 1.80005 16.6793 1.85838 16.788 1.97505C16.896 2.09172 16.95 2.23338 16.95 2.40005C16.95 2.56672 16.896 2.70838 16.788 2.82505C16.6793 2.94172 16.5417 3.00005 16.375 3.00005H13.525L12.775 4.50005C14.6917 4.55005 16.2917 4.78738 17.575 5.21205C18.8583 5.63738 19.5 6.56672 19.5 8.00005V17.3C19.5 18.2 19.1917 18.9584 18.575 19.5751C17.9583 20.1917 17.2 20.5 16.3 20.5L17.15 21.35C17.3167 21.5167 17.375 21.7207 17.325 21.962C17.275 22.204 17.1333 22.3667 16.9 22.4501C16.7667 22.5001 16.6417 22.5167 16.525 22.5C16.4083 22.4834 16.3 22.4167 16.2 22.3L14.375 20.5H9.625L7.8 22.3C7.7 22.4 7.59167 22.4624 7.475 22.487C7.35833 22.5124 7.23333 22.5001 7.1 22.4501ZM12 17.8C12.3667 17.8 12.675 17.675 12.925 17.425C13.175 17.175 13.3 16.8667 13.3 16.5C13.3 16.1334 13.175 15.825 12.925 15.575C12.675 15.325 12.3667 15.2 12 15.2C11.6333 15.2 11.325 15.325 11.075 15.575C10.825 15.825 10.7 16.1334 10.7 16.5C10.7 16.8667 10.825 17.175 11.075 17.425C11.325 17.675 11.6333 17.8 12 17.8ZM6 12.5H18V8.77505H6V12.5ZM7.7 19H16.3C16.7833 19 17.1877 18.8374 17.513 18.512C17.8377 18.1874 18 17.7834 18 17.3V14H6V17.3C6 17.7834 6.16267 18.1874 6.488 18.512C6.81267 18.8374 7.21667 19 7.7 19ZM11.975 6.00005C9.825 6.00005 8.37933 6.12905 7.638 6.38705C6.896 6.64572 6.43333 6.94172 6.25 7.27505H17.775C17.6083 6.90838 17.1417 6.60405 16.375 6.36205C15.6083 6.12072 14.1417 6.00005 11.975 6.00005Z" fill="#272443"/>
</g>
</svg>
