<svg width="24" height="24" viewBox="0 0 24 24" fill="none" xmlns="http://www.w3.org/2000/svg">
<mask id="mask0_287_512" style="mask-type:alpha" maskUnits="userSpaceOnUse" x="0" y="0" width="24" height="24">
<rect width="24" height="24" fill="#D9D9D9"/>
</mask>
<g mask="url(#mask0_287_512)">
<path d="M8 13.95C7.75 13.95 7.54167 13.8627 7.375 13.688C7.20833 13.5127 7.125 13.3 7.125 13.05C7.125 12.8167 7.20833 12.6127 7.375 12.438C7.54167 12.2627 7.75 12.175 8 12.175C8.25 12.175 8.45833 12.2627 8.625 12.438C8.79167 12.6127 8.875 12.8167 8.875 13.05C8.875 13.3 8.79167 13.5127 8.625 13.688C8.45833 13.8627 8.25 13.95 8 13.95ZM12 13.95C11.75 13.95 11.5417 13.8627 11.375 13.688C11.2083 13.5127 11.125 13.3 11.125 13.05C11.125 12.8167 11.2083 12.6127 11.375 12.438C11.5417 12.2627 11.75 12.175 12 12.175C12.25 12.175 12.4583 12.2627 12.625 12.438C12.7917 12.6127 12.875 12.8167 12.875 13.05C12.875 13.3 12.7917 13.5127 12.625 13.688C12.4583 13.8627 12.25 13.95 12 13.95ZM16 13.95C15.75 13.95 15.5417 13.8627 15.375 13.688C15.2083 13.5127 15.125 13.3 15.125 13.05C15.125 12.8167 15.2083 12.6127 15.375 12.438C15.5417 12.2627 15.75 12.175 16 12.175C16.25 12.175 16.4583 12.2627 16.625 12.438C16.7917 12.6127 16.875 12.8167 16.875 13.05C16.875 13.3 16.7917 13.5127 16.625 13.688C16.4583 13.8627 16.25 13.95 16 13.95ZM5.3 21.5C4.8 21.5 4.375 21.325 4.025 20.975C3.675 20.625 3.5 20.2 3.5 19.7V6.3C3.5 5.8 3.675 5.375 4.025 5.025C4.375 4.675 4.8 4.5 5.3 4.5H6.7V3.125C6.7 2.90833 6.77067 2.729 6.912 2.587C7.054 2.44567 7.23333 2.375 7.45 2.375C7.68333 2.375 7.87067 2.45 8.012 2.6C8.154 2.75 8.225 2.93333 8.225 3.15V4.5H15.8V3.1C15.8 2.9 15.875 2.729 16.025 2.587C16.175 2.44567 16.35 2.375 16.55 2.375C16.7667 2.375 16.9457 2.45 17.087 2.6C17.229 2.75 17.3 2.925 17.3 3.125V4.5H18.7C19.2 4.5 19.625 4.675 19.975 5.025C20.325 5.375 20.5 5.8 20.5 6.3V19.7C20.5 20.2 20.325 20.625 19.975 20.975C19.625 21.325 19.2 21.5 18.7 21.5H5.3ZM5.3 20H18.7C18.7833 20 18.8543 19.971 18.913 19.913C18.971 19.8543 19 19.7833 19 19.7V10.3H5V19.7C5 19.7833 5.02933 19.8543 5.088 19.913C5.146 19.971 5.21667 20 5.3 20ZM5 8.8H19V6.3C19 6.21667 18.971 6.146 18.913 6.088C18.8543 6.02933 18.7833 6 18.7 6H5.3C5.21667 6 5.146 6.02933 5.088 6.088C5.02933 6.146 5 6.21667 5 6.3V8.8Z" fill="#272443"/>
</g>
</svg>
