<svg width="24" height="24" viewBox="0 0 24 24" fill="none" xmlns="http://www.w3.org/2000/svg">
<mask id="mask0_287_530" style="mask-type:alpha" maskUnits="userSpaceOnUse" x="0" y="0" width="24" height="24">
<rect width="24" height="24" fill="#D9D9D9"/>
</mask>
<g mask="url(#mask0_287_530)">
<path d="M8.1501 20H15.8501V17C15.8501 15.8833 15.4794 14.9167 14.7381 14.1C13.9961 13.2833 13.0834 12.875 12.0001 12.875C10.9168 12.875 10.0041 13.2833 9.2621 14.1C8.52076 14.9167 8.1501 15.8833 8.1501 17V20ZM12.0001 11.125C13.0834 11.125 13.9961 10.7167 14.7381 9.9C15.4794 9.08333 15.8501 8.11667 15.8501 7V4H8.1501V7C8.1501 8.11667 8.52076 9.08333 9.2621 9.9C10.0041 10.7167 10.9168 11.125 12.0001 11.125ZM18.6501 21.5H5.3501C5.13343 21.5 4.9541 21.4293 4.8121 21.288C4.67076 21.146 4.6001 20.9667 4.6001 20.75C4.6001 20.5333 4.67076 20.354 4.8121 20.212C4.9541 20.0707 5.13343 20 5.3501 20H6.6501V17C6.6501 15.9167 6.92943 14.9167 7.4881 14C8.0461 13.0833 8.80843 12.4167 9.7751 12C8.80843 11.5833 8.0461 10.9167 7.4881 10C6.92943 9.08333 6.6501 8.08333 6.6501 7V4H5.3501C5.13343 4 4.9541 3.929 4.8121 3.787C4.67076 3.64567 4.6001 3.46667 4.6001 3.25C4.6001 3.03333 4.67076 2.854 4.8121 2.712C4.9541 2.57067 5.13343 2.5 5.3501 2.5H18.6501C18.8668 2.5 19.0461 2.57067 19.1881 2.712C19.3294 2.854 19.4001 3.03333 19.4001 3.25C19.4001 3.46667 19.3294 3.64567 19.1881 3.787C19.0461 3.929 18.8668 4 18.6501 4H17.3501V7C17.3501 8.08333 17.0711 9.08333 16.5131 10C15.9544 10.9167 15.1918 11.5833 14.2251 12C15.1918 12.4167 15.9544 13.0833 16.5131 14C17.0711 14.9167 17.3501 15.9167 17.3501 17V20H18.6501C18.8668 20 19.0461 20.0707 19.1881 20.212C19.3294 20.354 19.4001 20.5333 19.4001 20.75C19.4001 20.9667 19.3294 21.146 19.1881 21.288C19.0461 21.4293 18.8668 21.5 18.6501 21.5Z" fill="#272443"/>
</g>
</svg>
